<?xml version="1.0" encoding="utf-8"?>
<!-- Generator: Adobe Illustrator 16.0.0, SVG Export Plug-In . SVG Version: 6.00 Build 0)  -->
<!DOCTYPE svg PUBLIC "-//W3C//DTD SVG 1.1//EN" "http://www.w3.org/Graphics/SVG/1.1/DTD/svg11.dtd">
<svg version="1.1" id="Слой_1" xmlns="http://www.w3.org/2000/svg" xmlns:xlink="http://www.w3.org/1999/xlink" x="0px" y="0px"
	 width="258.232px" height="105.87px" viewBox="0 0 258.232 105.87" enable-background="new 0 0 258.232 105.87"
	 xml:space="preserve">
<title>Ресурс 1</title>
<g id="Слой_2">
	<g id="aboutContent__logo">
		<path fill="#FFFFFF" d="M55.206,88.581H37.322c-0.535-0.001-0.969,0.432-0.97,0.967c0,0.535,0.432,0.969,0.967,0.97
			c0.001,0,0.002,0,0.003,0h17.884c0.535,0.001,0.969-0.432,0.97-0.967c0.001-0.535-0.432-0.97-0.967-0.97
			C55.208,88.581,55.207,88.581,55.206,88.581 M55.206,90.115H37.322c-0.313,0-0.565-0.254-0.565-0.566
			c0-0.313,0.253-0.565,0.565-0.565h17.884c0.313,0,0.566,0.253,0.566,0.565C55.773,89.861,55.52,90.115,55.206,90.115
			C55.207,90.115,55.207,90.115,55.206,90.115"/>
		<path fill="#FFFFFF" d="M37.326,83.843c0-1.016-0.823-1.84-1.839-1.84s-1.84,0.824-1.84,1.84c0,1.016,0.824,1.84,1.84,1.84
			C36.502,85.681,37.324,84.858,37.326,83.843 M35.487,85.28c-0.793,0-1.437-0.644-1.437-1.437s0.643-1.437,1.437-1.437
			s1.437,0.643,1.437,1.437l0,0C36.923,84.636,36.28,85.28,35.487,85.28"/>
		<path fill="#FFFFFF" d="M57.042,82.003c-1.016,0-1.839,0.824-1.839,1.84c0,1.016,0.824,1.84,1.839,1.84
			c1.016,0,1.84-0.824,1.84-1.84C58.879,82.828,58.057,82.006,57.042,82.003 M57.042,85.26c-0.793,0-1.437-0.643-1.437-1.437
			c0-0.794,0.643-1.437,1.437-1.437c0.794,0,1.437,0.643,1.437,1.437l0,0C58.479,84.616,57.835,85.26,57.042,85.26"/>
		<path fill="#FFFFFF" d="M49.858,85.683c1.016,0.004,1.843-0.815,1.848-1.832c0.004-1.016-0.816-1.843-1.832-1.848
			c-1.016-0.004-1.843,0.816-1.848,1.832c0,0.003,0,0.006,0,0.008c0.002,1.015,0.825,1.838,1.84,1.84 M49.866,82.427
			c0.793-0.002,1.438,0.64,1.44,1.433c0.002,0.793-0.639,1.438-1.433,1.441c-0.793,0.002-1.438-0.64-1.44-1.433
			c0-0.008,0-0.016,0-0.024c0.002-0.792,0.644-1.434,1.437-1.437"/>
		<path fill="#FFFFFF" d="M42.674,85.683c1.016,0,1.84-0.824,1.84-1.84c0-1.016-0.824-1.84-1.84-1.84s-1.839,0.824-1.839,1.84
			C40.835,84.859,41.658,85.683,42.674,85.683L42.674,85.683 M42.674,82.427c0.794,0,1.437,0.644,1.437,1.437
			s-0.643,1.437-1.437,1.437c-0.793,0-1.437-0.644-1.437-1.437l0,0C41.238,83.07,41.881,82.427,42.674,82.427"/>
		<path fill="#FFFFFF" d="M22.536,82.842c-3.707-0.002-6.714,3.001-6.716,6.707c-0.002,3.707,3,6.714,6.708,6.716
			c3.707,0.002,6.713-3.001,6.715-6.708c0-0.005,0-0.011,0-0.016c-0.004-3.703-3.004-6.705-6.707-6.711 M22.536,95.675
			c-3.388,0-6.134-2.746-6.134-6.133c0-3.388,2.746-6.134,6.134-6.134c3.387,0,6.133,2.746,6.133,6.134l0,0
			c0.002,3.391-2.743,6.141-6.133,6.146"/>
		<path fill="#FFFFFF" d="M22.536,86.147c-1.879,0-3.403,1.523-3.403,3.402c0,1.879,1.523,3.403,3.403,3.403
			c1.879,0,3.402-1.523,3.402-3.403c0-0.002,0-0.005,0-0.008c-0.002-1.878-1.524-3.4-3.402-3.403 M22.536,92.561
			c-1.668,0-3.02-1.352-3.02-3.02s1.352-3.02,3.02-3.02c1.667,0,3.02,1.352,3.02,3.02C25.554,91.208,24.203,92.559,22.536,92.561"/>
		<path fill="#FFFFFF" d="M76.704,89.541c-0.007-3.707-3.017-6.706-6.724-6.699s-6.706,3.017-6.699,6.724
			c0.006,3.707,3.017,6.706,6.724,6.699C73.709,96.254,76.706,93.246,76.704,89.541 M63.859,89.541
			c0.007-3.388,2.758-6.128,6.146-6.121c3.387,0.006,6.128,2.758,6.121,6.146c-0.006,3.378-2.743,6.114-6.121,6.121
			c-3.392,0.002-6.144-2.746-6.146-6.138C63.859,89.547,63.859,89.544,63.859,89.541"/>
		<path fill="#FFFFFF" d="M73.395,89.541c-0.002-1.879-1.527-3.401-3.407-3.399c-1.879,0.002-3.4,1.528-3.398,3.407
			c0.002,1.878,1.525,3.399,3.403,3.399C71.873,92.946,73.395,91.421,73.395,89.541 M66.973,89.541c0-1.668,1.352-3.02,3.02-3.02
			s3.02,1.352,3.02,3.02s-1.352,3.02-3.02,3.02l0,0C68.326,92.559,66.975,91.208,66.973,89.541"/>
		<path fill="#FFFFFF" d="M65.646,75.894c0,0,0.989,0.098,0.989-2.625h-2.063C64.571,73.269,64.543,75.898,65.646,75.894"/>
		<path fill="#FFFFFF" d="M61.348,75.894c0,0,0.989,0.098,0.989-2.625h-2.063C60.273,73.269,60.245,75.898,61.348,75.894"/>
		<path fill="#FFFFFF" d="M57.054,75.894c0,0,0.985,0.098,0.985-2.625h-2.064C55.975,73.269,55.947,75.898,57.054,75.894"/>
		<path fill="#FFFFFF" d="M52.756,75.894c0,0,0.989,0.098,0.989-2.625h-2.056c0,0-0.028,2.629,1.075,2.625"/>
		<path fill="#FFFFFF" d="M48.458,75.894c0,0,0.989,0.098,0.989-2.625h-2.064C47.383,73.269,47.355,75.898,48.458,75.894"/>
		<path fill="#FFFFFF" d="M44.16,75.894c0,0,0.985,0.098,0.985-2.625h-2.063C43.082,73.269,43.053,75.898,44.16,75.894"/>
		<path fill="#FFFFFF" d="M39.862,75.894c0,0,0.989,0.098,0.989-2.625h-2.063C38.788,73.269,38.755,75.898,39.862,75.894"/>
		<path fill="#FFFFFF" d="M35.165,75.752l0.712,0.028c0.289-0.211,0.671-0.814,0.671-2.511H34.49
			C34.49,73.269,34.49,75.211,35.165,75.752"/>
		<path fill="#FFFFFF" d="M31.014,75.838c0.2-0.037,0.407-0.058,0.603-0.085c0.285-0.232,0.639-0.847,0.639-2.483h-2.063
			c0,0,0,2.198,0.814,2.569"/>
		<path fill="#FFFFFF" d="M26.687,75.821c0.163,0,0.322,0,0.477,0.024c0.289-0.13,0.793-0.631,0.793-2.577h-2.063
			c0,0-0.021,2.153,0.814,2.552"/>
		<path fill="#FFFFFF" d="M22.674,75.894c0,0,0.985,0.098,0.985-2.625h-2.063C21.596,73.269,21.567,75.898,22.674,75.894"/>
		<path fill="#FFFFFF" d="M69.944,75.894c0,0,0.989,0.098,0.989-2.625h-2.063C68.869,73.269,68.836,75.898,69.944,75.894"/>
		<path fill="#FFFFFF" d="M47.282,47.64c-0.54,1.166-0.921,2.397-1.136,3.663c-0.229,1.248-0.289,2.521-0.179,3.785
			c0.097-1.247,0.301-2.483,0.61-3.696c0.31-1.193,0.744-2.352,1.294-3.455c0.548-1.091,1.254-2.095,2.096-2.979
			c0.853-0.898,1.797-1.706,2.816-2.409c-1.232,0.381-2.357,1.048-3.284,1.945c-0.922,0.909-1.672,1.978-2.214,3.154"/>
		<path fill="#FFFFFF" d="M45.992,43.676c1.128-0.683,2.292-1.308,3.484-1.872c1.18-0.594,2.409-1.075,3.643-1.583
			c-1.294,0.319-2.56,0.742-3.785,1.266c-1.228,0.522-2.419,1.123-3.569,1.799c-1.147,0.682-2.253,1.429-3.313,2.239
			c-1.06,0.808-2.054,1.699-2.971,2.666c1.034-0.835,2.095-1.629,3.183-2.381c1.087-0.752,2.19-1.477,3.333-2.133"/>
		<path fill="#FFFFFF" d="M52.271,34.103c-0.479-0.167-1.007-0.129-1.457,0.105c0.464,0.216,0.863,0.338,1.258,0.48l1.221,0.448
			c-0.063-0.256-0.206-0.485-0.407-0.655c-0.189-0.17-0.413-0.298-0.655-0.375"/>
		<path fill="#FFFFFF" d="M51.621,28.62c-0.485,0.077-0.882,0.425-1.022,0.896c0.456-0.158,0.777-0.317,1.144-0.431
			c0.397-0.112,0.808-0.175,1.221-0.187c-0.382-0.282-0.868-0.383-1.331-0.277"/>
		<path fill="#FFFFFF" d="M51.307,23.656c0.159-0.041,0.309-0.094,0.468-0.123c0.157-0.048,0.324-0.048,0.48,0
			c-0.125-0.135-0.3-0.216-0.484-0.224c-0.177-0.021-0.356-0.021-0.533,0c-0.346,0.052-0.684,0.147-1.005,0.285l0.146,0.354
			c0.31-0.098,0.615-0.24,0.928-0.318"/>
		<path fill="#FFFFFF" d="M47.774,23.297l-0.02-0.061c-0.339-0.058-0.682-0.095-1.026-0.11c-0.36-0.022-0.721,0.026-1.062,0.143
			c0.296,0.237,0.663,0.369,1.042,0.374c0.387,0.039,0.773-0.085,1.066-0.342"/>
		<path fill="#FFFFFF" d="M39.243,30.526c0.191-0.067,0.341-0.217,0.407-0.407c-0.152,0.064-0.315,0.099-0.48,0.102
			c-0.153,0.009-0.307,0.009-0.46,0c-0.317-0.021-0.643-0.078-1.017-0.089c0.266,0.252,0.608,0.41,0.973,0.447
			C38.859,30.613,39.059,30.595,39.243,30.526"/>
		<path fill="#FFFFFF" d="M91.108,47.762c-1.841-0.877-3.968-0.928-5.849-0.138c-2.759,1.079-5.169,3.634-6.492,6.846l0,0
			c-0.498-0.103-0.976-0.289-1.412-0.55c1.085-2.01,1.999-4.108,2.731-6.272v0.032c0.621-0.283,1.225-0.604,1.807-0.96
			c0.289-0.175,0.57-0.358,0.842-0.55c0.353,0.23,0.768,0.347,1.188,0.334c0.085,0,0.175,0,0.269,0
			c3.643-0.322,4.172-2.357,4.791-4.713l0.049-0.187c0.378-1.724,1.037-3.374,1.95-4.884l0.387-0.614l-0.721-0.069
			c-1.821-0.168-3.626,0.451-4.961,1.701c-2.035,1.799-3.256,4.766-3.333,7.94v0.085l0.033,0.049
			c-0.647,0.359-1.319,0.672-2.01,0.936c0.88-2.792,1.427-5.679,1.628-8.6c0.389-0.318,0.752-0.667,1.086-1.042
			c0.321-0.369,0.619-0.757,0.892-1.164c0.166,0.087,0.35,0.132,0.537,0.13c0.236-0.004,0.468-0.06,0.68-0.163
			c2.849-1.323,2.922-2.828,2.951-5.035c-0.047-1.588,0.169-3.174,0.639-4.692l0.082-0.245l-0.256,0.041
			c-1.54,0.242-2.902,1.131-3.745,2.442c-1.29,1.888-1.713,4.57-1.156,7.204c-0.319,0.388-0.665,0.754-1.034,1.095
			c-0.2,0.184-0.407,0.358-0.619,0.521c0-0.476,0.024-0.948,0.02-1.424c0-0.272,0-0.545-0.02-0.814l0.053-0.151l-0.057-0.02
			c-0.038-1.023-0.122-2.044-0.252-3.065l0.069,0.029c0.427-1.286,0.814-2.581,1.095-3.896c0.024-0.114,0.049-0.232,0.074-0.35
			c0.244-0.02,0.475-0.118,0.659-0.28c2.206-1.958,2.035-3.208,1.583-5.218c-0.385-1.424-0.534-2.903-0.439-4.375l0.021-0.273
			l-0.252,0.102c-1.344,0.553-2.388,1.653-2.87,3.024c-0.773,2.035-0.557,4.627,0.582,6.919c0.113,0.041,0.23,0.07,0.35,0.085
			c-0.024,0.085-0.049,0.171-0.077,0.256c-0.297,0.9-0.639,1.787-1.001,2.662c-0.35-2-0.913-3.958-1.677-5.84
			c-0.185-0.453-0.38-0.899-0.586-1.339c0.185-0.478,0.339-0.967,0.459-1.465c0.128-0.519,0.225-1.045,0.29-1.575
			c0-0.163,0.032-0.326,0.044-0.489c0.179-0.078,0.343-0.187,0.484-0.321c1.823-1.693,1.327-2.915,0.708-4.539
			c-0.486-1.138-0.782-2.347-0.875-3.582v-0.26l-0.224,0.13c-1.037,0.634-1.771,1.662-2.035,2.849
			c-0.867,3.256,1.372,5.816,1.372,5.816c0.04,0.004,0.079,0.004,0.118,0h0.118c-0.024,0.106-0.041,0.211-0.069,0.317
			c-0.124,0.5-0.277,0.992-0.46,1.473c-0.102,0.269-0.216,0.534-0.338,0.814c-0.804-1.557-1.758-3.032-2.849-4.404
			c0.049-1.015,0.023-2.033-0.077-3.044c0-0.053,0-0.106,0-0.163c0.256-0.153,0.473-0.364,0.635-0.614
			c1.221-2.202,0.362-3.109-0.708-4.498c-0.801-0.96-1.439-2.044-1.889-3.211l-0.089-0.245L73.77,6.451
			c-0.834,0.892-1.046,2.035-1.144,3.362c-0.212,2.78,2.662,4.962,2.983,5.198c-0.03,0.728-0.099,1.453-0.208,2.173
			c-0.588-0.687-1.207-1.343-1.855-1.97c-0.978-0.943-2.016-1.82-3.11-2.625c0.071-0.333,0.071-0.679,0-1.013
			c0-0.053-0.024-0.106-0.036-0.159l0,0c0.3-0.261,0.551-0.574,0.74-0.924c1.221-2.226,0.281-3.113-0.79-4.139l-0.248-0.24
			c-0.792-0.755-1.435-1.65-1.896-2.642l-0.31-0.659l-0.448,0.569c-0.737,0.949-1.033,2.168-0.814,3.35
			c0.256,1.599,1.542,3.386,3.289,4.595c0,0.102,0,0.203,0.021,0.305c0.008,0.197-0.005,0.396-0.041,0.59
			c-0.569-0.407-1.152-0.796-1.746-1.168c-0.013-0.009-0.026-0.018-0.041-0.024c-0.542-0.342-1.096-0.669-1.661-0.981
			c0.047-0.376-0.021-0.758-0.195-1.095c-0.142-0.411-0.33-0.804-0.562-1.172c-0.028-0.041-0.065-0.082-0.094-0.123
			c0.008-0.017,0.015-0.035,0.021-0.053c0.545-1.908-0.342-2.535-1.449-3.365c-0.803-0.559-1.509-1.247-2.088-2.035l-0.15-0.212
			l-0.122,0.232c-0.449,0.868-0.507,1.887-0.159,2.8c0.484,1.375,1.787,2.646,3.362,3.33c0.112-0.084,0.215-0.178,0.309-0.281
			c0.164,0.329,0.292,0.674,0.383,1.03c0.065,0.208,0.085,0.407,0.134,0.623c-0.586-0.313-1.172-0.618-1.767-0.903
			c-0.981-0.46-1.982-0.871-2.991-1.266c0.018-0.111,0.009-0.226-0.024-0.333c-0.041-0.171-0.085-0.342-0.134-0.513
			C60.88,6.54,60.831,6.41,60.778,6.26c0.124-0.301,0.233-0.608,0.326-0.92c0.517-2.214-1.298-2.947-2.275-3.346
			c-0.877-0.345-1.68-0.854-2.365-1.502L55.927,0l-0.2,0.7c-0.288,1.017-0.127,2.108,0.439,3c0.782,1.306,2.495,2.442,4.257,2.804
			h0.085c0.029,0.094,0.069,0.183,0.094,0.277c0.041,0.167,0.082,0.33,0.114,0.497c0,0.045,0,0.085,0.025,0.13
			c-0.644-0.245-1.282-0.489-1.934-0.708c-0.258-0.084-0.521-0.154-0.786-0.212l-0.317-0.284c-1.311-1.185-3.83-3.138-5.967-2.956
			c-1.311,0.083-2.523,0.721-3.333,1.754l-0.448,0.574l0.712,0.138c1.188,0.256,2.327,0.706,3.37,1.331
			c0.658,0.412,1.387,0.699,2.149,0.847c0.619,0,1.909,0,2.748-0.903c0.198-0.137,0.418-0.237,0.651-0.297l0.215-0.065
			c0.316,0.07,0.629,0.157,0.936,0.261c1.185,0.439,2.345,0.932,3.492,1.453h-0.179c-0.511-0.013-1.021,0.033-1.522,0.138
			c-0.134,0.028-0.26,0.073-0.407,0.11h-0.037c-1.688-0.697-3.589-0.677-5.262,0.057c-1.031,0.471-1.813,1.359-2.149,2.442
			l-0.171,0.716l0.712-0.122c1.016-0.16,2.051-0.152,3.065,0.024c0.412,0.063,0.828,0.1,1.245,0.11c0.993,0,1.628-0.269,2.442-1.729
			c0.16-0.377,0.277-0.77,0.351-1.173V8.877c0.097,0,0.199-0.044,0.297-0.057c0.479-0.078,0.964-0.105,1.449-0.082
			c0.241,0.012,0.481,0.037,0.72,0.073c0.169,0.043,0.343,0.059,0.517,0.049c0.212,0.102,0.432,0.191,0.639,0.297
			c1.054,0.542,2.08,1.127,3.085,1.754l0,0c-0.371-0.014-0.742-0.005-1.111,0.029H65.87c-1.666-0.747-3.564-0.785-5.258-0.106
			c-1.047,0.444-1.855,1.315-2.218,2.393l-0.232,0.688l0.72-0.102c1.02-0.126,2.054-0.084,3.061,0.123
			c0.45,0.087,0.906,0.139,1.364,0.155c0.231,0.002,0.462-0.022,0.688-0.074c0.881-0.193,1.614-0.799,1.97-1.628
			c0.14-0.323,0.183-0.679,0.122-1.026c0.304-0.007,0.608,0.001,0.912,0.024c0.211,0,0.407,0.041,0.631,0.069l0.285,0.049
			c1.442,0.943,2.809,1.995,4.091,3.146h-0.09c-0.386-0.065-0.777-0.095-1.168-0.09c-1.486-0.963-3.294-1.298-5.026-0.932
			c-1.107,0.259-2.051,0.977-2.597,1.974l-0.346,0.639h0.729c1.028,0.051,2.042,0.27,3,0.647c0.589,0.247,1.215,0.394,1.852,0.436
			c0.21,0.001,0.419-0.025,0.623-0.077c0.7-0.181,1.316-0.596,1.746-1.176c0.25-0.355,0.357-0.791,0.301-1.221
			c0.274,0.032,0.546,0.081,0.814,0.146c0.22,0.057,0.434,0.125,0.643,0.204l0.179,0.073c0.126,0.122,0.256,0.24,0.378,0.362
			c1.266,1.276,2.408,2.668,3.411,4.159c-0.442-0.208-0.9-0.378-1.372-0.509l-0.037-0.028c-1.379-1.251-3.209-1.886-5.067-1.758
			c-1.155,0.104-2.211,0.697-2.902,1.628l-0.431,0.585l0.716,0.126c1.031,0.199,2.022,0.564,2.935,1.083
			c0.753,0.407,1.42,0.732,2.169,0.732c0.154-0.001,0.308-0.016,0.459-0.045l-0.053-0.281l0.077,0.277
			c0.687-0.063,1.319-0.402,1.75-0.94c0.165-0.292,0.294-0.603,0.387-0.924c0.389,0.171,0.765,0.371,1.124,0.598
			c0.383,0.244,0.748,0.516,1.091,0.814c0.719,1.205,1.344,2.463,1.868,3.765c0.146,0.366,0.281,0.737,0.407,1.107
			c-0.385-0.294-0.793-0.557-1.221-0.786c-0.053-0.028-0.106-0.044-0.159-0.069c-0.955-1.514-2.427-2.629-4.144-3.138
			c-1.23-0.358-2.555-0.171-3.639,0.513l-0.61,0.407l0.627,0.37c1.001,0.617,1.895,1.394,2.646,2.3
			c0.854,0.952,1.604,1.783,2.975,1.783c0.089,0,0.179,0,0.273,0l-0.021-0.285l0.089,0.281c0.442-0.008,0.877-0.108,1.278-0.293
			c0.379-0.232,0.688-0.563,0.895-0.957c0.252,0.191,0.497,0.387,0.733,0.594c0.236,0.208,0.407,0.362,0.582,0.549
			c0.049,0.044,0.094,0.092,0.135,0.143c0.669,2.306,1.055,4.686,1.147,7.086c-0.398-0.147-0.792-0.304-1.18-0.472l0.041-0.065
			c-0.407-2.442-1.722-4.554-3.472-5.698c-0.819-0.55-1.781-0.849-2.768-0.859c-0.393,0-0.784,0.05-1.164,0.147l-0.252,0.065
			l0.171,0.195c0.906,1.087,1.627,2.315,2.137,3.635c0.781,1.815,1.347,3.126,4.172,3.142l0,0c0.258-0.002,0.51-0.072,0.732-0.204
			c0.516,0.304,1.044,0.586,1.587,0.847c0,0.187,0,0.375,0,0.562c-0.002,1.724-0.139,3.446-0.407,5.149
			c-0.316,0.025-0.634,0.016-0.948-0.029c-0.073,0-0.146-0.037-0.22-0.053c-0.375-2.442-1.579-4.604-3.276-5.841
			c-0.898-0.683-1.99-1.061-3.118-1.078c-0.331,0-0.661,0.034-0.985,0.102l-0.256,0.049l0.159,0.204
			c0.89,1.2,1.577,2.538,2.035,3.96c0.712,1.921,0.973,3.545,3.793,3.545h0.171c0.469,0,0.927-0.143,1.314-0.407
			c0.085,0.028,0.167,0.069,0.252,0.09c0.311,0.081,0.628,0.134,0.948,0.158c-0.29,1.739-0.701,3.456-1.233,5.137
			c-0.577,1.751-1.275,3.46-2.088,5.116c-0.281-0.407-0.55-0.814-0.814-1.221c0.993-2.657,0.98-5.522-0.057-7.7
			c-0.676-1.511-1.964-2.661-3.541-3.163l-0.248-0.077l0.044,0.256c0.245,1.675,0.213,3.378-0.093,5.043
			c-0.334,2.324-1.107,3.7,1.693,5.535c0.543,0.256,1.142,0.374,1.742,0.342c0.271,0.581,0.571,1.152,0.899,1.713
			c-1.303,2.546-2.903,4.929-4.766,7.098c-0.211-0.407-0.407-0.781-0.598-1.192c1.522-2.788,1.917-5.979,1.062-8.547
			c-0.525-1.716-1.759-3.126-3.39-3.875l-0.232-0.105v0.26c0.044,1.842-0.216,3.68-0.769,5.438
			c-0.664,2.442-1.445,4.668,1.689,6.512c0.327,0.2,0.696,0.321,1.078,0.354c0.061,0.188,0.114,0.375,0.179,0.558
			c0.139,0.407,0.297,0.782,0.464,1.168c-1.474,1.667-3.125,3.168-4.925,4.477c-1.114,0.808-2.297,1.515-3.537,2.112
			c-0.106-0.348-0.194-0.701-0.265-1.058c2.442-2.108,4.07-4.941,4.294-7.696c0.234-1.955-0.38-3.917-1.689-5.389l-0.175-0.191
			l-0.093,0.244c-0.758,1.873-1.818,3.608-3.138,5.136c-1.734,2.178-3.769,4.29-1.131,7.266c0.436,0.371,0.906,0.699,1.404,0.98
			c0.041,0.326,0.098,0.647,0.163,0.973c-0.723,0.315-1.463,0.587-2.218,0.814h-7.236c0-0.351,0.187-5.385,1.783-9.215
			c0.716-1.795,1.731-3.457,3.003-4.913c0.4-0.431,0.744-0.911,1.022-1.429c0.097-0.199,0.203-0.407,0.309-0.611
			c0.57-1.094,1.278-2.442,1.005-4.55c-0.14-0.768-0.207-1.547-0.2-2.328c0-0.24,0-0.558,0-1.083
			c0.009-0.796,0.075-1.59,0.195-2.377c0.126-0.957,0.22-1.628,0.033-2.104c-0.187-0.477-0.382-0.892-0.452-1.05
			c0-0.598-0.073-3.341-0.488-4.192c-0.28-0.468-0.817-0.718-1.355-0.631c-0.871,0.049-1.974,0.603-2.312,1.535
			c0,0-0.285,0.94-0.473,1.933c-0.134-0.423-0.29-0.838-0.468-1.245c0.146-0.676,0.684-3.586-0.208-6.239
			c0.044-0.607,0.256-4.225-0.896-6.105c0-1.135-0.15-5.462-1.729-5.91c-1.266-0.358-1.575-0.252-2.259,0.321
			c-0.168,0.142-0.324,0.299-0.464,0.468c-0.079-0.833-0.393-1.627-0.908-2.287c-0.339-0.383-0.836-0.587-1.347-0.554
			c-1.127,0.053-1.97,0.838-2.324,2.088c-0.121-0.186-0.284-0.341-0.476-0.452c-0.461-0.29-1.028-0.354-1.542-0.175
			c-0.614,0.236-1.107,0.875-1.465,1.897c-0.496,1.64-0.712,3.351-0.639,5.063v1.079c-0.033,0.146-0.098,0.464-0.146,0.814
			c-0.334-0.684-0.851-1.368-1.628-1.494c-0.469-0.074-0.945,0.077-1.287,0.407c-0.895,0.814-1.221,2.544-1.16,3.826
			c0.035,0.571-0.012,1.144-0.139,1.701c-0.248,1.312-0.362,2.646-0.342,3.98c-0.093,0.326-0.558,1.962-0.448,2.849
			c-0.021,0.997,0.036,1.995,0.167,2.983c0.11,0.627-0.028,2.572-0.143,4.135c-0.081,1.164-0.154,2.165-0.138,2.686
			c0,0.142,0,0.297,0,0.468c0,1.339-0.053,3.83,2.536,9.532l0.057,0.09c0.028,0.041,0.696,1.042,0.57,7.224l-0.09,3.846h-6.821
			c-0.756-0.228-1.498-0.499-2.222-0.814c0.069-0.326,0.122-0.651,0.167-0.973c0.499-0.281,0.969-0.609,1.404-0.98
			c2.633-2.976,0.602-5.087-1.132-7.265c-1.32-1.529-2.38-3.264-3.138-5.136l-0.093-0.244l-0.175,0.191
			c-1.311,1.46-1.938,3.41-1.722,5.36c0.236,2.755,1.836,5.588,4.294,7.696c-0.069,0.358-0.159,0.712-0.264,1.059
			c-1.241-0.597-2.426-1.304-3.541-2.112c-1.8-1.309-3.451-2.81-4.925-4.477c0.167-0.387,0.321-0.773,0.464-1.168
			c0.065-0.183,0.122-0.37,0.179-0.558c0.383-0.033,0.754-0.154,1.083-0.354c3.134-1.843,2.353-4.07,1.685-6.512
			c-0.553-1.758-0.813-3.595-0.769-5.437v-0.261l-0.24,0.106c-1.628,0.763-2.852,2.187-3.362,3.911
			c-0.855,2.556-0.46,5.743,1.062,8.547c-0.187,0.407-0.407,0.814-0.603,1.193c-0.814-0.944-1.571-1.924-2.271-2.939
			c-0.925-1.335-1.761-2.73-2.503-4.176c0.323-0.562,0.623-1.133,0.899-1.713c0.602,0.031,1.201-0.086,1.746-0.342
			c2.8-1.835,2.035-3.215,1.693-5.536c-0.307-1.665-0.337-3.368-0.09-5.042l0.041-0.256l-0.249,0.077
			c-1.575,0.503-2.861,1.653-3.537,3.163c-1.038,2.177-1.05,5.042-0.057,7.701c-0.261,0.407-0.529,0.814-0.814,1.221
			c-0.812-1.646-1.508-3.348-2.084-5.091c-0.549-1.684-0.979-3.404-1.286-5.149c0.32-0.023,0.638-0.077,0.948-0.159
			c0.085-0.02,0.167-0.065,0.252-0.089c0.389,0.264,0.849,0.406,1.319,0.407h0.167c2.821,0,3.085-1.628,3.793-3.545
			c0.456-1.423,1.144-2.761,2.035-3.96l0.159-0.204L19.5,34.058c-0.324-0.068-0.654-0.102-0.985-0.102
			c-1.127,0.019-2.22,0.396-3.118,1.079c-1.697,1.221-2.902,3.407-3.28,5.84c-0.074,0-0.143,0.041-0.22,0.053
			c-0.313,0.044-0.629,0.054-0.944,0.029c-0.269-1.703-0.405-3.425-0.407-5.149c0-0.187,0-0.375,0-0.562
			c0.542-0.271,1.073-0.553,1.591-0.847c0.222,0.131,0.475,0.202,0.733,0.204l0,0c2.825,0,3.386-1.323,4.172-3.142
			c0.505-1.321,1.226-2.549,2.132-3.634l0.171-0.196l-0.215-0.065c-0.38-0.097-0.771-0.146-1.164-0.146
			c-0.985,0.01-1.946,0.309-2.764,0.858c-1.75,1.136-3.048,3.256-3.472,5.698l0.041,0.065c-0.391,0.171-0.784,0.328-1.18,0.472
			c0.092-2.399,0.478-4.779,1.147-7.086c0.041-0.052,0.085-0.099,0.134-0.142c0.184-0.191,0.379-0.375,0.578-0.55
			c0.2-0.175,0.48-0.407,0.733-0.594c0.208,0.395,0.519,0.725,0.899,0.957c0.401,0.185,0.836,0.284,1.278,0.293l0.089-0.281
			l-0.02,0.285c0.094,0,0.187,0,0.272,0c1.376,0,2.121-0.814,2.976-1.783c0.749-0.906,1.641-1.683,2.641-2.299l0.627-0.371
			l-0.611-0.407c-1.077-0.685-2.395-0.877-3.622-0.53c-1.714,0.51-3.185,1.625-4.139,3.139l-0.159,0.069
			c-0.428,0.228-0.836,0.491-1.221,0.786c0.134-0.371,0.265-0.741,0.407-1.107c0.526-1.301,1.15-2.56,1.868-3.765
			c0.343-0.298,0.708-0.57,1.091-0.814c0.361-0.223,0.738-0.419,1.127-0.586c0.098,0.323,0.234,0.634,0.407,0.924
			c0.427,0.523,1.045,0.854,1.718,0.92l0.081-0.277l-0.053,0.281c0.151,0.029,0.305,0.044,0.46,0.045
			c0.753,0,1.416-0.346,2.169-0.733c0.918-0.515,1.915-0.875,2.951-1.066l0.712-0.126l-0.448-0.565
			c-0.691-0.932-1.747-1.524-2.902-1.628c-1.672-0.187-3.569,0.477-5.063,1.767l-0.033,0.028c-0.471,0.129-0.93,0.3-1.372,0.509
			c1.002-1.491,2.143-2.883,3.407-4.16c0.122-0.126,0.252-0.24,0.378-0.362l0.179-0.073c0.212-0.078,0.407-0.147,0.643-0.204
			c0.268-0.066,0.54-0.115,0.814-0.146c-0.058,0.43,0.05,0.867,0.301,1.221c0.434,0.579,1.053,0.991,1.754,1.168
			c0.202,0.052,0.41,0.078,0.619,0.077c0.641-0.042,1.271-0.19,1.864-0.439c0.956-0.375,1.966-0.593,2.992-0.643h0.729l-0.346-0.639
			c-0.542-1.006-1.488-1.732-2.601-1.995c-1.731-0.365-3.537-0.03-5.022,0.932c-0.391-0.005-0.782,0.025-1.168,0.09h-0.09
			c1.29-1.168,2.667-2.234,4.119-3.191l0.285-0.048c0.208-0.029,0.407-0.053,0.631-0.069c0.305-0.023,0.61-0.032,0.916-0.024
			c-0.063,0.347-0.02,0.704,0.122,1.026c0.355,0.83,1.091,1.437,1.974,1.628c0.223,0.051,0.451,0.076,0.68,0.073
			c0.461-0.015,0.919-0.067,1.372-0.155c1.006-0.205,2.039-0.245,3.057-0.118l0.716,0.102l-0.228-0.688
			c-0.364-1.078-1.171-1.949-2.218-2.393c-1.696-0.682-3.596-0.643-5.263,0.105H25.89c-0.371-0.033-0.743-0.043-1.115-0.028l0,0
			c1.001-0.626,2.035-1.221,3.081-1.754c0.211-0.106,0.431-0.195,0.639-0.297c0.174,0.01,0.348-0.006,0.517-0.049
			c0.233-0.021,0.466-0.031,0.7-0.028c0.483-0.023,0.967,0.004,1.445,0.082c0.102,0,0.199,0.04,0.301,0.057v0.037
			c0.073,0.402,0.19,0.795,0.35,1.172c0.781,1.461,1.428,1.73,2.442,1.73c0.417-0.01,0.833-0.047,1.245-0.11
			c1.014-0.176,2.049-0.184,3.065-0.024l0.716,0.122l-0.204-0.692c-0.336-1.082-1.116-1.969-2.145-2.442
			c-1.674-0.734-3.574-0.754-5.263-0.057h-0.037c-0.13-0.037-0.261-0.082-0.407-0.11c-0.496-0.105-1.002-0.153-1.51-0.142h-0.179
			c1.148-0.521,2.312-1.014,3.496-1.453c0.308-0.103,0.62-0.19,0.937-0.261l0.215,0.065c0.233,0.06,0.454,0.16,0.651,0.297
			c0.814,0.863,2.035,0.899,2.707,0.899h0.085c0.749-0.152,1.464-0.438,2.112-0.843c1.041-0.625,2.179-1.075,3.366-1.331
			l0.712-0.142l-0.443-0.574c-0.815-1.034-2.035-1.67-3.35-1.746c-2.141-0.183-4.656,1.774-5.967,2.955l-0.317,0.285
			c-0.26,0.061-0.517,0.134-0.77,0.22c-0.651,0.224-1.29,0.468-1.933,0.708c0-0.041,0-0.085,0.024-0.13
			c0.033-0.167,0.073-0.33,0.114-0.497c0.024-0.094,0.065-0.183,0.094-0.277l0.073-0.008c1.758-0.371,3.472-1.494,4.257-2.805
			c0.567-0.893,0.726-1.986,0.436-3.003L35.816,0l-0.521,0.492c-0.684,0.646-1.485,1.156-2.361,1.502
			c-0.977,0.407-2.792,1.131-2.275,3.346c0.049,0.211,0.248,0.724,0.326,0.92c-0.057,0.15-0.106,0.301-0.151,0.452
			c-0.044,0.15-0.098,0.337-0.138,0.513c-0.034,0.107-0.042,0.222-0.024,0.333c-1.009,0.407-2.011,0.814-2.992,1.266
			c-0.594,0.285-1.184,0.59-1.766,0.903c0.049-0.208,0.069-0.407,0.134-0.623c0.094-0.355,0.223-0.7,0.387-1.03
			c0.095,0.104,0.2,0.198,0.313,0.281c1.571-0.684,2.877-1.958,3.362-3.33c0.346-0.914,0.287-1.932-0.163-2.8l-0.122-0.232
			l-0.15,0.212c-0.58,0.788-1.286,1.475-2.088,2.035c-1.107,0.813-1.999,1.457-1.453,3.365c0.005,0.019,0.012,0.036,0.02,0.053
			l-0.093,0.123c-0.231,0.368-0.42,0.761-0.562,1.172c-0.151,0.341-0.198,0.719-0.135,1.087c-0.569,0.313-1.123,0.643-1.676,0.989
			l-0.037,0.024c-0.594,0.342-1.176,0.749-1.746,1.156c-0.036-0.194-0.051-0.392-0.044-0.59c0-0.102,0-0.204,0.02-0.306
			c1.746-1.221,3.032-2.996,3.289-4.595c0.218-1.182-0.078-2.4-0.814-3.35l-0.447-0.57l-0.301,0.647
			c-0.463,0.997-1.11,1.898-1.905,2.658l-0.244,0.236c-1.071,1.025-1.99,1.913-0.79,4.139c0.189,0.348,0.44,0.658,0.741,0.916l0,0
			c0,0.053-0.029,0.102-0.037,0.155c-0.071,0.334-0.071,0.679,0,1.014c-1.094,0.806-2.134,1.683-3.113,2.625
			c-0.648,0.625-1.266,1.281-1.852,1.97c-0.108-0.72-0.178-1.446-0.208-2.173c0.317-0.232,3.191-2.417,2.979-5.197
			c-0.098-1.311-0.305-2.471-1.144-3.362L17.859,6.24L17.77,6.484c-0.448,1.167-1.086,2.253-1.889,3.211
			c-1.066,1.393-1.909,2.296-0.704,4.498c0.158,0.252,0.375,0.463,0.631,0.614c0,0.057,0,0.11-0.024,0.163
			c-0.098,1.012-0.124,2.029-0.078,3.044c-1.089,1.373-2.043,2.848-2.849,4.404c-0.122-0.261-0.232-0.525-0.334-0.814
			c-0.182-0.481-0.334-0.974-0.456-1.474c-0.029-0.102-0.045-0.212-0.073-0.317h0.118c0.04,0.004,0.079,0.004,0.118,0
			c0,0,2.234-2.573,1.368-5.816c-0.264-1.186-0.998-2.215-2.035-2.849l-0.224-0.13v0.261c-0.093,1.233-0.388,2.444-0.875,3.582
			c-0.619,1.628-1.111,2.849,0.708,4.538c0.143,0.135,0.308,0.244,0.488,0.322c0,0.162,0.024,0.329,0.045,0.488
			c0.063,0.531,0.16,1.057,0.289,1.575c0.119,0.499,0.273,0.988,0.46,1.465c-0.209,0.442-0.405,0.889-0.586,1.339
			c-0.771,1.886-1.338,3.85-1.693,5.856c-0.362-0.875-0.704-1.762-1.001-2.662c-0.028-0.085-0.049-0.171-0.077-0.256
			c0.121-0.015,0.24-0.044,0.354-0.085c1.14-2.304,1.355-4.884,0.582-6.919c-0.483-1.369-1.527-2.468-2.87-3.02l-0.244-0.114v0.272
			c0.095,1.473-0.054,2.951-0.439,4.375c-0.46,2.011-0.623,3.256,1.583,5.218c0.183,0.163,0.415,0.261,0.659,0.281
			c0.024,0.118,0.045,0.232,0.069,0.35C9.091,29.2,9.457,30.5,9.886,31.779l0.085-0.032c-0.136,1.02-0.221,2.042-0.256,3.064
			l-0.057,0.021l0.053,0.146c0,0.273,0,0.55-0.02,0.814c0,0.476,0,0.953,0.02,1.424C9.5,37.05,9.304,36.875,9.088,36.696
			c-0.367-0.337-0.711-0.699-1.03-1.083c0.558-2.633,0.134-5.315-1.16-7.204c-0.842-1.312-2.205-2.2-3.745-2.442l-0.256-0.041
			l0.081,0.244c0.472,1.523,0.689,3.114,0.643,4.709c0.041,2.206,0.085,3.716,2.955,5.035c0.21,0.104,0.441,0.159,0.676,0.163
			c0.187,0.001,0.372-0.043,0.537-0.13c0.271,0.407,0.569,0.796,0.892,1.164c0.334,0.375,0.698,0.724,1.086,1.042
			c0.201,2.92,0.747,5.808,1.628,8.6c-0.691-0.265-1.363-0.578-2.01-0.937l0.032-0.049v-0.085c-0.065-3.175-1.314-6.142-3.333-7.941
			c-1.336-1.25-3.144-1.869-4.966-1.701l-0.712,0.065l0.387,0.614c0.914,1.51,1.572,3.16,1.949,4.884l0.049,0.183
			c0.615,2.356,1.148,4.392,4.791,4.713c0.094,0,0.183,0,0.269,0c0.422,0.013,0.838-0.104,1.193-0.334
			c0.272,0.195,0.553,0.375,0.838,0.55c0.583,0.355,1.187,0.676,1.808,0.96v-0.033c0.73,2.165,1.644,4.263,2.731,6.272
			c-0.437,0.26-0.915,0.446-1.413,0.549l0,0c-1.335-3.207-3.745-5.759-6.496-6.845c-1.88-0.789-4.008-0.738-5.849,0.138L0,48.08
			l0.578,0.443c1.552,1.236,2.891,2.718,3.964,4.388c1.343,1.917,2.442,3.463,5.088,3.463c0.191,0,0.407,0,0.602-0.024
			c0.362-0.029,0.749-0.098,1.156-0.163h0.073c0.645-0.146,1.199-0.557,1.526-1.132h0.105c0.583-0.062,1.152-0.222,1.681-0.476
			c0.537,0.948,1.111,1.88,1.729,2.78c1.257,1.831,2.681,3.541,4.253,5.108c-0.549,0.142-1.106,0.246-1.669,0.313
			c-0.211,0.024-0.407,0.028-0.639,0.037c0.041-0.103,0.075-0.209,0.102-0.317l0.024-0.13l-0.082-0.106
			c-2.141-2.706-5.169-4.477-8.095-4.692c-1.971-0.206-3.936,0.44-5.401,1.774L4.477,59.83l0.68,0.256
			c1.788,0.725,3.445,1.738,4.904,3c1.38,1.083,2.568,2.035,4.208,2.035c1.141,0.045,2.263-0.295,3.187-0.964
			c0.29-0.214,0.538-0.479,0.732-0.782c0.313,0,0.627,0.029,0.944,0c0.758-0.027,1.513-0.12,2.255-0.276
			c0.953,0.897,1.966,1.728,3.032,2.486c1.31,0.934,2.71,1.733,4.18,2.385h-2.035c-2.296-1.628-5.029-2.526-7.843-2.576
			c-2.56,0-4.884,0.867-6.431,2.588h-2.035v4.261h8.547v5.34c-6.629,1.758-10.577,8.557-8.819,15.186
			c1.446,5.452,6.385,9.244,12.026,9.234c0.326,0,0.643-0.024,0.96-0.049v3.916H69.37v-3.924c0.367,0.033,0.733,0.057,1.103,0.057
			c6.858,0.015,12.43-5.532,12.445-12.391c0.012-5.642-3.78-10.583-9.234-12.029v-5.34h8.547V67.97h-2.796
			c-1.551-1.717-3.871-2.589-6.431-2.589c-2.804,0.061-5.525,0.963-7.811,2.589h-2.035c1.466-0.656,2.862-1.458,4.167-2.393
			c1.073-0.764,2.092-1.602,3.049-2.507c0.741,0.157,1.494,0.25,2.25,0.277c0.317,0,0.635,0,0.948,0
			c0.195,0.303,0.443,0.568,0.732,0.781c0.923,0.67,2.044,1.01,3.183,0.965c1.628,0,2.849-0.936,4.22-2.035
			c1.464-1.248,3.122-2.247,4.909-2.958l0.68-0.257l-0.533-0.493c-1.464-1.335-3.43-1.98-5.401-1.774
			c-2.93,0.232-5.955,1.986-8.095,4.693l-0.082,0.106l0.024,0.13c0.026,0.108,0.061,0.214,0.102,0.317c-0.211,0-0.407,0-0.639-0.036
			c-0.563-0.068-1.12-0.173-1.669-0.313c1.575-1.574,2.999-3.29,4.253-5.128c0.619-0.899,1.192-1.828,1.73-2.78
			c0.529,0.253,1.097,0.415,1.681,0.476h0.102c0.348,0.586,0.925,1.001,1.592,1.144c0.407,0.069,0.814,0.138,1.164,0.167
			c0.211,0,0.407,0.024,0.602,0.024c2.666,0,3.749-1.546,5.092-3.468c1.066-1.667,2.4-3.148,3.948-4.383l0.578-0.443L91.108,47.762z
			 M86.065,38.169c1.165-1.091,2.724-1.66,4.318-1.575c-0.885,1.509-1.529,3.147-1.909,4.855l-0.049,0.183
			c-0.606,2.324-1.046,4.005-4.286,4.286c-0.309,0.04-0.623-0.005-0.908-0.13c0.106-0.085,0.22-0.159,0.322-0.245
			c0.532-0.424,1.002-0.921,1.396-1.477c0.404-0.547,0.643-1.198,0.688-1.876c-0.104,0.656-0.395,1.268-0.838,1.762
			c-0.429,0.497-0.926,0.93-1.477,1.286c-0.126,0.085-0.261,0.163-0.407,0.245c0.11-2.935,1.27-5.658,3.13-7.326 M85.312,28.727
			c0.634-0.971,1.587-1.691,2.695-2.035c-0.339,1.364-0.496,2.767-0.464,4.172c-0.008,2.104-0.037,3.325-2.597,4.546
			c-0.136,0.067-0.284,0.105-0.435,0.11c-0.075-0.001-0.148-0.018-0.216-0.049c0.282-0.456,0.531-0.932,0.745-1.424
			c0.243-0.552,0.447-1.121,0.61-1.701c-0.224,0.559-0.485,1.103-0.781,1.628c-0.208,0.367-0.439,0.721-0.692,1.058
			c-0.375-2.316,0.037-4.62,1.16-6.264 M82.292,20.758c0.349-0.975,1.016-1.805,1.892-2.356c-0.003,1.271,0.156,2.538,0.472,3.769
			c0.444,1.958,0.558,2.894-1.396,4.627c-0.037,0.03-0.078,0.055-0.122,0.073c0.057-0.325,0.11-0.651,0.151-0.977
			c0.111-0.666,0.111-1.345,0-2.011c0.053,0.664-0.005,1.333-0.171,1.979c-0.082,0.358-0.175,0.716-0.277,1.074h-0.11
			c-0.96-2.088-1.131-4.388-0.444-6.199 M78.707,14.18c0.188-0.81,0.613-1.545,1.221-2.113c0.158,1.028,0.44,2.033,0.842,2.992
			l0.021,0.053c0.602,1.579,0.936,2.442-0.582,3.858c0,0.021-0.037,0.029-0.057,0.045c0.017-0.659-0.024-1.318-0.122-1.97
			c0.021,0.716-0.027,1.433-0.143,2.141l-0.089,0.041c-0.464-0.647-1.722-2.678-1.086-5.076 M65.153,7.078
			c-0.374-0.414-0.811-0.767-1.294-1.046c0.292,0.293,0.564,0.606,0.814,0.936c0.137,0.173,0.26,0.354,0.371,0.545
			c-0.032,0.056-0.07,0.107-0.114,0.155c-1.23-0.576-2.201-1.593-2.718-2.849c-0.204-0.545-0.244-1.138-0.114-1.706
			c0.521,0.582,1.105,1.103,1.742,1.555L63.9,4.713c0.981,0.737,1.506,1.147,1.262,2.353 M60.55,5.194
			c0,0.065-0.057,0.183-0.106,0.317c-0.135-0.25-0.3-0.483-0.493-0.692c-0.248-0.261-0.579-0.426-0.936-0.468
			c0.321,0.116,0.597,0.33,0.79,0.61c0.203,0.268,0.363,0.564,0.476,0.879c0.001,0.015,0.001,0.03,0,0.045
			c-1.526-0.387-2.963-1.364-3.634-2.479c-0.443-0.696-0.596-1.538-0.427-2.345c0.702,0.627,1.511,1.124,2.389,1.465
			c1.221,0.5,2.304,1.079,1.929,2.678 M55.992,6.309c0.236,0.057,0.48,0.105,0.72,0.146c-0.071,0.043-0.137,0.095-0.195,0.155
			c-0.667,0.716-1.787,0.716-2.287,0.716c-0.678-0.147-1.326-0.412-1.913-0.781c-1.035-0.617-2.157-1.071-3.33-1.348
			c0.713-0.811,1.719-1.306,2.796-1.375c1.73-0.146,3.842,1.38,5.035,2.381c-0.261-0.054-0.521-0.098-0.781-0.139
			c-0.933-0.125-1.853-0.328-2.751-0.606c0.865,0.393,1.775,0.676,2.71,0.842 M59.423,9.801c-0.655,1.221-1.103,1.424-1.917,1.424
			c-0.391-0.012-0.781-0.047-1.168-0.106c-0.59-0.091-1.186-0.141-1.783-0.15c-0.417,0-0.833,0.031-1.245,0.094
			c0.32-0.847,0.96-1.534,1.783-1.913c1.315-0.582,2.798-0.667,4.171-0.24c-0.511,0.234-0.987,0.54-1.412,0.908
			c0.421-0.257,0.865-0.474,1.327-0.647c0.151-0.061,0.306-0.102,0.456-0.15h0.028c-0.053,0.264-0.133,0.521-0.24,0.769
			 M65.401,12.088c-0.279,0.671-0.871,1.162-1.583,1.311c-0.61,0.088-1.232,0.06-1.832-0.085c-0.671-0.125-1.352-0.193-2.035-0.204
			c-0.328,0-0.655,0.019-0.98,0.057c0.346-0.836,1.006-1.503,1.839-1.856c1.26-0.514,2.66-0.576,3.96-0.175
			c-0.135,0.041-0.273,0.078-0.407,0.134c-0.41,0.176-0.781,0.432-1.091,0.753c0.642-0.401,1.374-0.633,2.128-0.676l0.074,0.029
			c0.05,0.241,0.026,0.492-0.069,0.72 M70.094,10.468c-0.22-0.692-0.479-1.371-0.773-2.035c0.188,0.676,0.34,1.363,0.456,2.055
			c-1.404-1.103-2.414-2.576-2.625-3.899c-0.178-0.952,0.029-1.935,0.574-2.735c0.481,0.993,1.135,1.892,1.929,2.658l0.248,0.24
			c1.046,1.001,1.677,1.608,0.68,3.451c-0.111,0.206-0.248,0.396-0.407,0.566c-0.024-0.09-0.049-0.18-0.077-0.269 M70.265,15.731
			c-0.354,0.475-0.862,0.813-1.437,0.957c-0.659,0.167-1.315-0.057-2.149-0.346c-0.944-0.367-1.937-0.59-2.947-0.663
			c0.486-0.765,1.254-1.307,2.137-1.51c1.285-0.281,2.627-0.121,3.81,0.456c-0.197,0.031-0.393,0.071-0.586,0.122
			c-0.45,0.127-0.886,0.299-1.303,0.513c0.731-0.27,1.501-0.419,2.279-0.444c0.13,0.069,0.261,0.134,0.387,0.211
			c0.017,0.244-0.049,0.486-0.187,0.688 M75.703,13.431c-0.105-0.512-0.328-0.993-0.651-1.404c0.26,0.439,0.414,0.935,0.448,1.445
			c0.032,0.261,0.049,0.521,0.057,0.786c-0.786-0.659-2.564-2.394-2.41-4.42c0.013-0.846,0.21-1.68,0.578-2.442
			c0.45,0.954,1.016,1.85,1.685,2.666l0.151,0.191c0.985,1.27,1.477,1.909,0.509,3.663c-0.058,0.092-0.131,0.173-0.216,0.24
			c-0.041-0.244-0.094-0.488-0.155-0.724 M74.238,20.309c-0.346,0.416-0.845,0.672-1.384,0.712h-0.029
			c-0.749,0.143-1.416-0.199-2.259-0.635c-0.903-0.509-1.877-0.879-2.89-1.099c0.6-0.702,1.453-1.141,2.373-1.221
			c1.356-0.099,2.706,0.267,3.826,1.038c-0.118,0-0.236-0.024-0.358-0.02c-0.509,0.017-1.009,0.139-1.469,0.358
			c0.749-0.24,1.555-0.24,2.304,0c0.061,0.049,0.122,0.085,0.175,0.134c-0.074,0.251-0.172,0.496-0.292,0.729 M77.433,26.565
			c-0.334,0.149-0.696,0.228-1.062,0.232h-0.069c-1.258,0.098-1.901-0.606-2.776-1.583c-0.745-0.894-1.62-1.668-2.597-2.3
			c0.911-0.506,1.985-0.63,2.987-0.346c1.296,0.375,2.444,1.143,3.285,2.198c-0.155-0.044-0.31-0.098-0.464-0.134
			c-0.559-0.108-1.13-0.122-1.693-0.041c0.544,0.069,1.077,0.206,1.587,0.407c0.399,0.166,0.786,0.362,1.156,0.586
			c0.082,0.123,0.163,0.245,0.232,0.375c-0.143,0.248-0.344,0.458-0.586,0.61 M77.331,32.723c0.421,0.42,0.882,0.799,1.375,1.131
			c0.077,0.053,0.167,0.098,0.244,0.146c-0.033,0.002-0.065,0.002-0.098,0c-2.442,0-2.849-0.997-3.639-2.792
			c-0.449-1.145-1.044-2.227-1.771-3.219c0.118,0,0.236,0,0.354,0c0.872,0.012,1.72,0.278,2.442,0.765
			c1.542,1.005,2.707,2.849,3.154,4.998c-0.163-0.082-0.338-0.147-0.501-0.232c-0.51-0.268-0.994-0.584-1.445-0.944
			c-0.468-0.34-0.799-0.837-0.932-1.4C76.595,31.773,76.884,32.322,77.331,32.723 M76.493,38.69c0.118,0.26,0.254,0.512,0.407,0.753
			c0.319,0.495,0.726,0.929,1.201,1.278c0.21,0.155,0.433,0.292,0.667,0.407c-0.201,0.075-0.413,0.114-0.626,0.118h-0.155
			c-2.137,0-2.479-0.977-3.048-2.601c-0.065-0.187-0.133-0.377-0.204-0.57c-0.415-1.249-0.993-2.438-1.718-3.537h0.204
			c1.006,0.016,1.981,0.356,2.78,0.969c1.522,1.111,2.617,3.032,3.012,5.221c-0.243-0.082-0.478-0.188-0.7-0.317
			c-0.48-0.278-0.907-0.641-1.258-1.07c-0.174-0.215-0.335-0.441-0.48-0.676c-0.146-0.245-0.264-0.501-0.407-0.753
			c0.105,0.265,0.199,0.538,0.317,0.814 M75.849,49.618c-0.295-0.546-0.546-1.115-0.749-1.702c-0.228-0.582-0.318-1.208-0.265-1.832
			c-0.118,0.625-0.091,1.268,0.077,1.88c0.146,0.619,0.343,1.224,0.586,1.811c0.077,0.2,0.179,0.407,0.269,0.582
			c-0.4,0.008-0.796-0.074-1.16-0.24c-2.08-1.363-1.921-2.246-1.6-4.009c0.057-0.305,0.114-0.626,0.163-0.968
			c0.265-1.488,0.328-3.005,0.187-4.51c1.134,0.545,2.04,1.473,2.556,2.621c0.916,1.917,0.973,4.417,0.195,6.801
			c-0.085-0.146-0.183-0.293-0.261-0.443 M71.059,57.343c-0.406-1.106-0.68-2.256-0.814-3.427c0.011,1.192,0.164,2.38,0.456,3.537
			c0.045,0.188,0.098,0.375,0.146,0.558c-0.214-0.049-0.418-0.131-0.606-0.245c-2.609-1.534-2.153-3.211-1.518-5.527l0.094-0.338
			c0.494-1.583,0.768-3.226,0.814-4.884c1.188,0.74,2.069,1.883,2.483,3.219c0.761,2.28,0.452,5.104-0.814,7.648
			c-0.074-0.179-0.159-0.35-0.224-0.529 M19.667,50.184c0.413-1.337,1.295-2.48,2.482-3.22c0.046,1.658,0.32,3.301,0.814,4.884
			l0.093,0.338c0.635,2.316,1.095,3.993-1.514,5.527c-0.189,0.113-0.396,0.195-0.611,0.244c0.053-0.187,0.106-0.37,0.155-0.557
			c0.289-1.157,0.44-2.345,0.452-3.537c-0.136,1.17-0.41,2.321-0.814,3.427c-0.065,0.179-0.15,0.354-0.22,0.529
			c-1.262-2.543-1.575-5.368-0.814-7.647 M15.861,43.212c0.517-1.149,1.424-2.077,2.56-2.622c-0.142,1.505-0.079,3.022,0.188,4.51
			c0.049,0.342,0.105,0.663,0.163,0.969c0.317,1.758,0.48,2.641-1.6,4.009c-0.364,0.166-0.76,0.248-1.16,0.24
			c0.085-0.195,0.187-0.387,0.269-0.582c0.245-0.586,0.44-1.192,0.586-1.811c0.172-0.612,0.199-1.256,0.077-1.88
			c0.057,0.623-0.032,1.25-0.26,1.832c-0.203,0.586-0.453,1.156-0.749,1.701c-0.077,0.15-0.179,0.297-0.26,0.443
			c-0.782-2.385-0.72-4.884,0.195-6.801 M15.78,35.487c0.798-0.613,1.773-0.953,2.78-0.968h0.163
			c-0.725,1.099-1.302,2.288-1.718,3.537l-0.203,0.57c-0.57,1.628-0.916,2.601-3.048,2.601h-0.159
			c-0.212-0.004-0.423-0.044-0.623-0.118c0.234-0.115,0.458-0.251,0.667-0.407c0.475-0.35,0.881-0.783,1.201-1.278
			c0.152-0.242,0.289-0.493,0.407-0.753c0.118-0.26,0.211-0.533,0.317-0.814c-0.134,0.252-0.256,0.509-0.407,0.753
			c-0.149,0.239-0.315,0.467-0.497,0.684c-0.337,0.443-0.754,0.82-1.229,1.111c-0.221,0.129-0.454,0.235-0.696,0.317
			c0.407-2.189,1.485-4.115,3.008-5.222 M15.507,28.763c0.722-0.487,1.571-0.753,2.442-0.765c0.118,0,0.236,0,0.354,0
			c-0.728,0.992-1.324,2.074-1.775,3.219c-0.773,1.791-1.201,2.775-3.639,2.792c-0.032,0.002-0.065,0.002-0.098,0
			c0.082-0.049,0.163-0.094,0.244-0.146c0.494-0.333,0.955-0.711,1.376-1.131c0.448-0.401,0.737-0.95,0.814-1.547
			c-0.131,0.567-0.463,1.068-0.936,1.408c-0.451,0.36-0.935,0.676-1.445,0.944c-0.163,0.085-0.334,0.15-0.5,0.232
			c0.447-2.141,1.628-3.993,3.154-4.998 M13.973,25.596c0.368-0.224,0.753-0.42,1.152-0.585c0.51-0.201,1.043-0.338,1.587-0.407
			c-0.563-0.082-1.135-0.067-1.693,0.041c-0.155,0.037-0.31,0.085-0.464,0.134c0.842-1.056,1.991-1.824,3.289-2.198
			c1.002-0.285,2.077-0.16,2.987,0.346c-0.974,0.634-1.847,1.412-2.589,2.308c-0.875,0.973-1.51,1.681-2.775,1.583h-0.069
			c-0.366-0.003-0.728-0.083-1.062-0.232c-0.242-0.153-0.443-0.363-0.586-0.611c0.073-0.126,0.155-0.248,0.232-0.374 M17.416,19.459
			c0.75-0.241,1.558-0.241,2.308,0c-0.46-0.22-0.96-0.342-1.469-0.358c-0.118,0-0.236,0-0.358,0.021
			c1.12-0.771,2.47-1.137,3.826-1.038c0.92,0.081,1.772,0.52,2.373,1.221c-1.013,0.219-1.987,0.589-2.89,1.099
			c-0.855,0.423-1.498,0.761-2.259,0.626h-0.028c-0.54-0.039-1.042-0.296-1.388-0.712c-0.121-0.232-0.219-0.477-0.293-0.729
			l0.175-0.134 M21.689,14.82c0.778,0.024,1.548,0.173,2.279,0.443c-0.417-0.214-0.853-0.386-1.303-0.513
			c-0.193-0.051-0.389-0.092-0.586-0.123c1.185-0.577,2.53-0.737,3.817-0.456c0.883,0.205,1.649,0.749,2.133,1.514
			c-1.014,0.073-2.012,0.298-2.959,0.667c-0.814,0.285-1.477,0.517-2.141,0.346c-0.577-0.149-1.084-0.493-1.437-0.973
			c-0.139-0.201-0.207-0.443-0.191-0.688c0.126-0.078,0.256-0.147,0.387-0.212 M26.28,11.396l0.073-0.028
			c0.757,0.035,1.492,0.262,2.137,0.659c-0.308-0.321-0.677-0.578-1.086-0.753c-0.134-0.053-0.273-0.09-0.407-0.134
			c1.301-0.401,2.7-0.339,3.96,0.175c0.832,0.354,1.493,1.021,1.839,1.856c-1.01-0.101-2.029-0.05-3.024,0.151
			c-0.597,0.144-1.216,0.173-1.823,0.085l0,0c-0.712-0.149-1.304-0.639-1.583-1.31C26.269,11.877,26.239,11.633,26.28,11.396
			 M32.117,9.04c0.15,0.049,0.31,0.089,0.456,0.151c0.464,0.172,0.91,0.389,1.331,0.647c-0.424-0.37-0.9-0.675-1.412-0.908
			c1.374-0.427,2.856-0.342,4.172,0.24c0.822,0.379,1.462,1.066,1.783,1.913c-1.008-0.133-2.03-0.114-3.032,0.057
			c-0.387,0.059-0.777,0.094-1.168,0.106c-0.814,0-1.258-0.2-1.913-1.425c-0.107-0.247-0.188-0.505-0.24-0.769h0.028 M39.972,3.834
			c1.08,0.068,2.087,0.563,2.8,1.375c-1.172,0.277-2.294,0.731-3.329,1.347c-0.577,0.36-1.209,0.62-1.872,0.77
			c-0.537,0-1.657,0-2.328-0.721c-0.057-0.06-0.121-0.112-0.191-0.155c0.24-0.041,0.48-0.093,0.72-0.146
			c0.935-0.167,1.846-0.45,2.711-0.843c-0.899,0.278-1.819,0.48-2.751,0.606C35.47,6.109,35.206,6.15,34.95,6.207
			C36.13,5.214,38.258,3.684,39.972,3.834 M33.15,2.528c0.875-0.342,1.682-0.838,2.381-1.465c0.168,0.808,0.015,1.649-0.427,2.345
			c-0.671,1.119-2.112,2.096-3.634,2.479V5.841c0.113-0.315,0.273-0.612,0.476-0.879c0.193-0.281,0.469-0.494,0.79-0.61
			c-0.358,0.047-0.688,0.219-0.932,0.484c-0.182,0.211-0.337,0.444-0.464,0.692c-0.04-0.104-0.073-0.21-0.102-0.318
			c-0.375-1.599,0.696-2.177,1.929-2.678 M27.876,4.73l0.061-0.045c0.636-0.452,1.22-0.974,1.742-1.555
			c0.129,0.567,0.09,1.16-0.114,1.705c-0.519,1.256-1.489,2.272-2.719,2.849c-0.044-0.047-0.083-0.099-0.114-0.154
			c0.109-0.19,0.231-0.373,0.367-0.545c0.25-0.331,0.521-0.643,0.814-0.937c-0.484,0.279-0.92,0.632-1.294,1.046
			c-0.244-1.221,0.281-1.628,1.262-2.353 M21.164,10.176c-0.993-1.844-0.362-2.442,0.684-3.452l0.248-0.24
			c0.786-0.749,1.435-1.628,1.917-2.601c0.545,0.8,0.751,1.783,0.574,2.735c-0.212,1.323-1.221,2.796-2.625,3.899
			c0.115-0.693,0.267-1.379,0.456-2.055c-0.294,0.664-0.552,1.343-0.773,2.035l-0.073,0.269
			C21.41,10.588,21.273,10.389,21.164,10.176 M15.698,13.92c-0.969-1.771-0.472-2.406,0.513-3.663l0.146-0.192
			c0.669-0.816,1.235-1.711,1.685-2.666c0.368,0.762,0.565,1.596,0.578,2.442c0.154,2.035-1.628,3.757-2.406,4.42
			c0-0.265,0.024-0.525,0.057-0.786c0.036-0.509,0.189-1.004,0.448-1.445c-0.322,0.411-0.544,0.89-0.651,1.4
			c-0.061,0.24-0.11,0.484-0.154,0.725c-0.084-0.068-0.158-0.149-0.216-0.241 M11.966,19.247l-0.089-0.041
			c-0.116-0.708-0.166-1.424-0.146-2.141c-0.097,0.652-0.138,1.311-0.122,1.97c0,0-0.037-0.024-0.057-0.044
			c-1.514-1.408-1.18-2.279-0.582-3.858l0.021-0.073c0.405-0.966,0.688-1.979,0.842-3.016c0.608,0.567,1.034,1.302,1.221,2.113
			c0.639,2.393-0.619,4.428-1.083,5.075 M8.917,26.936c-0.102-0.354-0.195-0.712-0.277-1.074c-0.167-0.646-0.224-1.314-0.171-1.979
			c-0.112,0.666-0.112,1.345,0,2.011c0.043,0.329,0.094,0.654,0.151,0.977c-0.044-0.018-0.086-0.042-0.123-0.073
			c-1.986-1.733-1.864-2.674-1.416-4.627c0.328-1.239,0.493-2.516,0.492-3.797c0.877,0.551,1.543,1.381,1.893,2.356
			c0.708,1.812,0.521,4.099-0.439,6.199H8.921 M7.583,35.003c-0.251-0.338-0.481-0.691-0.688-1.059
			c-0.297-0.524-0.559-1.068-0.781-1.628c0.164,0.58,0.367,1.148,0.606,1.702c0.214,0.492,0.463,0.968,0.745,1.424
			c-0.069,0.031-0.144,0.048-0.22,0.049c-0.146,0.002-0.292-0.025-0.427-0.082c-2.577-1.188-2.593-2.442-2.617-4.521
			c0.032-1.411-0.124-2.819-0.464-4.188c1.106,0.345,2.058,1.064,2.69,2.035c1.123,1.628,1.534,3.944,1.16,6.264 M6.805,44.063
			c0.394,0.555,0.864,1.053,1.396,1.477c0.106,0.085,0.216,0.163,0.321,0.245c-0.285,0.124-0.599,0.169-0.907,0.13
			c-3.256-0.285-3.663-1.961-4.286-4.286L3.28,41.446c-0.378-1.707-1.022-3.344-1.909-4.852c1.596-0.084,3.158,0.484,4.327,1.575
			c1.856,1.656,3.016,4.375,3.13,7.326c-0.13-0.082-0.265-0.159-0.407-0.245c-0.547-0.359-1.041-0.795-1.465-1.294
			c-0.449-0.495-0.745-1.11-0.851-1.771c0.045,0.679,0.284,1.33,0.688,1.877 M8.612,53.224C8.85,53.46,9.1,53.683,9.361,53.892
			c0.516,0.419,1.103,0.742,1.733,0.952c0.384,0.123,0.782,0.194,1.185,0.211c-0.225,0.284-0.541,0.482-0.896,0.558h-0.069
			c-0.407,0.069-0.769,0.13-1.107,0.159c-2.792,0.219-3.789-1.221-5.177-3.199c-1.069-1.658-2.392-3.139-3.919-4.388
			c1.658-0.721,3.539-0.732,5.206-0.033c2.572,1.006,4.831,3.383,6.105,6.386c-0.409,0.035-0.82,0.008-1.221-0.078
			c-0.622-0.137-1.213-0.387-1.746-0.736c-0.272-0.163-0.504-0.383-0.765-0.574l-0.688-0.68L8.612,53.224z M17.786,62.85
			c-0.366,0-0.737,0-1.099-0.041c-0.798-0.074-1.582-0.254-2.332-0.537c-0.756-0.299-1.463-0.71-2.096-1.221
			c0.604,0.563,1.29,1.031,2.035,1.388c0.75,0.354,1.544,0.604,2.361,0.745c0.285,0.048,0.57,0.073,0.858,0.102
			c-0.121,0.137-0.257,0.26-0.407,0.366c-0.825,0.6-1.83,0.9-2.849,0.851c-1.44,0-2.503-0.834-3.862-1.901
			c-1.462-1.242-3.11-2.246-4.884-2.975c1.333-1.133,3.071-1.67,4.811-1.485c2.731,0.216,5.56,1.844,7.599,4.363
			c-0.043,0.118-0.095,0.232-0.155,0.342 M62.313,63.546c-0.067,0.641-0.08,1.287-0.037,1.93c-0.317-0.188-0.617-0.402-0.896-0.643
			c-2.035-2.313-1.018-3.834,0.814-6.105l0.326-0.407c1.215-1.399,2.228-2.963,3.008-4.644c0.908,1.276,1.315,2.842,1.144,4.399
			c-0.211,2.507-1.628,5.092-3.83,7.078c-0.074-0.523-0.109-1.051-0.105-1.579c0.01-0.664,0.102-1.324,0.272-1.966
			c0.18-0.649,0.455-1.267,0.814-1.836c-0.416,0.54-0.75,1.138-0.993,1.775c-0.239,0.644-0.397,1.315-0.473,1.998 M35.935,47.298
			c0-0.183,0-0.346,0-0.5c0-0.484,0.061-1.518,0.138-2.613c0.136-1.371,0.186-2.75,0.151-4.126c0.186-0.25,0.393-0.485,0.619-0.7
			c0.304-0.311,0.682-0.539,1.099-0.664v-0.028c-0.445,0.071-0.865,0.253-1.221,0.529c-0.189,0.137-0.37,0.283-0.542,0.44
			c-0.095-0.884-0.136-1.773-0.122-2.662c-0.089-0.732,0.285-2.166,0.431-2.658v-0.11c-0.027-1.308,0.083-2.614,0.326-3.899
			c0.139-0.618,0.19-1.252,0.15-1.884c-0.073-1.332,0.31-2.678,0.904-3.212c0.17-0.172,0.412-0.252,0.651-0.215
			c0.867,0.143,1.367,1.709,1.498,2.361c0,0.297-0.11,1.884-0.195,3.003c-0.057,0.456-0.114,0.847-0.159,1.087
			c-0.082,0.661-0.107,1.329-0.078,1.994c-0.348-0.049-0.703-0.001-1.025,0.139c-0.361,0.151-0.698,0.357-0.997,0.61
			c0.33-0.205,0.689-0.356,1.066-0.448c0.321-0.089,0.662-0.072,0.973,0.049c0,0.118,0,0.24,0,0.358
			c0.049,0.882,0.027,1.767-0.065,2.646l-0.375,1.673l1.05-1.351c0.472-0.606,0.326-2.564,0.273-3.109
			c0-1.868,0.102-3.439,0.105-3.59c0.191-1.461,0.407-3.52,0.407-3.634v-0.057v-0.057c-0.002-0.549,0.065-1.096,0.2-1.628
			l0.02-1.221c0-0.024-0.134-2.703,0.599-4.791c0.276-0.79,0.626-1.282,1.018-1.433c0.304-0.094,0.635-0.044,0.899,0.134
			c0.244,0.13,0.443,0.627,0.594,0.989l0.191,0.443c0.062,0.637,0.081,1.278,0.057,1.917c-0.029,0.739-0.12,1.474-0.272,2.198
			c-0.119,0.045-0.24,0.083-0.362,0.114c-0.196,0.043-0.395,0.072-0.594,0.085c-0.208,0.024-0.407,0.032-0.627,0.045l-0.651,0.037
			c0.402,0.194,0.84,0.303,1.286,0.321c0.327,0.02,0.654-0.029,0.96-0.143c0.037,0.77,0.078,1.535,0.078,2.292
			c0,0.436,0,0.871-0.049,1.294c-0.015,0.208-0.041,0.417-0.078,0.623c0,0.102-0.037,0.199-0.065,0.293
			c-0.017,0.063-0.037,0.124-0.061,0.184c-0.148,0.129-0.304,0.249-0.468,0.358c-0.21,0.112-0.441,0.178-0.68,0.191
			c-0.253,0.018-0.507,0.004-0.757-0.041c-0.256-0.045-0.513-0.094-0.769-0.163c0.231,0.136,0.474,0.252,0.724,0.35
			c0.263,0.092,0.537,0.15,0.814,0.175c0.292,0.03,0.586-0.005,0.862-0.102c0.117-0.044,0.227-0.104,0.326-0.179
			c0.06,0.15,0.111,0.304,0.155,0.46c0.057,0.233,0.084,0.472,0.082,0.712c-0.013,0.516-0.071,1.029-0.175,1.534
			c-0.117,0.537-0.203,1.081-0.256,1.628c-0.036,0.279-0.05,0.562-0.041,0.843c0.011,0.156,0.042,0.311,0.089,0.46
			c0.019,0.052,0.042,0.102,0.069,0.15c-0.396,0.239-0.729,0.568-0.973,0.96c0.462-0.18,0.913-0.387,1.351-0.619l0.061,0.024v-0.057
			l0.146-0.069c0.485-0.267,1.026-0.419,1.579-0.444c-0.267-0.166-0.582-0.237-0.896-0.203c-0.248,0.015-0.491,0.071-0.72,0.167
			c-0.01-0.025-0.018-0.051-0.024-0.077c-0.025-0.108-0.04-0.219-0.045-0.33c-0.008-0.25,0.002-0.501,0.033-0.75
			c0.053-0.517,0.175-1.009,0.269-1.558c0.101-0.548,0.153-1.104,0.155-1.661c-0.002-0.296-0.044-0.591-0.126-0.875
			c-0.078-0.244-0.179-0.447-0.261-0.639c0.049-0.081,0.069-0.15,0.106-0.231c0.045-0.114,0.083-0.231,0.114-0.35
			c0.056-0.228,0.099-0.459,0.13-0.692c0.049-0.454,0.07-0.911,0.065-1.368c-0.012-0.891-0.085-1.781-0.22-2.662
			c0.159-0.744,0.254-1.499,0.285-2.259c0-0.439,0-0.879,0-1.318v-0.973c0.024-1.176,0.505-2.572,1.774-2.629
			c0.285-0.017,0.563,0.097,0.753,0.31c0.603,0.643,0.814,2.104,0.851,3.439c-0.036,0.435-0.036,0.872,0,1.306
			c0,0.383-0.041,0.712-0.069,0.957v0.109l0.049,0.098c0.067,0.143,0.124,0.29,0.171,0.44c0.032,0.305,0.069,0.631,0.106,0.973
			c0,0,0.057,1.571,0.175,3.663c0,0.094,0,0.167,0,0.22l-0.301-0.102c-0.157,0.155-0.354,0.262-0.57,0.31
			c-0.267,0.081-0.539,0.144-0.814,0.188c-0.549,0.114-1.115,0.179-1.689,0.305c0.57,0.131,1.158,0.178,1.742,0.138
			c0.301-0.021,0.599-0.077,0.888-0.163c0.293-0.078,0.547-0.262,0.712-0.517V27.9c0.09,0.912,0.132,1.827,0.126,2.744L49.007,33.9
			c-0.291-0.027-0.584,0.012-0.859,0.114c0.324,0.14,0.659,0.251,1.001,0.334l0,0v0.049c0.061,1.257-0.725,2.413-1.628,3.337
			c-0.933,0.927-1.958,1.757-3.061,2.475c-1.108,0.729-2.253,1.398-3.431,2.006c-1.164,0.623-2.365,1.213-3.586,1.742
			c2.507-0.914,4.919-2.071,7.2-3.456c1.158-0.683,2.229-1.502,3.19-2.442c0.479-0.485,0.89-1.032,1.221-1.628
			c0.337-0.592,0.497-1.269,0.46-1.949l0.139,0.037c0.172,0.031,0.339,0.09,0.492,0.175c-0.025-0.213-0.148-0.401-0.333-0.509
			l-0.061-0.029c0-0.183,0.061-1.873,0.049-3.565V29.37c-0.045-0.639-0.082-1.258-0.114-1.832c0.061-0.92,0.159-3.232-0.293-4.799
			c-0.061-0.586-0.106-1.086-0.126-1.518c0-0.346,0-0.753,0-1.188c0.021-0.636,0.318-1.23,0.814-1.628
			c0.484-0.407,0.549-0.46,1.555-0.171c0.72,0.204,1.168,2.902,1.176,5.291v0.082l0.065,0.098c1.16,1.762,0.814,5.759,0.814,5.804
			v0.082l0.024,0.077c0.957,2.759,0.191,5.991,0.184,6.02l-0.037,0.146l0.073,0.13c0.354,0.626,1.221,3.635,1.526,4.791
			c-0.153,0.132-0.29,0.283-0.407,0.447c-0.177,0.256-0.308,0.542-0.387,0.843c-0.07,0.298-0.107,0.602-0.11,0.908
			c0,0.236,0,0.472,0,0.708c-0.109,0.049-0.21,0.114-0.301,0.191c-0.129,0.12-0.241,0.257-0.334,0.407
			c-0.184,0.271-0.308,0.58-0.362,0.903c0.163-0.257,0.369-0.485,0.61-0.672c0.113-0.087,0.234-0.163,0.362-0.228l0.346-0.183
			l0.204-0.106l-0.033-0.167c-0.073-0.265-0.107-0.539-0.102-0.814c0.02-0.276,0.073-0.55,0.159-0.814
			c0.083-0.253,0.192-0.498,0.326-0.729c0.071-0.111,0.15-0.217,0.236-0.317c0.666-0.611,1.468-1.053,2.34-1.29
			c-0.483,0.045-0.955,0.171-1.396,0.374c-0.15,0.065-0.297,0.143-0.444,0.216l-0.407-1.628c-0.183-0.732,0.432-3.134,0.562-3.504
			c0.215-0.59,1.013-0.993,1.628-1.025c0.248,0,0.541,0.029,0.623,0.204c0.272,0.562,0.407,2.718,0.407,3.948l0.037,0.163
			c0,0,0.204,0.427,0.472,1.083c0.11,0.269,0,1.001-0.081,1.713c-0.127,0.821-0.195,1.651-0.204,2.483c0,0.517,0,0.814,0,1.062
			c-0.008,0.819,0.062,1.636,0.208,2.442c0.24,1.856-0.354,2.996-0.928,4.099c-0.11,0.216-0.22,0.407-0.322,0.635
			c-0.253,0.457-0.56,0.88-0.916,1.262c-1.322,1.516-2.379,3.244-3.126,5.112c-1.681,4.045-1.832,9.19-1.835,9.508h-13.26
			l0.069-3.834c0.118-5.836-0.448-7.326-0.712-7.689c-2.499-5.515-2.467-7.888-2.442-9.166 M25.096,58.075
			c-0.168-1.557,0.24-3.123,1.147-4.399c0.765,1.674,1.761,3.234,2.959,4.632l0.321,0.407c1.848,2.292,2.877,3.814,0.814,6.105
			c-0.28,0.242-0.581,0.457-0.9,0.643c0.044-0.643,0.032-1.289-0.036-1.929c-0.075-0.683-0.233-1.354-0.473-1.999
			c-0.242-0.637-0.577-1.234-0.993-1.774c0.358,0.569,0.633,1.188,0.814,1.835c0.171,0.641,0.263,1.302,0.272,1.966
			c0.003,0.528-0.033,1.056-0.106,1.579c-2.193-1.982-3.618-4.566-3.83-7.078 M18.722,65.968c2.397,0.041,4.739,0.733,6.772,2.002
			H13.098c1.384-1.298,3.345-2.011,5.621-2.011 M35.523,105.031h-3.916V94.889c0.455-0.766,0.809-1.586,1.054-2.442
			c0.224-0.1,0.467-0.151,0.712-0.15h0.407c0.976,0,1.767,0.791,1.767,1.766L35.523,105.031z M31.226,95.504v9.532h-1.6v-7.733
			c0.599-0.543,1.134-1.154,1.595-1.819 M22.536,99.309c-5.395,0-9.769-4.373-9.769-9.768c0-5.395,4.374-9.768,9.769-9.768
			c5.395,0,9.768,4.374,9.768,9.768l0,0C32.304,94.936,27.931,99.309,22.536,99.309L22.536,99.309 M29.243,97.681v7.367h-3.919
			v-5.332C26.76,99.323,28.095,98.629,29.243,97.681 M41.812,105.048h-3.923V94.059c0-0.976,0.791-1.766,1.766-1.766h0.407
			c0.976,0,1.767,0.791,1.767,1.766L41.812,105.048z M48.096,105.048h-3.919V94.059c0-0.976,0.791-1.766,1.767-1.766h0.387
			c0.976,0,1.766,0.791,1.766,1.766V105.048z M54.38,105.048h-3.911V94.059c0.002-0.976,0.794-1.766,1.771-1.766h0.386
			c0.976,0,1.767,0.791,1.767,1.766L54.38,105.048z M66.944,99.647v5.401h-3.916v-7.611c1.131,1.009,2.467,1.76,3.916,2.202
			 M60.237,89.541c0-5.395,4.373-9.768,9.768-9.768c5.395,0,9.768,4.374,9.768,9.768c0,5.395-4.374,9.768-9.768,9.768
			C64.61,99.309,60.237,94.936,60.237,89.541L60.237,89.541 M60.644,94.426v10.606h-3.919V94.043c0-0.976,0.791-1.767,1.767-1.767
			h0.407c0.367,0,0.724,0.116,1.022,0.33C60.104,93.233,60.347,93.842,60.644,94.426 M61.03,95.085
			c0.45,0.728,0.985,1.399,1.596,1.999v7.948h-1.575L61.03,95.085z M82.081,89.57c-0.007,6.401-5.194,11.589-11.595,11.596
			c-0.301,0-0.619,0-1.03-0.053l-0.899-0.077v4h-1.221v-5.292c5.658,1.507,11.467-1.859,12.973-7.518
			c1.506-5.659-1.86-11.467-7.519-12.973c-5.659-1.506-11.467,1.86-12.973,7.519c-0.466,1.751-0.476,3.594-0.027,5.35
			c-0.278-0.13-0.581-0.199-0.887-0.2h-0.407c-1.185,0.004-2.145,0.964-2.149,2.149v10.989H54.75V94.071
			c-0.005-1.185-0.964-2.145-2.149-2.149h-0.387c-1.187,0.002-2.149,0.963-2.153,2.149v10.989h-1.587V94.071
			c-0.002-1.186-0.963-2.146-2.149-2.149h-0.387c-1.186,0.002-2.146,0.963-2.149,2.149v10.989h-1.6V94.071
			c-0.004-1.185-0.964-2.145-2.149-2.149h-0.407c-1.185,0.004-2.145,0.964-2.149,2.149v10.989H35.91V94.071
			c0-1.18-0.949-2.142-2.129-2.157h-0.407c-0.205,0.002-0.408,0.035-0.603,0.097c1.383-5.678-2.099-11.402-7.777-12.786
			c-5.678-1.383-11.402,2.099-12.786,7.777c-1.383,5.678,2.099,11.403,7.777,12.786c1.627,0.396,3.325,0.401,4.955,0.013v5.234
			h-1.123v-3.984l-0.891,0.069c-0.293,0.024-0.599,0.044-0.896,0.044c-6.406,0-11.6-5.193-11.6-11.6s5.193-11.6,11.6-11.6h48.466
			c6.401,0.007,11.589,5.194,11.596,11.596 M19.65,77.384v-5.1h53.229v5.1c-0.786-0.153-1.584-0.231-2.385-0.232H22.031
			C21.232,77.153,20.435,77.231,19.65,77.384 M73.041,65.988c2.279,0,4.241,0.712,5.621,2.01H66.265
			C68.299,66.725,70.642,66.031,73.041,65.988 M81.499,71.495H11.034v-2.731h70.461L81.499,71.495z M81.401,58.149
			c1.74-0.186,3.479,0.351,4.811,1.485c-1.773,0.731-3.421,1.734-4.884,2.975c-1.351,1.062-2.417,1.901-3.858,1.901
			c-1.019,0.049-2.024-0.251-2.849-0.851c-0.149-0.106-0.286-0.229-0.407-0.367c0.285-0.028,0.57-0.053,0.854-0.102
			c0.818-0.141,1.614-0.392,2.365-0.745c0.745-0.357,1.431-0.825,2.035-1.388c-0.632,0.512-1.339,0.923-2.096,1.221
			c-0.752,0.285-1.54,0.467-2.34,0.541c-0.366,0.033-0.737,0.045-1.103,0.041c-0.059-0.111-0.11-0.225-0.155-0.342
			c2.035-2.519,4.884-4.147,7.603-4.363 M86.712,52.597c-1.388,1.982-2.381,3.415-5.173,3.195c-0.337-0.028-0.712-0.09-1.176-0.171
			c-0.353-0.078-0.667-0.275-0.892-0.558c0.401-0.019,0.798-0.09,1.181-0.211c0.632-0.21,1.221-0.533,1.738-0.953
			c0.252-0.208,0.493-0.429,0.72-0.663l0.627-0.745l-0.692,0.68c-0.261,0.191-0.493,0.407-0.765,0.574
			c-0.525,0.346-1.108,0.596-1.722,0.736c-0.401,0.086-0.813,0.112-1.221,0.078c1.274-3,3.533-5.381,6.105-6.386
			c1.666-0.7,3.545-0.688,5.202,0.033c-1.529,1.249-2.852,2.731-3.919,4.392"/>
		<path fill="#FFFFFF" d="M133.79,32.031c-1.232-1.418-2.776-2.532-4.509-3.256c-1.994-0.806-4.13-1.2-6.28-1.156
			c-1.999-0.033-3.984,0.331-5.841,1.071c-1.636,0.674-3.116,1.678-4.347,2.951c-1.209,1.277-2.153,2.783-2.776,4.428
			c-0.604,1.588-0.978,3.255-1.111,4.949h-4.388v-9.504h3.59v-3.407H95.072v3.403h3.752v23.15h-3.752v3.403h13.053v-3.403h-3.59
			v-10.24h4.327c0.076,1.807,0.398,3.595,0.956,5.315c0.554,1.72,1.455,3.309,2.646,4.668c1.211,1.34,2.71,2.389,4.384,3.069
			c1.958,0.766,4.048,1.136,6.15,1.091c2.14,0.041,4.265-0.359,6.243-1.176c1.735-0.739,3.282-1.859,4.526-3.276
			c1.232-1.442,2.153-3.123,2.706-4.938c1.189-3.983,1.189-8.227,0-12.21C135.92,35.156,135.007,33.478,133.79,32.031
			 M123.416,55.162c-1.369,0.043-2.726-0.267-3.94-0.9c-1.064-0.592-1.961-1.443-2.609-2.474c-0.717-1.173-1.216-2.467-1.473-3.818
			c-0.318-1.608-0.474-3.245-0.464-4.884c-0.008-1.635,0.108-3.267,0.346-4.884c0.182-1.334,0.595-2.625,1.221-3.817
			c0.549-1.014,1.351-1.868,2.328-2.479c1.148-0.648,2.455-0.963,3.772-0.907c1.414-0.054,2.816,0.262,4.07,0.916
			c1.059,0.602,1.948,1.46,2.588,2.495c0.702,1.187,1.183,2.491,1.416,3.85c0.303,1.595,0.451,3.216,0.444,4.839
			c0.006,1.627-0.13,3.252-0.407,4.855c-0.218,1.341-0.665,2.636-1.319,3.826c-0.571,1.012-1.385,1.865-2.369,2.482
			c-1.094,0.635-2.345,0.95-3.61,0.908"/>
		<path fill="#FFFFFF" d="M155.96,28.112h-17.004v3.399h3.752v23.154h-3.752v3.403h13.589v-3.403h-4.123v-7.733h0.15
			c0.338,0.028,0.696,0.049,1.075,0.061s0.737,0.021,1.075,0.021h0.74c1.625,0.002,3.245-0.183,4.828-0.549
			c1.491-0.333,2.915-0.915,4.212-1.722c1.221-0.769,2.247-1.809,2.999-3.04c0.795-1.356,1.196-2.906,1.156-4.477
			c0.053-1.592-0.339-3.168-1.131-4.55c-0.727-1.193-1.729-2.196-2.922-2.922c-1.442-0.778-2.996-1.328-4.607-1.628 M151.04,31.193
			c2.315,0,4.151,0.504,5.466,1.498s1.909,2.442,1.909,4.55c0.029,1.012-0.166,2.018-0.569,2.947
			c-0.347,0.761-0.872,1.427-1.531,1.941c-0.688,0.521-1.472,0.903-2.308,1.123c-0.94,0.253-1.911,0.379-2.886,0.375h-0.72
			c-0.301,0-0.61,0-0.924-0.041c-0.313-0.041-0.651-0.049-0.944-0.065h-0.118V31.34c0.252-0.037,0.525-0.074,0.814-0.094
			c0.476-0.041,1.082-0.061,1.811-0.061"/>
		<polygon fill="#FFFFFF" points="187.365,31.51 191.036,31.51 191.036,31.677 177.65,48.181 176.794,49.427 176.905,48.739 
			176.913,31.51 180.336,31.51 180.336,28.108 167.45,28.108 167.45,31.51 171.198,31.51 171.198,54.665 167.45,54.665 
			167.45,58.068 180.336,58.068 180.336,54.665 176.624,54.665 176.624,54.583 190.193,37.908 190.889,36.846 190.792,37.481 
			190.788,54.665 187.365,54.665 187.365,58.068 200.254,58.068 200.254,54.665 196.501,54.665 196.501,31.51 200.254,31.51 
			200.254,28.108 187.365,28.108 		"/>
		<path fill="#FFFFFF" d="M222.957,53.591l-0.407,0.569c-0.376,0.226-0.789,0.381-1.221,0.46c-0.781,0.157-1.577,0.229-2.373,0.215
			c-3.427,0-6.105-1.018-7.993-3.024c-1.889-2.006-2.849-4.949-2.849-8.722c-0.035-1.835,0.24-3.663,0.814-5.405
			c0.445-1.345,1.169-2.58,2.128-3.623c0.879-0.913,1.957-1.609,3.15-2.035c2.233-0.727,4.616-0.867,6.919-0.407
			c0.525,0.154,0.932,0.293,1.221,0.407l0.407,0.558v4.701h3.732v-7.981l-0.333-0.143c-0.529-0.22-1.079-0.435-1.628-0.631
			c-0.609-0.209-1.23-0.38-1.86-0.513c-0.737-0.15-1.482-0.256-2.231-0.317c-0.814-0.069-1.733-0.106-2.727-0.106
			c-2.021-0.008-4.033,0.277-5.971,0.847c-1.859,0.544-3.584,1.474-5.063,2.727c-1.513,1.319-2.706,2.966-3.488,4.815
			c-0.908,2.249-1.344,4.661-1.281,7.085c-0.052,2.358,0.338,4.706,1.152,6.919c0.696,1.862,1.827,3.532,3.296,4.872
			c1.532,1.321,3.339,2.282,5.291,2.816c2.266,0.619,4.607,0.919,6.956,0.891c1.438-0.004,2.872-0.161,4.278-0.468
			c1.228-0.238,2.417-0.649,3.528-1.221l0.285-0.155v-7.326h-3.732V53.591z"/>
		<polygon fill="#FFFFFF" points="230.173,28.108 230.173,37.738 234.231,37.738 234.231,32.084 234.756,31.51 241.35,31.51 
			241.35,54.665 237.096,54.665 237.096,58.068 251.309,58.068 251.309,54.665 247.056,54.665 247.056,31.51 253.653,31.51 
			254.17,32.084 254.17,37.738 258.232,37.738 258.232,28.108 		"/>
		<path fill="#FFFFFF" d="M128.39,76.012v-0.265l0.049-0.044c0.193-0.025,0.384-0.067,0.57-0.126c0.095-0.03,0.18-0.087,0.244-0.163
			c0.042-0.07,0.069-0.147,0.078-0.229c0-0.089,0.024-0.321,0.032-0.691c0.008-0.371,0-0.655,0-0.851v-1.156
			c0.032-0.58-0.002-1.161-0.102-1.734c-0.065-0.154-0.346-0.26-0.843-0.325l-0.048-0.053v-0.272l0.048-0.045
			c1.284,0.033,2.486,0.049,3.606,0.049c1.046,0,2.251,0,3.61-0.049l0.045,0.045v0.272l-0.045,0.053
			c-0.195,0.02-0.388,0.063-0.574,0.126c-0.086,0.026-0.165,0.074-0.228,0.138c-0.042,0.053-0.07,0.117-0.081,0.183
			c0,0.073-0.025,0.301-0.042,0.688c-0.016,0.387-0.02,0.692-0.02,0.928v1.156c-0.033,0.58,0.001,1.162,0.102,1.734
			c0.065,0.151,0.35,0.26,0.842,0.33l0.045,0.045v0.265l-0.045,0.053c-0.598-0.037-1.09-0.053-1.481-0.053
			c-0.39,0-0.871,0-1.478,0.053l-0.044-0.053v-0.265l0.053-0.053c0.505-0.069,0.786-0.184,0.851-0.338
			c0.098-0.57,0.131-1.149,0.098-1.726v-3.085l-0.054-0.044h-3.089l-0.052,0.044v3.085c-0.035,0.58,0,1.162,0.102,1.734
			c0.069,0.15,0.35,0.261,0.842,0.33l0.045,0.044v0.265l-0.045,0.053c-0.597-0.035-1.089-0.053-1.477-0.053
			c-0.407,0-0.887,0-1.478,0.053L128.39,76.012z"/>
		<path fill="#FFFFFF" d="M138.582,69.846l0.118,0.078c-0.043,0.505-0.067,0.935-0.069,1.29c0.261-0.249,0.525-0.48,0.781-0.7
			c0.164-0.148,0.338-0.284,0.521-0.407c0.128-0.066,0.265-0.111,0.407-0.134c0.224-0.044,0.452-0.065,0.681-0.061
			c0.69-0.035,1.363,0.23,1.843,0.729c0.463,0.508,0.707,1.178,0.68,1.864c-0.001,0.326-0.054,0.65-0.155,0.96
			c-0.099,0.311-0.235,0.609-0.407,0.887c-0.103,0.188-0.231,0.361-0.382,0.513c-0.24,0.175-0.491,0.337-0.749,0.484
			c-0.163,0.098-0.333,0.211-0.504,0.334c-0.244,0.171-0.407,0.276-0.477,0.321c-0.116,0.062-0.241,0.105-0.37,0.13
			c-0.183,0.041-0.37,0.062-0.558,0.061c-0.461-0.004-0.916-0.12-1.323-0.338v1.192c0,0.326,0.01,0.732,0.029,1.221
			c-0.007,0.283,0.021,0.566,0.085,0.842c0.033,0.063,0.088,0.109,0.155,0.131c0.204,0.039,0.411,0.065,0.618,0.077l0.058,0.049
			v0.269l-0.058,0.057c-0.513-0.037-0.985-0.053-1.42-0.053s-0.908,0-1.417,0.053l-0.048-0.057v-0.273l0.048-0.049
			c0.195-0.009,0.39-0.031,0.582-0.065c0.056-0.01,0.107-0.037,0.147-0.077c0.04-0.053,0.066-0.114,0.077-0.179
			c0.037-0.294,0.056-0.591,0.057-0.887c0-0.509,0.024-0.867,0.024-1.066v-4.884c0-0.191,0-0.436-0.02-0.737
			c-0.003-0.174-0.017-0.348-0.041-0.521c-0.016-0.05-0.049-0.092-0.094-0.118c-0.1-0.042-0.207-0.059-0.313-0.049h-0.407
			l-0.057-0.053v-0.273l0.048-0.057c0.653-0.082,1.293-0.241,1.91-0.472 M138.626,74.763c0.434,0.471,1.044,0.741,1.685,0.745
			c0.603,0.023,1.178-0.253,1.538-0.736c0.381-0.52,0.577-1.152,0.558-1.795c0.006-0.403-0.078-0.803-0.248-1.168
			c-0.154-0.342-0.411-0.627-0.737-0.814c-0.306-0.183-0.656-0.28-1.013-0.281c-0.229,0-0.458,0.043-0.671,0.126
			c-0.218,0.085-0.42,0.205-0.599,0.354c-0.149,0.113-0.279,0.25-0.382,0.407c-0.057,0.09-0.096,0.189-0.119,0.293
			c-0.006,0.119-0.006,0.239,0,0.358L138.626,74.763z"/>
		<path fill="#FFFFFF" d="M145.422,71.677l-0.248-0.061l-0.053-0.065c0-0.069,0-0.155,0-0.26v-0.529
			c0.371-0.25,0.761-0.466,1.168-0.647c0.331-0.134,0.686-0.201,1.042-0.199c0.569-0.032,1.129,0.154,1.567,0.521
			c0.389,0.36,0.6,0.875,0.574,1.404l-0.037,1.286v1.905c-0.011,0.153,0.008,0.306,0.057,0.452c0.034,0.067,0.09,0.121,0.159,0.151
			c0.133,0.035,0.27,0.055,0.407,0.061l0.048,0.058v0.256l-0.048,0.049c-0.33-0.029-0.59-0.045-0.781-0.045
			c-0.192,0-0.456,0-0.814,0.045l-0.094-0.09l0.025-1.03l-0.814,0.639c-0.285,0.228-0.476,0.374-0.574,0.448
			c-0.243,0.102-0.505,0.153-0.77,0.15c-0.435,0.023-0.861-0.123-1.192-0.407c-0.299-0.286-0.46-0.689-0.439-1.103
			c-0.019-0.426,0.115-0.845,0.378-1.181c0.306-0.339,0.701-0.586,1.14-0.712c0.743-0.224,1.504-0.382,2.275-0.472
			c0.004-0.228-0.014-0.455-0.053-0.68c-0.041-0.198-0.132-0.381-0.265-0.533c-0.14-0.17-0.32-0.302-0.525-0.383
			c-0.227-0.088-0.469-0.13-0.712-0.126c-0.136,0-0.272,0.011-0.407,0.033c-0.127,0.024-0.251,0.062-0.371,0.114
			c-0.074,0.028-0.146,0.065-0.211,0.11c-0.032,0.032-0.056,0.071-0.069,0.114l-0.143,0.305c-0.062,0.132-0.114,0.269-0.159,0.407
			L145.422,71.677z M148.386,72.671c-0.719,0.077-1.419,0.276-2.072,0.586c-0.394,0.232-0.624,0.664-0.599,1.119
			c-0.021,0.279,0.076,0.555,0.265,0.761c0.196,0.182,0.457,0.276,0.724,0.261c0.568,0,1.127-0.328,1.682-0.985V72.671z"/>
		<path fill="#FFFFFF" d="M150.999,76.012v-0.269l0.048-0.044c0.196-0.011,0.391-0.04,0.582-0.085
			c0.073-0.033,0.132-0.091,0.167-0.163c0.062-0.19,0.088-0.391,0.078-0.59c0-0.312,0-0.734,0-1.266v-1.086c0-0.333,0-0.704,0-1.115
			c0.014-0.248-0.014-0.497-0.082-0.737c-0.037-0.073-0.099-0.131-0.175-0.163c-0.187-0.047-0.377-0.075-0.57-0.082l-0.048-0.049
			v-0.269l0.048-0.045c0.586,0.037,1.025,0.053,1.331,0.053h0.607c0.745-0.021,1.253-0.033,1.53-0.033
			c0.388-0.034,0.773,0.081,1.079,0.322c0.226,0.21,0.351,0.505,0.346,0.814c0,0.697-0.475,1.175-1.424,1.433
			c0.472-0.009,0.932,0.146,1.303,0.439c0.276,0.259,0.424,0.627,0.407,1.005c-0.003,0.516-0.21,1.009-0.578,1.372
			c-0.386,0.404-1.004,0.606-1.856,0.606h-0.374c-0.354,0-0.635-0.025-0.843-0.025l-1.538,0.054L150.999,76.012z M152.904,72.553
			c0.171,0,0.305,0,0.407,0c0.436,0.042,0.873-0.06,1.246-0.289c0.242-0.199,0.373-0.501,0.354-0.814
			c0.01-0.275-0.092-0.543-0.285-0.741c-0.285-0.225-0.646-0.328-1.006-0.289c-0.211,0-0.436,0-0.671,0.028L152.904,72.553z
			 M152.904,72.94l0.048,2.666c0.232,0.031,0.467,0.046,0.7,0.045c0.309,0.017,0.616-0.059,0.883-0.216
			c0.205-0.127,0.368-0.313,0.468-0.533c0.097-0.212,0.146-0.443,0.142-0.676c0.006-0.26-0.06-0.517-0.191-0.741
			c-0.125-0.211-0.324-0.369-0.557-0.443c-0.329-0.093-0.672-0.134-1.014-0.122C153.274,72.919,153.111,72.919,152.904,72.94"/>
		<path fill="#FFFFFF" d="M163.672,72.789c0.008,0.497-0.081,0.99-0.26,1.453c-0.166,0.421-0.42,0.8-0.749,1.111
			c-0.289,0.284-0.633,0.505-1.009,0.651c-0.394,0.132-0.806,0.195-1.221,0.188c-0.89,0.063-1.764-0.264-2.394-0.896
			c-0.55-0.618-0.842-1.424-0.814-2.251c-0.003-0.568,0.137-1.128,0.407-1.628c0.258-0.478,0.657-0.865,1.144-1.107
			c0.549-0.266,1.153-0.396,1.763-0.383c0.582-0.016,1.159,0.11,1.681,0.367c0.453,0.234,0.829,0.594,1.083,1.038
			c0.258,0.452,0.391,0.965,0.387,1.486 M162.468,73.192c0.032-0.716-0.153-1.425-0.529-2.035c-0.343-0.51-0.929-0.804-1.542-0.773
			c-0.528-0.016-1.037,0.204-1.388,0.598c-0.396,0.516-0.587,1.159-0.538,1.807c-0.024,0.732,0.15,1.458,0.505,2.1
			c0.309,0.57,0.911,0.918,1.559,0.899c0.556,0.017,1.083-0.252,1.396-0.712c0.363-0.567,0.54-1.232,0.509-1.905"/>
		<path fill="#FFFFFF" d="M164.495,76.012v-0.269l0.049-0.044c0.196-0.01,0.391-0.039,0.582-0.085
			c0.075-0.032,0.135-0.09,0.171-0.163c0.062-0.19,0.087-0.391,0.078-0.59c0-0.312,0-0.734,0-1.266v-1.086c0-0.333,0-0.704,0-1.115
			c0.015-0.248-0.013-0.498-0.082-0.737c-0.037-0.073-0.099-0.131-0.175-0.163c-0.188-0.047-0.38-0.075-0.574-0.082l-0.049-0.049
			v-0.269l0.049-0.045c0.585,0.037,1.029,0.053,1.331,0.053h0.606c0.745-0.021,1.258-0.033,1.534-0.033
			c0.388-0.033,0.773,0.082,1.079,0.322c0.226,0.209,0.353,0.505,0.346,0.814c0,0.697-0.475,1.175-1.425,1.433
			c0.472-0.009,0.933,0.146,1.303,0.439c0.275,0.259,0.425,0.627,0.407,1.005c-0.001,0.515-0.208,1.009-0.574,1.372
			c-0.388,0.404-1.008,0.606-1.86,0.606h-0.375c-0.354,0-0.635-0.025-0.842-0.025l-1.542,0.054L164.495,76.012z M166.4,72.553
			c0.171,0,0.305,0,0.407,0c0.434,0.041,0.87-0.06,1.241-0.289c0.243-0.198,0.375-0.501,0.354-0.814
			c0.01-0.275-0.093-0.543-0.285-0.741c-0.284-0.225-0.645-0.328-1.005-0.289c-0.211,0-0.436,0-0.672,0.028L166.4,72.553z
			 M166.4,72.94l0.044,2.666c0.234,0.031,0.469,0.046,0.705,0.045c0.309,0.017,0.616-0.059,0.883-0.216
			c0.208-0.131,0.371-0.321,0.468-0.545c0.096-0.212,0.145-0.442,0.143-0.675c0.005-0.26-0.062-0.516-0.192-0.741
			c-0.126-0.212-0.326-0.37-0.561-0.443c-0.33-0.093-0.672-0.134-1.014-0.122c-0.109,0-0.272,0-0.48,0.02"/>
		<path fill="#FFFFFF" d="M177.165,72.789c0.008,0.497-0.079,0.989-0.256,1.453c-0.165,0.421-0.421,0.8-0.749,1.111
			c-0.289,0.284-0.632,0.506-1.01,0.651c-0.394,0.132-0.806,0.195-1.221,0.188c-0.891,0.063-1.765-0.266-2.394-0.899
			c-0.551-0.618-0.842-1.424-0.814-2.251c-0.003-0.568,0.137-1.128,0.407-1.628c0.258-0.478,0.658-0.865,1.144-1.107
			c0.548-0.266,1.152-0.397,1.762-0.383c0.582-0.016,1.158,0.11,1.681,0.367c0.453,0.234,0.827,0.594,1.078,1.038
			c0.267,0.45,0.408,0.962,0.407,1.485 M175.98,73.188c0.033-0.716-0.152-1.425-0.529-2.035c-0.343-0.51-0.928-0.804-1.543-0.773
			c-0.528-0.017-1.037,0.203-1.388,0.598c-0.395,0.516-0.587,1.159-0.538,1.807c-0.019,0.749,0.168,1.488,0.542,2.137
			c0.308,0.569,0.909,0.917,1.555,0.899c0.557,0.017,1.083-0.252,1.396-0.712c0.361-0.568,0.538-1.233,0.505-1.905"/>
		<path fill="#FFFFFF" d="M178.101,76.012v-0.269l0.053-0.044c0.194-0.023,0.385-0.065,0.57-0.126
			c0.097-0.028,0.184-0.084,0.249-0.162c0.042-0.068,0.069-0.145,0.077-0.225c0-0.089,0.02-0.321,0.032-0.696
			c0.012-0.375,0-0.655,0-0.851v-1.16c0.032-0.582-0.002-1.165-0.102-1.738c-0.065-0.154-0.346-0.26-0.838-0.325l-0.054-0.049
			v-0.269l0.054-0.044c0.59,0.033,1.083,0.049,1.473,0.049c0.391,0,0.872,0,1.478-0.049l0.044,0.044v0.269l-0.02,0.045
			c-0.195,0.021-0.387,0.062-0.574,0.122c-0.084,0.03-0.162,0.079-0.224,0.143c-0.044,0.052-0.074,0.116-0.085,0.183
			c0,0.074-0.024,0.301-0.041,0.692c-0.017,0.391-0.021,0.7-0.021,0.924v2.642l0.102,0.037c0.404-0.605,0.927-1.452,1.566-2.54
			c0.639-1.091,1.127-1.946,1.461-2.564c0.399,0.033,0.734,0.049,1.005,0.049s0.612-0.016,1.021-0.049l0.048,0.045v0.269
			l-0.048,0.049c-0.501,0.065-0.781,0.175-0.843,0.333c-0.096,0.572-0.128,1.151-0.098,1.73v1.16
			c-0.032,0.58,0.002,1.162,0.102,1.734c0.065,0.154,0.346,0.265,0.838,0.334l0.048,0.044v0.269l-0.048,0.049
			c-0.595-0.037-1.083-0.049-1.478-0.049c-0.395,0-0.875,0-1.473,0.049l-0.053-0.049v-0.269l0.053-0.044
			c0.501-0.069,0.777-0.18,0.843-0.338c0.1-0.57,0.134-1.149,0.102-1.726v-2.601l-0.102-0.041c-0.313,0.461-0.81,1.284-1.494,2.467
			c-0.684,1.183-1.165,2.05-1.441,2.601c-0.407-0.037-0.728-0.049-0.981-0.049c-0.252,0-0.655,0-1.135,0.049L178.101,76.012z
			 M179.949,67.872l0.627-0.484l0.158,0.081c0.163,0.745,0.583,1.12,1.25,1.12c0.308,0.013,0.608-0.093,0.838-0.297
			c0.227-0.231,0.344-0.548,0.322-0.872l0.166-0.048l0.273,0.684c-0.439,0.57-1.113,0.909-1.832,0.92
			c-0.364,0.007-0.722-0.092-1.03-0.285c-0.316-0.208-0.581-0.487-0.773-0.814"/>
		<path fill="#FFFFFF" d="M189.644,76.012v-0.269l0.053-0.044c0.193-0.023,0.385-0.065,0.57-0.126
			c0.096-0.029,0.183-0.085,0.248-0.162c0.041-0.07,0.067-0.147,0.077-0.229c0-0.089,0.021-0.321,0.032-0.696
			c0.012-0.375,0-0.655,0-0.854v-1.156c0.034-0.581,0-1.164-0.102-1.738c-0.065-0.155-0.342-0.265-0.839-0.326l-0.052-0.049v-0.269
			l0.052-0.045c0.591,0.033,1.083,0.049,1.474,0.049c0.39,0,0.883,0,1.473-0.049l0.049,0.045v0.269l-0.049,0.049
			c-0.193,0.021-0.385,0.062-0.57,0.122c-0.085,0.03-0.163,0.079-0.227,0.143c-0.045,0.052-0.075,0.115-0.086,0.183
			c0,0.073-0.025,0.301-0.041,0.696c-0.016,0.395-0.021,0.701-0.021,0.924v3.081l0.049,0.053h3.093l0.053-0.053V72.48
			c0.032-0.581-0.001-1.164-0.098-1.738c-0.065-0.154-0.351-0.264-0.847-0.325l-0.045-0.049v-0.269l0.045-0.044
			c0.594,0.033,1.086,0.049,1.477,0.049c0.391,0,0.885-0.016,1.481-0.049l0.049,0.044v0.269l-0.049,0.049
			c-0.194,0.021-0.387,0.062-0.574,0.122c-0.087,0.029-0.165,0.078-0.228,0.143c-0.043,0.052-0.071,0.116-0.081,0.183
			c0,0.074-0.025,0.301-0.041,0.684c-0.017,0.382-0.021,0.696-0.021,0.932v3.081l0.049,0.053c0.348,0,0.682-0.021,1.005-0.065
			l0.082,0.081c-0.241,0.744-0.426,1.504-0.554,2.275h-0.305c0-0.418-0.01-0.777-0.033-1.079c0.005-0.189-0.028-0.377-0.097-0.554
			c-0.057-0.077-0.137-0.134-0.228-0.163c-0.285-0.061-0.576-0.086-0.867-0.078c-0.472,0-0.968,0-1.498,0h-1.677h-1.318
			c-0.326,0-0.599,0-0.814,0L189.644,76.012z"/>
		<path fill="#FFFFFF" d="M203.096,75.073l-0.204,0.46c-0.363,0.248-0.765,0.435-1.188,0.553c-0.304,0.079-0.615,0.121-0.929,0.126
			c-0.5,0.003-0.995-0.099-1.452-0.301c-0.471-0.212-0.86-0.57-1.111-1.021c-0.3-0.524-0.449-1.122-0.432-1.726
			c-0.006-0.413,0.049-0.825,0.167-1.221c0.074-0.287,0.19-0.562,0.346-0.814c0.174-0.225,0.383-0.421,0.619-0.582
			c0.283-0.21,0.592-0.383,0.92-0.513c0.333-0.129,0.688-0.194,1.045-0.191c0.477-0.01,0.947,0.116,1.355,0.362
			c0.361,0.215,0.647,0.538,0.814,0.924c0.158,0.378,0.238,0.784,0.236,1.192c0,0.134,0,0.261,0,0.383l-0.073,0.069
			c-0.386,0.075-0.778,0.118-1.171,0.13c-0.489,0.02-0.814,0.033-0.973,0.033h-2.035c-0.054,0.713,0.186,1.417,0.663,1.949
			c0.427,0.417,1.003,0.645,1.6,0.631c0.292,0,0.581-0.052,0.854-0.155c0.305-0.115,0.597-0.258,0.875-0.427L203.096,75.073z
			 M199.005,72.447c0.077,0,0.375,0.028,0.883,0.044c0.509,0.017,0.896,0.029,1.144,0.029c0.361,0.011,0.723,0,1.083-0.033
			c0-0.102,0-0.183,0-0.236c0.04-0.523-0.104-1.045-0.407-1.474c-0.272-0.324-0.68-0.503-1.104-0.484
			c-0.46-0.024-0.904,0.178-1.188,0.541c-0.314,0.482-0.458,1.055-0.407,1.628"/>
		<path fill="#FFFFFF" d="M205.945,72.683c0.781,0.016,1.323,0.026,1.628,0.028c0.346,0,0.879,0,1.603-0.028v-0.175
			c0-0.313,0-0.68,0-1.099c0.012-0.254-0.015-0.508-0.081-0.753c-0.037-0.073-0.097-0.13-0.171-0.163
			c-0.19-0.047-0.383-0.074-0.578-0.082l-0.053-0.049v-0.269l0.053-0.045c0.407,0.033,0.875,0.049,1.347,0.049s0.944,0,1.347-0.049
			l0.048,0.045v0.269l-0.048,0.049c-0.197,0.012-0.394,0.041-0.586,0.085c-0.075,0.033-0.134,0.092-0.167,0.167
			c-0.06,0.201-0.086,0.41-0.077,0.619c0,0.33,0,0.737,0,1.221v1.086v1.115c-0.014,0.25,0.014,0.5,0.082,0.741
			c0.034,0.075,0.097,0.133,0.175,0.159c0.188,0.045,0.381,0.073,0.574,0.082l0.048,0.045V76l-0.048,0.049
			c-0.407-0.033-0.875-0.049-1.347-0.049s-0.944,0-1.347,0.049L208.293,76v-0.269l0.053-0.045c0.196-0.01,0.391-0.039,0.582-0.085
			c0.075-0.031,0.136-0.089,0.171-0.163c0.059-0.192,0.085-0.393,0.077-0.594c0-0.309,0-0.732,0-1.261V73.07
			c-0.472,0-1.005,0-1.603,0c-0.599,0-1.083,0-1.628,0v0.513c0,0.338,0,0.712,0,1.119c-0.014,0.248,0.013,0.497,0.077,0.736
			c0.036,0.073,0.099,0.13,0.175,0.159c0.188,0.045,0.38,0.072,0.574,0.081l0.053,0.045v0.269l-0.053,0.049
			c-0.407-0.032-0.875-0.049-1.347-0.049c-0.473,0-0.949,0-1.347,0.049l-0.049-0.049v-0.269l0.049-0.045
			c0.196-0.009,0.391-0.038,0.582-0.085c0.073-0.034,0.131-0.091,0.167-0.163c0.063-0.19,0.091-0.39,0.081-0.59
			c0-0.313,0-0.732,0-1.266v-1.087c0-0.333,0-0.704,0-1.115c0.015-0.248-0.013-0.497-0.081-0.736
			c-0.038-0.073-0.099-0.13-0.175-0.163c-0.187-0.047-0.377-0.074-0.57-0.081l-0.049-0.049v-0.269l0.049-0.045
			c0.423,0.032,0.872,0.049,1.347,0.049c0.492,0,0.944,0,1.347-0.049l0.053,0.045v0.269l-0.069,0.069
			c-0.197,0.011-0.391,0.038-0.582,0.082c-0.076,0.031-0.137,0.089-0.171,0.163c-0.061,0.191-0.087,0.391-0.078,0.59
			c0,0.309,0,0.729,0,1.262L205.945,72.683z"/>
		<path fill="#FFFFFF" d="M211.602,70.094l0.048-0.045c0.814,0.041,1.763,0.065,2.792,0.065c1.03,0,1.979-0.02,2.792-0.065
			l0.044,0.045c-0.024,0.562-0.041,1.042-0.041,1.424l-0.036,0.037h-0.269l-0.041-0.037c-0.023-0.274-0.068-0.546-0.134-0.814
			c-0.025-0.072-0.078-0.13-0.147-0.163c-0.116-0.034-0.237-0.047-0.358-0.041h-1.299l-0.028,1.628v1.457c0,0.313,0,0.684,0,1.103
			c-0.014,0.253,0.013,0.507,0.077,0.753c0.034,0.074,0.095,0.132,0.171,0.163c0.191,0.047,0.386,0.076,0.582,0.085l0.053,0.045
			v0.269l-0.053,0.049c-0.428-0.032-0.875-0.049-1.348-0.049s-0.943,0-1.347,0.049l-0.049-0.049v-0.269l0.049-0.045
			c0.197-0.009,0.394-0.038,0.586-0.085c0.077-0.031,0.138-0.091,0.171-0.167c0.06-0.201,0.085-0.409,0.077-0.618
			c0-0.33,0-0.741,0-1.221v-1.437c0-0.558-0.024-1.107-0.033-1.657h-1.298c-0.123-0.008-0.247,0.006-0.367,0.041
			c-0.069,0.037-0.12,0.103-0.138,0.179c-0.064,0.268-0.107,0.54-0.13,0.814l-0.037,0.037h-0.248l-0.044-0.037
			c0-0.171,0-0.643-0.037-1.425"/>
		<path fill="#FFFFFF" d="M219.908,69.846l0.115,0.078c-0.041,0.505-0.065,0.932-0.069,1.29c0.265-0.249,0.525-0.48,0.777-0.7
			c0.165-0.147,0.339-0.283,0.521-0.407c0.128-0.065,0.265-0.11,0.407-0.134c0.224-0.045,0.452-0.065,0.68-0.061
			c0.692-0.035,1.366,0.231,1.848,0.729c0.459,0.509,0.702,1.178,0.676,1.864c-0.003,0.326-0.056,0.649-0.155,0.96
			c-0.1,0.311-0.236,0.609-0.407,0.887c-0.104,0.187-0.233,0.359-0.382,0.513c-0.242,0.174-0.491,0.336-0.749,0.484
			c-0.167,0.098-0.333,0.211-0.504,0.334c-0.244,0.171-0.407,0.276-0.477,0.321c-0.116,0.063-0.241,0.106-0.37,0.13
			c-0.183,0.041-0.371,0.062-0.558,0.061c-0.462-0.004-0.916-0.12-1.323-0.338v1.192c0,0.326,0,0.737,0.028,1.221
			c-0.004,0.283,0.025,0.566,0.086,0.842c0.033,0.063,0.088,0.109,0.154,0.131c0.205,0.039,0.411,0.064,0.619,0.077l0.057,0.049
			v0.269l-0.057,0.057c-0.513-0.037-0.985-0.053-1.42-0.053c-0.436,0-0.908,0-1.417,0.053l-0.053-0.057v-0.273l0.053-0.049
			c0.195-0.009,0.39-0.031,0.582-0.065c0.057-0.01,0.109-0.037,0.15-0.077c0.04-0.053,0.066-0.115,0.078-0.179
			c0.033-0.294,0.051-0.591,0.052-0.887c0-0.509,0.025-0.867,0.025-1.066v-4.884c0-0.191,0-0.436-0.021-0.737
			c-0.004-0.174-0.018-0.348-0.041-0.521c-0.017-0.049-0.05-0.091-0.093-0.118c-0.101-0.042-0.21-0.059-0.318-0.049h-0.407
			l-0.057-0.053v-0.273l0.053-0.057c0.653-0.083,1.293-0.241,1.909-0.472 M219.946,74.763c0.433,0.471,1.043,0.741,1.685,0.745
			c0.603,0.023,1.179-0.252,1.539-0.736c0.38-0.52,0.577-1.152,0.558-1.795c0.006-0.403-0.079-0.803-0.248-1.168
			c-0.155-0.341-0.413-0.626-0.737-0.814c-0.307-0.182-0.657-0.279-1.014-0.281c-0.23,0-0.457,0.043-0.672,0.126
			c-0.217,0.085-0.419,0.205-0.598,0.354c-0.149,0.113-0.279,0.25-0.383,0.407c-0.058,0.089-0.099,0.188-0.122,0.293
			c-0.006,0.119-0.006,0.239,0,0.358L219.946,74.763z"/>
	</g>
</g>
</svg>