<?xml version="1.0" encoding="utf-8"?>
<!-- Generator: Adobe Illustrator 16.0.0, SVG Export Plug-In . SVG Version: 6.00 Build 0)  -->
<!DOCTYPE svg PUBLIC "-//W3C//DTD SVG 1.1//EN" "http://www.w3.org/Graphics/SVG/1.1/DTD/svg11.dtd">
<svg version="1.1" id="Слой_1" xmlns="http://www.w3.org/2000/svg" xmlns:xlink="http://www.w3.org/1999/xlink" x="0px" y="0px" width="140px" height="172px" viewBox="1.792 0 120.208 148.192" enable-background="new 1.792 0 120.208 148.192"
	 xml:space="preserve">
<title>Ресурс 3</title>
<g id="Слой_2">
	<g id="Layer_1">
		<path fill="#FFFFFF" d="M30.315,110.9c-0.907-1.046-2.043-1.868-3.321-2.402c-1.468-0.594-3.042-0.884-4.625-0.852
			c-1.472-0.024-2.934,0.245-4.301,0.79c-1.206,0.497-2.297,1.237-3.203,2.176c-0.888,0.942-1.581,2.051-2.038,3.262
			c-0.445,1.17-0.722,2.398-0.82,3.647H8.764v-7.002h2.646v-2.511H1.792v2.511h2.764v17.058H1.792v2.506h9.619v-2.508H8.764v-7.547
			h3.189c0.056,1.332,0.293,2.648,0.704,3.917c0.409,1.267,1.073,2.437,1.949,3.438c0.892,0.989,1.997,1.762,3.23,2.264
			c1.441,0.563,2.98,0.837,4.528,0.803c1.576,0.031,3.141-0.264,4.598-0.867c1.278-0.545,2.418-1.371,3.334-2.415
			c0.907-1.063,1.586-2.302,1.995-3.638c0.875-2.933,0.875-6.057,0-8.989C31.885,113.206,31.213,111.967,30.315,110.9
			 M22.67,127.941c-1.008,0.031-2.007-0.197-2.902-0.664c-0.783-0.437-1.444-1.064-1.921-1.824
			c-0.529-0.864-0.896-1.818-1.084-2.814c-0.235-1.184-0.349-2.388-0.342-3.595c-0.004-1.202,0.081-2.402,0.256-3.59
			c0.136-0.983,0.442-1.936,0.905-2.814c0.403-0.747,0.994-1.376,1.713-1.827c0.711-0.453,1.646-0.679,2.78-0.679
			c1.2,0,2.205,0.227,2.991,0.679c0.78,0.443,1.437,1.075,1.908,1.838c0.519,0.867,0.877,1.82,1.057,2.814
			c0.222,1.176,0.332,2.371,0.326,3.567c0.006,1.199-0.094,2.396-0.296,3.577c-0.161,0.988-0.489,1.941-0.971,2.818
			c-0.421,0.751-1.025,1.385-1.754,1.843c-0.806,0.472-1.727,0.708-2.66,0.679"/>
		<path fill="#FFFFFF" d="M46.646,108.011H34.123v2.503h2.757v17.06h-2.757v2.506h10.002v-2.504h-3.029v-5.709h0.11
			c0.249,0.02,0.514,0.036,0.792,0.045c0.279,0.009,0.543,0.014,0.791,0.014h0.545c1.202,0.002,2.4-0.132,3.57-0.403
			c1.098-0.247,2.146-0.675,3.101-1.268c0.9-0.567,1.656-1.334,2.21-2.244c0.585-0.997,0.879-2.138,0.851-3.293
			c0-1.324-0.281-2.454-0.833-3.355c-0.536-0.879-1.275-1.618-2.155-2.153c-0.869-0.529-2.282-0.994-3.396-1.213 M43.031,110.261
			c1.705,0,3.058,0.374,4.025,1.104c0.966,0.731,1.406,1.812,1.406,3.355c0.021,0.745-0.123,1.485-0.419,2.168
			c-0.256,0.562-0.645,1.052-1.132,1.431c-0.507,0.385-1.085,0.666-1.7,0.829c-0.693,0.186-1.408,0.277-2.126,0.274h-0.522
			c-0.227,0-0.453,0-0.679-0.029c-0.227-0.029-0.48-0.036-0.697-0.047H41.1v-8.958c0.186-0.03,0.385-0.053,0.602-0.07
			c0.349-0.03,0.797-0.045,1.334-0.045"/>
		<polygon fill="#FFFFFF" points="69.787,110.517 72.49,110.517 72.49,110.64 62.627,122.798 62,123.715 62.082,123.213 
			62.085,110.517 64.608,110.517 64.608,108.009 55.113,108.009 55.113,110.517 57.877,110.517 57.877,127.577 55.113,127.577 
			55.113,130.083 64.608,130.083 64.608,127.577 61.873,127.577 61.873,127.514 71.87,115.228 72.382,114.449 72.314,114.918 
			72.309,127.577 69.787,127.577 69.787,130.083 79.284,130.083 79.284,127.577 76.518,127.577 76.518,110.517 79.284,110.517 
			79.284,108.009 69.787,108.009 		"/>
		<path fill="#FFFFFF" d="M96.012,126.773l-0.308,0.419c-0.279,0.167-0.586,0.282-0.906,0.339c-0.576,0.116-1.163,0.169-1.75,0.158
			c-2.526,0-4.509-0.751-5.885-2.227c-1.377-1.476-2.097-3.647-2.097-6.425c-0.03-1.351,0.168-2.697,0.586-3.982
			c0.327-0.99,0.861-1.899,1.566-2.667c0.646-0.676,1.44-1.192,2.321-1.51c1.65-0.535,3.41-0.637,5.111-0.294
			c0.387,0.113,0.679,0.227,0.905,0.304l0.286,0.409v3.478h2.752v-5.87l-0.247-0.104c-0.39-0.163-0.797-0.322-1.209-0.464
			c-0.449-0.154-0.907-0.281-1.372-0.38c-0.543-0.107-1.091-0.183-1.643-0.226c-0.6-0.05-1.277-0.077-2.01-0.077
			c-1.489-0.006-2.971,0.204-4.399,0.625c-1.375,0.397-2.652,1.079-3.746,2.001c-1.114,0.973-1.992,2.186-2.567,3.547
			c-0.627,1.433-0.944,3.188-0.944,5.221c0,1.965,0.285,3.681,0.849,5.1c0.526,1.369,1.371,2.592,2.463,3.57
			c1.131,0.975,2.466,1.684,3.907,2.076c1.67,0.456,3.395,0.677,5.125,0.656c1.06-0.003,2.117-0.119,3.153-0.344
			c0.904-0.173,1.779-0.473,2.599-0.892l0.21-0.116v-5.41h-2.752V126.773z"/>
		<polygon fill="#FFFFFF" points="101.325,108.009 101.325,115.104 104.317,115.104 104.317,110.938 104.702,110.517 
			109.558,110.517 109.558,127.577 106.429,127.577 106.429,130.083 116.897,130.083 116.897,127.577 113.767,127.577 
			113.767,110.517 118.625,110.517 119.007,110.938 119.007,115.104 122,115.104 122,108.009 		"/>
		<path fill="#FFFFFF" d="M26.338,143.299v-0.197l0.036-0.034c0.143-0.018,0.283-0.048,0.419-0.093
			c0.071-0.023,0.133-0.065,0.181-0.122c0.031-0.051,0.05-0.108,0.057-0.167c0-0.066,0.015-0.227,0.022-0.509
			c0.006-0.283,0.013-0.484,0.013-0.63v-0.851c0.023-0.428-0.001-0.857-0.075-1.279c-0.047-0.115-0.256-0.192-0.62-0.24
			l-0.037-0.038v-0.202l0.037-0.032c0.946,0.024,1.831,0.037,2.655,0.037c0.771,0,1.658-0.012,2.66-0.037l0.034,0.032v0.202
			l-0.034,0.038c-0.144,0.015-0.286,0.045-0.423,0.091c-0.063,0.021-0.121,0.056-0.167,0.104c-0.031,0.039-0.053,0.084-0.061,0.134
			c0,0.054-0.018,0.227-0.029,0.507c-0.012,0.281-0.016,0.512-0.016,0.679v0.851c0,0.74,0.025,1.166,0.075,1.279
			c0.049,0.109,0.258,0.19,0.623,0.243l0.034,0.034v0.202l-0.034,0.039c-0.439-0.025-0.804-0.039-1.091-0.039
			s-0.643,0.014-1.089,0.039l-0.034-0.039v-0.197l0.034-0.034c0.37-0.051,0.578-0.135,0.625-0.251
			c0.071-0.42,0.094-0.846,0.07-1.271v-2.264l-0.036-0.034h-2.275l-0.036,0.034v2.264c0,0.738,0.025,1.162,0.075,1.277
			c0.049,0.115,0.258,0.193,0.623,0.245l0.029,0.034v0.197l-0.029,0.039c-0.439-0.025-0.804-0.039-1.089-0.039
			c-0.285,0-0.654,0.014-1.089,0.039L26.338,143.299z"/>
		<path fill="#FFFFFF" d="M33.845,138.758l0.085,0.057c-0.031,0.369-0.047,0.679-0.052,0.951c0.194-0.181,0.387-0.353,0.575-0.514
			c0.121-0.11,0.248-0.211,0.383-0.303c0.096-0.048,0.199-0.082,0.306-0.1c0.165-0.032,0.333-0.046,0.5-0.043
			c0.508-0.025,1.003,0.169,1.358,0.534c0.34,0.375,0.52,0.868,0.5,1.374c-0.001,0.24-0.04,0.478-0.113,0.707
			c-0.071,0.229-0.169,0.449-0.292,0.654c-0.075,0.139-0.169,0.267-0.281,0.378c-0.177,0.129-0.36,0.247-0.55,0.355
			c-0.123,0.073-0.247,0.154-0.372,0.248c-0.179,0.126-0.297,0.206-0.351,0.237c-0.086,0.045-0.178,0.077-0.274,0.095
			c-0.135,0.031-0.273,0.046-0.412,0.045c-0.341-0.004-0.675-0.089-0.976-0.249v0.88c0,0.237,0,0.542,0.02,0.906
			c-0.004,0.208,0.017,0.417,0.063,0.62c0.023,0.045,0.064,0.08,0.113,0.095c0.149,0.029,0.3,0.047,0.453,0.057l0.041,0.038v0.197
			l-0.041,0.043c-0.378-0.025-0.727-0.036-1.048-0.036c-0.321,0-0.667,0.011-1.043,0.036l-0.038-0.043v-0.197l0.038-0.038
			c0.143-0.008,0.286-0.024,0.428-0.048c0.042-0.008,0.08-0.029,0.109-0.059c0.029-0.039,0.049-0.083,0.057-0.131
			c0.026-0.217,0.04-0.436,0.041-0.654c0.012-0.375,0.019-0.638,0.021-0.786v-3.622c0-0.141,0-0.324-0.016-0.543
			c-0.003-0.128-0.013-0.255-0.032-0.382c-0.011-0.038-0.036-0.069-0.07-0.089c-0.071-0.03-0.149-0.043-0.227-0.036h-0.303
			l-0.041-0.039v-0.201l0.039-0.041c0.48-0.062,0.953-0.178,1.406-0.349 M33.883,142.385c0.321,0.346,0.771,0.543,1.243,0.545
			c0.443,0.015,0.866-0.187,1.132-0.541c0.28-0.384,0.424-0.85,0.41-1.324c0.005-0.297-0.057-0.591-0.182-0.86
			c-0.116-0.248-0.306-0.452-0.543-0.587c-0.226-0.134-0.482-0.205-0.745-0.206c-0.169,0-0.337,0.03-0.496,0.09
			c-0.16,0.063-0.31,0.151-0.441,0.263c-0.111,0.087-0.207,0.192-0.283,0.312c-0.044,0.069-0.074,0.146-0.088,0.227
			c-0.005,0.088-0.005,0.175,0,0.263L33.883,142.385z"/>
		<path fill="#FFFFFF" d="M38.886,140.11l-0.183-0.046l-0.039-0.049c0-0.05,0-0.113,0-0.192v-0.392
			c0.272-0.184,0.56-0.344,0.86-0.478c0.244-0.098,0.505-0.148,0.768-0.147c0.418-0.023,0.83,0.114,1.152,0.383
			c0.288,0.265,0.444,0.644,0.426,1.034l-0.025,0.949v1.403c-0.008,0.114,0.006,0.228,0.043,0.335
			c0.024,0.049,0.065,0.087,0.115,0.108c0.099,0.027,0.201,0.042,0.303,0.045l0.037,0.043v0.192l-0.037,0.036
			c-0.244-0.022-0.437-0.032-0.575-0.032c-0.138,0-0.335,0-0.613,0.032l-0.07-0.066l0.018-0.758l-0.602,0.471
			c-0.21,0.167-0.351,0.276-0.423,0.331c-0.18,0.074-0.372,0.111-0.566,0.109c-0.321,0.018-0.637-0.09-0.881-0.299
			c-0.221-0.21-0.339-0.507-0.324-0.813c-0.014-0.314,0.084-0.622,0.279-0.87c0.224-0.251,0.515-0.434,0.84-0.527
			c0.548-0.165,1.109-0.281,1.677-0.347c0.002-0.167-0.01-0.334-0.039-0.498c-0.03-0.146-0.097-0.281-0.194-0.394
			c-0.103-0.124-0.235-0.22-0.385-0.281c-0.167-0.064-0.344-0.095-0.522-0.093c-0.102,0.001-0.203,0.009-0.304,0.025
			c-0.093,0.018-0.184,0.046-0.271,0.083c-0.055,0.021-0.108,0.048-0.157,0.082c-0.024,0.023-0.042,0.052-0.052,0.083l-0.104,0.227
			c-0.044,0.094-0.083,0.189-0.116,0.288L38.886,140.11z M41.069,140.838c-0.529,0.057-1.045,0.204-1.526,0.432
			c-0.292,0.169-0.463,0.49-0.439,0.827c-0.015,0.205,0.057,0.408,0.197,0.559c0.142,0.131,0.331,0.199,0.523,0.19
			c0.418,0,0.83-0.242,1.236-0.726L41.069,140.838z"/>
		<path fill="#FFFFFF" d="M42.993,143.299V143.1l0.036-0.034c0.146-0.007,0.29-0.028,0.431-0.063
			c0.054-0.024,0.099-0.066,0.124-0.12c0.046-0.139,0.065-0.286,0.057-0.432c0-0.227,0-0.542,0-0.935v-0.802
			c0-0.245,0-0.518,0-0.819c0.011-0.184-0.01-0.369-0.062-0.545c-0.028-0.055-0.074-0.098-0.131-0.12
			c-0.138-0.035-0.279-0.054-0.421-0.059l-0.037-0.039v-0.199l0.037-0.031c0.43,0.025,0.756,0.039,0.98,0.039h0.452
			c0.548-0.016,0.924-0.023,1.132-0.023c0.286-0.024,0.571,0.062,0.797,0.24c0.167,0.156,0.259,0.375,0.253,0.604
			c0,0.515-0.35,0.867-1.05,1.055c0.348-0.006,0.688,0.108,0.962,0.324c0.207,0.189,0.32,0.46,0.31,0.74
			c-0.003,0.379-0.156,0.741-0.425,1.007c-0.284,0.302-0.737,0.453-1.358,0.453h-0.276c-0.26-0.014-0.468-0.019-0.622-0.019
			l-1.132,0.039L42.993,143.299z M44.394,140.748c0.127,0,0.227,0,0.301,0c0.437,0,0.743-0.07,0.906-0.215
			c0.175-0.144,0.273-0.362,0.263-0.589c0.008-0.203-0.068-0.4-0.209-0.545c-0.209-0.165-0.475-0.242-0.74-0.213
			c-0.156,0-0.322,0-0.494,0.022L44.394,140.748z M44.394,141.031l0.034,1.963c0.171,0.023,0.343,0.035,0.516,0.034
			c0.229,0.011,0.455-0.045,0.652-0.161c0.148-0.093,0.266-0.225,0.34-0.383c0.07-0.157,0.106-0.327,0.104-0.498
			c0.004-0.191-0.044-0.38-0.14-0.546c-0.093-0.156-0.239-0.271-0.413-0.326c-0.243-0.069-0.495-0.099-0.747-0.091
			c-0.082,0-0.2,0-0.354,0.016"/>
		<path fill="#FFFFFF" d="M52.331,140.929c0.005,0.365-0.059,0.729-0.19,1.071c-0.123,0.309-0.312,0.588-0.552,0.817
			c-0.212,0.208-0.465,0.372-0.743,0.479c-0.292,0.098-0.598,0.145-0.905,0.139c-0.773,0-1.36-0.222-1.764-0.664
			c-0.407-0.455-0.624-1.049-0.604-1.66c-0.008-0.423,0.091-0.841,0.29-1.215c0.191-0.353,0.486-0.637,0.844-0.815
			c0.404-0.195,0.849-0.292,1.297-0.281c0.429-0.011,0.854,0.082,1.238,0.272c0.336,0.171,0.617,0.436,0.806,0.763
			c0.191,0.333,0.289,0.71,0.285,1.093 M51.428,141.208c0.026-0.532-0.109-1.059-0.389-1.512c-0.252-0.375-0.681-0.591-1.132-0.57
			c-0.391-0.013-0.766,0.149-1.025,0.441c-0.265,0.294-0.394,0.738-0.394,1.331c-0.018,0.555,0.12,1.104,0.396,1.584
			c0.227,0.42,0.671,0.677,1.147,0.664c0.411,0.014,0.799-0.185,1.028-0.525c0.268-0.417,0.398-0.907,0.374-1.401"/>
		<path fill="#FFFFFF" d="M52.938,143.299V143.1l0.036-0.034c0.144-0.007,0.288-0.028,0.428-0.063
			c0.056-0.023,0.101-0.066,0.127-0.12c0.046-0.139,0.066-0.286,0.059-0.432c0-0.227,0-0.542,0-0.935v-0.802
			c0-0.245,0-0.516,0-0.819c0.011-0.184-0.01-0.369-0.061-0.545c-0.028-0.054-0.073-0.096-0.129-0.12
			c-0.139-0.034-0.281-0.054-0.423-0.059l-0.036-0.039v-0.199l0.036-0.031c0.43,0.025,0.758,0.039,0.98,0.039
			c0.106,0,0.255,0,0.452,0c0.548-0.016,0.926-0.023,1.132-0.023c0.286-0.023,0.57,0.062,0.795,0.24
			c0.167,0.155,0.261,0.375,0.255,0.604c0,0.515-0.35,0.867-1.05,1.055c0.348-0.006,0.687,0.108,0.96,0.324
			c0.207,0.189,0.32,0.46,0.31,0.74c-0.002,0.379-0.155,0.741-0.425,1.007c-0.285,0.302-0.738,0.453-1.358,0.453h-0.276
			c-0.26-0.014-0.466-0.019-0.621-0.019l-1.132,0.039L52.938,143.299z M54.341,140.748c0.126,0,0.227,0,0.301,0
			c0.317,0.028,0.635-0.047,0.905-0.215c0.175-0.144,0.272-0.363,0.26-0.589c0.008-0.203-0.068-0.4-0.21-0.545
			c-0.21-0.166-0.476-0.242-0.741-0.213c-0.156,0-0.321,0-0.494,0.022L54.341,140.748z M54.341,141.031l0.034,1.963
			c0.171,0.023,0.344,0.035,0.516,0.034c0.229,0.011,0.456-0.045,0.652-0.161c0.152-0.09,0.275-0.224,0.354-0.383
			c0.07-0.157,0.106-0.327,0.104-0.498c0.003-0.191-0.044-0.38-0.141-0.546c-0.093-0.156-0.241-0.271-0.414-0.326
			c-0.242-0.069-0.494-0.099-0.745-0.091c-0.082,0-0.2,0-0.354,0.016"/>
		<path fill="#FFFFFF" d="M62.271,140.929c0.006,0.365-0.059,0.729-0.19,1.071c-0.123,0.31-0.311,0.588-0.553,0.817
			c-0.212,0.209-0.464,0.374-0.743,0.482c-0.291,0.098-0.598,0.145-0.905,0.138c-0.773,0-1.36-0.221-1.763-0.664
			c-0.408-0.454-0.625-1.049-0.604-1.659c-0.008-0.424,0.093-0.842,0.292-1.216c0.19-0.352,0.485-0.637,0.844-0.815
			c0.404-0.195,0.849-0.292,1.297-0.281c0.429-0.011,0.854,0.082,1.239,0.272c0.333,0.172,0.611,0.437,0.796,0.763
			c0.191,0.333,0.29,0.71,0.286,1.093 M61.362,141.21c0.026-0.532-0.109-1.06-0.39-1.513c-0.251-0.375-0.681-0.591-1.132-0.57
			c-0.39-0.013-0.765,0.149-1.023,0.441c-0.265,0.294-0.398,0.738-0.398,1.332c-0.017,0.555,0.122,1.104,0.4,1.584
			c0.227,0.42,0.671,0.677,1.148,0.664c0.409,0.011,0.795-0.188,1.023-0.528c0.267-0.417,0.397-0.907,0.373-1.401"/>
		<path fill="#FFFFFF" d="M62.962,143.299V143.1L63,143.068c0.142-0.018,0.282-0.049,0.419-0.093
			c0.072-0.021,0.135-0.063,0.181-0.122c0.032-0.051,0.051-0.108,0.057-0.167c0-0.066,0.016-0.227,0.022-0.512
			s0.013-0.485,0.013-0.627v-0.853c0.024-0.429,0-0.86-0.074-1.284c-0.048-0.113-0.255-0.192-0.618-0.238l-0.039-0.039v-0.199
			L63,138.903c0.437,0.024,0.797,0.036,1.086,0.036c0.29,0,0.643-0.012,1.089-0.036l0.032,0.031v0.199l-0.032,0.039
			c-0.144,0.015-0.286,0.044-0.423,0.088c-0.063,0.022-0.119,0.058-0.166,0.104c-0.032,0.037-0.054,0.083-0.061,0.133
			c-0.011,0.055-0.021,0.227-0.032,0.512c-0.011,0.286-0.016,0.514-0.016,0.68v1.944l0.075,0.03
			c0.301-0.453,0.687-1.077,1.154-1.873s0.827-1.426,1.078-1.89c0.292,0.025,0.541,0.036,0.74,0.036s0.453-0.011,0.751-0.036
			l0.039,0.031v0.199l-0.039,0.039c-0.369,0.045-0.575,0.127-0.621,0.247c-0.071,0.421-0.095,0.848-0.072,1.274v0.854
			c-0.024,0.427,0.001,0.855,0.074,1.277c0.048,0.113,0.254,0.195,0.618,0.245l0.039,0.031v0.202l-0.039,0.039
			c-0.437-0.027-0.799-0.039-1.086-0.039s-0.643,0-1.087,0.039l-0.039-0.039V143.1l0.039-0.032c0.367-0.05,0.573-0.133,0.623-0.249
			c0.074-0.42,0.099-0.847,0.075-1.272v-1.917l-0.075-0.029c-0.229,0.339-0.596,0.943-1.1,1.811
			c-0.504,0.867-0.857,1.506-1.059,1.917c-0.294-0.027-0.537-0.039-0.725-0.039c-0.188,0-0.484,0-0.837,0.039L62.962,143.299z
			 M64.32,137.307l0.453-0.357l0.118,0.061c0.121,0.549,0.428,0.824,0.921,0.824c0.227,0.007,0.448-0.074,0.616-0.226
			c0.164-0.172,0.246-0.407,0.226-0.644l0.123-0.038l0.201,0.505c-0.324,0.423-0.825,0.674-1.358,0.679
			c-0.269,0.005-0.532-0.068-0.759-0.211c-0.234-0.154-0.43-0.36-0.57-0.602"/>
		<path fill="#FFFFFF" d="M71.465,143.299v-0.197l0.039-0.032c0.142-0.017,0.283-0.049,0.419-0.095
			c0.071-0.021,0.135-0.063,0.183-0.12c0.03-0.051,0.048-0.108,0.055-0.167c0-0.066,0.016-0.226,0.023-0.511
			c0.006-0.286,0.014-0.484,0.014-0.63v-0.851c0-0.741-0.025-1.168-0.075-1.281s-0.255-0.193-0.618-0.24l-0.039-0.039v-0.199
			l0.039-0.032c0.435,0.025,0.799,0.037,1.086,0.037c0.288,0,0.65-0.011,1.087-0.037l0.034,0.032v0.199l-0.034,0.039
			c-0.143,0.015-0.283,0.044-0.419,0.088c-0.063,0.023-0.119,0.059-0.167,0.104c-0.033,0.039-0.055,0.086-0.063,0.136
			c0,0.054-0.018,0.227-0.029,0.512s-0.016,0.514-0.016,0.679v2.264l0.036,0.039h2.28l0.038-0.039v-2.264
			c0.023-0.429-0.001-0.858-0.073-1.281c-0.049-0.115-0.258-0.195-0.625-0.24l-0.034-0.039v-0.199l0.034-0.031
			c0.439,0.024,0.802,0.036,1.089,0.036s0.65-0.012,1.091-0.036l0.034,0.031v0.199l-0.034,0.039
			c-0.144,0.015-0.286,0.045-0.423,0.088c-0.062,0.022-0.118,0.058-0.165,0.104c-0.032,0.039-0.053,0.086-0.062,0.135
			c0,0.054-0.018,0.227-0.029,0.505c-0.012,0.278-0.016,0.512-0.016,0.679v2.264l0.036,0.038c0.255,0,0.502-0.021,0.74-0.048
			L76.961,143c-0.178,0.547-0.314,1.108-0.41,1.675h-0.226c0-0.308,0-0.571-0.023-0.794c0.003-0.139-0.022-0.278-0.072-0.408
			c-0.042-0.057-0.101-0.099-0.168-0.12c-0.208-0.044-0.422-0.063-0.636-0.057c-0.347,0-0.716-0.011-1.105-0.011h-1.234
			l-0.973,0.014c-0.24,0-0.453,0-0.609,0.016L71.465,143.299z"/>
		<path fill="#FFFFFF" d="M81.378,142.62l-0.149,0.34c-0.268,0.183-0.563,0.321-0.876,0.409c-0.222,0.059-0.45,0.09-0.679,0.095
			c-0.369,0-0.734-0.077-1.071-0.227c-0.346-0.156-0.633-0.418-0.82-0.749c-0.22-0.387-0.33-0.826-0.316-1.271
			c-0.004-0.302,0.037-0.603,0.122-0.892c0.056-0.208,0.142-0.407,0.256-0.591c0.127-0.166,0.28-0.31,0.453-0.428
			c0.208-0.155,0.437-0.283,0.68-0.378c0.245-0.095,0.506-0.143,0.77-0.141c0.351-0.006,0.696,0.086,0.996,0.268
			c0.269,0.156,0.48,0.394,0.604,0.679c0.116,0.279,0.175,0.577,0.175,0.878c0,0.095-0.004,0.189-0.014,0.283l-0.052,0.052
			c-0.285,0.055-0.573,0.087-0.863,0.095c-0.36,0.016-0.6,0.024-0.715,0.024h-1.514c0,0.649,0.163,1.127,0.489,1.436
			c0.314,0.307,0.738,0.475,1.177,0.464c0.215,0,0.43-0.04,0.631-0.115c0.224-0.085,0.439-0.19,0.644-0.315L81.378,142.62z
			 M78.361,140.694c0.056,0,0.273,0.02,0.652,0.032c0.378,0.011,0.661,0.02,0.842,0.02c0.267,0.007,0.533-0.001,0.799-0.024
			c0-0.075,0-0.134,0-0.174c0.03-0.386-0.075-0.77-0.297-1.087c-0.201-0.238-0.501-0.37-0.813-0.355
			c-0.339-0.016-0.665,0.133-0.874,0.401c-0.234,0.349-0.344,0.767-0.314,1.186"/>
		<path fill="#FFFFFF" d="M83.465,140.85c0.577,0.014,0.976,0.019,1.195,0.019c0.256,0,0.649,0,1.182-0.019v-0.128
			c0-0.227,0-0.503,0-0.809c0.009-0.187-0.011-0.374-0.059-0.555c-0.026-0.054-0.071-0.098-0.126-0.123
			c-0.14-0.034-0.282-0.054-0.426-0.059l-0.039-0.038v-0.199l0.039-0.032c0.313,0.025,0.645,0.037,0.992,0.037
			s0.695-0.012,0.994-0.037l0.036,0.032v0.199l-0.036,0.038c-0.146,0.007-0.29,0.028-0.432,0.061
			c-0.054,0.025-0.097,0.069-0.122,0.123c-0.044,0.147-0.063,0.3-0.057,0.453c0,0.245,0,0.546,0,0.905v0.801v0.825
			c-0.009,0.184,0.011,0.368,0.061,0.545c0.025,0.055,0.072,0.097,0.129,0.118c0.139,0.033,0.281,0.053,0.423,0.061l0.036,0.034
			v0.197l-0.036,0.039c-0.315-0.025-0.646-0.039-0.994-0.039c-0.349,0-0.695,0.011-0.992,0.039l-0.039-0.039V143.1l0.039-0.034
			c0.145-0.007,0.289-0.028,0.43-0.063c0.057-0.021,0.102-0.064,0.127-0.12c0.043-0.141,0.063-0.288,0.056-0.435
			c0-0.227,0-0.539,0-0.929v-0.378c-0.346,0-0.742-0.014-1.182-0.014c-0.398,0-0.797,0.005-1.195,0.014v0.378
			c0,0.248,0,0.523,0,0.827c-0.008,0.183,0.013,0.366,0.062,0.543c0.025,0.055,0.072,0.097,0.129,0.118
			c0.139,0.033,0.281,0.053,0.423,0.061l0.039,0.034v0.197l-0.039,0.039c-0.313-0.025-0.646-0.039-0.992-0.039
			c-0.347,0-0.697,0.011-0.991,0.039l-0.039-0.039V143.1l0.039-0.034c0.144-0.007,0.287-0.028,0.427-0.063
			c0.054-0.025,0.098-0.067,0.125-0.12c0.046-0.139,0.066-0.286,0.059-0.432c0-0.227,0-0.542,0-0.933v-0.802
			c0-0.245,0-0.519,0-0.819c0.01-0.184-0.011-0.369-0.061-0.546c-0.028-0.054-0.073-0.096-0.129-0.12
			c-0.138-0.035-0.279-0.055-0.421-0.059l-0.039-0.039v-0.199l0.039-0.031c0.311,0.024,0.641,0.036,0.991,0.036
			c0.365,0,0.695-0.012,0.992-0.036l0.039,0.031v0.199l-0.039,0.039c-0.146,0.007-0.29,0.027-0.43,0.062
			c-0.057,0.021-0.103,0.064-0.127,0.12c-0.042,0.14-0.062,0.286-0.057,0.432c0,0.228,0,0.539,0,0.931L83.465,140.85z"/>
		<path fill="#FFFFFF" d="M87.645,138.941l0.036-0.032c0.611,0.03,1.297,0.045,2.058,0.045s1.447-0.015,2.058-0.045l0.034,0.032
			c-0.021,0.414-0.029,0.765-0.029,1.051l-0.027,0.027h-0.188l-0.03-0.027c-0.015-0.203-0.048-0.403-0.098-0.6
			c-0.018-0.053-0.056-0.096-0.106-0.12c-0.085-0.024-0.175-0.033-0.264-0.027h-0.956l-0.021,1.204v1.075
			c0,0.227,0,0.503,0.011,0.813c-0.01,0.187,0.009,0.373,0.057,0.553c0.024,0.055,0.07,0.098,0.126,0.12
			c0.14,0.035,0.283,0.056,0.428,0.063l0.038,0.034v0.192l-0.038,0.036c-0.315-0.025-0.645-0.036-0.994-0.036s-0.695,0-0.994,0.036
			l-0.036-0.036V143.1l0.036-0.034c0.145-0.007,0.289-0.028,0.43-0.063c0.057-0.023,0.102-0.067,0.127-0.123
			c0.043-0.146,0.062-0.3,0.057-0.452c0-0.243,0-0.546,0-0.906v-1.059c0-0.41-0.019-0.815-0.022-1.22H88.38
			c-0.092-0.006-0.184,0.004-0.272,0.029c-0.051,0.028-0.088,0.077-0.102,0.133c-0.047,0.193-0.079,0.389-0.097,0.587l-0.027,0.027
			h-0.184l-0.034-0.027c0-0.127,0-0.476-0.027-1.051"/>
		<path fill="#FFFFFF" d="M93.764,138.758l0.083,0.057c-0.029,0.369-0.047,0.679-0.05,0.951c0.193-0.181,0.384-0.353,0.573-0.514
			c0.121-0.11,0.248-0.211,0.382-0.303c0.097-0.048,0.2-0.082,0.306-0.1c0.165-0.032,0.333-0.046,0.5-0.043
			c0.508-0.025,1.003,0.17,1.358,0.534c0.338,0.376,0.517,0.869,0.498,1.374c-0.001,0.24-0.04,0.478-0.113,0.707
			c-0.071,0.229-0.17,0.449-0.295,0.654c-0.075,0.139-0.169,0.266-0.278,0.378c-0.178,0.128-0.362,0.247-0.552,0.355
			c-0.123,0.073-0.247,0.154-0.374,0.248c-0.179,0.126-0.294,0.206-0.349,0.237c-0.086,0.045-0.178,0.077-0.274,0.095
			c-0.136,0.031-0.273,0.046-0.412,0.045c-0.34-0.003-0.674-0.089-0.974-0.249v0.88c0,0.237,0,0.542,0.021,0.906
			c-0.004,0.208,0.017,0.417,0.061,0.62c0.024,0.045,0.065,0.079,0.113,0.095c0.149,0.028,0.301,0.047,0.453,0.057l0.043,0.038
			v0.197l-0.043,0.043c-0.375-0.025-0.727-0.036-1.045-0.036c-0.319,0-0.679,0.011-1.044,0.036l-0.039-0.043v-0.197l0.039-0.038
			c0.145-0.008,0.288-0.024,0.431-0.048c0.041-0.008,0.079-0.028,0.108-0.059c0.029-0.039,0.048-0.083,0.057-0.131
			c0.024-0.217,0.037-0.436,0.038-0.654c0.014-0.375,0.021-0.636,0.021-0.786v-3.622c0-0.141,0-0.324-0.016-0.543
			c-0.003-0.128-0.013-0.255-0.03-0.382c-0.012-0.037-0.037-0.069-0.07-0.089c-0.071-0.03-0.149-0.042-0.226-0.036h-0.304
			l-0.04-0.039v-0.201l0.038-0.041c0.481-0.061,0.954-0.178,1.408-0.349 M93.802,142.385c0.32,0.346,0.769,0.543,1.241,0.545
			c0.443,0.018,0.867-0.184,1.132-0.541c0.281-0.383,0.427-0.849,0.412-1.324c0.005-0.297-0.057-0.591-0.181-0.86
			c-0.116-0.247-0.305-0.451-0.541-0.587c-0.227-0.134-0.484-0.205-0.747-0.206c-0.169,0-0.337,0.03-0.496,0.09
			c-0.161,0.063-0.31,0.151-0.442,0.263c-0.11,0.087-0.205,0.193-0.281,0.312c-0.044,0.069-0.074,0.146-0.088,0.227
			c-0.005,0.088-0.005,0.175,0,0.263L93.802,142.385z"/>
		<path fill="#FFFFFF" d="M70.702,83.677H53.805c-0.506,0-0.916,0.41-0.916,0.916c0,0.506,0.41,0.916,0.916,0.916h16.897
			c0.505,0,0.916-0.41,0.916-0.916C71.618,84.087,71.208,83.677,70.702,83.677 M70.702,85.128H53.805
			c-0.295,0-0.534-0.239-0.534-0.535c0-0.295,0.239-0.534,0.534-0.534h16.897c0.295,0,0.534,0.239,0.534,0.534
			C71.236,84.889,70.997,85.128,70.702,85.128"/>
		<path fill="#FFFFFF" d="M53.812,79.202c0-0.96-0.778-1.739-1.738-1.739c-0.96,0-1.739,0.779-1.739,1.739
			c0,0.96,0.778,1.739,1.739,1.739l0,0C53.033,80.939,53.811,80.162,53.812,79.202 M52.073,80.56c-0.75,0-1.358-0.607-1.358-1.358
			c0-0.75,0.608-1.358,1.358-1.358c0.75,0,1.358,0.609,1.358,1.358C53.431,79.952,52.823,80.56,52.073,80.56"/>
		<path fill="#FFFFFF" d="M72.423,77.463c-0.96,0-1.739,0.779-1.739,1.739c0,0.96,0.778,1.739,1.739,1.739
			c0.959,0,1.738-0.778,1.738-1.739l0,0C74.16,78.242,73.382,77.464,72.423,77.463 M72.423,80.558c-0.75,0-1.359-0.608-1.359-1.358
			c0-0.75,0.608-1.358,1.359-1.358c0.75,0,1.358,0.608,1.358,1.358C73.781,79.95,73.172,80.558,72.423,80.558"/>
		<path fill="#FFFFFF" d="M65.647,80.94c0.96,0,1.738-0.778,1.738-1.739c0-0.96-0.778-1.739-1.738-1.739s-1.739,0.779-1.739,1.739
			l0,0C63.909,80.162,64.687,80.939,65.647,80.94 M65.647,77.846c0.75,0,1.358,0.608,1.358,1.358c0,0.75-0.608,1.358-1.358,1.358
			c-0.75,0-1.358-0.608-1.358-1.358C64.289,78.454,64.896,77.846,65.647,77.846"/>
		<path fill="#FFFFFF" d="M58.862,80.94c0.96,0,1.738-0.778,1.738-1.739c0-0.96-0.778-1.739-1.738-1.739s-1.739,0.779-1.739,1.739
			l0,0C57.125,80.162,57.902,80.939,58.862,80.94 M58.862,77.846c0.75,0,1.358,0.608,1.358,1.358c0,0.75-0.608,1.358-1.358,1.358
			c-0.75,0-1.358-0.608-1.358-1.358C57.504,78.454,58.112,77.846,58.862,77.846"/>
		<path fill="#FFFFFF" d="M39.839,78.253c-3.5,0-6.338,2.838-6.338,6.339s2.838,6.339,6.338,6.339c3.501,0,6.339-2.838,6.339-6.339
			S43.34,78.253,39.839,78.253 M39.839,90.389c-3.201,0.001-5.796-2.592-5.797-5.793c-0.001-3.2,2.592-5.796,5.792-5.797
			c3.201-0.001,5.796,2.592,5.798,5.793c0,0,0,0.001,0,0.002C45.628,87.792,43.038,90.385,39.839,90.389"/>
		<path fill="#FFFFFF" d="M39.839,81.377c-1.775,0-3.214,1.439-3.214,3.214c0,1.775,1.439,3.215,3.214,3.215
			s3.215-1.439,3.215-3.215c0,0,0-0.001,0-0.002C43.05,82.816,41.613,81.379,39.839,81.377 M39.839,87.444
			c-1.575,0-2.852-1.277-2.852-2.852s1.277-2.852,2.852-2.852c1.576,0,2.853,1.277,2.853,2.852
			C42.69,86.167,41.415,87.443,39.839,87.444"/>
		<path fill="#FFFFFF" d="M91.006,84.592c0-3.501-2.838-6.339-6.339-6.339s-6.339,2.838-6.339,6.339s2.838,6.339,6.339,6.339
			S91.006,88.093,91.006,84.592 M78.872,84.592c0.001-3.201,2.597-5.794,5.797-5.793c3.201,0.001,5.795,2.597,5.793,5.797
			s-2.596,5.793-5.795,5.793C81.467,90.386,78.875,87.792,78.872,84.592"/>
		<path fill="#FFFFFF" d="M87.884,84.592c-0.001-1.775-1.441-3.213-3.217-3.212c-1.775,0.001-3.214,1.441-3.212,3.217
			c0.001,1.774,1.44,3.213,3.214,3.213C86.445,87.807,87.883,86.367,87.884,84.592 M81.815,84.592
			c0.001-1.575,1.279-2.852,2.854-2.85c1.575,0.001,2.852,1.279,2.85,2.854c0,1.575-1.278,2.85-2.852,2.85
			C83.092,87.444,81.816,86.167,81.815,84.592"/>
		<path fill="#FFFFFF" d="M80.572,71.69c0,0,0.933,0.093,0.933-2.49h-1.949C79.556,69.2,79.526,71.69,80.572,71.69"/>
		<path fill="#FFFFFF" d="M76.497,71.69c0,0,0.933,0.093,0.933-2.49h-1.951C75.479,69.2,75.452,71.69,76.497,71.69"/>
		<path fill="#FFFFFF" d="M72.443,71.69c0,0,0.933,0.093,0.933-2.49h-1.949C71.426,69.2,71.399,71.69,72.443,71.69"/>
		<path fill="#FFFFFF" d="M68.384,71.69c0,0,0.933,0.093,0.933-2.49h-1.951C67.365,69.2,67.338,71.69,68.384,71.69"/>
		<path fill="#FFFFFF" d="M64.325,71.69c0,0,0.933,0.093,0.933-2.49h-1.949C63.309,69.2,63.281,71.69,64.325,71.69"/>
		<path fill="#FFFFFF" d="M60.266,71.69c0,0,0.933,0.093,0.933-2.49h-1.949C59.249,69.2,59.222,71.69,60.266,71.69"/>
		<path fill="#FFFFFF" d="M56.207,71.69c0,0,0.935,0.093,0.935-2.49H55.19C55.19,69.2,55.161,71.69,56.207,71.69"/>
		<path fill="#FFFFFF" d="M51.77,71.557l0.679,0.027c0.272-0.199,0.634-0.768,0.634-2.37h-1.949c0,0-0.018,1.833,0.641,2.345"/>
		<path fill="#FFFFFF" d="M47.847,71.636c0.188-0.036,0.38-0.057,0.57-0.08c0.27-0.227,0.602-0.799,0.602-2.345h-1.951
			c0,0-0.02,2.073,0.776,2.424"/>
		<path fill="#FFFFFF" d="M43.762,71.625c0.152,0,0.304,0.013,0.453,0.022c0.271-0.122,0.747-0.596,0.747-2.436h-1.949
			c0,0-0.021,2.037,0.751,2.413"/>
		<path fill="#FFFFFF" d="M39.971,71.69c0,0,0.933,0.093,0.933-2.49h-1.951C38.952,69.2,38.925,71.69,39.971,71.69"/>
		<path fill="#FFFFFF" d="M84.622,71.69c0,0,0.933,0.093,0.933-2.49h-1.95C83.605,69.2,83.576,71.69,84.622,71.69"/>
		<path fill="#FFFFFF" d="M63.216,45.005c-0.51,1.098-0.87,2.259-1.071,3.452c-0.215,1.178-0.272,2.381-0.167,3.575
			c0.091-1.178,0.283-2.346,0.575-3.491c0.292-1.127,0.703-2.222,1.223-3.264c0.518-1.031,1.185-1.98,1.98-2.816
			c0.759-0.876,1.7-1.544,2.66-2.264c-1.132,0.385-2.25,0.953-3.106,1.838c-0.871,0.859-1.579,1.869-2.092,2.979"/>
		<path fill="#FFFFFF" d="M61.986,41.258c1.067-0.644,2.166-1.234,3.292-1.768c1.116-0.562,2.277-1.016,3.441-1.492
			c-1.222,0.3-2.417,0.699-3.575,1.193c-1.16,0.494-2.286,1.062-3.373,1.7c-1.084,0.646-2.129,1.354-3.131,2.121
			c-1.002,0.762-1.94,1.604-2.807,2.516c0.976-0.792,1.978-1.541,3.004-2.248c1.025-0.708,2.067-1.395,3.149-2.013"/>
		<path fill="#FFFFFF" d="M67.929,32.216c-0.452-0.157-0.949-0.121-1.374,0.1c0.439,0.201,0.817,0.317,1.188,0.453l1.172,0.421
			c-0.054-0.239-0.183-0.456-0.366-0.618C68.371,32.41,68.159,32.289,67.929,32.216"/>
		<path fill="#FFFFFF" d="M67.313,27.037c-0.458,0.072-0.834,0.401-0.967,0.846c0.431-0.147,0.734-0.296,1.082-0.405
			c0.373-0.105,0.757-0.164,1.144-0.176c-0.361-0.268-0.821-0.364-1.259-0.263"/>
		<path fill="#FFFFFF" d="M67.019,22.346c0.147-0.039,0.294-0.09,0.453-0.115c0.148-0.045,0.306-0.045,0.453,0
			c-0.118-0.126-0.28-0.202-0.453-0.213c-0.168-0.015-0.337-0.009-0.504,0.016c-0.327,0.048-0.646,0.139-0.949,0.267l0.138,0.335
			c0.29-0.091,0.579-0.227,0.876-0.301"/>
		<path fill="#FFFFFF" d="M63.68,22.007l-0.021-0.057c-0.32-0.055-0.644-0.09-0.969-0.104c-0.339-0.022-0.68,0.022-1.002,0.131
			c0.279,0.224,0.626,0.35,0.985,0.355C63.039,22.368,63.403,22.25,63.68,22.007"/>
		<path fill="#FFFFFF" d="M55.623,28.825c0.181-0.067,0.321-0.213,0.38-0.398c-0.144,0.062-0.297,0.094-0.453,0.097
			c-0.145,0.006-0.291,0.003-0.435-0.011c-0.299-0.021-0.609-0.075-0.962-0.083c0.248,0.25,0.574,0.41,0.924,0.453
			c0.185,0.03,0.374,0.01,0.547-0.059"/>
		<path fill="#FFFFFF" d="M104.614,45.12c-1.716-0.829-3.622-0.874-5.526-0.131c-2.605,1.021-4.885,3.432-6.13,6.466l0,0
			c-0.471-0.099-0.922-0.275-1.335-0.521c1.025-1.899,1.889-3.88,2.581-5.925l0.013,0.032c0.587-0.268,1.159-0.57,1.709-0.906
			c0.271-0.163,0.537-0.337,0.797-0.521c0.335,0.22,0.731,0.331,1.132,0.317c0.08,0,0.163,0,0.253,0
			c3.439-0.304,3.941-2.225,4.528-4.453l0.045-0.174c0.355-1.359,0.756-2.882,1.84-4.605l0.365-0.58l-0.679-0.066
			c-1.705-0.167-3.323,0.392-4.688,1.608c-1.911,1.698-3.086,4.505-3.149,7.5v0.077l0.029,0.045
			c-0.611,0.34-1.246,0.635-1.899,0.885c0.831-2.637,1.345-5.363,1.533-8.122c0.368-0.3,0.712-0.628,1.028-0.982
			c0.303-0.35,0.584-0.716,0.842-1.101c0.156,0.082,0.331,0.124,0.507,0.123c0.222-0.004,0.439-0.057,0.639-0.154
			c2.716-1.248,2.762-2.672,2.786-4.754c0.016-1.257,0.032-2.681,0.607-4.433l0.077-0.227l-0.245,0.037
			c-1.453,0.226-2.74,1.063-3.539,2.298c-1.218,1.781-1.618,4.317-1.093,6.803c-0.302,0.365-0.628,0.71-0.976,1.032
			c-0.188,0.169-0.385,0.337-0.586,0.494c0.016-0.453,0.023-0.905,0.021-1.347c0-0.256-0.014-0.516-0.021-0.774l0.05-0.14
			L96.075,32.9c-0.034-0.966-0.111-1.934-0.24-2.895l0.065,0.027c0.405-1.216,0.754-2.436,1.035-3.681
			c0.024-0.109,0.045-0.227,0.068-0.331c0.23-0.02,0.449-0.112,0.623-0.265c2.085-1.85,1.929-3.029,1.497-4.93
			c-0.26-1.132-0.553-2.427-0.417-4.134l0.021-0.255l-0.27,0.09c-1.272,0.52-2.261,1.56-2.716,2.857
			c-0.731,1.924-0.525,4.369,0.55,6.544c0.108,0.039,0.22,0.065,0.333,0.08c-0.025,0.082-0.047,0.161-0.075,0.24
			c-0.281,0.851-0.604,1.689-0.946,2.515c-0.331-1.891-0.862-3.741-1.585-5.52c-0.172-0.427-0.356-0.849-0.552-1.265
			c0.174-0.452,0.319-0.915,0.434-1.386c0.122-0.488,0.212-0.984,0.272-1.485c0.019-0.154,0.03-0.308,0.043-0.453
			c0.167-0.075,0.32-0.177,0.453-0.303c1.718-1.598,1.254-2.753,0.679-4.288c-0.458-1.074-0.737-2.217-0.824-3.382l-0.005-0.267
			l-0.212,0.122c-0.989,0.57-1.612,1.517-1.929,2.698c-0.817,3.063,1.295,5.492,1.295,5.492c0.036,0.004,0.074,0.004,0.11,0
			c0.037,0.002,0.074,0.002,0.111,0c-0.022,0.1-0.041,0.199-0.066,0.299c-0.118,0.47-0.262,0.934-0.435,1.388
			c-0.097,0.253-0.204,0.504-0.319,0.751c-0.768-1.472-1.678-2.864-2.716-4.159c0.052-0.956,0.036-1.913-0.05-2.866
			c0-0.05-0.014-0.103-0.02-0.152c0.24-0.146,0.445-0.343,0.597-0.58c1.132-2.081,0.342-2.943-0.679-4.249
			c-0.756-0.907-1.358-1.93-1.782-3.032l-0.083-0.226l-0.167,0.176c-0.79,0.842-0.987,1.94-1.082,3.169
			c-0.199,2.628,2.515,4.688,2.816,4.908c-0.029,0.688-0.094,1.373-0.197,2.054c-0.556-0.647-1.139-1.268-1.752-1.861
			c-0.926-0.89-1.909-1.718-2.943-2.479c0.067-0.315,0.067-0.64,0-0.956c0-0.049-0.022-0.099-0.034-0.149l0.016-0.013
			c0.284-0.246,0.52-0.541,0.697-0.872c1.132-2.105,0.265-2.943-0.745-3.91l-0.227-0.227c-0.747-0.711-1.355-1.556-1.792-2.49
			l-0.292-0.622L82.22,3.169c-0.697,0.898-0.977,2.052-0.768,3.169c0.245,1.51,1.458,3.199,3.108,4.34
			c0,0.098,0.018,0.195,0.021,0.288c0.007,0.188-0.006,0.375-0.041,0.56c-0.533-0.384-1.083-0.754-1.65-1.112
			c-0.012-0.009-0.025-0.018-0.039-0.025c-0.516-0.321-1.04-0.631-1.571-0.928c0.104-0.36-0.039-0.707-0.14-1.03
			c-0.134-0.389-0.312-0.76-0.53-1.109c-0.027-0.041-0.061-0.077-0.088-0.118c0.007-0.017,0.013-0.033,0.018-0.05
			c0.514-1.811-0.324-2.395-1.372-3.181c-0.757-0.522-1.423-1.167-1.972-1.906l-0.143-0.202l-0.115,0.227
			c-0.425,0.82-0.481,1.783-0.152,2.646c0.453,1.3,1.689,2.491,3.169,3.147c0.106-0.078,0.205-0.166,0.294-0.262
			c0.155,0.311,0.277,0.637,0.364,0.973c0.061,0.197,0.079,0.392,0.126,0.586c-0.552-0.297-1.106-0.584-1.67-0.851
			c-0.928-0.435-1.872-0.824-2.826-1.195c0.016-0.106,0.008-0.215-0.024-0.317c-0.039-0.164-0.082-0.322-0.129-0.482
			c-0.047-0.161-0.09-0.286-0.142-0.426c0.072-0.186,0.262-0.679,0.308-0.869c0.489-2.09-1.227-2.787-2.151-3.169
			c-0.828-0.326-1.587-0.807-2.234-1.417L71.381,0l-0.188,0.661c-0.274,0.961-0.124,1.993,0.412,2.836
			c0.74,1.234,2.358,2.298,4.021,2.646l0.081,0.018c0.027,0.088,0.064,0.172,0.088,0.26c0.039,0.156,0.077,0.313,0.108,0.471
			c0,0.041,0.016,0.084,0.025,0.123c-0.606-0.227-1.211-0.453-1.825-0.679c-0.247-0.082-0.493-0.143-0.745-0.202l-0.296-0.27
			c-1.238-1.118-3.622-2.963-5.639-2.793c-1.24,0.08-2.387,0.686-3.151,1.666l-0.424,0.543l0.679,0.131
			c1.124,0.243,2.2,0.668,3.186,1.259c0.722,0.394,1.329,0.702,2.037,0.799c0.584,0,1.811,0,2.594-0.852
			c0.186-0.129,0.391-0.224,0.609-0.281l0.204-0.059c0.298,0.067,0.593,0.15,0.883,0.247c1.118,0.417,2.216,0.881,3.301,1.372
			c-0.055,0-0.111-0.012-0.167-0.014c-0.481-0.013-0.962,0.03-1.433,0.129c-0.127,0.024-0.249,0.068-0.372,0.104l-0.034-0.014
			c-1.707-0.654-3.567-0.634-4.98,0.054c-0.98,0.448-1.721,1.295-2.037,2.325l-0.195,0.654l0.679-0.118
			c0.959-0.151,1.938-0.143,2.896,0.023c0.39,0.061,0.783,0.096,1.177,0.106c0.938,0,1.551-0.254,2.289-1.633
			c0.149-0.354,0.26-0.725,0.331-1.104V8.376c0.095-0.018,0.19-0.041,0.283-0.056c0.679-0.106,1.37-0.106,2.049,0
			c0.16,0.04,0.324,0.057,0.489,0.047c0.202,0.095,0.408,0.181,0.604,0.281c0.994,0.509,1.965,1.064,2.911,1.657l0,0
			c-0.35-0.014-0.701-0.006-1.05,0.024l-0.041-0.016c-1.687-0.708-3.543-0.747-4.98-0.102c-0.991,0.42-1.753,1.244-2.097,2.263
			l-0.226,0.65l0.679-0.097c0.963-0.119,1.94-0.08,2.891,0.115c0.425,0.083,0.857,0.131,1.29,0.145
			c0.219,0.002,0.437-0.022,0.65-0.07c0.833-0.181,1.526-0.753,1.863-1.536c0.134-0.305,0.175-0.643,0.118-0.971
			c0.288-0.006,0.575,0.001,0.862,0.023c0.199,0.015,0.397,0.037,0.595,0.065l0.27,0.045c1.372,0.904,2.672,1.912,3.889,3.016
			l-0.083-0.018c-0.364-0.062-0.733-0.09-1.103-0.086c-1.51-0.926-3.273-1.257-4.754-0.878c-1.031,0.244-1.912,0.91-2.427,1.836
			l-0.321,0.611l0.679,0.021c0.971,0.047,1.928,0.252,2.832,0.608c0.623,0.227,1.18,0.412,1.75,0.412
			c0.197,0,0.393-0.024,0.584-0.072c0.66-0.173,1.242-0.566,1.648-1.114c0.237-0.332,0.34-0.741,0.29-1.146
			c0.259,0.03,0.515,0.077,0.768,0.141c0.205,0.052,0.408,0.116,0.606,0.19l0.172,0.07c0.118,0.113,0.242,0.227,0.359,0.342
			c1.193,1.206,2.27,2.522,3.215,3.93c-0.417-0.198-0.851-0.359-1.295-0.483l-0.032-0.026c-1.408-1.221-3.201-1.843-4.786-1.673
			c-1.088,0.096-2.084,0.65-2.739,1.523L81.5,18.602l0.68,0.118c0.973,0.188,1.909,0.534,2.771,1.025
			c0.711,0.367,1.34,0.692,2.051,0.692c0.145,0,0.29-0.013,0.432-0.041l-0.05-0.265l0.075,0.263
			c0.452-0.086,1.159-0.227,1.652-0.887c0.154-0.277,0.277-0.57,0.364-0.874c0.366,0.161,0.72,0.349,1.058,0.563
			c0.362,0.23,0.706,0.486,1.03,0.768c0.678,1.139,1.268,2.33,1.764,3.559c0.14,0.346,0.267,0.695,0.392,1.045
			c-0.365-0.278-0.752-0.526-1.157-0.742c-0.047-0.025-0.099-0.041-0.149-0.063c-0.989-1.49-2.411-2.576-3.912-2.963
			c-1.159-0.328-2.404-0.146-3.42,0.5l-0.577,0.374L85.1,22.02c0.943,0.583,1.785,1.316,2.491,2.171
			c0.808,0.906,1.514,1.685,2.809,1.685c0.084,0,0.17,0,0.258,0l-0.02-0.271l0.086,0.267c0.42-0.012,0.833-0.11,1.213-0.29
			c0.359-0.221,0.652-0.533,0.849-0.906c0.227,0.179,0.469,0.365,0.68,0.562c0.21,0.197,0.373,0.342,0.548,0.521
			c0.047,0.04,0.09,0.085,0.129,0.133c0.636,2.183,1.003,4.436,1.093,6.708c-0.375-0.138-0.747-0.285-1.115-0.452
			c0.013-0.02,0.025-0.041,0.036-0.062c-0.399-2.291-1.623-4.301-3.276-5.372c-0.772-0.519-1.68-0.8-2.61-0.811
			c-0.371,0-0.74,0.047-1.1,0.138l-0.238,0.062l0.161,0.186c1.07,1.24,1.573,2.404,2.017,3.434c0.738,1.714,1.274,2.943,3.941,2.965
			l0,0c0.243-0.002,0.481-0.068,0.69-0.192c0.487,0.288,0.987,0.557,1.501,0.801c0,0.177,0.011,0.355,0.011,0.532
			c-0.002,1.628-0.131,3.254-0.385,4.862c-0.298,0.024-0.598,0.015-0.894-0.027c-0.07,0-0.138-0.036-0.208-0.05
			c-0.354-2.302-1.492-4.349-3.097-5.519c-0.847-0.645-1.878-1.001-2.943-1.019c-0.312,0-0.623,0.033-0.928,0.097l-0.239,0.047
			l0.149,0.195c1.062,1.372,1.526,2.631,1.936,3.74c0.679,1.811,0.919,3.351,3.583,3.351h0.16c0.444-0.002,0.877-0.139,1.243-0.392
			c0.079,0.025,0.156,0.063,0.238,0.084c0.296,0.078,0.6,0.127,0.905,0.149c-0.291,1.648-0.698,3.274-1.218,4.865
			c-0.544,1.655-1.203,3.27-1.971,4.833c-0.265-0.382-0.521-0.768-0.763-1.168c0.939-2.513,0.928-5.207-0.054-7.276
			c-0.638-1.427-1.854-2.515-3.344-2.988l-0.226-0.072l0.04,0.242c0.317,1.938,0.105,3.439-0.085,4.754
			c-0.315,2.194-1.046,3.496,1.6,5.232c0.424,0.279,1.193,0.324,1.646,0.324c0.263,0.548,0.545,1.087,0.849,1.617
			c-0.698,1.36-1.484,2.673-2.354,3.93c-0.679,0.962-1.388,1.888-2.146,2.778c-0.202-0.369-0.392-0.738-0.566-1.132
			c1.438-2.635,1.811-5.646,1.003-8.059c-0.502-1.621-1.671-2.95-3.214-3.654l-0.227-0.102v0.245
			c0.086,2.137-0.344,3.729-0.727,5.134c-0.627,2.32-1.358,4.41,1.584,6.151c0.31,0.188,0.66,0.303,1.021,0.335
			c0.056,0.177,0.109,0.355,0.17,0.527c0.131,0.374,0.278,0.738,0.439,1.103c-1.394,1.57-2.955,2.983-4.654,4.215
			c-1.052,0.762-2.169,1.43-3.339,1.994c-0.099-0.326-0.183-0.659-0.251-1c2.325-1.993,3.837-4.666,4.057-7.27
			c0.167-1.958-0.394-3.71-1.625-5.064l-0.163-0.182l-0.088,0.227c-0.844,2.187-1.972,3.602-2.963,4.852
			c-1.639,2.058-3.56,4.054-1.071,6.866c0.24,0.271,1.085,0.783,1.325,0.928c0.036,0.306,0.09,0.614,0.156,0.921
			c-0.683,0.296-1.384,0.551-2.099,0.763h-6.8c0-0.331,0.177-5.084,1.682-8.704c0.678-1.696,1.638-3.265,2.839-4.641
			c0.378-0.41,0.703-0.866,0.964-1.358c0.091-0.19,0.19-0.38,0.292-0.577c0.537-1.035,1.207-2.323,0.951-4.301
			c-0.202-1.584-0.202-1.646-0.19-2.203c0-0.227,0-0.527,0-1.023c0.009-0.752,0.071-1.502,0.186-2.246
			c0.12-0.906,0.206-1.558,0.029-1.99c-0.197-0.487-0.36-0.842-0.428-0.989c0-0.564-0.068-3.158-0.453-3.959
			c-0.202-0.412-0.679-0.627-1.279-0.598c-0.822,0.045-1.868,0.568-2.183,1.449c0,0.016-0.269,0.887-0.452,1.83
			c-0.127-0.4-0.274-0.793-0.442-1.178c0.138-0.638,0.644-3.396-0.196-5.886c0.041-0.575,0.244-3.989-0.845-5.771
			c0-1.071-0.143-5.159-1.635-5.584c-1.195-0.337-1.487-0.227-2.134,0.308c-0.16,0.137-0.306,0.288-0.437,0.453
			c-0.139-0.865-0.396-1.671-0.86-2.162c-0.321-0.361-0.791-0.554-1.272-0.521c-1.066,0.05-1.861,0.79-2.196,1.972
			c-0.116-0.175-0.271-0.321-0.453-0.425c-0.436-0.274-0.972-0.334-1.458-0.166c-0.58,0.227-1.046,0.826-1.383,1.789
			c-0.738,2.11-0.609,4.697-0.604,4.781v1.019c-0.029,0.138-0.093,0.439-0.14,0.77c-0.315-0.65-0.806-1.291-1.548-1.413
			c-0.44-0.067-0.886,0.074-1.207,0.383c-0.845,0.756-1.159,2.402-1.096,3.622c0.034,0.539-0.011,1.081-0.131,1.607
			c-0.127,0.679-0.301,1.584-0.321,3.763c-0.091,0.308-0.528,1.852-0.424,2.716c-0.019,0.943,0.034,1.886,0.159,2.821
			c0.102,0.588-0.027,2.429-0.134,3.905c-0.079,1.098-0.145,2.037-0.131,2.538c0,0.133,0,0.278,0,0.441
			c-0.018,1.266-0.047,3.622,2.398,9.005l0.052,0.086c0.027,0.039,0.657,0.985,0.537,6.823l-0.065,3.634h-6.455
			c-0.714-0.212-1.416-0.467-2.101-0.763c0.066-0.302,0.119-0.609,0.156-0.921c0.24-0.145,1.084-0.657,1.326-0.928
			c2.491-2.81,0.571-4.807-1.07-6.866c-0.994-1.248-2.124-2.665-2.964-4.851l-0.088-0.227l-0.165,0.181
			c-1.232,1.358-1.791,3.106-1.626,5.064c0.227,2.603,1.732,5.277,4.057,7.269c-0.068,0.342-0.152,0.679-0.249,1
			c-1.172-0.564-2.291-1.232-3.344-1.994c-1.699-1.232-3.259-2.645-4.652-4.215c0.156-0.364,0.306-0.729,0.437-1.103
			c0.061-0.174,0.113-0.351,0.17-0.527c0.362-0.031,0.713-0.146,1.023-0.335c2.959-1.74,2.224-3.83,1.585-6.15
			c-0.38-1.406-0.811-2.997-0.724-5.134v-0.245l-0.227,0.102c-1.54,0.708-2.705,2.04-3.201,3.661
			c-0.808,2.414-0.433,5.434,1.005,8.06c-0.177,0.387-0.367,0.758-0.568,1.132c-1.758-2.052-3.269-4.302-4.503-6.705
			c0.302-0.531,0.585-1.071,0.849-1.619c0.453,0,1.225-0.048,1.648-0.324c2.645-1.736,1.913-3.036,1.598-5.232
			c-0.19-1.324-0.403-2.825-0.086-4.754l0.039-0.242l-0.227,0.072c-1.472,0.475-2.675,1.549-3.314,2.957
			c-0.983,2.06-0.994,4.754-0.054,7.275c-0.245,0.401-0.498,0.786-0.763,1.169c-0.77-1.563-1.428-3.179-1.972-4.833
			c-0.521-1.591-0.928-3.217-1.218-4.865c0.306-0.022,0.609-0.071,0.906-0.15c0.082-0.02,0.159-0.059,0.238-0.083
			c0.366,0.252,0.799,0.388,1.243,0.392h0.159c2.667,0,2.914-1.537,3.586-3.351c0.41-1.107,0.876-2.366,1.938-3.74l0.149-0.195
			l-0.24-0.047c-0.306-0.064-0.618-0.097-0.931-0.098c-1.064,0.018-2.096,0.375-2.943,1.019c-1.605,1.17-2.744,3.217-3.097,5.52
			c-0.07,0.013-0.136,0.038-0.206,0.049c-0.296,0.042-0.596,0.051-0.894,0.027c-0.255-1.608-0.385-3.234-0.387-4.863
			c0-0.176,0-0.353,0.011-0.532c0.514-0.244,1.017-0.514,1.503-0.801c0.209,0.124,0.447,0.19,0.69,0.193l0,0
			c2.667-0.014,3.202-1.252,3.941-2.966c0.453-1.028,0.944-2.191,2.017-3.435l0.161-0.186l-0.238-0.061
			c-0.359-0.091-0.729-0.138-1.1-0.138c-0.937,0.007-1.851,0.292-2.626,0.817c-1.655,1.073-2.88,3.083-3.278,5.372l0.036,0.062
			c-0.367,0.16-0.738,0.308-1.114,0.452c0.088-2.268,0.453-4.517,1.086-6.696c0.039-0.048,0.082-0.094,0.129-0.133
			c0.175-0.181,0.358-0.353,0.548-0.521c0.19-0.167,0.453-0.385,0.69-0.562c0.196,0.374,0.489,0.686,0.849,0.906
			c0.379,0.174,0.79,0.268,1.207,0.276l0.086-0.267l-0.021,0.271c0.088,0,0.176,0,0.258,0c1.297,0,2.001-0.786,2.812-1.685
			c0.705-0.854,1.546-1.588,2.49-2.17l0.589-0.349L38.692,21.3c-1.017-0.646-2.261-0.828-3.421-0.5
			c-1.492,0.387-2.918,1.474-3.903,2.97c-0.047,0.023-0.1,0.041-0.149,0.063c-0.405,0.216-0.791,0.464-1.155,0.743
			c0.125-0.351,0.251-0.7,0.387-1.046c0.498-1.229,1.088-2.419,1.766-3.559c0.324-0.281,0.668-0.538,1.03-0.768
			c0.338-0.214,0.693-0.403,1.06-0.564c0.086,0.305,0.21,0.599,0.367,0.874c0.491,0.68,1.188,0.802,1.65,0.888l0.077-0.262
			l-0.05,0.265c0.143,0.027,0.287,0.041,0.432,0.041c0.711,0,1.34-0.326,2.049-0.693c0.861-0.49,1.797-0.837,2.771-1.025
			l0.679-0.118l-0.421-0.557c-0.653-0.873-1.646-1.427-2.732-1.526c-1.584-0.177-3.371,0.453-4.786,1.668l-0.029,0.027
			c-0.445,0.121-0.878,0.282-1.295,0.479c0.947-1.409,2.026-2.725,3.222-3.93c0.116-0.118,0.238-0.226,0.355-0.341l0.17-0.07
			c0.2-0.074,0.403-0.138,0.609-0.19c0.253-0.063,0.509-0.109,0.767-0.14c-0.051,0.404,0.049,0.812,0.283,1.146
			c0.406,0.553,0.988,0.949,1.65,1.125c0.191,0.048,0.387,0.073,0.584,0.073c0.57,0,1.132-0.195,1.759-0.415
			c0.902-0.355,1.856-0.56,2.825-0.607l0.679-0.02l-0.319-0.616c-0.516-0.945-1.41-1.625-2.458-1.868
			c-1.469-0.376-3.232-0.045-4.754,0.881c-0.37-0.004-0.739,0.024-1.104,0.085l-0.082,0.019c1.217-1.104,2.517-2.112,3.889-3.016
			l0.269-0.045c0.197-0.03,0.396-0.052,0.596-0.066c0.287-0.022,0.576-0.03,0.865-0.022c-0.06,0.328-0.02,0.666,0.115,0.971
			c0.334,0.787,1.03,1.363,1.865,1.543c0.212,0.048,0.428,0.072,0.646,0.07c0.435-0.014,0.868-0.063,1.294-0.147
			c0.95-0.194,1.925-0.232,2.887-0.113l0.679,0.097l-0.227-0.649c-0.343-1.02-1.106-1.844-2.096-2.264
			c-1.426-0.645-3.282-0.606-4.98,0.102l-0.041,0.016c-0.35-0.031-0.702-0.039-1.053-0.025l0,0c0.946-0.591,1.917-1.148,2.909-1.657
			c0.199-0.1,0.405-0.184,0.604-0.281c0.17,0.014,0.343,0.001,0.509-0.038c0.225-0.035,0.451-0.058,0.679-0.068
			c0.455-0.022,0.91,0.004,1.358,0.077c0.095,0.014,0.188,0.039,0.285,0.057V8.41c0.076,0.377,0.194,0.746,0.352,1.098
			c0.737,1.381,1.358,1.632,2.288,1.632c0.394-0.01,0.787-0.045,1.175-0.106c0.958-0.166,1.935-0.173,2.895-0.022l0.68,0.118
			l-0.204-0.647c-0.316-1.029-1.058-1.875-2.038-2.323C52,7.48,50.145,7.45,48.426,8.104l-0.034,0.014
			c-0.125-0.034-0.244-0.077-0.369-0.102c-0.472-0.099-0.953-0.143-1.436-0.129c-0.056,0-0.113,0-0.169,0.014
			c1.087-0.491,2.182-0.955,3.301-1.372c0.287-0.098,0.584-0.179,0.883-0.247l0.204,0.059c0.22,0.057,0.429,0.152,0.616,0.281
			c0.761,0.815,1.913,0.851,2.556,0.851h0.109c0.665-0.095,1.27-0.403,1.994-0.799c0.984-0.59,2.059-1.014,3.181-1.254l0.679-0.133
			l-0.421-0.543c-0.769-0.984-1.923-1.59-3.169-1.664c-2.019-0.172-4.398,1.675-5.634,2.793l-0.299,0.269
			c-0.251,0.057-0.5,0.12-0.745,0.202c-0.614,0.21-1.22,0.441-1.825,0.679c0-0.041,0.018-0.081,0.025-0.122
			c0.031-0.156,0.068-0.313,0.108-0.471c0.023-0.088,0.062-0.172,0.088-0.26l0.081-0.018c1.662-0.349,3.278-1.413,4.021-2.646
			c0.535-0.845,0.684-1.877,0.41-2.839L52.399,0l-0.505,0.467c-0.646,0.61-1.404,1.091-2.232,1.417
			c-0.921,0.381-2.64,1.06-2.142,3.161c0.045,0.197,0.226,0.679,0.308,0.869c-0.052,0.138-0.1,0.283-0.143,0.425
			c-0.043,0.143-0.091,0.319-0.131,0.482c-0.031,0.103-0.039,0.211-0.023,0.317c-0.953,0.371-1.897,0.762-2.827,1.195
			c-0.564,0.267-1.116,0.554-1.668,0.851c0.045-0.195,0.065-0.39,0.124-0.587c0.088-0.335,0.21-0.662,0.365-0.973
			c0.089,0.097,0.188,0.185,0.294,0.262c1.485-0.645,2.717-1.847,3.17-3.146c0.329-0.863,0.275-1.825-0.147-2.646l-0.113-0.227
			l-0.143,0.202c-0.549,0.738-1.216,1.382-1.972,1.906c-1.048,0.788-1.886,1.378-1.372,3.181c0.005,0.018,0.012,0.034,0.021,0.05
			c-0.029,0.041-0.061,0.077-0.088,0.118c-0.218,0.348-0.396,0.72-0.529,1.109c-0.098,0.324-0.227,0.668-0.127,1.025
			c-0.535,0.302-1.064,0.613-1.584,0.933c-0.012,0.007-0.025,0.015-0.036,0.025c-0.562,0.35-1.112,0.717-1.65,1.102
			c-0.034-0.184-0.047-0.372-0.042-0.559c0-0.095,0.012-0.193,0.021-0.288c1.646-1.137,2.861-2.823,3.104-4.333
			c0.208-1.117-0.071-2.271-0.768-3.169l-0.423-0.541l-0.292,0.62c-0.438,0.934-1.046,1.779-1.793,2.49l-0.227,0.227
			c-1.009,0.966-1.881,1.811-0.745,3.909c0.177,0.331,0.413,0.626,0.697,0.872l0.016,0.013c0,0.05-0.025,0.1-0.034,0.149
			c-0.067,0.315-0.067,0.641,0,0.956c-1.034,0.761-2.017,1.589-2.943,2.479c-0.604,0.592-1.187,1.211-1.75,1.86
			c-0.103-0.68-0.167-1.365-0.195-2.053c0.301-0.227,3.013-2.28,2.813-4.908c-0.093-1.234-0.287-2.334-1.08-3.169l-0.167-0.177
			l-0.083,0.226c-0.423,1.102-1.026,2.126-1.784,3.031c-1.007,1.313-1.811,2.169-0.666,4.249c0.15,0.238,0.354,0.436,0.595,0.58
			c0,0.052-0.016,0.102-0.023,0.152c-0.091,0.956-0.116,1.917-0.072,2.877c-1.034,1.295-1.94,2.688-2.705,4.158
			c-0.113-0.244-0.227-0.496-0.317-0.751c-0.172-0.454-0.316-0.917-0.432-1.388c-0.027-0.099-0.043-0.199-0.068-0.298
			c0.037,0.001,0.074,0.001,0.111,0c0.037,0.003,0.074,0.003,0.11,0c0,0,2.112-2.429,1.295-5.492
			c-0.314-1.184-0.938-2.128-1.929-2.699l-0.21-0.122l-0.016,0.245c-0.088,1.165-0.367,2.307-0.826,3.382
			c-0.584,1.532-1.048,2.689,0.679,4.287c0.132,0.126,0.285,0.229,0.452,0.303c0.014,0.156,0.023,0.311,0.043,0.453
			c0.061,0.5,0.151,0.996,0.271,1.485c0.113,0.471,0.259,0.934,0.435,1.385c-0.196,0.416-0.38,0.838-0.552,1.266
			c-0.722,1.778-1.253,3.628-1.584,5.519c-0.34-0.829-0.668-1.664-0.946-2.515c-0.025-0.08-0.047-0.159-0.072-0.24
			c0.114-0.014,0.227-0.041,0.334-0.079c1.076-2.173,1.282-4.621,0.55-6.545c-0.456-1.296-1.445-2.336-2.716-2.857l-0.238-0.097
			l0.018,0.256c0.138,1.707-0.156,2.995-0.415,4.134c-0.432,1.899-0.588,3.079,1.497,4.931c0.173,0.153,0.392,0.246,0.622,0.265
			c0.022,0.108,0.043,0.226,0.068,0.331c0.284,1.244,0.63,2.472,1.037,3.681l0.065-0.027c-0.128,0.963-0.208,1.928-0.24,2.896
			l-0.054,0.02l0.05,0.141c0,0.258-0.021,0.519-0.021,0.774c0,0.453,0.007,0.902,0.022,1.347c-0.201-0.156-0.401-0.321-0.586-0.493
			c-0.348-0.322-0.673-0.667-0.974-1.033c0.525-2.49,0.123-5.021-1.096-6.803c-0.797-1.235-2.085-2.071-3.538-2.298l-0.24-0.036
			l0.075,0.227c0.573,1.752,0.591,3.169,0.607,4.432c0.025,2.085,0.082,3.507,2.789,4.754c0.199,0.097,0.417,0.15,0.638,0.154
			c0.177,0,0.351-0.042,0.507-0.123c0.257,0.384,0.539,0.751,0.842,1.1c0.315,0.354,0.658,0.682,1.025,0.982
			c0.188,2.759,0.703,5.485,1.533,8.123c-0.653-0.25-1.288-0.546-1.9-0.885l0.03-0.045v-0.084c-0.061-2.998-1.24-5.802-3.149-7.5
			c-1.358-1.215-2.993-1.775-4.688-1.607l-0.679,0.065l0.364,0.58c1.084,1.723,1.487,3.255,1.84,4.609l0.045,0.169
			c0.582,2.228,1.087,4.152,4.528,4.454c0.088,0,0.171,0,0.253,0c0.401,0.013,0.796-0.098,1.132-0.317
			c0.258,0.181,0.523,0.355,0.795,0.521c0.551,0.334,1.122,0.637,1.708,0.905l0.014-0.032c0.684,2.055,1.541,4.047,2.563,5.956
			c-0.413,0.247-0.865,0.422-1.335,0.521l0,0c-1.247-3.033-3.525-5.446-6.13-6.465c-1.899-0.743-3.81-0.697-5.525,0.131
			l-0.632,0.296l0.545,0.417c1.811,1.398,2.839,2.859,3.744,4.151c1.27,1.811,2.291,3.271,4.806,3.271c0.181,0,0.372,0,0.571-0.022
			c0.342-0.027,0.706-0.09,1.093-0.156h0.068c0.609-0.139,1.132-0.527,1.442-1.071h0.098c0.55-0.06,1.086-0.213,1.584-0.453
			c0.51,0.905,1.05,1.775,1.634,2.626c1.187,1.735,2.532,3.357,4.019,4.844c-0.521,0.133-1.05,0.232-1.584,0.295
			c-0.202,0.022-0.403,0.024-0.604,0.036c0.038-0.098,0.07-0.199,0.095-0.301l0.025-0.125L36,58.834
			c-2.021-2.556-4.88-4.213-7.646-4.433c-1.97-0.156-3.738,0.424-5.103,1.68l-0.502,0.464l0.641,0.24
			c2.081,0.788,3.441,1.856,4.648,2.805c1.302,1.023,2.426,1.906,3.975,1.906c1.076,0.044,2.136-0.275,3.008-0.906
			c0.272-0.203,0.506-0.452,0.691-0.738c0.296,0.013,0.595,0.025,0.894,0.016c0.716-0.025,1.428-0.111,2.128-0.26
			c0.913,0.847,1.882,1.631,2.902,2.345c1.234,0.885,2.553,1.643,3.939,2.264h-1.922c-2.353-1.628-4.98-2.445-7.41-2.445
			s-4.609,0.82-6.074,2.445h-1.916v4.027h8.084v5.046c-6.256,1.679-9.968,8.111-8.289,14.368c1.375,5.124,6.018,8.687,11.322,8.689
			c0.308,0,0.609-0.022,0.906-0.045v3.699h43.825v-3.706c0.344,0.029,0.691,0.052,1.042,0.052c6.478,0,11.729-5.25,11.729-11.729
			c0-5.311-3.568-9.958-8.698-11.331v-5.046h8.087v-4.027h-2.642c-1.465-1.623-3.656-2.445-6.074-2.445
			c-2.417,0-5.057,0.815-7.409,2.445h-1.922c1.385-0.621,2.704-1.379,3.937-2.264c1.014-0.722,1.976-1.513,2.88-2.368
			c0.7,0.148,1.413,0.236,2.128,0.26c0.299,0,0.595,0,0.894-0.016c0.18,0.285,0.41,0.535,0.679,0.738
			c0.872,0.63,1.931,0.95,3.006,0.906c1.548,0,2.676-0.885,3.986-1.915c1.2-0.94,2.556-2.008,4.637-2.796l0.641-0.24l-0.505-0.464
			c-1.359-1.256-3.128-1.833-5.103-1.68c-2.767,0.226-5.626,1.876-7.65,4.432l-0.079,0.098l0.025,0.125
			c0.025,0.102,0.057,0.203,0.095,0.301c-0.202-0.011-0.403-0.016-0.604-0.036c-0.534-0.063-1.063-0.162-1.584-0.294
			c1.486-1.487,2.83-3.109,4.016-4.845c0.583-0.852,1.132-1.728,1.634-2.626c0.499,0.24,1.035,0.393,1.585,0.453h0.097
			c0.33,0.553,0.875,0.944,1.503,1.08c0.387,0.066,0.754,0.129,1.1,0.156c0.199,0.016,0.387,0.022,0.568,0.022
			c2.517,0,3.538-1.458,4.811-3.275c0.905-1.288,1.921-2.748,3.742-4.145l0.543-0.417L104.614,45.12z M99.86,36.064
			c1.1-1.029,2.571-1.565,4.075-1.487c-1.05,1.723-1.449,3.242-1.811,4.588l-0.043,0.172c-0.573,2.193-0.989,3.78-4.045,4.048
			c-0.291,0.038-0.587-0.004-0.855-0.123c0.099-0.079,0.206-0.151,0.303-0.227c0.504-0.401,0.948-0.871,1.32-1.396
			c0.387-0.523,0.613-1.148,0.65-1.797c-0.1,0.619-0.375,1.197-0.792,1.664c-0.405,0.47-0.874,0.879-1.395,1.216
			c-0.12,0.082-0.247,0.154-0.369,0.227c0.104-2.776,1.2-5.345,2.957-6.909 M99.16,27.134c0.598-0.919,1.498-1.6,2.544-1.926
			c-0.321,1.289-0.469,2.615-0.438,3.944c-0.025,1.962-0.037,3.146-2.473,4.269c-0.128,0.064-0.269,0.099-0.412,0.104
			c-0.071-0.001-0.141-0.016-0.206-0.045c0.266-0.432,0.501-0.882,0.704-1.347c0.229-0.523,0.421-1.061,0.576-1.61
			c-0.212,0.525-0.458,1.035-0.736,1.528c-0.197,0.345-0.415,0.679-0.652,0.998c-0.353-2.189,0.034-4.362,1.096-5.916
			 M96.288,19.582c0.329-0.922,0.959-1.707,1.789-2.228c0,1.211,0.155,2.417,0.464,3.588c0.419,1.848,0.527,2.735-1.32,4.374
			c-0.035,0.029-0.073,0.052-0.116,0.067c0.055-0.305,0.103-0.613,0.141-0.923c0.101-0.629,0.095-1.271-0.016-1.899
			c0.049,0.628-0.006,1.26-0.164,1.87c-0.077,0.339-0.165,0.679-0.26,1.014h-0.104c-0.905-1.972-1.066-4.143-0.416-5.852
			 M92.903,13.388c0.177-0.765,0.579-1.459,1.152-1.994c0.147,0.979,0.414,1.936,0.795,2.85l0.021,0.05
			c0.568,1.489,0.882,2.311-0.55,3.645c-0.021,0.018-0.037,0.027-0.057,0.043c0.016-0.622-0.023-1.244-0.116-1.858
			c0.02,0.677-0.026,1.354-0.135,2.021c-0.03,0.014-0.062,0.032-0.086,0.039c-0.439-0.611-1.628-2.531-1.025-4.792 M80.094,6.688
			c-0.353-0.393-0.765-0.728-1.222-0.992c0.273,0.278,0.528,0.574,0.763,0.886c0.128,0.163,0.243,0.334,0.346,0.514
			c-0.03,0.053-0.066,0.103-0.106,0.147c-1.227-0.616-2.196-1.621-2.569-2.683c-0.192-0.514-0.229-1.073-0.106-1.608
			c0.493,0.548,1.045,1.041,1.646,1.467l0.056,0.043c0.928,0.695,1.422,1.084,1.193,2.223 M75.739,4.919
			c-0.014,0.059-0.052,0.17-0.097,0.299c-0.129-0.235-0.285-0.455-0.466-0.652c-0.231-0.25-0.543-0.41-0.881-0.453
			c0.302,0.109,0.563,0.311,0.745,0.575c0.192,0.253,0.345,0.534,0.453,0.833c0,0.014,0,0.027,0.014,0.041
			c-1.44-0.364-2.798-1.286-3.435-2.343c-0.417-0.658-0.563-1.452-0.403-2.214c0.661,0.592,1.422,1.062,2.248,1.385
			c1.162,0.473,2.175,1.021,1.822,2.533 M71.438,5.968c0.226,0.052,0.453,0.099,0.679,0.138c-0.067,0.041-0.128,0.091-0.183,0.147
			c-0.632,0.679-1.691,0.679-2.162,0.679c-0.573-0.083-1.132-0.369-1.811-0.738c-0.977-0.581-2.036-1.01-3.142-1.272
			c0.675-0.768,1.63-1.236,2.651-1.299c1.634-0.138,3.622,1.302,4.754,2.248c-0.245-0.05-0.493-0.093-0.74-0.129
			c-0.881-0.119-1.751-0.311-2.601-0.573c0.816,0.372,1.675,0.639,2.558,0.797 M74.686,9.257c-0.618,1.159-1.039,1.358-1.811,1.358
			c-0.37-0.01-0.739-0.043-1.104-0.1c-0.559-0.085-1.122-0.132-1.687-0.14c-0.394,0-0.788,0.029-1.177,0.089
			c0.301-0.802,0.906-1.453,1.684-1.812c1.109-0.545,2.544-0.621,3.939-0.226c-0.484,0.221-0.934,0.511-1.335,0.86
			c0.401-0.248,0.825-0.457,1.265-0.623c0.143-0.059,0.288-0.097,0.433-0.143h0.027c-0.051,0.249-0.127,0.491-0.227,0.724
			 M80.346,11.43c-0.263,0.634-0.822,1.098-1.494,1.238c-0.505,0.118-1.07,0.025-1.729-0.082c-0.635-0.119-1.28-0.184-1.927-0.195
			c-0.309,0-0.617,0.018-0.923,0.054c0.327-0.789,0.95-1.418,1.736-1.752c1.073-0.487,2.425-0.537,3.74-0.167
			c-0.129,0.041-0.258,0.075-0.385,0.125c-0.386,0.166-0.736,0.406-1.028,0.708c0.606-0.377,1.297-0.596,2.01-0.636l0.07,0.025
			c0.046,0.228,0.022,0.465-0.068,0.679 M84.778,9.907c-0.208-0.651-0.451-1.291-0.729-1.916c0.178,0.639,0.323,1.288,0.432,1.942
			c-1.327-1.042-2.279-2.436-2.49-3.683c-0.167-0.899,0.029-1.828,0.543-2.583c0.455,0.923,1.068,1.759,1.811,2.472l0.226,0.226
			c0.987,0.946,1.585,1.519,0.643,3.257c-0.105,0.194-0.235,0.374-0.387,0.535c-0.025-0.084-0.045-0.169-0.072-0.253 M84.914,14.844
			c-0.333,0.455-0.813,0.78-1.358,0.921c-0.623,0.159-1.241-0.052-2.038-0.328c-0.884-0.343-1.813-0.554-2.757-0.625
			c0.459-0.722,1.185-1.234,2.019-1.426c1.103-0.283,2.397-0.118,3.6,0.433c-0.187,0.028-0.372,0.067-0.555,0.115
			c-0.425,0.12-0.837,0.282-1.229,0.484c0.689-0.254,1.416-0.395,2.15-0.417c0.123,0.063,0.247,0.127,0.364,0.202
			c0.016,0.229-0.046,0.458-0.176,0.647 M90.049,12.677c-0.1-0.483-0.311-0.936-0.616-1.324c0.245,0.414,0.391,0.878,0.426,1.358
			c0.029,0.248,0.043,0.494,0.052,0.743c-0.735-0.612-2.42-2.248-2.273-4.173c0.073-0.95,0.202-1.707,0.548-2.315
			c0.424,0.9,0.956,1.745,1.585,2.515l0.14,0.181c0.931,1.203,1.397,1.812,0.482,3.475c-0.056,0.087-0.125,0.164-0.206,0.227
			c-0.041-0.227-0.088-0.453-0.145-0.679 M88.663,19.182c-0.364,0.498-0.89,0.595-1.311,0.679h-0.027
			c-0.706,0.134-1.338-0.19-2.133-0.6c-0.853-0.482-1.773-0.833-2.73-1.042c0.567-0.663,1.372-1.077,2.241-1.152
			c1.17-0.129,2.47,0.226,3.622,0.98c-0.113,0-0.227-0.022-0.337-0.021c-0.481,0.017-0.953,0.132-1.388,0.338
			c0.708-0.228,1.47-0.228,2.178,0c0.057,0.043,0.115,0.079,0.168,0.124c-0.07,0.235-0.163,0.462-0.277,0.68 M91.69,25.083
			c-0.315,0.143-0.656,0.219-1,0.227h-0.068c-1.186,0.093-1.795-0.575-2.624-1.497c-0.702-0.838-1.526-1.566-2.445-2.158
			c0.86-0.479,1.875-0.597,2.823-0.328c1.226,0.355,2.311,1.081,3.106,2.078c-0.147-0.043-0.29-0.093-0.439-0.126
			c-0.527-0.102-1.067-0.116-1.598-0.041c0.513,0.064,1.017,0.191,1.498,0.38c0.378,0.156,0.742,0.341,1.091,0.553
			c0.077,0.115,0.154,0.227,0.227,0.353c-0.136,0.233-0.326,0.431-0.555,0.575 M91.615,30.912c0.398,0.398,0.833,0.757,1.299,1.071
			c0.075,0.05,0.156,0.091,0.227,0.139c-0.029,0.008-0.06,0.015-0.09,0.02c-2.304-0.011-2.716-0.944-3.438-2.637
			c-0.425-1.083-0.988-2.105-1.675-3.043c0.111,0,0.226-0.014,0.335-0.014c0.826,0.01,1.631,0.262,2.316,0.725
			c1.458,0.949,2.556,2.699,2.979,4.72c-0.156-0.077-0.319-0.138-0.471-0.227c-0.479-0.253-0.935-0.551-1.358-0.89
			c-0.41-0.344-0.799-0.774-0.887-1.331c0.025,0.563,0.38,1.064,0.761,1.462 M90.816,36.545c0.118,0.245,0.252,0.483,0.4,0.71
			c0.301,0.468,0.684,0.877,1.132,1.207c0.198,0.144,0.409,0.27,0.629,0.375c-0.189,0.071-0.389,0.109-0.59,0.113H92.24
			c-2.017,0-2.343-0.924-2.882-2.457c-0.061-0.174-0.126-0.355-0.192-0.538c-0.392-1.18-0.937-2.302-1.621-3.339
			c0.066,0,0.129,0,0.195,0c0.95,0.012,1.871,0.33,2.626,0.905c1.44,1.048,2.475,2.866,2.844,4.933
			c-0.23-0.078-0.452-0.179-0.662-0.301c-0.453-0.263-0.855-0.606-1.186-1.012c-0.17-0.205-0.326-0.421-0.467-0.647
			c-0.136-0.226-0.251-0.473-0.38-0.711c0.1,0.25,0.19,0.505,0.301,0.754 M90.218,46.825c-0.279-0.516-0.515-1.053-0.706-1.607
			c-0.215-0.55-0.299-1.142-0.247-1.73c-0.113,0.59-0.088,1.198,0.073,1.777c0.137,0.583,0.322,1.155,0.552,1.709
			c0.077,0.186,0.17,0.365,0.254,0.55c-0.377,0.007-0.751-0.07-1.094-0.227c-1.965-1.291-1.811-2.124-1.513-3.785
			c0.053-0.29,0.107-0.591,0.154-0.906c0.172-1.208,0.367-2.56,0.177-4.26c1.071,0.514,1.927,1.391,2.416,2.474
			c0.865,1.811,0.919,4.175,0.185,6.427c-0.079-0.141-0.171-0.276-0.247-0.419 M85.695,54.121c-0.386-1.044-0.647-2.131-0.777-3.237
			c0.011,1.128,0.156,2.25,0.43,3.344c0.043,0.176,0.093,0.353,0.141,0.527c-0.203-0.045-0.396-0.122-0.575-0.226
			c-2.465-1.452-2.038-3.032-1.433-5.221l0.088-0.321c0.349-1.293,0.74-2.742,0.751-4.627c1.123,0.698,1.956,1.777,2.348,3.04
			c0.72,2.153,0.428,4.822-0.763,7.227c-0.068-0.17-0.149-0.331-0.21-0.503 M37.13,47.404c0.392-1.26,1.224-2.337,2.345-3.034
			c0.014,1.883,0.405,3.333,0.754,4.627l0.086,0.321c0.602,2.189,1.034,3.769-1.431,5.221c-0.18,0.105-0.375,0.181-0.578,0.226
			c0.05-0.174,0.102-0.351,0.145-0.527c0.273-1.094,0.417-2.216,0.428-3.344c-0.13,1.106-0.391,2.193-0.776,3.237
			c-0.061,0.17-0.143,0.333-0.208,0.502c-1.193-2.404-1.485-5.073-0.765-7.226 M33.507,40.844c0.489-1.084,1.345-1.96,2.418-2.474
			c-0.19,1.7,0,3.051,0.177,4.26c0.045,0.321,0.099,0.625,0.151,0.905c0.299,1.662,0.453,2.49-1.512,3.785
			c-0.343,0.157-0.717,0.234-1.093,0.227c0.081-0.186,0.176-0.364,0.253-0.55c0.23-0.554,0.415-1.125,0.552-1.709
			c0.161-0.579,0.186-1.187,0.073-1.777c0.053,0.587-0.031,1.18-0.247,1.729c-0.191,0.554-0.428,1.092-0.708,1.607
			c-0.075,0.143-0.167,0.278-0.247,0.419c-0.736-2.252-0.679-4.613,0.183-6.427 M33.421,33.541c0.755-0.576,1.676-0.893,2.626-0.906
			c0.063,0,0.129,0,0.195,0c-0.685,1.034-1.231,2.152-1.625,3.328l-0.192,0.539c-0.539,1.532-0.865,2.456-2.882,2.456h-0.147
			c-0.202-0.004-0.402-0.043-0.591-0.113c0.22-0.105,0.43-0.231,0.627-0.376c0.448-0.329,0.832-0.738,1.132-1.207
			c0.149-0.228,0.284-0.465,0.401-0.711c0.111-0.249,0.199-0.504,0.301-0.753c-0.129,0.238-0.245,0.482-0.38,0.711
			c-0.14,0.226-0.296,0.442-0.467,0.647c-0.331,0.408-0.733,0.751-1.188,1.012c-0.209,0.123-0.43,0.224-0.659,0.301
			c0.369-2.069,1.406-3.884,2.843-4.933 M33.188,27.175c0.685-0.462,1.49-0.714,2.315-0.725c0.111,0,0.227,0,0.333,0.014
			c-0.687,0.938-1.25,1.96-1.675,3.043c-0.731,1.693-1.132,2.624-3.437,2.637c-0.03-0.005-0.061-0.012-0.09-0.021
			c0.077-0.047,0.156-0.088,0.227-0.138c0.466-0.314,0.902-0.673,1.299-1.071c0.383-0.398,0.738-0.906,0.761-1.462
			c-0.086,0.557-0.473,0.987-0.886,1.331c-0.424,0.338-0.878,0.636-1.358,0.89c-0.154,0.081-0.317,0.143-0.473,0.226
			c0.423-2.023,1.523-3.771,2.981-4.72 M31.742,24.182c0.349-0.212,0.714-0.397,1.091-0.552c0.482-0.188,0.987-0.317,1.5-0.38
			c-0.532-0.075-1.073-0.061-1.6,0.041c-0.147,0.034-0.292,0.082-0.437,0.127c0.794-0.998,1.879-1.724,3.104-2.079
			c0.951-0.276,1.973-0.162,2.839,0.317c-0.923,0.596-1.751,1.329-2.454,2.174c-0.827,0.921-1.427,1.584-2.624,1.496h-0.065
			c-0.346-0.007-0.688-0.084-1.003-0.227c-0.228-0.145-0.417-0.342-0.555-0.575c0.07-0.123,0.147-0.227,0.226-0.353 M35.002,18.371
			c0.708-0.228,1.471-0.228,2.18,0c-0.435-0.206-0.907-0.321-1.388-0.337c-0.111,0-0.226,0.013-0.337,0.02
			c1.146-0.745,2.443-1.107,3.622-0.98c0.87,0.075,1.676,0.489,2.243,1.152c-0.957,0.208-1.877,0.559-2.73,1.042
			c-0.792,0.41-1.415,0.736-2.132,0.6h-0.025c-0.423-0.077-0.946-0.174-1.311-0.679c-0.114-0.217-0.206-0.444-0.276-0.679
			c0.054-0.045,0.111-0.082,0.166-0.125 M39.051,14.011c0.728,0.021,1.447,0.157,2.13,0.405c-0.392-0.202-0.804-0.365-1.229-0.485
			c-0.183-0.048-0.368-0.086-0.555-0.115c1.202-0.548,2.49-0.715,3.604-0.43c0.838,0.189,1.566,0.702,2.028,1.426
			c-0.958,0.068-1.899,0.28-2.793,0.629c-0.781,0.272-1.397,0.487-2.021,0.326c-0.546-0.141-1.025-0.466-1.358-0.921
			c-0.13-0.19-0.194-0.418-0.181-0.647c0.12-0.075,0.245-0.139,0.367-0.202 M43.378,10.749c0.022,0,0.047-0.016,0.07-0.025
			c0.712,0.041,1.403,0.261,2.008,0.639c-0.291-0.304-0.641-0.544-1.028-0.709c-0.125-0.049-0.256-0.085-0.385-0.125
			c1.315-0.369,2.667-0.319,3.74,0.168c0.786,0.334,1.41,0.964,1.736,1.754c-0.954-0.096-1.917-0.049-2.857,0.14
			c-0.654,0.108-1.223,0.199-1.723,0.082l0,0c-0.672-0.143-1.231-0.608-1.494-1.243c-0.089-0.215-0.112-0.452-0.065-0.679
			 M48.895,8.523c0.143,0.045,0.29,0.085,0.43,0.142c0.436,0.165,0.855,0.371,1.252,0.616c-0.401-0.349-0.852-0.639-1.335-0.86
			c1.392-0.39,2.83-0.319,3.941,0.227c0.777,0.359,1.382,1.01,1.685,1.811c-0.952-0.127-1.917-0.109-2.864,0.052
			c-0.366,0.057-0.735,0.09-1.105,0.1c-0.767,0-1.188-0.188-1.811-1.358c-0.1-0.233-0.176-0.476-0.227-0.725h0.027 M56.311,3.622
			c1.019,0.065,1.97,0.533,2.644,1.299c-1.107,0.262-2.167,0.691-3.145,1.272c-0.679,0.367-1.234,0.655-1.768,0.734
			c-0.509,0-1.566,0-2.201-0.679c-0.053-0.056-0.114-0.104-0.181-0.145c0.226-0.039,0.453-0.086,0.679-0.138
			c0.883-0.159,1.742-0.426,2.558-0.797c-0.85,0.262-1.72,0.454-2.601,0.573C52.05,5.777,51.803,5.82,51.557,5.87
			C52.689,4.926,54.683,3.482,56.311,3.622 M49.866,2.386c0.827-0.322,1.589-0.792,2.25-1.385c0.159,0.763,0.015,1.557-0.403,2.214
			c-0.636,1.058-1.994,1.979-3.434,2.343l0.014-0.041c0.108-0.299,0.261-0.58,0.453-0.833c0.182-0.265,0.443-0.466,0.745-0.575
			c-0.338,0.042-0.649,0.203-0.88,0.453c-0.182,0.198-0.338,0.417-0.467,0.652c-0.037-0.097-0.069-0.197-0.095-0.298
			c-0.355-1.513,0.659-2.06,1.811-2.533 M44.879,4.458l0.059-0.043c0.601-0.429,1.153-0.922,1.646-1.472
			c0.122,0.535,0.085,1.094-0.106,1.607c-0.374,1.071-1.343,2.076-2.579,2.694c-0.041-0.045-0.077-0.094-0.106-0.147
			c0.103-0.18,0.219-0.351,0.346-0.514c0.235-0.312,0.49-0.607,0.763-0.885c-0.458,0.264-0.87,0.599-1.223,0.992
			c-0.227-1.132,0.265-1.528,1.191-2.223 M38.554,9.628c-0.939-1.741-0.344-2.313,0.643-3.26l0.227-0.227
			c0.744-0.712,1.356-1.55,1.811-2.474c0.514,0.756,0.709,1.686,0.543,2.585c-0.199,1.248-1.155,2.642-2.49,3.684
			c0.107-0.655,0.251-1.304,0.43-1.943c-0.277,0.625-0.521,1.264-0.729,1.916c-0.025,0.083-0.047,0.167-0.073,0.253
			c-0.151-0.16-0.281-0.34-0.387-0.534 M33.383,13.148c-0.906-1.671-0.453-2.264,0.482-3.476l0.14-0.181
			c0.63-0.77,1.162-1.615,1.585-2.515c0.346,0.611,0.475,1.358,0.548,2.315c0.145,1.914-1.533,3.552-2.264,4.175
			c0-0.249,0.025-0.496,0.052-0.743c0.034-0.479,0.18-0.944,0.425-1.358c-0.305,0.384-0.517,0.832-0.621,1.311
			c-0.057,0.227-0.104,0.453-0.145,0.679c-0.08-0.063-0.148-0.14-0.203-0.227 M29.863,18.181c-0.028-0.011-0.057-0.024-0.084-0.039
			c-0.109-0.668-0.156-1.345-0.138-2.021c-0.092,0.615-0.132,1.237-0.118,1.858c-0.016-0.016-0.034-0.022-0.055-0.043
			c-1.431-1.331-1.116-2.153-0.55-3.645l0.018-0.05c0.383-0.914,0.65-1.871,0.795-2.85c0.574,0.536,0.975,1.23,1.152,1.994
			c0.607,2.264-0.584,4.184-1.025,4.792 M26.979,25.438c-0.095-0.335-0.186-0.679-0.263-1.014c-0.157-0.61-0.212-1.242-0.163-1.87
			c-0.111,0.628-0.116,1.27-0.016,1.899c0.041,0.311,0.086,0.618,0.143,0.924c-0.042-0.016-0.081-0.039-0.115-0.068
			c-1.847-1.639-1.741-2.524-1.32-4.374c0.305-1.171,0.457-2.377,0.453-3.588c0.83,0.521,1.461,1.305,1.791,2.227
			c0.647,1.71,0.491,3.88-0.418,5.853h-0.102 M25.716,33.052c-0.237-0.319-0.455-0.652-0.65-0.998
			c-0.281-0.492-0.526-1.003-0.736-1.528c0.154,0.548,0.346,1.086,0.572,1.61c0.203,0.464,0.438,0.915,0.705,1.347
			c-0.065,0.029-0.135,0.044-0.206,0.045c-0.144-0.006-0.284-0.042-0.412-0.104c-2.434-1.132-2.447-2.309-2.47-4.27
			c0.029-1.328-0.118-2.654-0.439-3.943c1.047,0.326,1.947,1.008,2.545,1.926c1.062,1.553,1.448,3.726,1.093,5.916 M24.98,41.611
			c0.372,0.525,0.816,0.995,1.319,1.396c0.098,0.082,0.204,0.154,0.304,0.226c-0.27,0.118-0.566,0.161-0.858,0.123
			c-3.058-0.267-3.472-1.854-4.047-4.048l-0.045-0.174c-0.353-1.347-0.751-2.864-1.811-4.589c1.503-0.076,2.974,0.461,4.075,1.487
			c1.754,1.564,2.85,4.134,2.957,6.907c-0.125-0.077-0.251-0.149-0.372-0.227c-0.519-0.337-0.988-0.747-1.392-1.215
			c-0.419-0.467-0.694-1.045-0.792-1.664c0.042,0.641,0.266,1.256,0.647,1.772 M26.693,50.279c0.216,0.22,0.442,0.43,0.679,0.627
			c0.487,0.398,1.043,0.705,1.639,0.905c0.362,0.116,0.737,0.183,1.116,0.199c-0.212,0.269-0.511,0.454-0.845,0.525l-0.068,0.011
			c-0.374,0.063-0.727,0.125-1.046,0.15c-2.637,0.208-3.579-1.146-4.89-3.02c-0.906-1.284-1.913-2.732-3.704-4.146
			c1.53-0.679,3.223-0.69,4.915-0.031c2.434,0.951,4.566,3.196,5.771,6.033c-0.388,0.032-0.779,0.006-1.159-0.075
			c-0.58-0.132-1.13-0.369-1.625-0.697c-0.25-0.169-0.492-0.35-0.724-0.543l-0.645-0.641L26.693,50.279z M35.361,59.369
			c-0.346,0-0.695,0-1.039-0.041c-0.756-0.069-1.499-0.241-2.209-0.509c-0.715-0.28-1.383-0.666-1.982-1.146
			c0.566,0.532,1.21,0.974,1.91,1.311c0.709,0.334,1.46,0.57,2.232,0.702c0.27,0.047,0.539,0.07,0.811,0.095
			c-0.109,0.129-0.232,0.246-0.367,0.348c-0.777,0.566-1.724,0.85-2.685,0.806c-1.358,0-2.366-0.79-3.647-1.797
			c-1.193-0.939-2.542-1.999-4.598-2.808c1.259-1.071,2.902-1.579,4.546-1.406c2.581,0.204,5.252,1.741,7.179,4.121
			c-0.041,0.11-0.089,0.218-0.145,0.321 M77.446,60.027c-0.063,0.602-0.075,1.208-0.034,1.811c-0.301-0.177-0.585-0.381-0.849-0.609
			c-1.933-2.182-0.962-3.622,0.783-5.784l0.306-0.38c0.921-1.159,1.956-2.458,2.792-4.376c0.856,1.207,1.242,2.685,1.082,4.156
			c-0.204,2.371-1.542,4.811-3.622,6.686c-0.069-0.494-0.103-0.993-0.099-1.492c0.008-0.627,0.095-1.25,0.258-1.856
			c0.169-0.612,0.427-1.197,0.765-1.735c-0.393,0.509-0.709,1.074-0.937,1.676c-0.228,0.609-0.379,1.244-0.453,1.89 M52.501,44.677
			c0-0.172,0-0.329,0-0.471c-0.011-0.453,0.057-1.433,0.131-2.468c0.111-1.548,0.226-3.133,0.142-3.903
			c0.177-0.234,0.372-0.454,0.584-0.657c0.287-0.294,0.645-0.51,1.039-0.627v-0.025c-0.422,0.067-0.819,0.239-1.157,0.5
			c-0.178,0.128-0.349,0.267-0.512,0.414c-0.09-0.835-0.13-1.676-0.118-2.517c-0.082-0.679,0.269-2.038,0.41-2.511l0.018-0.102
			c0.016-2.144,0.179-3,0.308-3.686c0.131-0.584,0.179-1.184,0.143-1.782c-0.068-1.256,0.294-2.533,0.856-3.036
			c0.16-0.161,0.388-0.236,0.613-0.201c0.819,0.133,1.291,1.614,1.415,2.227c-0.018,0.279-0.104,1.777-0.188,2.839
			c-0.054,0.43-0.106,0.797-0.152,1.028c-0.078,0.624-0.103,1.253-0.077,1.881c-0.328-0.047-0.663-0.001-0.966,0.131
			c-0.347,0.149-0.668,0.35-0.953,0.596c0.311-0.193,0.651-0.336,1.007-0.423c0.303-0.085,0.626-0.069,0.919,0.045
			c0,0.111,0,0.227,0,0.342c0.018,1.014,0.037,2.064-0.061,2.49l-0.353,1.585l0.994-1.277c0.453-0.575,0.308-2.422,0.256-2.943
			c0-1.766,0.095-3.249,0.102-3.396c0.179-1.38,0.376-3.323,0.387-3.432v-0.057l-0.011-0.054c-0.05-0.251,0.079-1.06,0.19-1.551
			l0.02-1.157c0-0.025-0.129-2.554,0.564-4.528c0.26-0.742,0.593-1.209,0.962-1.358c0.288-0.088,0.6-0.042,0.849,0.126
			c0.227,0.125,0.421,0.593,0.559,0.935l0.181,0.419c0.059,0.602,0.076,1.207,0.052,1.811c-0.027,0.697-0.114,1.391-0.258,2.074
			c-0.112,0.043-0.228,0.08-0.344,0.108c-0.185,0.042-0.374,0.07-0.563,0.083c-0.195,0.023-0.392,0.032-0.593,0.041l-0.616,0.037
			c0.38,0.183,0.794,0.287,1.216,0.303c0.308,0.018,0.616-0.027,0.906-0.133c0.034,0.727,0.072,1.449,0.072,2.167
			c0,0.41,0,0.822-0.045,1.222c-0.012,0.198-0.036,0.396-0.07,0.591c-0.018,0.097-0.036,0.188-0.059,0.278
			c-0.016,0.059-0.035,0.117-0.057,0.174c-0.143,0.124-0.294,0.237-0.453,0.339c-0.197,0.107-0.416,0.169-0.64,0.181
			c-0.239,0.019-0.479,0.007-0.716-0.036c-0.24-0.041-0.484-0.091-0.729-0.154c0.217,0.127,0.444,0.238,0.679,0.331
			c0.246,0.086,0.501,0.142,0.761,0.165c0.276,0.028,0.554-0.005,0.815-0.097c0.109-0.042,0.212-0.098,0.306-0.167
			c0.062,0.146,0.115,0.297,0.159,0.45c0.055,0.223,0.082,0.45,0.079,0.679c-0.012,0.487-0.067,0.972-0.165,1.449
			c-0.109,0.503-0.189,1.012-0.24,1.524c-0.026,0.269-0.031,0.54-0.013,0.81c0.012,0.148,0.04,0.293,0.085,0.435
			c0.02,0.048,0.042,0.095,0.068,0.141c-0.387,0.22-0.715,0.531-0.956,0.906c0.437-0.17,0.863-0.365,1.277-0.584l0.057,0.022v-0.054
			l0.138-0.067c0.461-0.257,0.976-0.403,1.503-0.428c-0.252-0.155-0.55-0.222-0.844-0.19c-0.234,0.014-0.463,0.067-0.679,0.159
			c-0.01-0.022-0.019-0.046-0.025-0.07c-0.023-0.102-0.037-0.206-0.041-0.31c-0.008-0.237,0.002-0.474,0.03-0.708
			c0.052-0.489,0.166-0.954,0.256-1.472c0.095-0.518,0.145-1.043,0.147-1.569c-0.002-0.28-0.042-0.558-0.12-0.827
			c-0.075-0.226-0.17-0.426-0.247-0.604c0.043-0.08,0.066-0.141,0.102-0.227c0.042-0.108,0.077-0.218,0.106-0.331
			c0.052-0.216,0.093-0.435,0.122-0.654c0.047-0.429,0.069-0.861,0.063-1.292c-0.01-0.842-0.08-1.683-0.208-2.515
			c0.149-0.703,0.238-1.417,0.267-2.135c0.019-0.415,0.014-0.831,0-1.248l0.019-0.917c0.022-1.109,0.477-2.429,1.675-2.49
			c0.27-0.017,0.533,0.092,0.713,0.294c0.57,0.607,0.765,1.988,0.803,3.249c-0.032,0.41-0.032,0.822,0,1.231
			c-0.016,0.36-0.039,0.68-0.063,0.906v0.104l0.046,0.093c0.063,0.134,0.117,0.272,0.161,0.414c0.029,0.288,0.063,0.593,0.099,0.917
			c0,0.019,0.052,1.483,0.166,3.468c0,0.088,0,0.156-0.016,0.208l-0.285-0.095c-0.147,0.146-0.333,0.247-0.537,0.292
			c-0.245,0.076-0.496,0.135-0.749,0.177c-0.518,0.109-1.053,0.17-1.584,0.288c0.54,0.124,1.095,0.167,1.648,0.129
			c0.284-0.021,0.565-0.073,0.837-0.154c0.279-0.074,0.521-0.248,0.679-0.489v0.041c0.084,0.861,0.124,1.727,0.118,2.592
			l-0.041,3.083c-0.274-0.025-0.552,0.011-0.811,0.106c0.305,0.133,0.623,0.239,0.946,0.317l0,0v0.047
			c0.056,1.189-0.679,2.28-1.526,3.151c-0.881,0.876-1.85,1.66-2.891,2.338c-1.044,0.689-2.126,1.322-3.239,1.895
			c-1.116,0.573-2.241,1.132-3.396,1.619c2.365-0.863,4.64-1.956,6.792-3.262c1.094-0.648,2.105-1.426,3.014-2.316
			c0.458-0.458,0.852-0.975,1.17-1.539c0.319-0.56,0.471-1.2,0.437-1.843l0.131,0.034c0.164,0.029,0.321,0.085,0.466,0.167
			c-0.023-0.202-0.141-0.38-0.317-0.482l-0.057-0.029c0-0.172,0.057-1.766,0.045-3.368l0.016-1.166
			c-0.041-0.604-0.077-1.188-0.108-1.732c0.057-0.869,0.149-3.054-0.279-4.528c-0.056-0.552-0.099-1.025-0.12-1.433
			c0.011-0.326,0.019-0.711,0-1.132c0.021-0.597,0.299-1.155,0.763-1.53c0.453-0.382,0.519-0.432,1.47-0.163
			c0.679,0.193,1.104,2.742,1.109,4.994v0.109l0.061,0.09c1.096,1.664,0.784,5.433,0.781,5.481v0.077l0.025,0.072
			c0.905,2.606,0.179,5.66,0.172,5.689l-0.034,0.139l0.067,0.124c0.333,0.596,1.146,3.437,1.442,4.527
			c-0.149,0.129-0.281,0.276-0.394,0.438c-0.167,0.242-0.29,0.512-0.364,0.797c-0.067,0.281-0.103,0.569-0.106,0.858
			c0,0.226,0,0.453,0,0.679c-0.103,0.046-0.198,0.106-0.283,0.179c-0.12,0.109-0.225,0.233-0.314,0.369
			c-0.174,0.256-0.291,0.548-0.342,0.854c0.154-0.244,0.349-0.459,0.577-0.636c0.108-0.082,0.223-0.152,0.344-0.213l0.328-0.172
			l0.192-0.102l-0.032-0.159c-0.07-0.252-0.103-0.513-0.095-0.774c0.017-0.257,0.066-0.511,0.146-0.756
			c0.08-0.236,0.183-0.463,0.308-0.679c0.068-0.106,0.144-0.207,0.227-0.302c0.641-0.532,1.358-1.034,2.209-1.22
			c-0.456,0.043-0.902,0.163-1.319,0.354c-0.145,0.063-0.28,0.135-0.419,0.206l-0.378-1.53c-0.172-0.693,0.408-2.961,0.532-3.31
			c0.202-0.557,0.958-0.937,1.542-0.971c0.227-0.011,0.509,0.03,0.588,0.19c0.258,0.53,0.376,2.567,0.385,3.726l0.036,0.154
			c0,0,0.192,0.403,0.453,1.024c0.104,0.253,0,0.948-0.077,1.621c-0.12,0.776-0.184,1.56-0.19,2.346c0,0.486,0,0.783,0,1.002
			c-0.011,0.591-0.011,0.679,0.197,2.309c0.226,1.752-0.335,2.83-0.876,3.871c-0.104,0.204-0.208,0.403-0.304,0.6
			c-0.239,0.43-0.529,0.83-0.864,1.19c-1.246,1.432-2.241,3.063-2.943,4.827c-1.585,3.824-1.729,8.682-1.737,8.983H55.419
			l0.068-3.622c0.111-5.513-0.426-6.912-0.679-7.26c-2.359-5.207-2.33-7.452-2.314-8.659 M42.255,54.875
			c-0.16-1.474,0.226-2.956,1.084-4.165c0.837,1.917,1.87,3.217,2.793,4.376l0.306,0.38c1.746,2.164,2.716,3.602,0.783,5.784
			c-0.264,0.229-0.548,0.432-0.849,0.608c0.04-0.604,0.028-1.209-0.035-1.811c-0.072-0.646-0.224-1.281-0.452-1.89
			c-0.23-0.601-0.545-1.165-0.938-1.675c0.337,0.538,0.595,1.122,0.765,1.734c0.162,0.606,0.248,1.229,0.258,1.856
			c0.003,0.5-0.031,0.998-0.102,1.492c-2.074-1.875-3.416-4.315-3.622-6.685 M36.229,62.332c2.267,0.041,4.479,0.698,6.4,1.902
			H30.924c1.309-1.227,3.17-1.902,5.313-1.902 M52.111,99.232H48.41v-9.599c0.428-0.722,0.762-1.496,0.994-2.302
			c0.213-0.097,0.445-0.146,0.679-0.145h0.367c0.921,0,1.668,0.747,1.668,1.668L52.111,99.232z M48.037,90.227v8.997h-1.508v-7.288
			c0.566-0.514,1.072-1.09,1.508-1.718 M39.831,93.824c-5.098,0-9.23-4.132-9.23-9.23c0-5.097,4.132-9.229,9.23-9.229
			c5.096,0,9.229,4.131,9.229,9.228C49.054,89.687,44.925,93.816,39.831,93.824 M46.169,92.266v6.957h-3.694v-5.049
			c1.355-0.37,2.617-1.023,3.701-1.917 M58.045,99.214h-3.701V88.854c0.001-0.921,0.748-1.667,1.668-1.668h0.367
			c0.921,0,1.668,0.747,1.668,1.668L58.045,99.214z M63.98,99.214h-3.701V88.854c0.001-0.921,0.748-1.667,1.668-1.668h0.364
			c0.922,0,1.67,0.747,1.671,1.668L63.98,99.214z M69.914,99.214h-3.701V88.854c0.001-0.922,0.749-1.668,1.67-1.668h0.365
			c0.922,0,1.668,0.747,1.668,1.668L69.914,99.214z M81.783,94.111v5.112h-3.701v-7.181c1.069,0.953,2.332,1.661,3.701,2.078
			 M75.444,84.592c0.001-5.098,4.135-9.229,9.232-9.228c5.097,0.001,9.229,4.135,9.227,9.232c-0.001,5.097-4.133,9.228-9.229,9.228
			C79.578,93.819,75.448,89.688,75.444,84.592 M75.85,89.194v10.029h-3.701V88.854c0.001-0.922,0.749-1.668,1.671-1.668h0.367
			c0.346,0,0.684,0.11,0.964,0.313c0.182,0.587,0.417,1.158,0.702,1.702 M76.217,89.823c0.425,0.688,0.931,1.322,1.507,1.889v7.511
			h-1.507V89.823z M96.102,84.616c-0.006,6.048-4.907,10.949-10.955,10.955c-0.285,0-0.584-0.014-0.974-0.049l-0.849-0.073v3.774
			h-1.168v-5.01c5.344,1.423,10.829-1.756,12.251-7.1c1.423-5.344-1.756-10.829-7.1-12.251c-5.344-1.423-10.829,1.756-12.251,7.1
			c-0.44,1.654-0.449,3.392-0.026,5.05c-0.263-0.122-0.548-0.186-0.837-0.188h-0.367c-1.125,0-2.038,0.912-2.038,2.038v10.368h-1.51
			V88.854c0-1.125-0.912-2.038-2.038-2.038h-0.364c-1.125,0-2.038,0.912-2.038,2.038v10.369h-1.508V88.854
			c0-1.125-0.912-2.038-2.037-2.038H61.93c-1.125,0-2.038,0.912-2.038,2.038v10.369h-1.51V88.854c0-1.125-0.912-2.038-2.037-2.038
			h-0.367c-1.125,0-2.037,0.912-2.037,2.038v10.369h-1.508V88.854c0-1.125-0.913-2.038-2.037-2.038h-0.317
			c-0.193,0.002-0.385,0.035-0.568,0.095c1.31-5.366-1.978-10.778-7.344-12.088c-5.366-1.31-10.778,1.979-12.088,7.345
			c-1.31,5.366,1.979,10.778,7.344,12.088c1.54,0.376,3.147,0.38,4.69,0.013v4.954h-1.06V95.46l-0.842,0.063
			c-0.278,0.022-0.566,0.043-0.849,0.043c-6.05,0-10.955-4.905-10.955-10.955c0-6.05,4.905-10.955,10.955-10.955h45.781
			c6.048,0.007,10.949,4.909,10.955,10.957 M37.107,73.099v-4.82h50.288v4.82c-0.741-0.147-1.495-0.223-2.25-0.227H39.371
			c-0.755,0.004-1.509,0.08-2.25,0.227 M87.544,62.316c2.151,0,4.005,0.679,5.311,1.902h-11.71
			C83.066,63.014,85.278,62.356,87.544,62.316 M95.534,67.522H28.978V64.94h66.556V67.522z M95.452,54.934
			c1.643-0.174,3.286,0.334,4.543,1.406c-2.053,0.808-3.396,1.867-4.602,2.809c-1.277,1.002-2.284,1.795-3.645,1.795
			c-0.959,0.044-1.906-0.24-2.683-0.806c-0.135-0.102-0.258-0.219-0.366-0.349c0.269-0.027,0.541-0.05,0.808-0.095
			c0.773-0.132,1.525-0.369,2.235-0.702c0.699-0.337,1.342-0.78,1.908-1.311c-0.598,0.48-1.266,0.867-1.98,1.146
			c-0.71,0.269-1.453,0.44-2.21,0.509c-0.346,0.032-0.694,0.043-1.041,0.041c-0.055-0.104-0.104-0.211-0.145-0.321
			c1.926-2.379,4.6-3.919,7.181-4.121 M100.494,49.675c-1.311,1.873-2.248,3.228-4.887,3.016c-0.322-0.025-0.68-0.084-1.112-0.161
			c-0.333-0.073-0.63-0.258-0.842-0.525c0.378-0.017,0.753-0.084,1.114-0.199c0.596-0.201,1.151-0.508,1.639-0.906
			c0.237-0.197,0.464-0.406,0.679-0.627l0.588-0.704l-0.652,0.641c-0.232,0.193-0.474,0.375-0.724,0.543
			c-0.496,0.328-1.046,0.564-1.625,0.697c-0.381,0.081-0.771,0.106-1.159,0.075c1.204-2.837,3.337-5.083,5.771-6.033
			c1.688-0.662,3.396-0.648,4.912,0.031c-1.786,1.411-2.8,2.859-3.703,4.149"/>
	</g>
</g>
</svg>