<?xml version="1.0" encoding="utf-8"?>
<!-- Generator: Adobe Illustrator 16.0.0, SVG Export Plug-In . SVG Version: 6.00 Build 0)  -->
<!DOCTYPE svg PUBLIC "-//W3C//DTD SVG 1.1//EN" "http://www.w3.org/Graphics/SVG/1.1/DTD/svg11.dtd">
<svg version="1.1" id="Слой_1" xmlns="http://www.w3.org/2000/svg" xmlns:xlink="http://www.w3.org/1999/xlink" x="0px" y="0px"
	 width="80.934px" height="93.375px" viewBox="0 0 80.934 93.375" enable-background="new 0 0 80.934 93.375" xml:space="preserve">
<title>Ресурс 4</title>
<g id="Слой_2">
	<g id="Layer_1">
		<path fill="#314369" d="M48.644,78.054H32.885c-0.472,0-0.854,0.383-0.854,0.854c0,0.472,0.382,0.854,0.854,0.854h15.761
			c0.472,0,0.854-0.382,0.854-0.854c0-0.471-0.383-0.854-0.854-0.854 M48.646,79.408H32.885c-0.275,0-0.499-0.224-0.499-0.499
			c0-0.274,0.223-0.498,0.499-0.498h15.761c0.275,0,0.499,0.224,0.499,0.498C49.145,79.184,48.922,79.408,48.646,79.408"/>
		<path fill="#314369" d="M32.892,73.879c0-0.895-0.726-1.622-1.622-1.622c-0.896,0-1.622,0.727-1.622,1.622
			c0,0.896,0.726,1.622,1.622,1.622l0,0C32.165,75.5,32.891,74.774,32.892,73.879 M31.27,75.146c-0.699,0-1.267-0.567-1.267-1.267
			c0-0.699,0.568-1.267,1.267-1.267c0.7,0,1.267,0.567,1.267,1.267C32.537,74.579,31.97,75.146,31.27,75.146"/>
		<path fill="#314369" d="M50.257,72.257c-0.895,0-1.621,0.727-1.621,1.622c0,0.896,0.727,1.622,1.621,1.622
			c0.896,0,1.623-0.726,1.623-1.622l0,0C51.878,72.984,51.153,72.258,50.257,72.257 M50.257,75.144
			c-0.699,0-1.266-0.566-1.266-1.267c0-0.7,0.567-1.267,1.266-1.267c0.7,0,1.268,0.567,1.268,1.267
			C51.525,74.577,50.957,75.144,50.257,75.144"/>
		<path fill="#314369" d="M43.923,75.501c0.895,0,1.621-0.726,1.621-1.622c0-0.895-0.726-1.622-1.621-1.622
			c-0.896,0-1.622,0.727-1.622,1.622l0,0C42.303,74.774,43.028,75.5,43.923,75.501 M43.923,72.614c0.7,0,1.267,0.567,1.267,1.267
			c0,0.699-0.567,1.267-1.267,1.267c-0.7,0-1.268-0.567-1.268-1.267C42.656,73.182,43.223,72.614,43.923,72.614"/>
		<path fill="#314369" d="M37.601,75.501c0.896,0,1.622-0.726,1.622-1.622c0-0.895-0.727-1.622-1.622-1.622
			s-1.622,0.727-1.622,1.622l0,0C35.98,74.774,36.706,75.5,37.601,75.501 M37.601,72.614c0.7,0,1.267,0.567,1.267,1.267
			c0,0.699-0.567,1.267-1.267,1.267s-1.267-0.567-1.267-1.267C36.333,73.182,36.901,72.614,37.601,72.614"/>
		<path fill="#314369" d="M19.85,72.994c-3.265,0-5.913,2.647-5.913,5.913c0,3.266,2.647,5.913,5.913,5.913
			c3.266,0,5.913-2.647,5.913-5.913C25.763,75.642,23.115,72.994,19.85,72.994 M19.85,84.315c-2.985,0.001-5.407-2.418-5.408-5.404
			c-0.001-2.985,2.417-5.407,5.403-5.408c2.986-0.001,5.407,2.418,5.408,5.404c0,0.001,0,0.001,0,0.002
			C25.25,81.893,22.833,84.311,19.85,84.315"/>
		<path fill="#314369" d="M19.85,75.908c-1.656,0-2.999,1.343-2.999,2.999s1.343,2.999,2.999,2.999c1.656,0,2.999-1.343,2.999-2.999
			c0-0.001,0-0.001,0-0.002C22.845,77.251,21.504,75.911,19.85,75.908 M19.85,81.567c-1.469,0-2.661-1.191-2.661-2.661
			s1.191-2.661,2.661-2.661c1.47,0,2.661,1.191,2.661,2.661C22.509,80.376,21.319,81.566,19.85,81.567"/>
		<path fill="#314369" d="M67.586,78.907c0-3.265-2.647-5.913-5.913-5.913c-3.266,0-5.913,2.647-5.913,5.913
			c0,3.266,2.647,5.913,5.913,5.913C64.939,84.819,67.586,82.172,67.586,78.907 M56.268,78.907c0.001-2.986,2.422-5.405,5.408-5.404
			c2.986,0.001,5.405,2.423,5.404,5.408s-2.421,5.404-5.406,5.404C58.689,84.312,56.271,81.892,56.268,78.907"/>
		<path fill="#314369" d="M64.672,78.907c-0.001-1.656-1.344-2.998-3-2.996c-1.656,0.001-2.997,1.345-2.996,3
			c0.001,1.655,1.343,2.997,2.999,2.997C63.33,81.905,64.671,80.563,64.672,78.907 M59.011,78.907
			c0.001-1.47,1.193-2.66,2.663-2.658c1.469,0.001,2.659,1.193,2.658,2.663c-0.001,1.469-1.192,2.659-2.661,2.659
			C60.202,81.567,59.012,80.376,59.011,78.907"/>
		<path fill="#314369" d="M57.843,66.873c0,0,0.87,0.087,0.87-2.323h-1.818C56.895,64.55,56.868,66.873,57.843,66.873"/>
		<path fill="#314369" d="M54.059,66.873c0,0,0.87,0.087,0.87-2.323h-1.82C53.109,64.55,53.083,66.873,54.059,66.873"/>
		<path fill="#314369" d="M50.271,66.873c0,0,0.87,0.087,0.87-2.323h-1.817C49.323,64.55,49.297,66.873,50.271,66.873"/>
		<path fill="#314369" d="M46.484,66.873c0,0,0.87,0.087,0.87-2.323h-1.821C45.534,64.55,45.508,66.873,46.484,66.873"/>
		<path fill="#314369" d="M42.696,66.873c0,0,0.87,0.087,0.87-2.323h-1.818C41.748,64.55,41.722,66.873,42.696,66.873"/>
		<path fill="#314369" d="M38.912,66.873c0,0,0.87,0.087,0.87-2.323h-1.818C37.963,64.55,37.938,66.873,38.912,66.873"/>
		<path fill="#314369" d="M35.124,66.873c0,0,0.873,0.087,0.873-2.323h-1.821C34.175,64.55,34.148,66.873,35.124,66.873"/>
		<path fill="#314369" d="M30.987,66.748l0.633,0.025c0.253-0.186,0.592-0.715,0.592-2.21h-1.818c0,0-0.017,1.71,0.598,2.188"/>
		<path fill="#314369" d="M27.325,66.822c0.175-0.034,0.354-0.053,0.532-0.074c0.252-0.211,0.562-0.745,0.562-2.188h-1.811
			c0,0-0.019,1.934,0.724,2.262"/>
		<path fill="#314369" d="M23.518,66.811c0.142,0,0.283,0.013,0.422,0.021c0.254-0.114,0.697-0.556,0.697-2.272h-1.831
			c0,0-0.019,1.901,0.701,2.251"/>
		<path fill="#314369" d="M19.978,66.873c0,0,0.87,0.087,0.87-2.323h-1.819C19.029,64.55,19.003,66.873,19.978,66.873"/>
		<path fill="#314369" d="M61.629,66.873c0,0,0.87,0.087,0.87-2.323h-1.818C60.681,64.55,60.653,66.873,61.629,66.873"/>
		<path fill="#314369" d="M41.664,41.98c-0.475,1.024-0.812,2.107-0.999,3.22c-0.201,1.099-0.254,2.221-0.156,3.334
			c0.085-1.099,0.265-2.188,0.536-3.256c0.273-1.052,0.655-2.073,1.141-3.045c0.483-0.962,1.106-1.847,1.848-2.627
			c0.708-0.817,1.586-1.44,2.481-2.111c-1.055,0.358-2.099,0.889-2.897,1.715c-0.812,0.802-1.472,1.743-1.952,2.779"/>
		<path fill="#314369" d="M40.515,38.485c0.995-0.601,2.02-1.151,3.07-1.649c1.041-0.524,2.124-0.949,3.21-1.392
			c-1.14,0.28-2.255,0.653-3.334,1.113c-1.082,0.46-2.133,0.99-3.146,1.586c-1.01,0.602-1.984,1.263-2.918,1.978
			c-0.934,0.711-1.81,1.496-2.619,2.346c0.911-0.738,1.845-1.437,2.803-2.097c0.957-0.661,1.928-1.3,2.937-1.877"/>
		<path fill="#314369" d="M46.058,30.051c-0.422-0.146-0.885-0.113-1.282,0.093c0.41,0.188,0.762,0.296,1.109,0.422l1.094,0.393
			c-0.05-0.224-0.17-0.425-0.342-0.577C46.47,30.231,46.272,30.118,46.058,30.051"/>
		<path fill="#314369" d="M45.486,25.22c-0.428,0.067-0.778,0.374-0.902,0.79c0.401-0.137,0.684-0.277,1.009-0.378
			c0.348-0.098,0.706-0.153,1.067-0.165c-0.337-0.25-0.766-0.339-1.174-0.245"/>
		<path fill="#314369" d="M45.209,20.844c0.137-0.036,0.275-0.085,0.422-0.108c0.138-0.042,0.285-0.042,0.423,0
			c-0.11-0.118-0.262-0.188-0.423-0.198c-0.156-0.014-0.314-0.009-0.47,0.015c-0.305,0.045-0.602,0.128-0.885,0.249l0.129,0.313
			c0.27-0.084,0.54-0.211,0.817-0.281"/>
		<path fill="#314369" d="M42.096,20.528l-0.019-0.053c-0.299-0.051-0.601-0.084-0.904-0.097c-0.317-0.021-0.635,0.021-0.936,0.122
			c0.261,0.209,0.584,0.326,0.919,0.332C41.499,20.865,41.839,20.754,42.096,20.528"/>
		<path fill="#314369" d="M34.581,26.888c0.168-0.063,0.3-0.199,0.354-0.372c-0.133,0.058-0.277,0.088-0.422,0.091
			c-0.135,0.005-0.271,0.002-0.405-0.011c-0.279-0.019-0.568-0.07-0.898-0.078c0.232,0.234,0.536,0.383,0.862,0.422
			c0.172,0.028,0.349,0.008,0.512-0.055"/>
		<path fill="#314369" d="M80.278,42.088c-1.601-0.773-3.379-0.815-5.155-0.123c-2.431,0.953-4.557,3.202-5.718,6.031l0,0
			c-0.439-0.092-0.86-0.255-1.246-0.485c0.957-1.771,1.763-3.619,2.408-5.526l0.012,0.029c0.548-0.25,1.081-0.531,1.595-0.845
			c0.253-0.151,0.501-0.314,0.743-0.485c0.313,0.205,0.682,0.308,1.056,0.295c0.074,0,0.152,0,0.236,0
			c3.208-0.283,3.677-2.076,4.223-4.153l0.042-0.163c0.332-1.267,0.706-2.688,1.717-4.295l0.34-0.541l-0.634-0.062
			c-1.59-0.156-3.101,0.366-4.373,1.5c-1.783,1.584-2.879,4.202-2.938,6.996v0.072l0.027,0.042c-0.57,0.317-1.163,0.592-1.771,0.825
			c0.775-2.46,1.254-5.003,1.429-7.576c0.344-0.28,0.664-0.586,0.959-0.917c0.282-0.326,0.544-0.668,0.786-1.026
			c0.146,0.076,0.308,0.115,0.473,0.114c0.207-0.003,0.41-0.053,0.595-0.144c2.534-1.164,2.576-2.492,2.6-4.435
			c0.015-1.171,0.029-2.5,0.566-4.135l0.072-0.211l-0.228,0.034c-1.356,0.211-2.557,0.991-3.301,2.144
			c-1.136,1.662-1.509,4.027-1.02,6.346c-0.282,0.34-0.585,0.663-0.91,0.963c-0.175,0.158-0.359,0.314-0.547,0.46
			c0.015-0.423,0.021-0.845,0.02-1.257c0-0.238-0.013-0.481-0.02-0.722l0.046-0.131l-0.05-0.019
			c-0.032-0.902-0.104-1.804-0.224-2.701l0.061,0.025c0.378-1.134,0.703-2.272,0.965-3.434c0.023-0.102,0.042-0.211,0.063-0.308
			c0.215-0.018,0.418-0.105,0.581-0.248c1.945-1.725,1.799-2.825,1.396-4.599c-0.243-1.056-0.515-2.264-0.389-3.856l0.019-0.239
			l-0.243,0.084c-1.186,0.484-2.108,1.452-2.534,2.661c-0.682,1.795-0.49,4.076,0.513,6.105c0.101,0.036,0.205,0.061,0.311,0.074
			c-0.023,0.076-0.044,0.15-0.069,0.224c-0.262,0.794-0.564,1.575-0.883,2.346c-0.309-1.763-0.804-3.489-1.478-5.148
			c-0.161-0.398-0.333-0.792-0.515-1.18c0.162-0.422,0.298-0.854,0.406-1.292c0.112-0.456,0.197-0.919,0.252-1.385
			c0.017-0.144,0.028-0.288,0.04-0.422c0.156-0.07,0.299-0.166,0.423-0.284c1.603-1.491,1.17-2.567,0.633-4
			c-0.428-1.002-0.687-2.068-0.769-3.154l-0.011-0.245l-0.198,0.114c-0.923,0.533-1.504,1.415-1.799,2.517
			c-0.763,2.857,1.208,5.123,1.208,5.123c0.035,0.004,0.069,0.004,0.104,0c0.035,0.002,0.069,0.002,0.104,0
			c-0.021,0.093-0.038,0.186-0.062,0.279c-0.109,0.439-0.245,0.871-0.406,1.294c-0.09,0.236-0.19,0.471-0.297,0.701
			c-0.716-1.373-1.565-2.672-2.534-3.879c0.042-0.896,0.019-1.792-0.068-2.684c0-0.046-0.013-0.095-0.019-0.142
			c0.224-0.136,0.415-0.32,0.557-0.541c1.057-1.941,0.319-2.746-0.633-3.964c-0.705-0.845-1.267-1.801-1.662-2.828l-0.079-0.211
			l-0.156,0.165C64.184,6.445,64,7.469,63.912,8.616c-0.186,2.452,2.346,4.373,2.626,4.578c-0.026,0.641-0.087,1.281-0.183,1.915
			c-0.519-0.604-1.063-1.182-1.635-1.735c-0.863-0.83-1.78-1.603-2.745-2.313c0.062-0.294,0.062-0.597,0-0.891
			c0-0.046-0.021-0.093-0.032-0.139l0.015-0.013c0.265-0.229,0.485-0.504,0.65-0.813c1.056-1.963,0.247-2.745-0.694-3.646
			l-0.211-0.211c-0.696-0.664-1.264-1.451-1.672-2.323l-0.272-0.581l-0.368,0.513c-0.65,0.837-0.911,1.914-0.715,2.956
			c0.228,1.409,1.36,2.984,2.899,4.048c0,0.091,0.017,0.182,0.019,0.269c0.007,0.175-0.005,0.35-0.038,0.521
			c-0.501-0.358-1.014-0.702-1.537-1.028c-0.011-0.009-0.023-0.017-0.036-0.023c-0.481-0.3-0.97-0.589-1.465-0.866
			c0.098-0.335-0.036-0.658-0.131-0.96c-0.125-0.363-0.291-0.71-0.494-1.035c-0.025-0.038-0.057-0.072-0.082-0.11
			c0.006-0.015,0.012-0.03,0.017-0.046c0.479-1.689-0.302-2.234-1.28-2.967c-0.707-0.488-1.328-1.088-1.839-1.778l-0.133-0.188
			l-0.108,0.21c-0.397,0.765-0.448,1.663-0.142,2.469c0.422,1.212,1.575,2.323,2.956,2.935c0.1-0.072,0.191-0.154,0.275-0.245
			c0.146,0.29,0.262,0.593,0.347,0.907c0.056,0.183,0.073,0.365,0.117,0.546c-0.515-0.277-1.032-0.545-1.558-0.794
			c-0.866-0.405-1.747-0.769-2.635-1.115c0.015-0.099,0.006-0.2-0.023-0.295c-0.036-0.152-0.076-0.3-0.121-0.45
			S53.599,5.651,53.55,5.52c0.068-0.173,0.245-0.633,0.288-0.811c0.456-1.95-1.145-2.6-2.006-2.956
			C51.058,1.449,50.351,1,49.747,0.43L49.281,0l-0.176,0.617c-0.255,0.896-0.116,1.859,0.384,2.646
			c0.691,1.15,2.201,2.143,3.751,2.469l0.076,0.017c0.025,0.082,0.059,0.16,0.083,0.243c0.036,0.146,0.072,0.292,0.102,0.44
			c0,0.038,0.015,0.078,0.023,0.114c-0.566-0.211-1.13-0.422-1.703-0.634c-0.23-0.075-0.46-0.132-0.695-0.188l-0.276-0.251
			c-1.155-1.043-3.378-2.765-5.26-2.606c-1.154,0.076-2.222,0.642-2.933,1.554l-0.395,0.507l0.633,0.122
			c1.048,0.226,2.051,0.624,2.971,1.174c0.673,0.368,1.239,0.655,1.901,0.745c0.544,0,1.689,0,2.419-0.793
			c0.17-0.12,0.36-0.208,0.56-0.262l0.19-0.055c0.278,0.063,0.553,0.14,0.824,0.23c1.043,0.389,2.067,0.822,3.079,1.28
			c-0.05,0-0.103-0.011-0.156-0.014c-0.449-0.012-0.897,0.028-1.337,0.121c-0.118,0.023-0.232,0.063-0.346,0.097L52.967,7.56
			c-1.592-0.61-3.328-0.591-4.646,0.051c-0.914,0.418-1.605,1.208-1.9,2.168l-0.175,0.608l0.634-0.11
			c0.896-0.141,1.808-0.134,2.701,0.021c0.364,0.057,0.73,0.09,1.098,0.099c0.875,0,1.446-0.236,2.135-1.522
			c0.14-0.332,0.243-0.677,0.308-1.031V7.812c0.089-0.017,0.177-0.039,0.264-0.053c0.633-0.099,1.278-0.099,1.911,0
			c0.149,0.038,0.303,0.053,0.456,0.044c0.188,0.088,0.38,0.169,0.564,0.262c0.926,0.475,1.833,0.993,2.716,1.546l0,0
			c-0.328-0.013-0.654-0.005-0.98,0.023l-0.038-0.015c-1.574-0.662-3.305-0.697-4.646-0.095c-0.923,0.392-1.635,1.161-1.955,2.111
			l-0.211,0.606l0.633-0.091c0.899-0.111,1.81-0.075,2.697,0.107c0.396,0.077,0.799,0.123,1.203,0.135
			c0.204,0.002,0.408-0.02,0.606-0.065c0.777-0.169,1.424-0.702,1.737-1.432c0.125-0.285,0.164-0.6,0.11-0.906
			c0.269-0.007,0.537,0,0.805,0.021c0.186,0.014,0.371,0.035,0.555,0.062l0.251,0.042c1.28,0.842,2.494,1.783,3.628,2.812
			l-0.078-0.017c-0.34-0.057-0.685-0.084-1.028-0.081c-1.409-0.863-3.054-1.172-4.435-0.818c-0.964,0.226-1.788,0.849-2.269,1.714
			l-0.304,0.564l0.633,0.019c0.906,0.043,1.798,0.236,2.642,0.568c0.581,0.211,1.1,0.384,1.632,0.384
			c0.184,0,0.366-0.022,0.545-0.067c0.616-0.161,1.158-0.528,1.537-1.039c0.22-0.308,0.316-0.687,0.272-1.063
			c0.241,0.028,0.48,0.072,0.716,0.131c0.191,0.049,0.38,0.108,0.565,0.178l0.161,0.065c0.11,0.105,0.226,0.211,0.335,0.318
			c1.116,1.125,2.123,2.353,3.007,3.667c-0.389-0.184-0.793-0.335-1.208-0.45l-0.03-0.025c-1.32-1.138-2.986-1.719-4.464-1.561
			c-1.015,0.09-1.944,0.606-2.556,1.421l-0.38,0.516l0.634,0.109c0.908,0.176,1.781,0.5,2.584,0.957
			c0.663,0.342,1.25,0.646,1.914,0.646c0.135,0,0.271-0.012,0.403-0.038l-0.047-0.247l0.07,0.244
			c0.422-0.079,1.082-0.21,1.541-0.827c0.145-0.258,0.259-0.532,0.34-0.815c0.341,0.149,0.671,0.326,0.986,0.526
			c0.338,0.214,0.659,0.453,0.961,0.715c0.632,1.063,1.183,2.173,1.645,3.32c0.131,0.323,0.25,0.648,0.366,0.975
			c-0.34-0.26-0.701-0.492-1.079-0.693c-0.045-0.023-0.094-0.038-0.14-0.059c-0.923-1.39-2.249-2.402-3.649-2.764
			c-1.082-0.306-2.242-0.136-3.19,0.466l-0.539,0.349l0.551,0.325c0.88,0.543,1.665,1.228,2.323,2.025
			c0.753,0.844,1.413,1.57,2.621,1.57c0.078,0,0.159,0,0.24,0l-0.019-0.253l0.081,0.249c0.39-0.007,0.773-0.095,1.128-0.258
			c0.334-0.206,0.608-0.497,0.792-0.845c0.211,0.167,0.437,0.34,0.633,0.524c0.197,0.184,0.349,0.319,0.511,0.486
			c0.044,0.038,0.084,0.08,0.12,0.125c0.593,2.032,0.937,4.128,1.022,6.242c-0.351-0.129-0.697-0.266-1.041-0.422
			c0.012-0.019,0.024-0.038,0.034-0.057c-0.372-2.137-1.514-4.012-3.056-5.011c-0.72-0.485-1.568-0.749-2.437-0.758
			c-0.346,0-0.69,0.043-1.026,0.129l-0.222,0.057l0.149,0.172c0.999,1.158,1.468,2.243,1.882,3.204
			c0.688,1.598,1.189,2.745,3.676,2.766l0,0c0.227-0.002,0.449-0.064,0.645-0.179c0.453,0.268,0.92,0.519,1.399,0.747
			c0,0.165,0.011,0.332,0.011,0.496c-0.002,1.519-0.122,3.036-0.359,4.537c-0.277,0.022-0.558,0.014-0.833-0.025
			c-0.066,0-0.129-0.034-0.194-0.046c-0.33-2.148-1.391-4.057-2.889-5.149c-0.791-0.601-1.752-0.934-2.746-0.95
			c-0.291,0-0.581,0.031-0.865,0.091l-0.225,0.044l0.14,0.182c0.99,1.279,1.423,2.454,1.805,3.489
			c0.633,1.689,0.857,3.125,3.343,3.125h0.149c0.415-0.002,0.818-0.13,1.16-0.366c0.074,0.023,0.146,0.059,0.222,0.078
			c0.276,0.073,0.56,0.12,0.845,0.139c-0.271,1.538-0.651,3.054-1.136,4.538c-0.508,1.544-1.123,3.05-1.839,4.508
			c-0.247-0.356-0.486-0.716-0.711-1.089c0.876-2.344,0.865-4.856-0.051-6.787c-0.595-1.331-1.729-2.346-3.119-2.787l-0.211-0.067
			l0.038,0.226c0.295,1.808,0.097,3.208-0.081,4.435c-0.293,2.046-0.976,3.26,1.493,4.88c0.395,0.26,1.112,0.302,1.535,0.302
			c0.245,0.511,0.508,1.014,0.792,1.507c-0.65,1.269-1.384,2.494-2.195,3.667c-0.634,0.897-1.295,1.761-2.002,2.591
			c-0.188-0.344-0.365-0.688-0.528-1.056c1.341-2.458,1.689-5.267,0.936-7.518c-0.466-1.508-1.553-2.747-2.988-3.406l-0.211-0.095
			v0.228c0.081,1.994-0.321,3.478-0.677,4.789c-0.586,2.165-1.268,4.114,1.478,5.738c0.289,0.176,0.615,0.283,0.953,0.313
			c0.052,0.165,0.101,0.332,0.158,0.492c0.122,0.348,0.26,0.688,0.41,1.029c-1.301,1.464-2.756,2.782-4.342,3.931
			c-0.981,0.711-2.023,1.334-3.115,1.861c-0.093-0.304-0.17-0.615-0.234-0.934c2.168-1.858,3.58-4.353,3.784-6.781
			c0.156-1.827-0.368-3.461-1.516-4.724l-0.152-0.169l-0.082,0.211c-0.788,2.041-1.84,3.36-2.765,4.525
			c-1.528,1.92-3.319,3.782-0.999,6.405c0.224,0.253,1.012,0.73,1.235,0.866c0.034,0.286,0.084,0.572,0.146,0.86
			c-0.637,0.275-1.291,0.513-1.957,0.711h-6.35c0-0.309,0.165-4.743,1.569-8.12c0.632-1.582,1.528-3.045,2.647-4.329
			c0.353-0.382,0.656-0.808,0.899-1.267c0.085-0.177,0.178-0.355,0.273-0.539c0.5-0.965,1.125-2.167,0.887-4.012
			c-0.188-1.478-0.188-1.535-0.177-2.055c0-0.211,0-0.492,0-0.955c0.008-0.701,0.066-1.401,0.173-2.095
			c0.112-0.845,0.192-1.453,0.027-1.856c-0.183-0.454-0.335-0.785-0.399-0.922c0-0.526-0.063-2.946-0.422-3.693
			c-0.188-0.384-0.633-0.585-1.193-0.558c-0.767,0.042-1.742,0.53-2.036,1.352c0,0.015-0.251,0.828-0.422,1.706
			c-0.117-0.373-0.255-0.739-0.412-1.098c0.129-0.596,0.6-3.168-0.184-5.49c0.038-0.537,0.228-3.721-0.788-5.383
			c0-0.999-0.133-4.813-1.525-5.21c-1.115-0.314-1.387-0.211-1.991,0.288c-0.149,0.127-0.285,0.269-0.407,0.422
			c-0.129-0.806-0.37-1.558-0.802-2.016c-0.299-0.337-0.738-0.517-1.187-0.486c-0.995,0.046-1.736,0.738-2.049,1.839
			c-0.107-0.163-0.252-0.299-0.422-0.396c-0.406-0.255-0.907-0.312-1.36-0.154c-0.541,0.211-0.976,0.771-1.29,1.668
			c-0.689,1.968-0.568,4.381-0.564,4.459v0.951c-0.027,0.128-0.086,0.41-0.13,0.718c-0.293-0.606-0.752-1.204-1.444-1.317
			c-0.412-0.066-0.831,0.063-1.132,0.352c-0.788,0.706-1.082,2.241-1.022,3.379c0.031,0.503-0.01,1.008-0.122,1.5
			c-0.119,0.633-0.281,1.478-0.3,3.509c-0.084,0.287-0.492,1.728-0.395,2.534c-0.018,0.879,0.031,1.759,0.147,2.631
			c0.095,0.549-0.025,2.266-0.125,3.643c-0.074,1.024-0.135,1.9-0.122,2.367c0,0.125,0,0.26,0,0.412
			c-0.017,1.18-0.045,3.379,2.236,8.4l0.049,0.08c0.025,0.036,0.612,0.919,0.501,6.365l-0.062,3.389h-6.017
			c-0.667-0.198-1.321-0.436-1.959-0.711c0.062-0.282,0.111-0.568,0.146-0.859c0.224-0.135,1.011-0.612,1.238-0.866
			c2.322-2.621,0.532-4.483-0.999-6.405c-0.927-1.164-1.98-2.485-2.764-4.525l-0.082-0.211l-0.155,0.169
			c-1.148,1.267-1.67,2.897-1.516,4.724c0.211,2.429,1.616,4.923,3.784,6.78c-0.063,0.319-0.141,0.634-0.232,0.934
			c-1.093-0.526-2.137-1.148-3.119-1.86c-1.585-1.149-3.04-2.468-4.34-3.932c0.146-0.34,0.286-0.68,0.408-1.028
			c0.057-0.163,0.106-0.328,0.159-0.492c0.336-0.031,0.662-0.139,0.95-0.315c2.76-1.624,2.074-3.572,1.478-5.737
			c-0.354-1.312-0.756-2.796-0.676-4.789v-0.228l-0.211,0.095c-1.437,0.66-2.523,1.902-2.986,3.414
			c-0.753,2.251-0.403,5.068,0.938,7.518c-0.165,0.361-0.342,0.707-0.53,1.055c-1.632-1.919-3.033-4.024-4.175-6.27
			c0.282-0.495,0.546-0.998,0.792-1.51c0.423,0,1.143-0.044,1.537-0.301c2.467-1.62,1.784-2.833,1.491-4.88
			c-0.177-1.235-0.376-2.636-0.081-4.434l0.036-0.227l-0.21,0.068c-1.389,0.442-2.522,1.457-3.117,2.787
			c-0.917,1.922-0.927,4.435-0.051,6.787c-0.229,0.374-0.465,0.733-0.712,1.089c-0.717-1.458-1.333-2.965-1.839-4.508
			c-0.485-1.484-0.865-3-1.136-4.538c0.286-0.02,0.568-0.066,0.845-0.14c0.076-0.019,0.148-0.055,0.222-0.078
			c0.342,0.236,0.745,0.363,1.16,0.366h0.147c2.487,0,2.718-1.434,3.345-3.125c0.382-1.033,0.817-2.208,1.808-3.489l0.139-0.182
			l-0.224-0.045c-0.286-0.06-0.576-0.09-0.868-0.09c-0.994,0.016-1.955,0.349-2.746,0.95c-1.498,1.091-2.56,3-2.889,5.148
			c-0.066,0.013-0.127,0.036-0.192,0.046c-0.276,0.04-0.556,0.048-0.834,0.025c-0.247-1.502-0.376-3.021-0.386-4.542
			c0-0.165,0-0.329,0.01-0.496c0.479-0.229,0.949-0.479,1.402-0.748c0.195,0.116,0.417,0.178,0.644,0.18l0,0
			c2.487-0.013,2.986-1.168,3.677-2.767c0.422-0.958,0.88-2.044,1.881-3.203l0.15-0.173l-0.205-0.06
			c-0.335-0.085-0.68-0.128-1.026-0.129c-0.869,0.01-1.715,0.276-2.435,0.763c-1.543,1.001-2.686,2.876-3.058,5.011l0.034,0.057
			c-0.342,0.15-0.688,0.287-1.039,0.422c0.081-2.114,0.42-4.21,1.011-6.242c0.036-0.045,0.076-0.087,0.12-0.125
			c0.163-0.169,0.333-0.33,0.511-0.486s0.422-0.359,0.644-0.524c0.183,0.349,0.456,0.641,0.792,0.845
			c0.354,0.163,0.736,0.25,1.125,0.258l0.08-0.249l-0.019,0.253c0.082,0,0.165,0,0.241,0c1.21,0,1.867-0.732,2.623-1.57
			c0.658-0.798,1.443-1.482,2.323-2.025l0.549-0.325l-0.534-0.349c-0.948-0.602-2.108-0.771-3.189-0.466
			c-1.399,0.362-2.724,1.375-3.648,2.771c-0.044,0.021-0.093,0.038-0.14,0.059c-0.377,0.202-0.737,0.433-1.077,0.692
			c0.116-0.327,0.234-0.652,0.361-0.975c0.464-1.147,1.015-2.256,1.647-3.32c0.302-0.262,0.623-0.501,0.961-0.715
			c0.316-0.2,0.646-0.376,0.988-0.526c0.081,0.284,0.196,0.558,0.342,0.815c0.458,0.634,1.108,0.748,1.539,0.828l0.072-0.245
			l-0.046,0.247c0.132,0.025,0.268,0.038,0.403,0.038c0.663,0,1.25-0.304,1.912-0.646c0.803-0.457,1.676-0.78,2.584-0.956
			l0.634-0.11l-0.387-0.52c-0.611-0.816-1.541-1.333-2.557-1.423c-1.478-0.165-3.145,0.423-4.464,1.556l-0.027,0.025
			c-0.415,0.114-0.819,0.264-1.208,0.448c0.884-1.312,1.89-2.537,3.005-3.66c0.108-0.11,0.222-0.21,0.331-0.318l0.159-0.065
			c0.187-0.07,0.376-0.128,0.568-0.178c0.236-0.059,0.477-0.103,0.718-0.131c-0.048,0.377,0.046,0.758,0.265,1.068
			c0.379,0.513,0.922,0.881,1.539,1.043c0.178,0.045,0.361,0.068,0.545,0.068c0.532,0,1.056-0.181,1.641-0.386
			c0.842-0.332,1.732-0.522,2.636-0.566l0.633-0.019l-0.297-0.575c-0.481-0.881-1.316-1.515-2.294-1.742
			c-1.37-0.351-3.016-0.042-4.434,0.822c-0.345-0.004-0.69,0.022-1.031,0.08L17.4,12.902c1.139-1.027,2.355-1.964,3.638-2.804
			l0.251-0.042c0.184-0.027,0.37-0.049,0.555-0.061c0.269-0.021,0.538-0.027,0.807-0.021c-0.056,0.306-0.018,0.621,0.107,0.906
			c0.313,0.73,0.959,1.263,1.736,1.432c0.197,0.045,0.399,0.067,0.602,0.065c0.406-0.013,0.81-0.059,1.208-0.137
			c0.886-0.181,1.795-0.217,2.692-0.106l0.634,0.091l-0.211-0.606c-0.32-0.951-1.032-1.72-1.956-2.111
			c-1.331-0.602-3.062-0.566-4.645,0.095l-0.039,0.015c-0.327-0.028-0.654-0.036-0.982-0.023l0,0
			c0.883-0.552,1.789-1.071,2.713-1.546c0.186-0.093,0.378-0.171,0.564-0.262c0.16,0.014,0.319,0.001,0.475-0.036
			c0.21-0.032,0.421-0.053,0.633-0.063c0.424-0.02,0.849,0.004,1.268,0.072c0.089,0.013,0.175,0.036,0.266,0.053v0.033
			c0.068,0.352,0.177,0.696,0.321,1.025c0.688,1.288,1.267,1.522,2.135,1.522c0.367-0.01,0.733-0.043,1.096-0.1
			c0.894-0.155,1.806-0.162,2.701-0.021l0.634,0.11L34.42,9.777c-0.293-0.963-0.985-1.755-1.9-2.175
			c-1.312-0.634-3.043-0.661-4.646-0.051l-0.032,0.013c-0.116-0.032-0.228-0.072-0.344-0.095c-0.44-0.093-0.889-0.133-1.339-0.12
			c-0.053,0-0.106,0-0.158,0.013c1.013-0.458,2.036-0.891,3.079-1.28c0.268-0.091,0.545-0.167,0.823-0.23l0.19,0.055
			c0.206,0.053,0.4,0.142,0.575,0.262c0.71,0.76,1.784,0.794,2.384,0.794h0.074c0.622-0.089,1.185-0.375,1.861-0.746
			c0.918-0.55,1.92-0.946,2.967-1.17l0.633-0.124l-0.393-0.507c-0.712-0.908-1.778-1.469-2.929-1.544
			c-1.884-0.16-4.103,1.563-5.256,2.606L29.73,5.729c-0.234,0.053-0.467,0.112-0.695,0.188c-0.572,0.196-1.139,0.412-1.702,0.633
			c0-0.038,0.017-0.076,0.023-0.114c0.029-0.146,0.063-0.292,0.101-0.439c0.021-0.083,0.057-0.16,0.083-0.243l0.075-0.017
			c1.55-0.325,3.058-1.318,3.751-2.468c0.499-0.788,0.638-1.751,0.382-2.648L31.574,0l-0.471,0.435
			c-0.603,0.57-1.31,1.019-2.082,1.322c-0.859,0.348-2.462,0.999-2.004,2.957c0.042,0.184,0.211,0.633,0.288,0.811
			c-0.049,0.129-0.093,0.265-0.133,0.397c-0.04,0.133-0.084,0.298-0.123,0.45c-0.029,0.096-0.036,0.197-0.021,0.295
			c-0.889,0.347-1.769,0.711-2.637,1.115c-0.526,0.25-1.041,0.518-1.556,0.794c0.042-0.182,0.061-0.363,0.115-0.547
			c0.083-0.313,0.196-0.618,0.34-0.908c0.083,0.091,0.175,0.172,0.274,0.245c1.386-0.602,2.534-1.723,2.957-2.935
			c0.305-0.806,0.253-1.704-0.144-2.469L26.271,1.75l-0.133,0.188c-0.512,0.689-1.133,1.29-1.839,1.778
			c-0.978,0.735-1.759,1.286-1.28,2.967c0.005,0.016,0.011,0.032,0.019,0.047c-0.027,0.038-0.057,0.071-0.083,0.11
			c-0.203,0.325-0.369,0.672-0.494,1.035c-0.091,0.302-0.211,0.623-0.118,0.957c-0.5,0.281-0.992,0.572-1.479,0.87
			c-0.012,0.007-0.023,0.015-0.034,0.022c-0.514,0.326-1.024,0.668-1.531,1.027c-0.031-0.172-0.043-0.347-0.038-0.521
			c0-0.088,0.011-0.18,0.019-0.269c1.537-1.066,2.68-2.639,2.891-4.048c0.194-1.042-0.066-2.119-0.716-2.956l-0.395-0.505
			L20.79,3.03c-0.408,0.872-0.975,1.66-1.672,2.323l-0.211,0.211c-0.941,0.902-1.754,1.689-0.694,3.646
			c0.165,0.309,0.385,0.584,0.65,0.813l0.015,0.013c0,0.046-0.023,0.093-0.032,0.139c-0.063,0.293-0.063,0.597,0,0.891
			c-0.964,0.71-1.882,1.482-2.745,2.312c-0.563,0.552-1.107,1.13-1.632,1.736c-0.095-0.635-0.156-1.274-0.182-1.915
			c0.285-0.197,2.819-2.118,2.631-4.57c-0.087-1.151-0.268-2.177-1.007-2.956l-0.156-0.165l-0.078,0.211
			c-0.395,1.027-0.958,1.983-1.665,2.827c-0.94,1.225-1.689,2.023-0.621,3.964c0.138,0.219,0.325,0.402,0.547,0.536
			c0,0.049-0.015,0.095-0.021,0.142c-0.085,0.892-0.108,1.789-0.067,2.684c-0.961,1.208-1.802,2.508-2.513,3.879
			c-0.105-0.229-0.211-0.463-0.295-0.701c-0.16-0.423-0.295-0.855-0.403-1.295c-0.026-0.093-0.041-0.186-0.063-0.278
			c0.034,0.002,0.069,0.002,0.104,0c0.034,0.004,0.069,0.004,0.104,0c0,0,1.973-2.275,1.208-5.121
			c-0.293-1.104-0.875-1.985-1.8-2.517L9.992,9.714L9.978,9.942c-0.081,1.09-0.341,2.16-0.771,3.165
			c-0.549,1.43-0.972,2.507,0.625,3.998c0.123,0.118,0.266,0.214,0.422,0.283c0.013,0.145,0.021,0.289,0.04,0.422
			c0.06,0.47,0.148,0.936,0.264,1.394c0.105,0.439,0.241,0.871,0.405,1.292c-0.184,0.389-0.355,0.782-0.515,1.18
			c-0.674,1.659-1.169,3.385-1.479,5.148c-0.316-0.772-0.623-1.552-0.882-2.346c-0.023-0.074-0.044-0.147-0.068-0.224
			c0.107-0.013,0.211-0.038,0.313-0.074c1.003-2.027,1.195-4.31,0.514-6.105c-0.427-1.208-1.349-2.175-2.534-2.661L6.09,15.324
			l0.017,0.239c0.129,1.592-0.146,2.794-0.386,3.856c-0.403,1.772-0.549,2.872,1.396,4.6c0.162,0.143,0.365,0.229,0.581,0.247
			c0.021,0.102,0.04,0.211,0.063,0.308c0.265,1.161,0.587,2.306,0.968,3.434l0.061-0.025c-0.12,0.898-0.195,1.798-0.224,2.701
			l-0.05,0.019l0.046,0.131c0,0.241-0.02,0.483-0.02,0.722c0,0.423,0.007,0.841,0.021,1.257c-0.188-0.146-0.374-0.3-0.546-0.461
			c-0.325-0.299-0.628-0.621-0.908-0.962c0.489-2.323,0.114-4.684-1.023-6.346c-0.744-1.153-1.944-1.932-3.3-2.144l-0.223-0.033
			l0.069,0.21c0.534,1.635,0.551,2.957,0.566,4.135c0.023,1.945,0.076,3.271,2.602,4.435c0.185,0.091,0.389,0.14,0.595,0.144
			c0.163,0,0.324-0.039,0.469-0.114c0.24,0.358,0.502,0.701,0.786,1.026c0.294,0.33,0.614,0.636,0.957,0.917
			c0.176,2.573,0.655,5.116,1.43,7.576c-0.609-0.233-1.201-0.509-1.772-0.825l0.027-0.042v-0.078
			c-0.055-2.796-1.157-5.406-2.937-6.996c-1.267-1.134-2.791-1.655-4.373-1.499l-0.633,0.061l0.339,0.541
			c1.003,1.609,1.383,3.037,1.715,4.299l0.042,0.159c0.542,2.078,1.014,3.873,4.223,4.153c0.082,0,0.16,0,0.237,0
			c0.374,0.012,0.743-0.091,1.056-0.295c0.24,0.168,0.488,0.331,0.741,0.486c0.515,0.312,1.046,0.594,1.594,0.845l0.013-0.03
			c0.639,1.912,1.441,3.765,2.395,5.541c-0.386,0.23-0.807,0.394-1.246,0.485l0,0c-1.163-2.829-3.288-5.08-5.718-6.031
			c-1.771-0.692-3.554-0.65-5.155,0.123L0,42.367l0.509,0.388c1.689,1.305,2.648,2.667,3.493,3.873
			c1.185,1.689,2.137,3.051,4.483,3.051c0.169,0,0.347,0,0.532-0.021c0.319-0.025,0.659-0.084,1.02-0.146H10.1
			c0.568-0.13,1.057-0.492,1.345-0.999h0.091c0.513-0.056,1.013-0.199,1.478-0.422c0.475,0.845,0.979,1.656,1.524,2.449
			c1.107,1.619,2.362,3.132,3.749,4.52c-0.486,0.124-0.979,0.216-1.479,0.274c-0.188,0.021-0.375,0.023-0.563,0.034
			c0.036-0.092,0.065-0.186,0.089-0.281l0.023-0.116l-0.074-0.091c-1.886-2.384-4.553-3.93-7.133-4.135
			C7.313,50.6,5.664,51.14,4.39,52.313l-0.469,0.433l0.598,0.224c1.941,0.735,3.209,1.731,4.335,2.617
			c1.214,0.954,2.264,1.778,3.708,1.778c1.004,0.041,1.992-0.256,2.806-0.845c0.254-0.189,0.473-0.422,0.644-0.688
			c0.277,0.013,0.556,0.023,0.834,0.015c0.668-0.023,1.332-0.104,1.985-0.243c0.843,0.796,1.74,1.535,2.684,2.208
			c1.151,0.826,2.381,1.533,3.674,2.112h-1.793c-2.194-1.518-4.645-2.28-6.911-2.28c-2.266,0-4.3,0.764-5.666,2.28H9.044v3.757
			h7.541v4.707c-5.824,1.608-9.242,7.633-7.634,13.458c1.301,4.713,5.572,7.991,10.462,8.028c0.288,0,0.568-0.021,0.845-0.042v3.451
			h40.888v-3.458c0.321,0.028,0.644,0.049,0.972,0.049c6.042,0,10.94-4.897,10.94-10.94c0-4.953-3.328-9.289-8.113-10.568v-4.708
			h7.541V59.9h-2.462c-1.366-1.514-3.411-2.281-5.667-2.281c-2.255,0-4.717,0.76-6.911,2.281h-1.793
			c1.292-0.579,2.522-1.286,3.672-2.112c0.945-0.673,1.842-1.412,2.686-2.209c0.653,0.139,1.318,0.22,1.985,0.243
			c0.279,0,0.556,0,0.834-0.015c0.167,0.266,0.383,0.5,0.633,0.688c0.814,0.589,1.801,0.886,2.805,0.845
			c1.444,0,2.496-0.826,3.718-1.787c1.12-0.876,2.384-1.873,4.325-2.607l0.597-0.224l-0.467-0.426
			c-1.267-1.173-2.918-1.71-4.759-1.567c-2.581,0.211-5.247,1.75-7.136,4.134l-0.074,0.091l0.023,0.116
			c0.023,0.095,0.053,0.189,0.088,0.281c-0.188-0.011-0.376-0.015-0.563-0.034c-0.499-0.058-0.992-0.15-1.478-0.274
			c1.392-1.386,2.651-2.898,3.763-4.517c0.544-0.794,1.056-1.611,1.525-2.45c0.465,0.224,0.965,0.367,1.478,0.423h0.09
			c0.308,0.516,0.816,0.88,1.403,1.007c0.36,0.062,0.703,0.121,1.026,0.146c0.185,0.015,0.361,0.021,0.53,0.021
			c2.348,0,3.301-1.36,4.487-3.056c0.845-1.202,1.793-2.563,3.491-3.866l0.506-0.389L80.278,42.088z M75.842,33.641
			c1.026-0.96,2.399-1.46,3.802-1.387c-0.98,1.606-1.352,3.024-1.689,4.28l-0.04,0.161c-0.534,2.046-0.923,3.526-3.773,3.775
			c-0.272,0.035-0.548-0.004-0.798-0.114c0.093-0.074,0.192-0.142,0.283-0.211c0.47-0.374,0.884-0.813,1.231-1.303
			c0.355-0.481,0.566-1.056,0.604-1.654c-0.092,0.577-0.349,1.117-0.739,1.552c-0.377,0.438-0.815,0.82-1.3,1.134
			c-0.112,0.076-0.231,0.144-0.345,0.211c0.097-2.589,1.12-4.985,2.757-6.445 M75.188,25.333c0.559-0.857,1.397-1.493,2.374-1.796
			c-0.299,1.202-0.438,2.439-0.41,3.678c-0.023,1.831-0.034,2.935-2.306,3.982c-0.12,0.06-0.251,0.093-0.384,0.098
			c-0.066-0.001-0.132-0.015-0.192-0.042c0.248-0.403,0.467-0.822,0.656-1.257c0.213-0.487,0.393-0.989,0.537-1.501
			c-0.197,0.49-0.427,0.965-0.686,1.425c-0.184,0.323-0.387,0.634-0.608,0.932c-0.33-2.042,0.032-4.069,1.022-5.518 M72.511,18.266
			c0.307-0.86,0.895-1.592,1.668-2.078c0,1.129,0.145,2.254,0.433,3.347c0.391,1.723,0.492,2.551-1.231,4.08
			c-0.032,0.026-0.068,0.048-0.108,0.063c0.051-0.286,0.096-0.573,0.131-0.862c0.093-0.588,0.088-1.187-0.015-1.772
			c0.045,0.586-0.005,1.175-0.153,1.744c-0.071,0.316-0.154,0.634-0.243,0.946h-0.097c-0.845-1.839-0.994-3.865-0.388-5.459
			 M69.354,12.488c0.166-0.713,0.54-1.36,1.075-1.86c0.135,0.913,0.382,1.806,0.735,2.659l0.019,0.046
			c0.531,1.39,0.824,2.156-0.513,3.4c-0.019,0.017-0.034,0.025-0.053,0.04c0.015-0.58-0.021-1.16-0.107-1.733
			c0.018,0.631-0.025,1.262-0.127,1.885c-0.027,0.013-0.057,0.029-0.08,0.036c-0.41-0.57-1.518-2.361-0.957-4.47 M57.408,6.238
			c-0.329-0.367-0.713-0.678-1.14-0.925c0.255,0.259,0.492,0.535,0.711,0.826c0.12,0.151,0.227,0.312,0.323,0.479
			c-0.028,0.049-0.061,0.095-0.1,0.137c-1.144-0.574-2.048-1.512-2.396-2.502c-0.178-0.479-0.213-1-0.099-1.5
			c0.459,0.511,0.974,0.97,1.535,1.369l0.053,0.04c0.866,0.648,1.326,1.012,1.113,2.074 M53.345,4.589
			c-0.013,0.055-0.049,0.158-0.091,0.278c-0.12-0.219-0.266-0.424-0.435-0.608c-0.216-0.232-0.507-0.382-0.822-0.422
			c0.282,0.102,0.524,0.29,0.695,0.536c0.179,0.236,0.321,0.499,0.422,0.777c0,0.013,0,0.025,0.013,0.038
			c-1.343-0.34-2.61-1.199-3.204-2.186c-0.39-0.613-0.524-1.354-0.375-2.065c0.616,0.553,1.327,0.99,2.097,1.292
			c1.083,0.441,2.029,0.952,1.7,2.363 M49.333,5.566c0.211,0.049,0.422,0.093,0.634,0.129c-0.063,0.038-0.12,0.084-0.171,0.136
			c-0.589,0.634-1.578,0.634-2.017,0.634c-0.534-0.078-1.056-0.344-1.689-0.688c-0.911-0.543-1.899-0.943-2.931-1.187
			c0.631-0.717,1.521-1.152,2.473-1.212c1.525-0.129,3.379,1.214,4.435,2.097c-0.228-0.046-0.46-0.087-0.69-0.12
			c-0.822-0.111-1.633-0.29-2.426-0.535c0.762,0.347,1.563,0.596,2.387,0.744 M52.37,8.635c-0.577,1.081-0.97,1.267-1.689,1.267
			c-0.345-0.01-0.689-0.041-1.03-0.093c-0.521-0.079-1.047-0.123-1.574-0.131c-0.367,0-0.734,0.027-1.098,0.083
			c0.281-0.748,0.845-1.355,1.571-1.689c1.034-0.51,2.374-0.579,3.674-0.212c-0.452,0.207-0.872,0.477-1.247,0.803
			c0.375-0.231,0.769-0.426,1.181-0.581c0.134-0.055,0.269-0.091,0.403-0.133h0.025C52.54,8.18,52.47,8.406,52.376,8.625
			 M57.643,10.651c-0.246,0.592-0.767,1.024-1.394,1.155c-0.471,0.11-0.999,0.023-1.613-0.076c-0.593-0.111-1.194-0.172-1.797-0.182
			c-0.288,0-0.576,0.017-0.862,0.051c0.305-0.736,0.886-1.324,1.62-1.635c1.001-0.454,2.262-0.5,3.489-0.156
			c-0.12,0.038-0.241,0.07-0.359,0.116c-0.36,0.154-0.687,0.379-0.959,0.661c0.565-0.352,1.209-0.556,1.874-0.595l0.065,0.023
			c0.042,0.213,0.021,0.434-0.063,0.633 M61.775,9.228c-0.194-0.607-0.421-1.204-0.681-1.787c0.167,0.597,0.301,1.201,0.403,1.812
			c-1.237-0.972-2.126-2.272-2.322-3.436c-0.156-0.838,0.026-1.704,0.506-2.409c0.425,0.861,0.997,1.642,1.689,2.306l0.211,0.21
			c0.92,0.883,1.478,1.417,0.6,3.039c-0.098,0.181-0.22,0.349-0.362,0.499c-0.022-0.078-0.041-0.159-0.067-0.237 M61.901,13.833
			c-0.31,0.425-0.758,0.728-1.267,0.859c-0.581,0.148-1.158-0.048-1.901-0.306c-0.831-0.323-1.707-0.52-2.597-0.585
			c0.429-0.674,1.105-1.151,1.883-1.33c1.029-0.264,2.237-0.11,3.358,0.403c-0.174,0.027-0.346,0.063-0.517,0.108
			c-0.397,0.111-0.781,0.263-1.147,0.452c0.643-0.237,1.321-0.369,2.006-0.389c0.114,0.059,0.23,0.119,0.34,0.188
			c0.015,0.214-0.043,0.427-0.165,0.604 M66.693,11.825c-0.093-0.451-0.289-0.874-0.574-1.235c0.229,0.386,0.365,0.82,0.397,1.267
			c0.027,0.23,0.04,0.46,0.049,0.693c-0.68-0.57-2.257-2.097-2.123-3.892c0.068-0.887,0.189-1.592,0.511-2.16
			c0.396,0.84,0.892,1.627,1.479,2.346l0.13,0.168c0.868,1.122,1.303,1.689,0.45,3.242c-0.051,0.081-0.116,0.153-0.192,0.211
			c-0.038-0.211-0.082-0.422-0.135-0.634 M65.398,17.893c-0.34,0.464-0.83,0.555-1.223,0.633H64.15
			c-0.659,0.125-1.248-0.177-1.989-0.559c-0.795-0.45-1.653-0.777-2.546-0.972c0.529-0.618,1.28-1.004,2.091-1.075
			c1.091-0.12,2.304,0.211,3.378,0.915c-0.105,0-0.211-0.021-0.314-0.02c-0.449,0.016-0.889,0.123-1.295,0.315
			c0.661-0.212,1.371-0.212,2.032,0c0.053,0.04,0.107,0.074,0.156,0.116c-0.066,0.219-0.152,0.431-0.258,0.633 M68.222,23.397
			c-0.293,0.134-0.611,0.205-0.933,0.212h-0.063c-1.106,0.086-1.674-0.537-2.447-1.396c-0.656-0.788-1.427-1.471-2.289-2.027
			c0.803-0.446,1.749-0.557,2.633-0.307c1.144,0.331,2.155,1.008,2.898,1.938c-0.137-0.04-0.271-0.086-0.41-0.118
			c-0.491-0.095-0.996-0.107-1.491-0.038c0.479,0.06,0.949,0.179,1.398,0.354c0.352,0.145,0.692,0.317,1.018,0.516
			c0.072,0.107,0.144,0.211,0.211,0.329c-0.126,0.218-0.304,0.402-0.518,0.536 M68.144,28.82c0.371,0.372,0.776,0.706,1.212,1
			c0.069,0.046,0.146,0.084,0.211,0.128c-0.028,0.008-0.056,0.014-0.084,0.019c-2.15-0.01-2.534-0.88-3.208-2.459
			c-0.396-1.009-0.921-1.963-1.563-2.838c0.104,0,0.211-0.013,0.313-0.013c0.771,0.01,1.521,0.245,2.16,0.675
			c1.36,0.885,2.384,2.518,2.779,4.404c-0.146-0.072-0.298-0.129-0.439-0.212c-0.448-0.236-0.872-0.513-1.267-0.829
			c-0.382-0.322-0.745-0.723-0.828-1.242c0.023,0.525,0.355,0.992,0.709,1.364 M67.398,34.074c0.11,0.229,0.235,0.451,0.375,0.663
			c0.28,0.437,0.638,0.818,1.056,1.125c0.185,0.135,0.381,0.252,0.587,0.351c-0.177,0.066-0.363,0.102-0.552,0.106h-0.137
			c-1.882,0-2.186-0.862-2.689-2.292c-0.057-0.163-0.118-0.331-0.179-0.502c-0.365-1.101-0.874-2.147-1.512-3.115
			c0.062,0,0.121,0,0.182,0c0.886,0.012,1.745,0.308,2.45,0.845c1.343,0.978,2.309,2.673,2.652,4.601
			c-0.214-0.073-0.42-0.167-0.616-0.281c-0.422-0.245-0.798-0.565-1.106-0.944c-0.158-0.19-0.304-0.393-0.436-0.604
			c-0.127-0.211-0.234-0.441-0.354-0.663c0.093,0.232,0.177,0.47,0.28,0.703 M66.841,43.663c-0.26-0.481-0.481-0.982-0.659-1.5
			c-0.201-0.513-0.279-1.065-0.23-1.613c-0.105,0.55-0.082,1.117,0.068,1.658c0.128,0.544,0.3,1.077,0.515,1.594
			c0.072,0.173,0.159,0.34,0.237,0.513c-0.351,0.006-0.7-0.066-1.02-0.211c-1.833-1.204-1.689-1.981-1.411-3.53
			c0.048-0.271,0.099-0.552,0.144-0.845c0.161-1.128,0.342-2.389,0.165-3.975c1,0.479,1.798,1.297,2.253,2.308
			c0.807,1.689,0.857,3.894,0.173,5.995c-0.074-0.131-0.161-0.257-0.23-0.39 M62.622,50.469c-0.359-0.974-0.604-1.988-0.724-3.019
			c0.01,1.052,0.145,2.098,0.401,3.119c0.04,0.165,0.086,0.329,0.131,0.492c-0.189-0.042-0.37-0.113-0.537-0.211
			c-2.299-1.354-1.9-2.828-1.336-4.869l0.082-0.3c0.326-1.206,0.691-2.558,0.701-4.316c1.047,0.651,1.825,1.658,2.189,2.836
			c0.672,2.008,0.399,4.498-0.711,6.74c-0.063-0.158-0.139-0.308-0.196-0.469 M17.329,44.218c0.365-1.175,1.142-2.18,2.188-2.829
			c0.013,1.756,0.378,3.108,0.703,4.316l0.081,0.3c0.562,2.042,0.965,3.516-1.334,4.87c-0.167,0.098-0.35,0.169-0.539,0.211
			c0.046-0.163,0.095-0.327,0.135-0.492c0.255-1.021,0.389-2.067,0.399-3.119c-0.122,1.031-0.365,2.045-0.724,3.019
			c-0.058,0.159-0.133,0.311-0.194,0.469c-1.113-2.242-1.385-4.732-0.714-6.74 M13.95,38.099c0.456-1.011,1.254-1.829,2.255-2.308
			c-0.177,1.586,0,2.846,0.166,3.974c0.042,0.299,0.093,0.583,0.142,0.845c0.278,1.55,0.422,2.323-1.411,3.53
			c-0.32,0.146-0.668,0.218-1.02,0.211c0.076-0.173,0.165-0.34,0.237-0.513c0.216-0.52,0.39-1.057,0.52-1.605
			c0.15-0.54,0.173-1.107,0.067-1.657c0.05,0.548-0.029,1.1-0.23,1.613c-0.179,0.517-0.399,1.018-0.661,1.499
			c-0.07,0.133-0.156,0.259-0.23,0.391c-0.686-2.101-0.634-4.303,0.171-5.995 M13.874,31.276c0.704-0.537,1.563-0.833,2.449-0.845
			c0.059,0,0.121,0,0.182,0c-0.638,0.968-1.146,2.015-1.512,3.115l-0.18,0.502c-0.502,1.43-0.807,2.292-2.688,2.292h-0.137
			c-0.189-0.004-0.375-0.04-0.552-0.106c0.206-0.098,0.402-0.215,0.585-0.35c0.417-0.307,0.776-0.688,1.056-1.126
			c0.14-0.212,0.265-0.434,0.374-0.663c0.104-0.232,0.186-0.47,0.281-0.703c-0.121,0.222-0.228,0.45-0.354,0.663
			c-0.131,0.212-0.276,0.414-0.436,0.604c-0.308,0.38-0.684,0.701-1.108,0.944c-0.195,0.115-0.401,0.209-0.614,0.281
			c0.344-1.93,1.311-3.624,2.652-4.601 M13.66,25.348c0.639-0.431,1.39-0.666,2.161-0.675c0.104,0,0.21,0,0.311,0.012
			c-0.64,0.874-1.164,1.827-1.561,2.834c-0.682,1.58-1.056,2.447-3.206,2.46c-0.028-0.005-0.057-0.011-0.084-0.02
			c0.071-0.044,0.146-0.082,0.21-0.128c0.436-0.293,0.842-0.628,1.213-0.999c0.357-0.372,0.688-0.845,0.709-1.364
			c-0.081,0.519-0.441,0.92-0.826,1.241c-0.396,0.316-0.82,0.593-1.268,0.83c-0.143,0.077-0.295,0.133-0.441,0.212
			C11.274,27.864,12.3,26.233,13.66,25.348 M12.313,22.553c0.326-0.198,0.666-0.371,1.018-0.515c0.45-0.176,0.92-0.295,1.4-0.354
			c-0.496-0.071-1.001-0.058-1.493,0.038c-0.137,0.032-0.272,0.076-0.407,0.118c0.741-0.93,1.752-1.608,2.895-1.939
			c0.887-0.255,1.839-0.147,2.646,0.3c-0.861,0.556-1.633,1.239-2.289,2.027c-0.771,0.859-1.331,1.478-2.448,1.396h-0.061
			c-0.323-0.006-0.642-0.078-0.936-0.211c-0.212-0.136-0.39-0.32-0.518-0.536c0.065-0.114,0.137-0.211,0.211-0.33 M15.344,17.136
			c0.661-0.212,1.373-0.212,2.033,0c-0.406-0.192-0.846-0.3-1.294-0.315c-0.104,0-0.211,0.013-0.314,0.019
			c1.068-0.694,2.278-1.032,3.378-0.914c0.812,0.069,1.563,0.456,2.093,1.074c-0.893,0.194-1.752,0.521-2.547,0.972
			c-0.739,0.382-1.32,0.686-1.989,0.56H16.68c-0.395-0.072-0.882-0.163-1.223-0.634c-0.106-0.202-0.193-0.414-0.258-0.633
			c0.05-0.042,0.104-0.076,0.154-0.116 M19.112,13.059c0.685,0.021,1.362,0.152,2.004,0.389c-0.366-0.188-0.75-0.34-1.146-0.452
			c-0.169-0.047-0.341-0.085-0.515-0.114c1.122-0.511,2.323-0.667,3.362-0.401c0.776,0.181,1.45,0.659,1.877,1.333
			c-0.894,0.063-1.771,0.262-2.605,0.587c-0.729,0.253-1.303,0.454-1.886,0.304c-0.508-0.132-0.957-0.435-1.267-0.86
			c-0.122-0.177-0.181-0.389-0.169-0.604c0.112-0.07,0.228-0.129,0.342-0.188 M23.152,10.022c0.021,0,0.044-0.015,0.065-0.023
			c0.665,0.039,1.308,0.244,1.874,0.596c-0.272-0.283-0.598-0.508-0.959-0.661c-0.116-0.046-0.238-0.08-0.359-0.116
			C25,9.473,26.261,9.52,27.262,9.974c0.736,0.312,1.319,0.901,1.624,1.641c-0.89-0.09-1.788-0.045-2.665,0.131
			c-0.61,0.101-1.14,0.186-1.607,0.076l0,0c-0.624-0.136-1.141-0.569-1.385-1.159c-0.084-0.2-0.105-0.421-0.061-0.634 M28.297,7.948
			c0.132,0.042,0.27,0.081,0.401,0.133c0.409,0.153,0.802,0.347,1.174,0.576c-0.374-0.326-0.794-0.596-1.246-0.802
			c1.299-0.363,2.64-0.298,3.676,0.211c0.726,0.335,1.29,0.941,1.571,1.689c-0.887-0.118-1.788-0.102-2.671,0.048
			c-0.341,0.053-0.685,0.084-1.031,0.093c-0.716,0-1.108-0.174-1.689-1.267c-0.093-0.218-0.164-0.444-0.21-0.676h0.025
			 M35.221,3.379c0.95,0.061,1.837,0.497,2.466,1.212c-1.032,0.244-2.022,0.644-2.933,1.187c-0.634,0.342-1.15,0.61-1.649,0.684
			c-0.475,0-1.461,0-2.052-0.634c-0.05-0.052-0.107-0.097-0.169-0.135c0.211-0.036,0.423-0.081,0.634-0.129
			c0.823-0.148,1.625-0.397,2.386-0.744c-0.793,0.245-1.604,0.424-2.426,0.535c-0.231,0.033-0.462,0.074-0.691,0.12
			C31.842,4.595,33.703,3.248,35.221,3.379 M29.208,2.226c0.772-0.302,1.483-0.739,2.099-1.292c0.148,0.711,0.014,1.452-0.376,2.065
			c-0.593,0.986-1.86,1.846-3.203,2.185l0.012-0.038c0.101-0.279,0.244-0.541,0.423-0.777c0.17-0.247,0.412-0.435,0.695-0.537
			c-0.315,0.04-0.606,0.19-0.821,0.422c-0.17,0.184-0.316,0.389-0.435,0.608c-0.035-0.091-0.064-0.185-0.089-0.279
			c-0.332-1.411,0.614-1.921,1.689-2.363 M24.557,4.158l0.055-0.04c0.561-0.4,1.075-0.86,1.535-1.373
			c0.115,0.5,0.08,1.021-0.099,1.5c-0.348,0.999-1.252,1.937-2.396,2.513c-0.038-0.042-0.072-0.088-0.099-0.137
			c0.096-0.167,0.204-0.328,0.323-0.479c0.219-0.291,0.457-0.566,0.712-0.826c-0.427,0.246-0.812,0.558-1.141,0.925
			c-0.211-1.057,0.248-1.426,1.111-2.074 M18.659,8.98c-0.876-1.623-0.322-2.158,0.6-3.041l0.211-0.211
			c0.694-0.665,1.266-1.446,1.689-2.308c0.479,0.706,0.662,1.572,0.507,2.411c-0.187,1.164-1.077,2.464-2.323,3.436
			c0.101-0.611,0.235-1.215,0.401-1.812c-0.258,0.583-0.485,1.179-0.68,1.787c-0.023,0.078-0.044,0.157-0.067,0.237
			c-0.142-0.15-0.263-0.317-0.361-0.499 M13.833,12.265c-0.845-1.559-0.422-2.112,0.45-3.242l0.13-0.169
			c0.587-0.718,1.084-1.506,1.479-2.346c0.323,0.57,0.443,1.267,0.511,2.16c0.135,1.785-1.429,3.313-2.111,3.894
			c0-0.232,0.023-0.463,0.049-0.693c0.032-0.448,0.167-0.881,0.396-1.267c-0.283,0.358-0.48,0.776-0.577,1.223
			c-0.052,0.211-0.097,0.422-0.135,0.634c-0.074-0.06-0.139-0.131-0.19-0.211 M10.543,16.959c-0.027-0.011-0.052-0.022-0.078-0.036
			c-0.102-0.623-0.145-1.254-0.128-1.886c-0.086,0.574-0.123,1.154-0.11,1.734c-0.015-0.015-0.032-0.021-0.051-0.041
			c-1.334-1.241-1.042-2.008-0.513-3.399l0.017-0.046c0.356-0.852,0.605-1.745,0.741-2.659c0.535,0.5,0.909,1.147,1.075,1.86
			c0.566,2.111-0.545,3.902-0.957,4.47 M7.858,23.733C7.769,23.42,7.685,23.1,7.613,22.788c-0.147-0.57-0.198-1.159-0.152-1.745
			c-0.103,0.585-0.107,1.184-0.015,1.771c0.038,0.29,0.08,0.577,0.133,0.861c-0.04-0.014-0.076-0.035-0.107-0.063
			c-1.723-1.528-1.625-2.354-1.231-4.08c0.285-1.093,0.426-2.218,0.422-3.347c0.774,0.485,1.363,1.218,1.67,2.078
			c0.604,1.594,0.458,3.62-0.391,5.459H7.847 M6.683,30.831c-0.221-0.297-0.423-0.608-0.606-0.931
			c-0.261-0.459-0.491-0.935-0.686-1.426c0.144,0.516,0.322,1.021,0.534,1.512c0.189,0.434,0.409,0.854,0.657,1.257
			c-0.06,0.026-0.126,0.041-0.192,0.042c-0.133-0.004-0.265-0.038-0.385-0.097c-2.27-1.056-2.283-2.154-2.304-3.983
			c0.027-1.239-0.111-2.476-0.41-3.678c0.976,0.304,1.815,0.94,2.374,1.796c0.99,1.449,1.352,3.476,1.02,5.518 M5.997,38.825
			c0.347,0.487,0.759,0.924,1.228,1.296c0.091,0.076,0.19,0.144,0.283,0.211c-0.251,0.11-0.528,0.149-0.8,0.114
			c-2.853-0.25-3.239-1.729-3.775-3.776l-0.042-0.163c-0.329-1.256-0.701-2.671-1.689-4.28c1.402-0.07,2.774,0.43,3.802,1.387
			c1.636,1.459,2.658,3.856,2.757,6.442c-0.116-0.071-0.234-0.139-0.347-0.21c-0.479-0.313-0.913-0.691-1.288-1.124
			c-0.39-0.435-0.647-0.974-0.739-1.552c0.038,0.598,0.249,1.172,0.604,1.653 M7.602,46.9c0.201,0.205,0.413,0.401,0.633,0.585
			c0.455,0.371,0.973,0.658,1.529,0.845c0.337,0.108,0.688,0.17,1.041,0.186c-0.201,0.245-0.48,0.413-0.792,0.475l-0.063,0.01
			c-0.348,0.059-0.678,0.116-0.976,0.14c-2.459,0.194-3.338-1.069-4.561-2.818c-0.845-1.197-1.784-2.548-3.454-3.866
			c1.427-0.633,3.007-0.644,4.584-0.029c2.27,0.887,4.258,2.982,5.382,5.627c-0.362,0.03-0.726,0.006-1.082-0.069
			c-0.54-0.124-1.053-0.344-1.516-0.651c-0.233-0.157-0.459-0.326-0.675-0.507l-0.604-0.583L7.602,46.9z M15.688,55.378
			c-0.324,0-0.648,0-0.969-0.038c-0.706-0.065-1.399-0.224-2.061-0.475c-0.667-0.261-1.292-0.622-1.85-1.068
			c0.528,0.495,1.129,0.908,1.782,1.222c0.662,0.312,1.362,0.531,2.082,0.655c0.251,0.044,0.502,0.065,0.756,0.089
			c-0.102,0.121-0.217,0.23-0.342,0.325c-0.725,0.528-1.608,0.793-2.505,0.751c-1.267,0-2.206-0.737-3.402-1.676
			c-1.112-0.876-2.371-1.865-4.288-2.619c1.174-0.999,2.707-1.473,4.239-1.311c2.408,0.19,4.9,1.624,6.697,3.843
			c-0.038,0.104-0.083,0.204-0.135,0.3 M54.944,55.994c-0.06,0.561-0.07,1.125-0.032,1.689c-0.281-0.165-0.546-0.355-0.792-0.567
			c-1.803-2.037-0.897-3.379,0.73-5.396l0.286-0.354c0.859-1.082,1.825-2.294,2.604-4.082c0.799,1.125,1.158,2.505,1.009,3.876
			c-0.19,2.211-1.438,4.487-3.378,6.236c-0.065-0.461-0.096-0.927-0.093-1.392c0.008-0.585,0.089-1.167,0.241-1.731
			c0.158-0.571,0.398-1.116,0.714-1.618c-0.367,0.476-0.661,1.002-0.875,1.563c-0.212,0.569-0.354,1.161-0.422,1.763 M31.665,41.657
			c0-0.16,0-0.306,0-0.439c-0.01-0.422,0.053-1.336,0.123-2.301c0.104-1.444,0.211-2.923,0.133-3.641
			c0.164-0.219,0.347-0.424,0.544-0.613c0.268-0.274,0.602-0.476,0.969-0.584v-0.023c-0.394,0.063-0.764,0.223-1.079,0.467
			c-0.166,0.119-0.325,0.249-0.477,0.386c-0.084-0.779-0.121-1.563-0.11-2.348c-0.076-0.634,0.251-1.9,0.382-2.342l0.017-0.095
			c0.015-1.999,0.166-2.797,0.287-3.437c0.123-0.545,0.167-1.104,0.133-1.662c-0.063-1.172,0.275-2.363,0.798-2.832
			c0.15-0.15,0.363-0.22,0.573-0.188c0.764,0.124,1.204,1.505,1.32,2.078c-0.017,0.26-0.097,1.658-0.175,2.648
			c-0.051,0.401-0.1,0.744-0.142,0.958c-0.072,0.583-0.097,1.169-0.072,1.755c-0.306-0.044-0.619-0.002-0.902,0.122
			c-0.323,0.139-0.623,0.326-0.889,0.556c0.291-0.181,0.608-0.313,0.939-0.395c0.283-0.079,0.583-0.064,0.857,0.042
			c0,0.104,0,0.211,0,0.319c0.017,0.946,0.034,1.926-0.057,2.323l-0.329,1.478l0.927-1.191c0.422-0.536,0.287-2.259,0.238-2.745
			c0-1.646,0.089-3.03,0.095-3.167c0.167-1.288,0.351-3.1,0.362-3.201v-0.053l-0.011-0.051c-0.046-0.234,0.073-0.989,0.177-1.447
			l0.019-1.079c0-0.023-0.121-2.382,0.526-4.224c0.243-0.692,0.553-1.127,0.897-1.267c0.269-0.082,0.56-0.039,0.792,0.119
			c0.212,0.116,0.394,0.553,0.522,0.872l0.169,0.391c0.054,0.562,0.07,1.126,0.048,1.689c-0.026,0.65-0.106,1.298-0.241,1.934
			c-0.104,0.041-0.212,0.075-0.321,0.102c-0.173,0.039-0.349,0.065-0.525,0.078c-0.182,0.021-0.366,0.029-0.553,0.038l-0.575,0.034
			c0.355,0.171,0.741,0.268,1.135,0.283c0.287,0.017,0.574-0.026,0.845-0.125c0.032,0.678,0.067,1.351,0.067,2.02
			c0,0.383,0,0.767-0.042,1.141c-0.012,0.185-0.034,0.369-0.065,0.551c-0.017,0.091-0.034,0.175-0.055,0.26
			c-0.015,0.055-0.032,0.11-0.053,0.163c-0.133,0.115-0.274,0.221-0.422,0.316c-0.184,0.1-0.389,0.158-0.598,0.168
			c-0.223,0.018-0.447,0.006-0.667-0.034c-0.224-0.038-0.452-0.084-0.68-0.143c0.204,0.119,0.415,0.222,0.634,0.308
			c0.229,0.08,0.468,0.132,0.709,0.154c0.257,0.026,0.517-0.005,0.76-0.091c0.102-0.039,0.198-0.092,0.285-0.157
			c0.062,0.142,0.115,0.289,0.159,0.438c0.051,0.207,0.076,0.42,0.074,0.634c-0.011,0.454-0.063,0.906-0.154,1.351
			c-0.102,0.469-0.177,0.944-0.224,1.421c-0.025,0.251-0.029,0.504-0.013,0.756c0.011,0.138,0.038,0.274,0.081,0.406
			c0.018,0.045,0.04,0.088,0.063,0.13c-0.361,0.206-0.667,0.496-0.891,0.845c0.407-0.158,0.805-0.34,1.191-0.545l0.053,0.021v-0.05
			l0.129-0.063c0.43-0.239,0.91-0.376,1.402-0.399c-0.236-0.145-0.513-0.207-0.788-0.177c-0.219,0.013-0.433,0.063-0.634,0.148
			c-0.01-0.021-0.018-0.043-0.023-0.066c-0.021-0.095-0.035-0.191-0.038-0.289c-0.008-0.221,0.001-0.441,0.027-0.661
			c0.048-0.456,0.154-0.889,0.239-1.372c0.089-0.483,0.135-0.973,0.138-1.464c-0.001-0.261-0.04-0.521-0.112-0.771
			c-0.07-0.211-0.159-0.397-0.23-0.563c0.041-0.074,0.062-0.131,0.095-0.211c0.039-0.101,0.072-0.204,0.099-0.309
			c0.049-0.202,0.087-0.405,0.114-0.61c0.044-0.4,0.064-0.803,0.06-1.206c-0.01-0.786-0.075-1.569-0.195-2.347
			c0.139-0.655,0.223-1.321,0.25-1.991c0.017-0.386,0.013-0.775,0-1.164l0.017-0.855c0.021-1.035,0.446-2.266,1.563-2.323
			c0.252-0.015,0.497,0.086,0.665,0.274c0.533,0.566,0.714,1.854,0.75,3.03c-0.03,0.382-0.03,0.766,0,1.149
			c-0.015,0.336-0.036,0.633-0.059,0.845v0.097l0.042,0.087c0.059,0.125,0.109,0.253,0.15,0.386c0.028,0.268,0.06,0.553,0.094,0.855
			c0,0.017,0.048,1.383,0.153,3.235c0,0.082,0,0.146-0.014,0.194l-0.266-0.089c-0.138,0.137-0.312,0.23-0.501,0.272
			c-0.229,0.071-0.462,0.125-0.699,0.165c-0.483,0.101-0.982,0.158-1.479,0.268c0.504,0.116,1.022,0.156,1.538,0.121
			c0.265-0.02,0.527-0.068,0.781-0.144c0.26-0.069,0.486-0.231,0.634-0.457v0.038c0.078,0.803,0.115,1.611,0.109,2.418l-0.038,2.876
			c-0.256-0.024-0.514,0.01-0.756,0.099c0.285,0.124,0.581,0.223,0.883,0.295l0,0v0.044c0.053,1.109-0.633,2.126-1.423,2.939
			c-0.822,0.817-1.726,1.548-2.696,2.182c-0.975,0.644-1.984,1.233-3.022,1.768c-1.041,0.534-2.09,1.056-3.167,1.51
			c2.206-0.805,4.327-1.824,6.334-3.043c1.021-0.604,1.964-1.33,2.811-2.16c0.428-0.427,0.795-0.91,1.092-1.436
			c0.298-0.522,0.439-1.119,0.408-1.719l0.123,0.031c0.152,0.027,0.3,0.08,0.435,0.157c-0.022-0.188-0.132-0.355-0.296-0.45
			l-0.052-0.028c0-0.16,0.052-1.647,0.042-3.142l0.015-1.087c-0.038-0.564-0.071-1.109-0.101-1.616
			c0.053-0.811,0.139-2.849-0.26-4.224c-0.053-0.515-0.093-0.956-0.112-1.336c0.01-0.305,0.017-0.663,0-1.056
			c0.019-0.557,0.278-1.078,0.711-1.428c0.423-0.356,0.484-0.402,1.371-0.151c0.634,0.179,1.03,2.557,1.035,4.658v0.101l0.057,0.084
			c1.022,1.552,0.73,5.068,0.729,5.113v0.072l0.023,0.067c0.845,2.43,0.167,5.279,0.161,5.307l-0.032,0.128l0.064,0.117
			c0.31,0.555,1.068,3.206,1.345,4.223c-0.139,0.121-0.262,0.257-0.367,0.407c-0.156,0.227-0.271,0.479-0.34,0.744
			c-0.062,0.263-0.096,0.531-0.099,0.8c0,0.211,0,0.422,0,0.633c-0.096,0.043-0.184,0.1-0.265,0.167
			c-0.111,0.102-0.209,0.218-0.293,0.345c-0.163,0.238-0.271,0.51-0.319,0.796c0.144-0.228,0.326-0.429,0.539-0.593
			c0.101-0.076,0.208-0.142,0.32-0.199l0.307-0.161l0.179-0.095l-0.029-0.148c-0.066-0.234-0.096-0.478-0.089-0.722
			c0.016-0.24,0.062-0.477,0.137-0.706c0.074-0.221,0.17-0.433,0.288-0.633c0.063-0.099,0.134-0.192,0.211-0.281
			c0.597-0.496,1.267-0.965,2.061-1.138c-0.426,0.04-0.843,0.152-1.231,0.329c-0.135,0.059-0.262,0.126-0.392,0.192l-0.352-1.427
			c-0.161-0.646,0.38-2.762,0.496-3.087c0.188-0.519,0.894-0.874,1.438-0.906c0.211-0.01,0.476,0.027,0.549,0.178
			c0.241,0.494,0.35,2.395,0.359,3.476l0.034,0.144c0,0,0.18,0.376,0.422,0.955c0.097,0.237,0,0.885-0.072,1.512
			c-0.112,0.724-0.171,1.455-0.177,2.188c0,0.454,0,0.73,0,0.936c-0.011,0.551-0.011,0.633,0.184,2.154
			c0.211,1.634-0.313,2.639-0.817,3.611c-0.098,0.19-0.195,0.376-0.283,0.56c-0.224,0.401-0.494,0.774-0.807,1.111
			c-1.182,1.329-2.13,2.848-2.804,4.494c-1.479,3.566-1.614,8.098-1.62,8.378H34.389l0.063-3.379
			c0.104-5.141-0.397-6.446-0.634-6.772c-2.2-4.857-2.172-6.951-2.158-8.077 M22.11,51.179c-0.147-1.373,0.213-2.752,1.013-3.877
			c0.781,1.789,1.744,3,2.606,4.082l0.286,0.354c1.627,2.019,2.533,3.359,0.73,5.396c-0.245,0.213-0.511,0.403-0.792,0.568
			c0.038-0.563,0.026-1.128-0.032-1.689c-0.068-0.603-0.209-1.195-0.423-1.763c-0.214-0.56-0.508-1.087-0.874-1.563
			c0.315,0.502,0.556,1.047,0.714,1.618c0.15,0.564,0.231,1.146,0.241,1.731c0.002,0.465-0.029,0.931-0.095,1.392
			c-1.934-1.748-3.186-4.024-3.378-6.235 M16.497,58.128c2.114,0.038,4.178,0.651,5.969,1.774H11.542
			c1.221-1.145,2.957-1.774,4.956-1.774 M31.306,92.548h-3.453v-8.939c0.399-0.673,0.71-1.396,0.927-2.147
			c0.199-0.09,0.415-0.136,0.633-0.135h0.343c0.859,0,1.556,0.697,1.556,1.557L31.306,92.548z M27.505,84.148v8.407h-1.407v-6.798
			c0.528-0.479,1-1.018,1.407-1.603 M19.85,87.518c-4.754,0-8.609-3.854-8.609-8.609c0-4.754,3.854-8.609,8.609-8.609
			c4.754,0,8.608,3.853,8.609,8.607C28.453,83.659,24.603,87.511,19.85,87.518 M25.763,86.066v6.489h-3.449v-4.709
			C23.577,87.502,24.751,86.895,25.763,86.066 M36.834,92.555h-3.446v-9.672c0.001-0.859,0.697-1.555,1.556-1.557h0.342
			c0.86,0,1.556,0.697,1.556,1.557L36.834,92.555z M42.371,92.555h-3.446v-9.672c0.001-0.859,0.697-1.555,1.556-1.557h0.34
			c0.86,0,1.557,0.697,1.558,1.557L42.371,92.555z M47.905,92.555h-3.446v-9.672c0.001-0.86,0.698-1.557,1.558-1.557h0.34
			c0.859,0,1.556,0.697,1.556,1.557L47.905,92.555z M58.977,87.795v4.76h-3.44v-6.698c0.997,0.888,2.175,1.55,3.453,1.938
			 M53.077,78.907c0.001-4.754,3.856-8.608,8.611-8.607c4.755,0.001,8.609,3.857,8.607,8.611s-3.855,8.607-8.609,8.607
			C56.933,87.514,53.081,83.661,53.077,78.907 M53.446,83.2v9.355h-3.452v-9.672c0.001-0.86,0.698-1.557,1.559-1.557h0.342
			c0.323,0.001,0.637,0.103,0.899,0.292c0.169,0.547,0.389,1.08,0.655,1.588 M53.789,83.787c0.396,0.642,0.869,1.233,1.407,1.762
			v7.007h-1.407V83.787z M72.337,78.93c-0.006,5.642-4.577,10.213-10.218,10.219c-0.267,0-0.544-0.012-0.908-0.046l-0.792-0.068
			v3.521h-1.094v-4.674c4.984,1.327,10.101-1.638,11.428-6.623c1.327-4.984-1.639-10.101-6.623-11.428
			c-4.985-1.327-10.101,1.638-11.429,6.623c-0.41,1.542-0.418,3.164-0.024,4.71c-0.245-0.113-0.512-0.173-0.782-0.175h-0.342
			c-1.05,0-1.9,0.851-1.9,1.9v9.671h-1.409v-9.678c0-1.049-0.851-1.9-1.901-1.9h-0.339c-1.05,0-1.901,0.851-1.901,1.9v9.672h-1.406
			v-9.672c0-1.049-0.852-1.9-1.9-1.9h-0.34c-1.05,0-1.901,0.851-1.901,1.9v9.672h-1.408v-9.672c0-1.049-0.852-1.9-1.901-1.9h-0.342
			c-1.05,0-1.901,0.851-1.901,1.9v9.672h-1.406v-9.672c0-1.049-0.851-1.9-1.9-1.9h-0.342c-0.181,0.002-0.359,0.032-0.53,0.089
			c1.222-5.006-1.846-10.054-6.851-11.276c-5.005-1.222-10.054,1.846-11.275,6.851c-1.222,5.006,1.845,10.054,6.851,11.276
			c1.437,0.351,2.937,0.354,4.375,0.012v4.621h-0.938v-3.51l-0.786,0.06c-0.26,0.021-0.527,0.04-0.792,0.04
			c-5.644,0-10.218-4.575-10.218-10.219c0-5.643,4.575-10.218,10.218-10.218h42.707c5.641,0.007,10.212,4.579,10.219,10.221
			 M17.316,68.186V63.69h46.9v4.496c-0.691-0.137-1.394-0.207-2.099-0.211H19.413c-0.705,0.004-1.408,0.074-2.099,0.211
			 M64.357,58.125c2.007,0,3.736,0.634,4.955,1.774H58.388C60.18,58.777,62.244,58.164,64.357,58.125 M71.81,62.983H9.714v-2.408
			h62.083L71.81,62.983z M71.734,51.24c1.533-0.163,3.065,0.312,4.237,1.311c-1.914,0.754-3.167,1.742-4.292,2.621
			c-1.191,0.936-2.131,1.675-3.4,1.675c-0.895,0.04-1.778-0.225-2.502-0.752c-0.126-0.095-0.241-0.204-0.341-0.326
			c0.251-0.025,0.504-0.046,0.753-0.089c0.721-0.123,1.422-0.343,2.084-0.654c0.652-0.314,1.252-0.727,1.78-1.222
			c-0.558,0.447-1.182,0.808-1.848,1.068c-0.663,0.25-1.355,0.411-2.061,0.476c-0.323,0.03-0.648,0.04-0.971,0.038
			c-0.052-0.097-0.097-0.197-0.136-0.3c1.797-2.219,4.292-3.655,6.699-3.843 M76.442,46.336c-1.223,1.747-2.097,3.011-4.559,2.813
			c-0.3-0.022-0.634-0.078-1.037-0.149c-0.31-0.068-0.587-0.241-0.785-0.49c0.352-0.016,0.702-0.078,1.039-0.186
			c0.556-0.188,1.074-0.474,1.529-0.845c0.221-0.184,0.433-0.379,0.633-0.585l0.549-0.657l-0.608,0.598
			c-0.217,0.18-0.442,0.349-0.676,0.506c-0.462,0.307-0.976,0.526-1.516,0.65c-0.355,0.076-0.719,0.1-1.082,0.07
			c1.124-2.646,3.113-4.741,5.383-5.627c1.575-0.617,3.167-0.604,4.582,0.029c-1.666,1.316-2.612,2.667-3.454,3.871"/>
	</g>
</g>
</svg>