<?xml version="1.0" encoding="utf-8"?>
<!-- Generator: Adobe Illustrator 16.0.0, SVG Export Plug-In . SVG Version: 6.00 Build 0)  -->
<!DOCTYPE svg PUBLIC "-//W3C//DTD SVG 1.1//EN" "http://www.w3.org/Graphics/SVG/1.1/DTD/svg11.dtd">
<svg version="1.1" id="Слой_1" xmlns="http://www.w3.org/2000/svg" xmlns:xlink="http://www.w3.org/1999/xlink" x="0px" y="0px"
	 width="153.986px" height="187.05px" viewBox="0 0 153.986 187.05" enable-background="new 0 0 153.986 187.05"
	 xml:space="preserve">
<title>Ресурс 1</title>
<g id="Слой_2">
	<g id="Layer_1">
		<path fill="#314369" d="M36.448,141.708c-1.159-1.337-2.611-2.387-4.244-3.069c-1.876-0.759-3.888-1.13-5.912-1.089
			c-1.882-0.031-3.751,0.312-5.499,1.009c-1.541,0.635-2.934,1.581-4.092,2.779c-1.138,1.204-2.026,2.621-2.613,4.169
			c-0.568,1.493-0.92,3.059-1.046,4.651H8.909v-8.938h3.381v-3.204H0v3.204h3.533v21.796H0v3.189h12.291v-3.192H8.909v-9.643h4.078
			c0.071,1.701,0.374,3.384,0.9,5.003c0.522,1.619,1.37,3.114,2.49,4.393c1.141,1.261,2.551,2.249,4.126,2.889
			c1.843,0.721,3.81,1.07,5.789,1.029c2.014,0.038,4.014-0.339,5.875-1.109c1.635-0.699,3.091-1.757,4.261-3.095
			c1.157-1.355,2.023-2.935,2.545-4.639c1.12-3.748,1.12-7.741,0-11.488C38.453,144.65,37.594,143.07,36.448,141.708
			 M26.682,163.486c-1.289,0.037-2.566-0.259-3.708-0.859c-1.003-0.557-1.849-1.358-2.458-2.33
			c-0.676-1.104-1.145-2.321-1.384-3.593c-0.299-1.51-0.445-3.046-0.436-4.585c-0.007-1.534,0.102-3.067,0.324-4.585
			c0.17-1.255,0.558-2.471,1.146-3.594c0.515-0.953,1.268-1.757,2.187-2.333c0.908-0.573,2.103-0.859,3.55-0.859
			c1.533,0,2.817,0.287,3.823,0.859c0.997,0.567,1.835,1.375,2.438,2.35c0.669,1.108,1.131,2.329,1.364,3.602
			c0.284,1.501,0.423,3.028,0.416,4.556c0.007,1.532-0.119,3.061-0.378,4.571c-0.205,1.263-0.626,2.481-1.244,3.602
			c-0.536,0.954-1.302,1.757-2.229,2.338c-1.029,0.601-2.208,0.898-3.398,0.859"/>
		<path fill="#314369" d="M57.313,138.017H41.313v3.201h3.534v21.799h-3.534v3.189h12.795v-3.189h-3.886v-7.293h0.141
			c0.318,0.026,0.656,0.046,1.012,0.057c0.355,0.012,0.693,0.021,1.008,0.021h0.697c1.535,0.002,3.066-0.172,4.562-0.519
			c1.404-0.309,2.745-0.851,3.969-1.604c1.15-0.725,2.116-1.705,2.823-2.866c0.747-1.275,1.123-2.733,1.086-4.21
			c0-1.693-0.358-3.135-1.066-4.298c-0.684-1.125-1.629-2.068-2.754-2.751c-1.109-0.676-2.915-1.27-4.338-1.55 M52.699,140.905
			c2.178,0,3.909,0.476,5.144,1.41c1.235,0.934,1.796,2.318,1.796,4.298c0.026,0.952-0.157,1.897-0.536,2.771
			c-0.323,0.716-0.815,1.343-1.433,1.828c-0.648,0.491-1.386,0.851-2.172,1.058c-0.886,0.238-1.799,0.357-2.717,0.353h-0.685
			c-0.287,0-0.573,0-0.86-0.038c-0.287-0.037-0.613-0.046-0.891-0.06h-0.112v-11.462c0.238-0.037,0.493-0.069,0.771-0.089
			c0.447-0.037,1.02-0.057,1.705-0.057"/>
		<polygon fill="#314369" points="86.886,141.218 90.341,141.218 90.341,141.375 77.736,156.913 76.934,158.082 77.04,157.44 
			77.045,141.218 80.266,141.218 80.266,138.017 68.133,138.017 68.133,141.218 71.667,141.218 71.667,163.017 68.133,163.017 
			68.133,166.22 80.266,166.22 80.266,163.017 76.77,163.017 76.77,162.937 89.545,147.241 90.201,146.241 90.112,146.84 
			90.107,163.017 86.886,163.017 86.886,166.22 99.019,166.22 99.019,163.017 95.485,163.017 95.485,141.218 99.019,141.218 
			99.019,138.017 86.886,138.017 		"/>
		<path fill="#314369" d="M120.394,162.002L120,162.538c-0.358,0.213-0.752,0.358-1.163,0.43c-0.737,0.147-1.487,0.215-2.238,0.201
			c-3.227,0-5.76-0.957-7.522-2.846c-1.762-1.888-2.677-4.659-2.677-8.207c-0.039-1.726,0.214-3.447,0.748-5.089
			c0.419-1.265,1.103-2.427,2.006-3.407c0.827-0.863,1.842-1.523,2.966-1.929c2.104-0.683,4.348-0.813,6.517-0.378
			c0.493,0.146,0.88,0.286,1.146,0.387l0.367,0.524v4.43h3.516v-7.496l-0.315-0.135c-0.499-0.209-1.017-0.407-1.544-0.593
			c-0.573-0.197-1.158-0.358-1.751-0.484c-0.694-0.138-1.395-0.234-2.101-0.287c-0.768-0.066-1.63-0.1-2.579-0.1
			c-1.903-0.008-3.796,0.26-5.622,0.796c-1.753,0.516-3.377,1.395-4.769,2.579c-1.412,1.239-2.525,2.782-3.255,4.513
			c-0.799,1.832-1.207,4.075-1.207,6.671c0,2.51,0.367,4.705,1.083,6.517c0.674,1.749,1.754,3.313,3.152,4.562
			c1.447,1.245,3.153,2.151,4.995,2.653c2.133,0.582,4.337,0.864,6.548,0.837c1.354-0.003,2.706-0.15,4.029-0.438
			c1.156-0.223,2.274-0.609,3.321-1.146l0.27-0.146v-6.912h-3.527V162.002z"/>
		<polygon fill="#314369" points="127.182,138.014 127.182,147.078 131.008,147.078 131.008,141.756 131.498,141.218 
			137.705,141.218 137.705,163.017 133.704,163.017 133.704,166.22 147.081,166.22 147.081,163.017 143.078,163.017 
			143.078,141.218 149.29,141.218 149.777,141.756 149.777,147.078 153.6,147.078 153.6,138.014 		"/>
		<path fill="#314369" d="M31.364,183.113v-0.252l0.049-0.043c0.182-0.022,0.361-0.063,0.536-0.12
			c0.09-0.029,0.171-0.083,0.232-0.155c0.04-0.065,0.064-0.139,0.072-0.215c0-0.083,0.02-0.287,0.029-0.65
			c0.009-0.364,0.017-0.619,0.017-0.803v-1.089c0.031-0.546-0.001-1.094-0.095-1.633c-0.063-0.143-0.326-0.244-0.791-0.307
			l-0.049-0.049v-0.258l0.049-0.043c1.209,0.033,2.34,0.049,3.393,0.049c0.986,0,2.119-0.016,3.399-0.049l0.043,0.043v0.258
			l-0.043,0.049c-0.185,0.018-0.366,0.058-0.542,0.118c-0.082,0.025-0.156,0.07-0.215,0.132c-0.04,0.048-0.067,0.107-0.078,0.169
			c0,0.069-0.023,0.287-0.038,0.647c-0.014,0.361-0.02,0.653-0.02,0.86v1.089c0,0.949,0.031,1.49,0.097,1.633
			c0.066,0.144,0.33,0.244,0.794,0.31l0.043,0.043v0.267l-0.043,0.049c-0.573-0.035-1.029-0.049-1.396-0.049
			c-0.367,0-0.823,0.017-1.39,0.049l-0.043-0.049v-0.252l0.043-0.043c0.473-0.066,0.74-0.172,0.8-0.321
			c0.091-0.536,0.122-1.08,0.091-1.622v-2.903l-0.048-0.043H33.35l-0.049,0.043v2.903c0,0.943,0.032,1.484,0.098,1.633
			c0.066,0.149,0.33,0.247,0.793,0.313l0.041,0.043v0.25l-0.041,0.049c-0.563-0.033-1.026-0.049-1.39-0.049
			c-0.373,0-0.834,0.017-1.39,0.049L31.364,183.113z"/>
		<path fill="#314369" d="M40.958,177.304l0.109,0.075c-0.041,0.473-0.063,0.877-0.066,1.215c0.249-0.234,0.493-0.452,0.733-0.659
			c0.154-0.14,0.318-0.27,0.49-0.387c0.122-0.062,0.252-0.105,0.387-0.129c0.21-0.039,0.425-0.058,0.639-0.054
			c0.65-0.033,1.284,0.216,1.736,0.685c0.435,0.478,0.664,1.108,0.639,1.753c-0.001,0.307-0.05,0.611-0.143,0.903
			c-0.091,0.293-0.217,0.574-0.375,0.837c-0.096,0.177-0.217,0.338-0.358,0.481c-0.226,0.164-0.46,0.316-0.702,0.456
			c-0.155,0.092-0.315,0.198-0.476,0.312c-0.229,0.161-0.378,0.261-0.447,0.304c-0.11,0.057-0.228,0.097-0.35,0.12
			c-0.172,0.037-0.348,0.056-0.524,0.054c-0.435-0.004-0.862-0.113-1.247-0.318v1.124c0,0.307,0,0.69,0.026,1.146
			c-0.006,0.266,0.021,0.532,0.081,0.791c0.029,0.059,0.081,0.103,0.143,0.123c0.189,0.037,0.381,0.06,0.573,0.072l0.054,0.049
			v0.252l-0.054,0.055c-0.481-0.035-0.928-0.049-1.338-0.049c-0.41,0-0.859,0-1.333,0.049l-0.048-0.055v-0.244l0.048-0.048
			c0.184-0.009,0.366-0.029,0.547-0.061c0.052-0.01,0.1-0.036,0.138-0.074c0.038-0.049,0.063-0.107,0.071-0.169
			c0.037-0.277,0.055-0.557,0.055-0.836c0.017-0.479,0.026-0.814,0.026-1.003v-4.614c0-0.181,0-0.413-0.02-0.696
			c-0.004-0.164-0.018-0.328-0.04-0.49c-0.014-0.048-0.046-0.088-0.089-0.112c-0.09-0.039-0.189-0.054-0.287-0.046H39.17
			l-0.051-0.048v-0.258l0.049-0.055c0.614-0.078,1.217-0.229,1.796-0.447 M41.007,181.924c0.409,0.444,0.984,0.697,1.588,0.699
			c0.566,0.023,1.108-0.236,1.447-0.69c0.358-0.49,0.542-1.084,0.524-1.691c0.007-0.379-0.073-0.755-0.232-1.101
			c-0.148-0.315-0.39-0.576-0.693-0.748c-0.288-0.171-0.617-0.262-0.951-0.264c-0.217-0.001-0.432,0.039-0.634,0.117
			c-0.208,0.078-0.402,0.19-0.573,0.333c-0.142,0.111-0.264,0.246-0.361,0.398c-0.055,0.088-0.093,0.185-0.112,0.287
			c-0.006,0.112-0.006,0.224,0,0.335L41.007,181.924z"/>
		<path fill="#314369" d="M47.4,179.032l-0.235-0.06l-0.048-0.063c0-0.063,0-0.143,0-0.243v-0.499c0.348-0.235,0.716-0.44,1.1-0.61
			c0.313-0.125,0.646-0.188,0.983-0.186c0.536-0.029,1.062,0.146,1.473,0.49c0.367,0.339,0.565,0.822,0.542,1.321l-0.034,1.212
			v1.794c-0.01,0.145,0.009,0.29,0.057,0.427c0.031,0.064,0.084,0.114,0.149,0.141c0.126,0.036,0.256,0.056,0.387,0.06l0.046,0.055
			v0.244l-0.046,0.046c-0.312-0.029-0.559-0.041-0.733-0.041s-0.43,0-0.782,0.041l-0.089-0.083l0.023-0.969l-0.768,0.602
			c-0.27,0.212-0.447,0.35-0.542,0.421c-0.23,0.095-0.477,0.142-0.725,0.138c-0.411,0.023-0.814-0.113-1.126-0.381
			c-0.282-0.27-0.432-0.648-0.413-1.037c-0.018-0.401,0.108-0.796,0.355-1.112c0.287-0.321,0.659-0.554,1.072-0.673
			c0.7-0.21,1.417-0.359,2.144-0.444c0.003-0.213-0.014-0.426-0.049-0.636c-0.038-0.186-0.123-0.358-0.247-0.501
			c-0.131-0.159-0.301-0.282-0.493-0.358c-0.214-0.083-0.441-0.124-0.67-0.12c-0.13,0-0.259,0.011-0.387,0.031
			c-0.119,0.023-0.235,0.059-0.347,0.106c-0.07,0.027-0.136,0.062-0.198,0.103c-0.03,0.03-0.053,0.068-0.066,0.109l-0.132,0.286
			c-0.057,0.12-0.106,0.242-0.149,0.367L47.4,179.032z M50.188,179.964c-0.677,0.074-1.336,0.26-1.952,0.553
			c-0.378,0.212-0.601,0.622-0.573,1.054c-0.02,0.263,0.07,0.522,0.249,0.717c0.184,0.172,0.431,0.261,0.682,0.246
			c0.533,0,1.06-0.309,1.579-0.928L50.188,179.964z"/>
		<path fill="#314369" d="M52.653,183.113v-0.252l0.049-0.043c0.185-0.012,0.368-0.04,0.547-0.083
			c0.07-0.031,0.126-0.086,0.16-0.155c0.059-0.178,0.084-0.365,0.075-0.553c0-0.294,0-0.692,0-1.192v-1.023c0-0.313,0-0.662,0-1.049
			c0.013-0.235-0.013-0.47-0.077-0.696c-0.036-0.069-0.095-0.123-0.167-0.152c-0.176-0.044-0.357-0.069-0.539-0.075l-0.049-0.049
			v-0.255l0.049-0.04c0.55,0.031,0.966,0.049,1.252,0.049c0.134,0,0.327,0,0.573,0c0.701-0.021,1.179-0.032,1.433-0.032
			c0.366-0.032,0.73,0.078,1.017,0.307c0.213,0.199,0.331,0.479,0.324,0.771c0,0.659-0.447,1.109-1.341,1.35
			c0.445-0.008,0.879,0.138,1.229,0.413c0.265,0.243,0.409,0.59,0.396,0.949c-0.003,0.484-0.2,0.947-0.545,1.287
			c-0.363,0.382-0.945,0.573-1.748,0.573H54.94c-0.333-0.015-0.599-0.023-0.794-0.023l-1.45,0.048L52.653,183.113z M54.447,179.855
			c0.161,0,0.287,0,0.384,0c0.412,0.035,0.823-0.065,1.172-0.287c0.224-0.185,0.347-0.464,0.332-0.753
			c0.011-0.259-0.085-0.511-0.266-0.696c-0.265-0.217-0.605-0.32-0.946-0.287c-0.201,0-0.413,0-0.63,0.031L54.447,179.855z
			 M54.447,180.219l0.043,2.507c0.219,0.03,0.44,0.044,0.662,0.042c0.292,0.016,0.582-0.055,0.834-0.203
			c0.193-0.119,0.347-0.292,0.441-0.499c0.09-0.2,0.135-0.418,0.132-0.639c0.006-0.244-0.057-0.485-0.18-0.696
			c-0.118-0.199-0.306-0.348-0.527-0.416c-0.31-0.088-0.632-0.127-0.955-0.115c-0.103,0-0.258,0-0.45,0.02"/>
		<path fill="#314369" d="M64.577,180.079c0.008,0.468-0.073,0.933-0.241,1.37c-0.157,0.395-0.397,0.75-0.705,1.043
			c-0.271,0.267-0.594,0.475-0.948,0.613c-0.369,0.123-0.757,0.183-1.146,0.175c-0.986,0-1.737-0.287-2.252-0.859
			c-0.521-0.582-0.796-1.341-0.771-2.121c-0.009-0.54,0.119-1.073,0.373-1.55c0.244-0.45,0.621-0.814,1.08-1.041
			c0.516-0.25,1.083-0.374,1.657-0.361c0.547-0.015,1.09,0.103,1.582,0.344c0.427,0.221,0.782,0.56,1.02,0.977
			c0.244,0.425,0.37,0.908,0.364,1.398 M63.442,180.422c0.033-0.679-0.141-1.353-0.499-1.931c-0.323-0.481-0.875-0.757-1.453-0.728
			c-0.5-0.014-0.98,0.196-1.31,0.573c-0.338,0.375-0.504,0.942-0.504,1.702c-0.018,0.702,0.157,1.396,0.507,2.006
			c0.287,0.541,0.855,0.874,1.467,0.86c0.524,0.017,1.02-0.237,1.313-0.671c0.342-0.533,0.509-1.159,0.479-1.791"/>
		<path fill="#314369" d="M65.354,183.113v-0.252l0.046-0.043c0.185-0.011,0.368-0.039,0.547-0.083
			c0.07-0.031,0.127-0.085,0.161-0.155c0.058-0.178,0.083-0.365,0.075-0.553c0-0.294,0-0.692,0-1.192v-1.023
			c0-0.313,0-0.662,0-1.049c0.014-0.235-0.012-0.47-0.078-0.696c-0.036-0.069-0.095-0.123-0.166-0.152
			c-0.176-0.044-0.357-0.069-0.539-0.075l-0.046-0.049v-0.255l0.046-0.04c0.55,0.031,0.968,0.049,1.249,0.049
			c0.138,0,0.33,0,0.573,0c0.699-0.02,1.184-0.032,1.433-0.032c0.365-0.031,0.728,0.079,1.014,0.307
			c0.214,0.199,0.333,0.479,0.327,0.771c0,0.659-0.447,1.109-1.341,1.35c0.444-0.008,0.877,0.138,1.226,0.413
			c0.265,0.243,0.409,0.59,0.396,0.949c-0.002,0.483-0.197,0.947-0.542,1.287c-0.365,0.382-0.949,0.573-1.751,0.573h-0.353
			c-0.332-0.016-0.597-0.023-0.793-0.023l-1.45,0.048L65.354,183.113z M67.147,179.855c0.161,0,0.287,0,0.384,0
			c0.411,0.035,0.821-0.066,1.169-0.287c0.224-0.184,0.347-0.464,0.332-0.753c0.011-0.259-0.085-0.511-0.266-0.696
			c-0.266-0.217-0.605-0.32-0.946-0.287c-0.201,0-0.413,0-0.63,0.031L67.147,179.855z M67.147,180.219l0.043,2.507
			c0.218,0.03,0.438,0.044,0.659,0.042c0.292,0.016,0.583-0.055,0.834-0.203c0.193-0.119,0.347-0.292,0.441-0.499
			c0.091-0.2,0.137-0.418,0.135-0.639c0.005-0.244-0.058-0.485-0.181-0.696c-0.118-0.199-0.306-0.348-0.527-0.416
			c-0.31-0.088-0.632-0.127-0.954-0.115c-0.103,0-0.252,0-0.45,0.02"/>
		<path fill="#314369" d="M77.283,180.079c0.007,0.468-0.076,0.933-0.244,1.37c-0.156,0.395-0.397,0.751-0.705,1.043
			c-0.271,0.267-0.594,0.475-0.949,0.613c-0.369,0.124-0.757,0.183-1.146,0.175c-0.986,0-1.737-0.287-2.252-0.859
			c-0.522-0.581-0.799-1.341-0.774-2.121c-0.009-0.54,0.119-1.073,0.373-1.55c0.244-0.451,0.621-0.814,1.081-1.041
			c0.516-0.25,1.083-0.374,1.656-0.361c0.547-0.015,1.09,0.103,1.582,0.344c0.428,0.219,0.783,0.559,1.021,0.977
			c0.245,0.425,0.372,0.908,0.367,1.398 M76.146,180.422c0.033-0.679-0.141-1.353-0.499-1.931c-0.322-0.481-0.874-0.758-1.453-0.728
			c-0.499-0.013-0.979,0.197-1.307,0.573c-0.338,0.382-0.507,0.949-0.507,1.702c-0.018,0.703,0.16,1.397,0.513,2.006
			c0.285,0.541,0.853,0.874,1.464,0.86c0.52,0.009,1.007-0.247,1.295-0.679c0.34-0.534,0.506-1.159,0.476-1.791"/>
		<path fill="#314369" d="M78.166,183.113v-0.255l0.049-0.041c0.182-0.023,0.361-0.064,0.536-0.12
			c0.091-0.027,0.171-0.081,0.229-0.155c0.042-0.064,0.068-0.138,0.074-0.215c0-0.083,0.021-0.301,0.029-0.654
			c0.009-0.352,0.017-0.619,0.017-0.802v-1.089c0-0.955-0.031-1.501-0.094-1.639c-0.063-0.138-0.327-0.24-0.791-0.307l-0.049-0.048
			v-0.255l0.049-0.04c0.559,0.032,1.02,0.049,1.39,0.049s0.823-0.015,1.39-0.049l0.041,0.04v0.255l-0.041,0.048
			c-0.183,0.019-0.364,0.057-0.539,0.115c-0.08,0.028-0.152,0.073-0.212,0.132c-0.042,0.049-0.068,0.108-0.078,0.172
			c0,0.069-0.025,0.287-0.04,0.653c-0.015,0.367-0.021,0.659-0.021,0.86v2.484l0.098,0.037c0.382-0.573,0.873-1.371,1.473-2.393
			c0.6-1.022,1.059-1.827,1.378-2.416c0.382,0.032,0.697,0.049,0.946,0.049s0.568-0.017,0.96-0.049l0.048,0.04v0.255l-0.048,0.049
			c-0.47,0.06-0.733,0.163-0.791,0.315c-0.09,0.538-0.121,1.083-0.092,1.627v1.089c-0.03,0.545,0.001,1.092,0.095,1.631
			c0.063,0.146,0.327,0.249,0.788,0.315l0.048,0.04v0.27l-0.048,0.049c-0.556-0.035-1.02-0.049-1.387-0.049
			c-0.367,0-0.822,0.014-1.39,0.049l-0.049-0.049v-0.255l0.049-0.041c0.47-0.066,0.734-0.172,0.793-0.321
			c0.061-0.149,0.095-0.69,0.095-1.625v-2.45l-0.097-0.037c-0.292,0.434-0.761,1.208-1.407,2.324
			c-0.646,1.116-1.098,1.933-1.355,2.45c-0.378-0.035-0.685-0.049-0.925-0.049s-0.619,0.014-1.072,0.049L78.166,183.113z
			 M79.905,175.457l0.587-0.459l0.152,0.081c0.154,0.701,0.547,1.053,1.178,1.054c0.29,0.009,0.572-0.093,0.788-0.287
			c0.213-0.218,0.322-0.518,0.301-0.822l0.157-0.048l0.255,0.645c-0.412,0.534-1.045,0.851-1.719,0.86
			c-0.343,0.007-0.679-0.087-0.969-0.27c-0.299-0.196-0.548-0.459-0.728-0.768"/>
		<path fill="#314369" d="M89.029,183.113v-0.25l0.049-0.043c0.182-0.022,0.36-0.063,0.533-0.121
			c0.091-0.027,0.173-0.08,0.235-0.151c0.039-0.066,0.063-0.139,0.072-0.215c0-0.083,0.02-0.301,0.029-0.654
			c0.008-0.353,0.017-0.619,0.017-0.802v-1.089c0-0.955-0.032-1.5-0.095-1.636c-0.06-0.146-0.324-0.25-0.791-0.307l-0.049-0.049
			v-0.255l0.049-0.04c0.556,0.031,1.021,0.048,1.39,0.048s0.831-0.014,1.39-0.048l0.043,0.04v0.255l-0.043,0.049
			c-0.182,0.018-0.362,0.057-0.536,0.114c-0.08,0.029-0.153,0.074-0.215,0.132c-0.042,0.05-0.07,0.111-0.08,0.175
			c0,0.069-0.023,0.286-0.037,0.653c-0.015,0.367-0.02,0.656-0.02,0.859v2.903l0.046,0.049h2.911l0.049-0.049v-2.897
			c0.031-0.547,0-1.096-0.092-1.636c-0.063-0.146-0.33-0.25-0.796-0.307l-0.043-0.048v-0.255l0.043-0.04
			c0.56,0.032,1.023,0.049,1.39,0.049s0.831-0.017,1.393-0.049l0.043,0.04v0.255l-0.043,0.048c-0.184,0.019-0.365,0.058-0.542,0.115
			c-0.08,0.027-0.152,0.072-0.212,0.132c-0.04,0.051-0.067,0.111-0.077,0.175c0,0.069-0.023,0.287-0.038,0.645
			c-0.014,0.358-0.02,0.656-0.02,0.877v2.897l0.046,0.049c0.327,0,0.642-0.02,0.946-0.06l0.077,0.077
			c-0.227,0.701-0.403,1.417-0.524,2.144h-0.287c0-0.394-0.009-0.732-0.028-1.017c0.005-0.178-0.026-0.355-0.092-0.521
			c-0.054-0.074-0.13-0.128-0.218-0.155c-0.267-0.056-0.539-0.081-0.811-0.072c-0.444,0-0.914-0.017-1.413-0.017h-1.576
			l-1.244,0.017c-0.307,0-0.573,0-0.777,0.02L89.029,183.113z"/>
		<path fill="#314369" d="M101.695,182.228l-0.189,0.436c-0.341,0.235-0.719,0.412-1.117,0.524
			c-0.286,0.075-0.579,0.115-0.875,0.121c-0.471,0.001-0.936-0.096-1.367-0.287c-0.443-0.199-0.811-0.534-1.049-0.957
			c-0.281-0.494-0.42-1.055-0.404-1.622c-0.006-0.388,0.045-0.774,0.155-1.146c0.071-0.266,0.182-0.52,0.327-0.753
			c0.16-0.212,0.354-0.396,0.573-0.547c0.263-0.199,0.552-0.362,0.859-0.484c0.314-0.122,0.649-0.184,0.986-0.18
			c0.448-0.011,0.891,0.106,1.275,0.338c0.342,0.198,0.613,0.499,0.773,0.86c0.148,0.356,0.223,0.738,0.221,1.123
			c0,0.122-0.005,0.243-0.017,0.364l-0.069,0.066c-0.364,0.071-0.733,0.113-1.103,0.123c-0.459,0.02-0.769,0.032-0.915,0.032h-1.934
			c0,0.829,0.208,1.44,0.625,1.834c0.402,0.391,0.944,0.604,1.504,0.59c0.275,0,0.548-0.049,0.806-0.146
			c0.286-0.109,0.561-0.245,0.822-0.404L101.695,182.228z M97.841,179.766c0.075,0.014,0.35,0.026,0.831,0.043
			s0.86,0.026,1.078,0.026c0.34,0.009,0.681-0.001,1.02-0.032c0-0.097,0-0.169,0-0.221c0.039-0.492-0.095-0.982-0.378-1.387
			c-0.256-0.305-0.64-0.473-1.037-0.456c-0.433-0.021-0.85,0.169-1.118,0.51c-0.298,0.446-0.439,0.98-0.401,1.516"/>
		<path fill="#314369" d="M104.36,179.978c0.736,0.018,1.247,0.026,1.527,0.026c0.327,0,0.831,0,1.51-0.026v-0.16
			c0-0.287,0-0.642,0-1.035c0.011-0.238-0.014-0.477-0.075-0.708c-0.035-0.069-0.092-0.124-0.163-0.155
			c-0.179-0.043-0.361-0.068-0.545-0.074l-0.048-0.049v-0.255l0.048-0.04c0.398,0.031,0.825,0.048,1.267,0.048
			s0.889-0.014,1.27-0.048l0.045,0.04v0.255l-0.045,0.049c-0.187,0.009-0.372,0.037-0.554,0.081
			c-0.07,0.031-0.126,0.087-0.157,0.157c-0.056,0.186-0.081,0.379-0.075,0.573c0,0.313,0,0.696,0,1.146v1.023v1.054
			c-0.012,0.236,0.015,0.472,0.078,0.699c0.033,0.07,0.093,0.124,0.166,0.149c0.178,0.042,0.359,0.067,0.542,0.078l0.045,0.043
			v0.264l-0.045,0.049c-0.401-0.035-0.826-0.049-1.27-0.049c-0.444,0-0.888,0.014-1.267,0.049l-0.048-0.049v-0.255l0.034-0.032
			c0.185-0.01,0.368-0.037,0.547-0.081c0.071-0.03,0.128-0.085,0.16-0.154c0.055-0.181,0.079-0.37,0.072-0.559
			c0-0.287,0-0.69,0-1.186v-0.481c-0.444,0-0.948-0.018-1.51-0.018c-0.507,0-1.018,0-1.527,0.018v0.481c0,0.317,0,0.668,0,1.054
			c-0.012,0.235,0.013,0.47,0.074,0.697c0.035,0.068,0.094,0.122,0.166,0.148c0.177,0.041,0.357,0.067,0.539,0.078l0.051,0.043
			v0.247l-0.051,0.049c-0.398-0.035-0.823-0.049-1.267-0.049c-0.444,0-0.892,0.014-1.267,0.049l-0.049-0.049v-0.255l0.049-0.043
			c0.184-0.01,0.368-0.037,0.547-0.08c0.069-0.032,0.125-0.086,0.16-0.155c0.058-0.178,0.083-0.366,0.075-0.553
			c0-0.287,0-0.691,0-1.192v-1.023c0-0.313,0-0.665,0-1.049c0.013-0.235-0.013-0.47-0.078-0.696
			c-0.036-0.068-0.095-0.122-0.166-0.152c-0.177-0.043-0.357-0.068-0.539-0.075l-0.049-0.049v-0.255l0.049-0.04
			c0.397,0.033,0.819,0.049,1.267,0.049c0.464,0,0.888-0.015,1.267-0.049l0.052,0.04v0.255l-0.052,0.049
			c-0.184,0.01-0.368,0.036-0.547,0.078c-0.071,0.029-0.128,0.084-0.161,0.155c-0.054,0.179-0.079,0.366-0.071,0.553
			c0,0.287,0,0.688,0,1.189L104.36,179.978z"/>
		<path fill="#314369" d="M109.702,177.54l0.049-0.04c0.781,0.04,1.657,0.06,2.628,0.06c0.97,0,1.846-0.02,2.627-0.06l0.043,0.04
			c-0.026,0.53-0.038,0.977-0.038,1.341l-0.034,0.038h-0.241l-0.037-0.038c-0.021-0.259-0.063-0.516-0.126-0.768
			c-0.022-0.067-0.071-0.122-0.135-0.152c-0.11-0.031-0.224-0.043-0.338-0.037h-1.221l-0.026,1.542v1.373
			c0,0.287,0,0.642,0.014,1.037c-0.013,0.238,0.011,0.477,0.072,0.708c0.032,0.071,0.091,0.125,0.164,0.152
			c0.179,0.044,0.362,0.071,0.547,0.08l0.049,0.043v0.255l-0.049,0.046c-0.401-0.032-0.825-0.046-1.27-0.046
			c-0.444,0-0.888,0.014-1.269,0.046l-0.049-0.046v-0.255l0.049-0.043c0.186-0.009,0.37-0.036,0.55-0.08
			c0.072-0.029,0.129-0.084,0.161-0.155c0.053-0.186,0.078-0.379,0.072-0.573c0-0.312,0-0.696,0-1.146v-1.353
			c-0.012-0.523-0.021-1.044-0.029-1.562h-1.224c-0.117-0.007-0.234,0.006-0.347,0.041c-0.066,0.034-0.114,0.094-0.132,0.166
			c-0.059,0.246-0.1,0.496-0.123,0.748l-0.035,0.037h-0.235l-0.043-0.037c0-0.161,0-0.604-0.034-1.341"/>
		<path fill="#314369" d="M117.522,177.304l0.106,0.075c-0.037,0.473-0.06,0.877-0.063,1.215c0.247-0.234,0.493-0.452,0.73-0.659
			c0.155-0.139,0.319-0.269,0.49-0.387c0.123-0.062,0.254-0.105,0.39-0.129c0.211-0.039,0.425-0.058,0.639-0.054
			c0.651-0.033,1.286,0.217,1.739,0.685c0.433,0.479,0.661,1.108,0.637,1.753c-0.002,0.307-0.051,0.611-0.144,0.903
			c-0.091,0.293-0.217,0.574-0.375,0.837c-0.098,0.175-0.218,0.337-0.358,0.481c-0.086,0.07-0.321,0.222-0.705,0.456
			c-0.158,0.092-0.315,0.198-0.476,0.312c-0.229,0.161-0.378,0.262-0.447,0.304c-0.11,0.057-0.228,0.097-0.35,0.12
			c-0.173,0.038-0.35,0.056-0.527,0.054c-0.434-0.004-0.861-0.113-1.244-0.318v1.124c0,0.307,0,0.69,0.026,1.146
			c-0.005,0.266,0.021,0.531,0.077,0.791c0.031,0.059,0.083,0.103,0.146,0.123c0.189,0.036,0.381,0.06,0.573,0.072l0.055,0.049
			v0.252l-0.055,0.055c-0.481-0.035-0.928-0.049-1.338-0.049s-0.86,0-1.335,0.049l-0.049-0.055v-0.244l0.049-0.048
			c0.184-0.009,0.366-0.029,0.547-0.061c0.053-0.01,0.102-0.036,0.14-0.074c0.037-0.05,0.062-0.108,0.072-0.169
			c0.031-0.278,0.047-0.557,0.049-0.836c0.017-0.479,0.026-0.814,0.026-1.003v-4.614c0-0.181,0-0.413-0.021-0.696
			c-0.003-0.164-0.016-0.328-0.037-0.49c-0.014-0.047-0.046-0.087-0.089-0.112c-0.09-0.038-0.188-0.054-0.286-0.046h-0.387
			l-0.054-0.048v-0.258l0.048-0.055c0.615-0.078,1.22-0.229,1.8-0.447 M117.565,181.924c0.409,0.444,0.984,0.698,1.587,0.699
			c0.567,0.023,1.108-0.236,1.447-0.69c0.359-0.489,0.545-1.084,0.527-1.691c0.006-0.379-0.073-0.755-0.232-1.101
			c-0.148-0.314-0.39-0.575-0.691-0.748c-0.289-0.171-0.619-0.262-0.954-0.264c-0.217-0.001-0.431,0.039-0.633,0.117
			c-0.208,0.079-0.402,0.191-0.573,0.333c-0.141,0.112-0.262,0.247-0.358,0.398c-0.056,0.087-0.095,0.185-0.114,0.287
			c-0.006,0.112-0.006,0.224,0,0.335L117.565,181.924z"/>
		<path fill="#314369" d="M88.052,106.922H66.462c-0.646,0-1.169,0.523-1.169,1.169c0,0.646,0.524,1.169,1.169,1.169h21.589
			c0.646,0,1.169-0.523,1.169-1.169C89.221,107.445,88.698,106.922,88.052,106.922L88.052,106.922 M88.052,108.776H66.462
			c-0.377-0.024-0.664-0.35-0.639-0.728c0.022-0.343,0.296-0.617,0.639-0.639h21.589c0.377,0.024,0.664,0.35,0.639,0.728
			C88.669,108.48,88.395,108.754,88.052,108.776"/>
		<path fill="#314369" d="M66.482,101.202c0-1.227-0.994-2.221-2.221-2.221s-2.221,0.994-2.221,2.221s0.995,2.221,2.221,2.221
			C65.487,103.421,66.481,102.428,66.482,101.202 M64.262,102.939c-0.958,0-1.734-0.776-1.734-1.734s0.776-1.733,1.734-1.733
			c0.956,0,1.732,0.774,1.733,1.73C65.995,102.16,65.219,102.937,64.262,102.939"/>
		<path fill="#314369" d="M90.267,98.984c-1.227,0-2.221,0.994-2.221,2.221s0.994,2.221,2.221,2.221s2.221-0.994,2.221-2.221
			c0-0.001,0-0.002,0-0.003C92.486,99.977,91.493,98.984,90.267,98.984 M90.267,102.939c-0.958,0-1.734-0.776-1.734-1.734
			s0.776-1.733,1.734-1.733c0.957,0,1.732,0.774,1.733,1.73C92,102.16,91.225,102.937,90.267,102.939"/>
		<path fill="#314369" d="M81.593,103.426c1.227,0,2.221-0.994,2.221-2.221s-0.994-2.221-2.221-2.221
			c-1.225,0-2.219,0.993-2.221,2.218C79.372,102.43,80.366,103.425,81.593,103.426 M81.593,99.472c0.958,0,1.734,0.776,1.734,1.734
			c0,0.957-0.776,1.733-1.734,1.733s-1.734-0.776-1.734-1.734c0-0.005,0-0.009,0-0.014C79.869,100.24,80.642,99.473,81.593,99.472"
			/>
		<path fill="#314369" d="M72.924,103.426c1.227,0,2.221-0.994,2.221-2.221s-0.994-2.221-2.221-2.221
			c-1.226,0-2.219,0.993-2.221,2.218C70.704,102.43,71.697,103.425,72.924,103.426 M72.924,99.472
			c0.958,0.001,1.732,0.779,1.731,1.736c-0.002,0.958-0.779,1.732-1.737,1.731c-0.958-0.002-1.732-0.779-1.731-1.737
			c0-0.004,0-0.007,0-0.011C71.196,100.238,71.971,99.47,72.924,99.472"/>
		<path fill="#314369" d="M48.618,99.993c-4.474-0.002-8.103,3.624-8.104,8.098s3.624,8.103,8.098,8.104
			c4.474,0.002,8.103-3.624,8.104-8.098c0,0,0-0.001,0-0.002C56.711,103.623,53.089,99.999,48.618,99.993 M48.618,115.499
			c-4.089,0-7.405-3.315-7.405-7.405c0-4.09,3.315-7.405,7.405-7.405c4.088,0,7.403,3.313,7.405,7.402
			c-0.011,4.083-3.322,7.389-7.405,7.393"/>
		<path fill="#314369" d="M48.618,103.985c-2.268,0.001-4.105,1.841-4.104,4.109c0.001,2.268,1.841,4.105,4.109,4.104
			c2.267-0.001,4.104-1.84,4.104-4.106c-0.003-2.269-1.841-4.106-4.109-4.109 M48.618,111.733c-2.013,0-3.645-1.632-3.645-3.645
			s1.632-3.645,3.645-3.645s3.645,1.632,3.645,3.645C52.262,110.101,50.63,111.732,48.618,111.733"/>
		<path fill="#314369" d="M114,108.091c0-4.474-3.627-8.101-8.101-8.101s-8.101,3.627-8.101,8.101s3.627,8.101,8.101,8.101l0,0
			C110.371,116.188,113.996,112.563,114,108.091 M98.494,108.091c-0.006-4.09,3.304-7.41,7.394-7.417
			c4.089-0.006,7.41,3.304,7.416,7.394s-3.304,7.41-7.393,7.416c-0.004,0-0.008,0-0.012,0c-4.087-0.004-7.4-3.317-7.405-7.405"/>
		<path fill="#314369" d="M110.008,108.091c0-2.27-1.84-4.109-4.109-4.109s-4.109,1.84-4.109,4.109s1.84,4.109,4.109,4.109l0,0
			C108.168,112.199,110.007,110.36,110.008,108.091 M102.254,108.091c0-2.013,1.632-3.646,3.645-3.646
			c2.013,0,3.645,1.632,3.645,3.646s-1.632,3.645-3.645,3.645C103.887,111.733,102.257,110.103,102.254,108.091"/>
		<path fill="#314369" d="M100.652,91.605c0,0,1.192,0.12,1.192-3.167h-2.49C99.354,88.439,99.317,91.614,100.652,91.605"/>
		<path fill="#314369" d="M95.468,91.605c0,0,1.192,0.12,1.192-3.167h-2.49c0,0-0.034,3.175,1.301,3.167"/>
		<path fill="#314369" d="M90.267,91.605c0,0,1.192,0.12,1.192-3.167h-2.49c0,0-0.034,3.175,1.301,3.167"/>
		<path fill="#314369" d="M85.092,91.605c0,0,1.192,0.12,1.192-3.167h-2.493C83.791,88.439,83.756,91.614,85.092,91.605"/>
		<path fill="#314369" d="M79.905,91.605c0,0,1.195,0.12,1.195-3.167h-2.493C78.607,88.439,78.573,91.614,79.905,91.605"/>
		<path fill="#314369" d="M74.718,91.605c0,0,1.192,0.12,1.192-3.167h-2.49c0,0-0.034,3.175,1.301,3.167"/>
		<path fill="#314369" d="M69.531,91.605c0,0,1.195,0.12,1.195-3.167h-2.493C68.233,88.439,68.196,91.614,69.531,91.605"/>
		<path fill="#314369" d="M63.863,91.433l0.859,0.035c0.347-0.258,0.811-0.98,0.811-3.029h-2.49c0,0-0.023,2.341,0.817,2.994"/>
		<path fill="#314369" d="M58.848,91.537c0.241-0.046,0.484-0.072,0.731-0.104c0.344-0.286,0.771-1.02,0.771-2.994h-2.493
			C57.857,88.439,57.831,91.092,58.848,91.537"/>
		<path fill="#314369" d="M53.63,91.522c0.195,0,0.387,0.021,0.573,0.029c0.347-0.155,0.954-0.762,0.954-3.112H52.67
			c0,0-0.025,2.596,0.958,3.083"/>
		<path fill="#314369" d="M48.784,91.605c0,0,1.192,0.12,1.192-3.167h-2.493C47.483,88.439,47.449,91.614,48.784,91.605"/>
		<path fill="#314369" d="M105.839,91.605c0,0,1.192,0.12,1.192-3.167h-2.49C104.541,88.439,104.503,91.614,105.839,91.605"/>
		<path fill="#314369" d="M78.486,57.507c-0.651,1.403-1.111,2.888-1.37,4.413c-0.276,1.506-0.348,3.042-0.215,4.568
			c0.116-1.505,0.362-2.997,0.737-4.459c0.374-1.441,0.897-2.84,1.562-4.172c0.661-1.318,1.514-2.531,2.53-3.599
			c0.972-1.121,2.172-1.975,3.398-2.909c-1.433,0.493-2.866,1.218-3.966,2.35c-1.113,1.098-2.019,2.387-2.674,3.806"/>
		<path fill="#314369" d="M76.916,52.728c1.363-0.824,2.766-1.579,4.204-2.261c1.433-0.716,2.912-1.298,4.398-1.906
			c-1.561,0.383-3.089,0.893-4.567,1.525c-1.478,0.63-2.914,1.354-4.299,2.169c-1.383,0.823-2.718,1.725-3.998,2.703
			c-1.282,0.973-2.484,2.048-3.593,3.215c1.246-1.01,2.525-1.965,3.84-2.865c1.31-0.909,2.642-1.786,4.012-2.579"/>
		<path fill="#314369" d="M84.507,41.165c-0.578-0.2-1.213-0.153-1.756,0.129c0.573,0.261,1.043,0.407,1.519,0.573l1.499,0.544
			c-0.069-0.306-0.232-0.583-0.467-0.791C85.072,41.413,84.801,41.257,84.507,41.165"/>
		<path fill="#314369" d="M83.725,34.548c-0.586,0.091-1.068,0.514-1.235,1.083c0.55-0.192,0.937-0.381,1.381-0.519
			c0.476-0.135,0.967-0.212,1.461-0.229C84.872,34.542,84.284,34.419,83.725,34.548"/>
		<path fill="#314369" d="M83.347,28.553c0.189-0.046,0.375-0.115,0.573-0.146c0.187-0.056,0.386-0.056,0.573,0
			c-0.149-0.16-0.354-0.258-0.573-0.272c-0.215-0.02-0.432-0.013-0.645,0.02c-0.416,0.062-0.822,0.177-1.209,0.341l0.175,0.43
			c0.372-0.118,0.739-0.287,1.12-0.387"/>
		<path fill="#314369" d="M79.091,28.118l-0.026-0.072c-0.41-0.07-0.823-0.114-1.238-0.132c-0.434-0.028-0.869,0.029-1.281,0.169
			c0.358,0.285,0.8,0.443,1.258,0.45c0.469,0.047,0.937-0.103,1.29-0.415"/>
		<path fill="#314369" d="M68.775,36.832c0.232-0.085,0.411-0.274,0.484-0.51c-0.181,0.079-0.376,0.12-0.573,0.123
			c-0.185,0.013-0.371,0.013-0.556,0c-0.381-0.026-0.78-0.094-1.229-0.109c0.318,0.318,0.734,0.52,1.181,0.573
			c0.235,0.039,0.477,0.013,0.699-0.075"/>
		<path fill="#314369" d="M131.386,57.653c-2.192-1.06-4.633-1.115-7.061-0.166c-3.33,1.304-6.241,4.384-7.834,8.265l0,0
			c-0.606-0.126-1.187-0.352-1.719-0.668c1.309-2.425,2.411-4.957,3.292-7.568l0.017,0.041c0.75-0.343,1.479-0.731,2.184-1.161
			c0.347-0.209,0.685-0.43,1.018-0.665c0.424,0.28,0.925,0.422,1.433,0.407c0.1,0,0.209,0,0.324-0.018
			c4.396-0.387,5.035-2.843,5.78-5.688l0.057-0.224c0.453-1.719,0.966-3.682,2.353-5.883l0.467-0.743l-0.859-0.083
			c-2.178-0.215-4.247,0.499-5.992,2.052c-2.442,2.172-3.943,5.754-4.012,9.586v0.103l0.04,0.06
			c-0.781,0.439-1.592,0.822-2.427,1.146c1.063-3.371,1.721-6.856,1.96-10.382c0.47-0.382,0.908-0.802,1.31-1.255
			c0.388-0.446,0.748-0.916,1.078-1.407c0.2,0.104,0.422,0.158,0.647,0.157c0.283-0.004,0.562-0.071,0.817-0.195
			c3.458-1.596,3.53-3.413,3.562-6.078c0.02-1.605,0.04-3.439,0.773-5.663l0.101-0.287l-0.313,0.046
			c-1.855,0.29-3.5,1.357-4.519,2.934c-1.556,2.278-2.066,5.517-1.396,8.695c-0.386,0.467-0.802,0.907-1.247,1.318
			c-0.238,0.218-0.493,0.43-0.748,0.63c0.02-0.573,0.029-1.146,0.026-1.719c0-0.33-0.018-0.662-0.026-0.992l0.063-0.177
			l-0.069-0.026c-0.042-1.238-0.143-2.473-0.306-3.7l0.083,0.035c0.519-1.556,0.963-3.115,1.324-4.703
			c0.031-0.141,0.057-0.287,0.086-0.421c0.294-0.025,0.572-0.143,0.794-0.338c2.662-2.364,2.464-3.872,1.911-6.305
			c-0.35-1.476-0.725-3.118-0.562-5.298l0.026-0.33l-0.304,0.126c-1.617,0.669-2.871,1.997-3.448,3.648
			c-0.934,2.459-0.673,5.583,0.702,8.362c0.137,0.05,0.279,0.085,0.424,0.104c-0.029,0.103-0.061,0.206-0.092,0.309
			c-0.358,1.086-0.773,2.155-1.209,3.213c-0.422-2.417-1.1-4.78-2.023-7.053c-0.22-0.546-0.455-1.085-0.705-1.616
			c0.223-0.577,0.407-1.167,0.553-1.768c0.153-0.626,0.268-1.262,0.344-1.903c0.023-0.195,0.037-0.393,0.055-0.587
			c0.217-0.095,0.416-0.227,0.587-0.39c2.198-2.043,1.602-3.516,0.86-5.476c-0.586-1.373-0.941-2.833-1.052-4.321l-0.02-0.313
			l-0.272,0.158c-1.264,0.73-2.06,1.94-2.464,3.438c-1.046,3.915,1.653,7.018,1.653,7.018c0.047,0.005,0.096,0.005,0.143,0
			c0.047,0.003,0.094,0.003,0.141,0c-0.028,0.129-0.051,0.258-0.083,0.381c-0.149,0.603-0.333,1.196-0.553,1.777
			c-0.123,0.324-0.261,0.645-0.407,0.957c-0.978-1.877-2.137-3.654-3.459-5.307c0.058-1.225,0.027-2.453-0.092-3.673
			c0-0.066-0.017-0.132-0.025-0.195c0.308-0.184,0.568-0.437,0.762-0.739c1.453-2.656,0.438-3.751-0.86-5.43
			c-0.966-1.158-1.736-2.467-2.278-3.875l-0.106-0.286l-0.215,0.226c-1.009,1.075-1.261,2.479-1.381,4.058
			c-0.255,3.359,3.212,5.989,3.599,6.273c-0.04,0.876-0.128,1.75-0.264,2.616c-0.711-0.825-1.458-1.622-2.238-2.375
			c-1.178-1.131-2.428-2.185-3.743-3.155c0.085-0.402,0.085-0.816,0-1.218c0-0.066-0.028-0.126-0.042-0.192l0.02-0.014
			c0.362-0.314,0.664-0.692,0.892-1.115c1.456-2.691,0.341-3.76-0.949-4.998l-0.287-0.287c-0.956-0.911-1.733-1.993-2.292-3.189
			l-0.373-0.794l-0.542,0.691c-0.89,1.146-1.248,2.617-0.983,4.043c0.313,1.929,1.863,4.086,3.972,5.548
			c0,0.124,0.023,0.25,0.026,0.367c0.01,0.239-0.008,0.478-0.052,0.713c-0.688-0.489-1.39-0.958-2.106-1.407
			c-0.015-0.012-0.031-0.023-0.049-0.031c-0.659-0.413-1.328-0.808-2.006-1.187c0.135-0.458-0.049-0.9-0.178-1.315
			c-0.171-0.496-0.398-0.971-0.676-1.416c-0.034-0.051-0.077-0.1-0.112-0.152c-0.034-0.052,0.02-0.043,0.023-0.063
			c0.659-2.292-0.413-3.058-1.751-4.063c-0.967-0.669-1.818-1.492-2.519-2.436l-0.184-0.258l-0.146,0.286
			c-0.544,1.048-0.615,2.278-0.194,3.381c0.573,1.66,2.158,3.195,4.058,4.012c0.134-0.106,0.258-0.224,0.37-0.353
			c0.196,0.397,0.352,0.814,0.464,1.244c0.074,0.252,0.103,0.501,0.16,0.75c-0.705-0.378-1.413-0.745-2.135-1.089
			c-1.187-0.556-2.393-1.054-3.611-1.527c0.021-0.135,0.009-0.273-0.031-0.404c-0.049-0.209-0.106-0.416-0.167-0.616
			s-0.117-0.364-0.183-0.544c0.092-0.235,0.335-0.86,0.396-1.112c0.625-2.668-1.567-3.559-2.746-4.038
			c-1.062-0.415-2.035-1.03-2.865-1.811L88.92,0l-0.238,0.845c-0.349,1.228-0.157,2.545,0.527,3.622
			c0.946,1.579,3.015,2.938,5.138,3.384l0.106,0.023c0.035,0.112,0.083,0.221,0.112,0.335c0.049,0.198,0.098,0.398,0.138,0.599
			c0,0.051,0.02,0.106,0.031,0.157c-0.776-0.286-1.547-0.593-2.333-0.859c-0.313-0.101-0.63-0.186-0.951-0.255l-0.381-0.347
			c-1.585-1.433-4.622-3.785-7.204-3.567c-1.579,0.102-3.038,0.874-4.012,2.121l-0.539,0.693l0.859,0.169
			c1.436,0.309,2.811,0.852,4.069,1.607c0.923,0.501,1.697,0.897,2.597,1.021c0.748,0,2.292,0,3.315-1.089
			c0.24-0.166,0.506-0.288,0.788-0.361l0.261-0.074c0.382,0.084,0.759,0.19,1.129,0.315c1.433,0.53,2.829,1.124,4.215,1.751
			c-0.069,0-0.14-0.014-0.212-0.017c-0.616-0.017-1.231,0.039-1.834,0.166c-0.161,0.032-0.318,0.086-0.476,0.132l-0.043-0.017
			c-2.181-0.837-4.56-0.808-6.351,0.069c-1.243,0.579-2.181,1.659-2.579,2.972l-0.249,0.836l0.86-0.149
			c1.226-0.194,2.476-0.184,3.699,0.029c0.497,0.077,0.999,0.122,1.501,0.135c1.201,0,1.983-0.324,2.926-2.086
			c0.191-0.454,0.333-0.928,0.421-1.413V10.7c0.121-0.02,0.241-0.052,0.361-0.072c0.579-0.093,1.165-0.125,1.75-0.097
			c0.288,0.015,0.575,0.044,0.86,0.089c0.204,0.051,0.415,0.07,0.625,0.057c0.255,0.123,0.521,0.232,0.771,0.358
			c1.271,0.651,2.512,1.356,3.726,2.115l0,0c-0.447-0.017-0.896-0.005-1.341,0.034l-0.055-0.023
			c-2.155-0.902-4.527-0.954-6.35-0.129c-1.264,0.536-2.239,1.586-2.68,2.886l-0.287,0.831l0.86-0.126
			c1.231-0.154,2.479-0.104,3.693,0.146c0.544,0.104,1.095,0.166,1.648,0.184c0.28,0.002,0.559-0.027,0.831-0.089
			c1.063-0.233,1.948-0.964,2.378-1.963c0.17-0.389,0.222-0.82,0.149-1.238c0.366,0,0.733,0,1.103,0.029
			c0.255,0.017,0.51,0.049,0.762,0.083l0.344,0.058c1.749,1.155,3.407,2.444,4.958,3.854l-0.106-0.023
			c-0.465-0.078-0.936-0.114-1.407-0.109c-1.928-1.184-4.184-1.607-6.069-1.123c-1.337,0.312-2.477,1.179-3.135,2.384l-0.418,0.771
			l0.877,0.026c1.241,0.061,2.463,0.324,3.619,0.779c0.794,0.287,1.507,0.524,2.235,0.524c0.252,0.001,0.503-0.029,0.748-0.092
			c0.845-0.222,1.589-0.728,2.106-1.433c0.299-0.426,0.429-0.948,0.364-1.464c0.33,0.039,0.658,0.099,0.98,0.181
			c0.263,0.066,0.522,0.148,0.776,0.244l0.218,0.086c0.149,0.146,0.31,0.287,0.458,0.438c1.527,1.54,2.905,3.221,4.115,5.021
			c-0.527-0.249-1.075-0.452-1.636-0.607l-0.04-0.035c-1.803-1.559-4.081-2.355-6.116-2.132c-1.391,0.12-2.665,0.828-3.501,1.946
			l-0.533,0.716l0.859,0.152c1.243,0.239,2.439,0.68,3.539,1.307c0.908,0.47,1.719,0.886,2.619,0.886
			c0.186,0,0.371-0.019,0.553-0.055l-0.066-0.341l0.097,0.335c0.59-0.109,1.481-0.287,2.112-1.146
			c0.201-0.351,0.361-0.724,0.476-1.112c0.468,0.206,0.92,0.447,1.353,0.722c0.461,0.291,0.9,0.615,1.313,0.971
			c0.867,1.456,1.621,2.976,2.255,4.548c0.178,0.441,0.341,0.888,0.499,1.335c-0.466-0.357-0.96-0.674-1.479-0.949
			c-0.06-0.031-0.129-0.051-0.189-0.083c-1.264-1.903-3.081-3.29-4.998-3.785c-1.483-0.415-3.073-0.177-4.37,0.653l-0.736,0.476
			l0.753,0.447c1.209,0.745,2.288,1.683,3.192,2.777c1.035,1.146,1.934,2.152,3.591,2.152c0.106,0,0.217,0,0.33,0l-0.026-0.347
			l0.109,0.341c0.534-0.01,1.06-0.13,1.544-0.353c0.457-0.279,0.831-0.674,1.083-1.146c0.301,0.229,0.599,0.467,0.882,0.72
			c0.284,0.252,0.476,0.436,0.699,0.667c0.06,0.052,0.115,0.109,0.164,0.172c0.808,2.784,1.273,5.655,1.387,8.551
			c-0.481-0.176-0.959-0.367-1.433-0.573c0.031-0.043,0.048-0.075,0.048-0.075c-0.51-2.929-2.075-5.496-4.189-6.877
			c-0.988-0.664-2.148-1.024-3.338-1.037c-0.474,0.001-0.945,0.061-1.404,0.177l-0.304,0.078l0.207,0.235
			c1.367,1.587,2.006,3.072,2.579,4.387c0.945,2.192,1.63,3.771,5.038,3.789l0,0c0.311-0.003,0.615-0.086,0.883-0.244
			c0.623,0.367,1.262,0.707,1.917,1.02c0,0.227,0.014,0.453,0.014,0.682c-0.002,2.081-0.166,4.158-0.49,6.213
			c-0.382,0.03-0.766,0.019-1.146-0.035c-0.089,0-0.178-0.043-0.267-0.063c-0.453-2.94-1.905-5.557-3.957-7.049
			c-1.076-0.831-2.389-1.297-3.749-1.33c-0.398,0-0.796,0.042-1.187,0.123l-0.306,0.06l0.192,0.25
			c1.355,1.754,1.948,3.361,2.473,4.78c0.86,2.315,1.172,4.281,4.585,4.281h0.203c0.568-0.003,1.122-0.179,1.588-0.504
			c0.106,0.035,0.2,0.083,0.307,0.112c0.375,0.097,0.759,0.16,1.146,0.189c-0.371,2.106-0.891,4.183-1.556,6.216
			c-0.696,2.115-1.537,4.18-2.519,6.178c-0.338-0.487-0.665-0.983-0.974-1.493c1.201-3.209,1.187-6.666-0.071-9.296
			c-0.814-1.823-2.368-3.213-4.27-3.82l-0.287-0.092l0.055,0.307c0.407,2.479,0.132,4.393-0.112,6.086
			c-0.401,2.803-1.335,4.468,2.046,6.683c0.542,0.353,1.524,0.413,2.104,0.416c0.334,0.699,0.695,1.388,1.083,2.066
			c-0.892,1.738-1.897,3.417-3.009,5.023c-0.86,1.227-1.771,2.41-2.742,3.547c-0.255-0.47-0.502-0.943-0.723-1.433
			c1.837-3.367,2.315-7.216,1.284-10.296c-0.636-2.072-2.125-3.775-4.095-4.68l-0.287-0.129v0.313
			c0.112,2.731-0.441,4.766-0.926,6.563c-0.802,2.966-1.745,5.634,2.038,7.857c0.396,0.242,0.842,0.389,1.304,0.43
			c0.071,0.227,0.138,0.45,0.218,0.673c0.166,0.476,0.358,0.943,0.573,1.41c-1.78,2.007-3.774,3.813-5.946,5.387
			c-1.344,0.975-2.772,1.828-4.267,2.55c-0.128-0.419-0.236-0.845-0.321-1.275c2.969-2.548,4.9-5.963,5.181-9.291
			c0.215-2.501-0.504-4.74-2.075-6.471l-0.209-0.232l-0.115,0.287c-1.077,2.794-2.519,4.602-3.788,6.198
			c-2.095,2.631-4.548,5.181-1.367,8.771c0.306,0.347,1.387,1,1.693,1.184c0.049,0.39,0.117,0.783,0.198,1.178
			c-0.873,0.378-1.768,0.704-2.679,0.975h-8.74c0-0.421,0.223-6.497,2.149-11.122c0.866-2.167,2.092-4.171,3.627-5.929
			c0.482-0.518,0.896-1.096,1.232-1.719c0.117-0.241,0.244-0.487,0.373-0.736c0.688-1.321,1.542-2.966,1.215-5.497
			c-0.258-2.006-0.258-2.1-0.244-2.811c0-0.287,0-0.673,0-1.307c0.011-0.959,0.09-1.917,0.235-2.866
			c0.155-1.146,0.263-1.989,0.037-2.542c-0.255-0.622-0.458-1.078-0.544-1.264c0-0.723-0.089-4.035-0.59-5.061
			c-0.255-0.524-0.86-0.799-1.631-0.759c-1.052,0.057-2.384,0.725-2.788,1.851c0,0.017-0.344,1.146-0.573,2.335
			c-0.165-0.511-0.356-1.013-0.573-1.504c0.174-0.816,0.822-4.33-0.25-7.528c0.051-0.733,0.313-5.098-1.08-7.374
			c0-1.37-0.181-6.591-2.089-7.135c-1.527-0.433-1.903-0.304-2.731,0.39c-0.203,0.174-0.391,0.365-0.559,0.573
			c-0.152-1.138-0.49-2.158-1.063-2.785c-0.411-0.46-1.011-0.706-1.627-0.665c-1.361,0.063-2.378,1.009-2.806,2.519
			c-0.146-0.223-0.342-0.409-0.573-0.542c-0.556-0.351-1.24-0.429-1.86-0.212c-0.739,0.287-1.335,1.055-1.768,2.292
			c-0.943,2.697-0.78,6-0.774,6.11v1.304c-0.037,0.175-0.12,0.573-0.181,0.983c-0.398-0.828-1.028-1.651-1.974-1.803
			c-0.564-0.089-1.137,0.09-1.55,0.484c-1.081,0.966-1.481,3.069-1.401,4.617c0.042,0.688-0.014,1.379-0.169,2.052
			c-0.161,0.86-0.384,2.032-0.41,4.809c-0.115,0.393-0.676,2.367-0.542,3.458c-0.025,1.205,0.042,2.41,0.201,3.605
			c0.132,0.754-0.034,3.104-0.169,4.992c-0.1,1.404-0.187,2.613-0.169,3.244c0,0.172,0,0.358,0,0.573
			c-0.023,1.616-0.063,4.625,3.063,11.508l0.069,0.109c0.034,0.049,0.84,1.261,0.685,8.72l-0.083,4.642h-8.268
			c-0.913-0.271-1.808-0.597-2.682-0.974c0.086-0.393,0.152-0.785,0.201-1.178c0.307-0.184,1.387-0.837,1.693-1.184
			c3.178-3.593,0.728-6.144-1.367-8.772c-1.27-1.596-2.711-3.404-3.789-6.198l-0.114-0.286l-0.212,0.232
			c-1.573,1.719-2.292,3.969-2.075,6.471c0.287,3.327,2.215,6.743,5.184,9.29c-0.086,0.436-0.192,0.86-0.318,1.275
			c-1.496-0.722-2.925-1.575-4.27-2.55c-2.172-1.582-4.166-3.396-5.943-5.411c0.201-0.467,0.39-0.931,0.559-1.41
			c0.077-0.224,0.146-0.447,0.217-0.673c0.463-0.041,0.911-0.188,1.307-0.43c3.783-2.227,2.84-4.892,2.035-7.857
			c-0.487-1.797-1.035-3.834-0.926-6.562v-0.313l-0.287,0.129c-1.969,0.905-3.458,2.607-4.092,4.68
			c-1.035,3.081-0.553,6.929,1.284,10.296c-0.224,0.496-0.467,0.969-0.728,1.433c-0.972-1.146-1.889-2.321-2.743-3.548
			c-1.11-1.606-2.115-3.284-3.009-5.021c0.382-0.678,0.744-1.368,1.086-2.069c0.573,0,1.565-0.06,2.106-0.416
			c3.378-2.218,2.444-3.88,2.043-6.683c-0.24-1.694-0.516-3.611-0.111-6.087l0.049-0.307l-0.287,0.092
			c-1.902,0.61-3.454,2.001-4.267,3.826c-1.255,2.631-1.27,6.087-0.069,9.296c-0.313,0.51-0.636,1.006-0.977,1.493
			c-0.983-1.998-1.825-4.063-2.519-6.178c-0.665-2.032-1.185-4.109-1.556-6.216c0.387-0.028,0.771-0.091,1.146-0.189
			c0.106-0.026,0.201-0.077,0.304-0.112c0.467,0.325,1.021,0.501,1.59,0.504h0.201c3.404,0,3.725-1.963,4.585-4.281
			c0.524-1.416,1.118-3.026,2.476-4.78l0.189-0.249l-0.307-0.061c-0.391-0.082-0.79-0.123-1.189-0.123
			c-1.361,0.021-2.68,0.477-3.763,1.301c-2.052,1.493-3.505,4.109-3.958,7.05c-0.089,0.017-0.175,0.048-0.267,0.063
			c-0.379,0.053-0.764,0.065-1.146,0.034c-0.326-2.055-0.49-4.132-0.493-6.212c0-0.227,0-0.453,0.015-0.682
			c0.657-0.313,1.297-0.653,1.92-1.02c0.268,0.157,0.572,0.241,0.882,0.243l0,0c3.407-0.017,4.089-1.599,5.038-3.788
			c0.573-1.315,1.206-2.8,2.579-4.387l0.207-0.235l-0.304-0.077c-0.459-0.117-0.931-0.176-1.404-0.178
			c-1.19,0.013-2.351,0.374-3.338,1.038c-2.115,1.37-3.679,3.937-4.189,6.877l0.046,0.074c-0.47,0.207-0.948,0.397-1.433,0.573
			c0.112-2.896,0.578-5.768,1.387-8.551c0.048-0.063,0.103-0.121,0.163-0.172c0.224-0.229,0.456-0.453,0.699-0.668
			c0.244-0.215,0.573-0.49,0.883-0.719c0.252,0.473,0.627,0.869,1.086,1.146c0.484,0.223,1.009,0.343,1.542,0.353l0.109-0.341
			l-0.026,0.347c0.115,0,0.224,0,0.33,0c1.659,0,2.559-1.003,3.593-2.152c0.905-1.095,1.983-2.033,3.192-2.777l0.754-0.447
			l-0.719-0.441c-1.299-0.826-2.889-1.059-4.37-0.639c-1.917,0.496-3.726,1.882-4.998,3.785c-0.063,0.032-0.129,0.052-0.192,0.083
			c-0.518,0.274-1.011,0.591-1.476,0.948c0.16-0.447,0.321-0.894,0.496-1.335c0.635-1.576,1.389-3.101,2.255-4.562
			c0.413-0.36,0.853-0.688,1.315-0.983c0.434-0.271,0.888-0.509,1.358-0.71c0.11,0.39,0.267,0.765,0.467,1.118
			c0.627,0.859,1.519,1.023,2.109,1.146l0.097-0.335l-0.066,0.338c0.182,0.036,0.368,0.054,0.553,0.054
			c0.908,0,1.719-0.415,2.619-0.885c1.101-0.627,2.297-1.068,3.542-1.307l0.859-0.152l-0.519-0.705
			c-0.838-1.118-2.113-1.826-3.504-1.946c-2.021-0.226-4.299,0.573-6.112,2.132l-0.041,0.034c-0.568,0.156-1.121,0.361-1.653,0.613
			c1.208-1.804,2.585-3.489,4.112-5.032c0.146-0.152,0.304-0.287,0.456-0.438l0.218-0.086c0.254-0.095,0.513-0.177,0.776-0.243
			c0.323-0.082,0.652-0.143,0.983-0.181c-0.066,0.516,0.064,1.039,0.364,1.464c0.518,0.704,1.261,1.209,2.106,1.433
			c0.245,0.063,0.496,0.093,0.748,0.092c0.728,0,1.433-0.25,2.25-0.53c1.152-0.453,2.371-0.714,3.608-0.773l0.876-0.026
			l-0.418-0.771c-0.661-1.209-1.809-2.077-3.152-2.384c-1.877-0.481-4.129-0.06-6.063,1.124c-0.473-0.005-0.944,0.031-1.41,0.109
			l-0.106,0.023c1.56-1.413,3.226-2.704,4.983-3.86l0.344-0.057c0.252-0.034,0.507-0.066,0.762-0.083
			c0.37-0.032,0.737-0.035,1.104-0.029c-0.077,0.418-0.026,0.85,0.146,1.238c0.43,1.001,1.317,1.732,2.381,1.963
			c0.271,0.062,0.548,0.091,0.825,0.089c0.556-0.018,1.11-0.08,1.657-0.187c1.213-0.249,2.458-0.299,3.688-0.149L62,16.744
			l-0.287-0.828c-0.44-1.3-1.415-2.35-2.679-2.885c-1.823-0.826-4.195-0.777-6.35,0.128l-0.052,0.023
			c-0.447-0.04-0.896-0.051-1.344-0.034l0,0c1.209-0.764,2.451-1.469,3.725-2.115c0.255-0.126,0.519-0.235,0.774-0.358
			c0.21,0.014,0.42-0.005,0.625-0.057c0.867-0.138,1.75-0.138,2.616,0c0.124,0.02,0.241,0.049,0.364,0.071v0.046
			c0.087,0.485,0.229,0.959,0.421,1.413c0.943,1.762,1.72,2.086,2.923,2.086c0.502-0.013,1.004-0.058,1.501-0.134
			c1.223-0.212,2.473-0.222,3.699-0.029l0.86,0.149l-0.252-0.837c-0.399-1.311-1.336-2.391-2.579-2.969
			c-1.777-0.871-4.164-0.897-6.362-0.06l-0.043,0.017c-0.158-0.046-0.313-0.1-0.473-0.132c-0.603-0.127-1.218-0.183-1.834-0.166
			c-0.074,0-0.143,0-0.218,0.017c1.387-0.627,2.789-1.221,4.218-1.751c0.371-0.125,0.748-0.229,1.129-0.315l0.261,0.074
			c0.282,0.073,0.549,0.195,0.788,0.361c0.971,1.04,2.444,1.086,3.267,1.086h0.103c0.86-0.121,1.622-0.516,2.548-1.02
			c1.258-0.755,2.632-1.297,4.066-1.605l0.859-0.169l-0.539-0.693c-0.975-1.246-2.434-2.018-4.012-2.121
			c-2.579-0.221-5.619,2.141-7.201,3.567l-0.381,0.347c-0.321,0.069-0.639,0.154-0.952,0.255c-0.785,0.269-1.559,0.573-2.333,0.859
			c0-0.051,0.023-0.106,0.031-0.157c0.041-0.201,0.086-0.401,0.138-0.599c0.029-0.115,0.075-0.224,0.112-0.335l0.104-0.023
			c2.123-0.447,4.189-1.808,5.138-3.384c0.684-1.078,0.875-2.397,0.524-3.625L64.666,0l-0.645,0.593
			c-0.831,0.782-1.803,1.396-2.866,1.811c-1.178,0.479-3.373,1.37-2.745,4.038c0.06,0.255,0.301,0.877,0.393,1.112
			c-0.069,0.178-0.126,0.361-0.184,0.544c-0.057,0.184-0.118,0.407-0.166,0.616c-0.04,0.131-0.05,0.269-0.029,0.404
			C57.207,9.591,56,10.09,54.811,10.646c-0.716,0.344-1.433,0.711-2.129,1.089c0.054-0.25,0.083-0.499,0.16-0.751
			c0.117-0.428,0.276-0.844,0.476-1.241c0.115,0.124,0.242,0.237,0.378,0.338c1.9-0.825,3.473-2.361,4.058-4.012
			c0.419-1.104,0.348-2.333-0.195-3.381l-0.146-0.287l-0.18,0.258c-0.702,0.944-1.552,1.767-2.519,2.436
			c-1.338,1.006-2.41,1.759-1.754,4.063c0.007,0.021,0.016,0.042,0.026,0.063c-0.037,0.051-0.078,0.097-0.115,0.152
			c-0.279,0.445-0.507,0.919-0.679,1.416c-0.126,0.416-0.287,0.86-0.163,1.31c-0.684,0.382-1.357,0.779-2.021,1.192
			c-0.016,0.009-0.032,0.02-0.046,0.032c-0.716,0.449-1.419,0.918-2.109,1.407c-0.042-0.235-0.06-0.475-0.052-0.714
			c0-0.123,0.018-0.244,0.026-0.367c2.106-1.461,3.66-3.617,3.969-5.548c0.265-1.426-0.092-2.897-0.98-4.043l-0.539-0.69
			l-0.375,0.794c-0.559,1.197-1.336,2.278-2.292,3.189l-0.287,0.287c-1.292,1.238-2.404,2.307-0.951,4.998
			c0.225,0.424,0.525,0.804,0.885,1.121h0.026c0,0.063-0.031,0.126-0.043,0.192c-0.085,0.402-0.085,0.816,0,1.218
			c-1.321,0.975-2.577,2.035-3.76,3.175c-0.782,0.754-1.527,1.55-2.238,2.376c-0.129-0.869-0.211-1.745-0.247-2.622
			c0.384-0.287,3.852-2.915,3.596-6.273c-0.117-1.579-0.37-2.983-1.381-4.058l-0.215-0.226l-0.109,0.287
			c-0.544,1.409-1.319,2.719-2.292,3.874c-1.29,1.68-2.292,2.774-0.859,5.431c0.192,0.303,0.453,0.557,0.762,0.739
			c0,0.066-0.02,0.132-0.029,0.195c-0.108,1.225-0.129,2.455-0.063,3.682c-1.321,1.656-2.479,3.437-3.456,5.316
			c-0.143-0.313-0.287-0.633-0.407-0.957c-0.22-0.581-0.404-1.174-0.553-1.777c-0.034-0.126-0.054-0.255-0.086-0.381
			c0.048,0.003,0.096,0.003,0.144,0c0.047,0.005,0.096,0.005,0.143,0c0,0,2.699-3.104,1.653-7.018
			c-0.401-1.513-1.198-2.719-2.464-3.439l-0.27-0.157l-0.02,0.312c-0.113,1.489-0.47,2.949-1.057,4.321
			c-0.745,1.96-1.338,3.439,0.859,5.477c0.173,0.163,0.373,0.295,0.59,0.39c0.018,0.198,0.029,0.393,0.055,0.587
			c0.078,0.64,0.193,1.274,0.347,1.9c0.141,0.6,0.323,1.19,0.544,1.765c-0.25,0.531-0.485,1.07-0.705,1.616
			c-0.922,2.272-1.6,4.637-2.023,7.052c-0.436-1.057-0.86-2.126-1.209-3.212c-0.031-0.103-0.06-0.206-0.091-0.31
			c0.146-0.018,0.289-0.053,0.427-0.103c1.375-2.78,1.636-5.903,0.702-8.362c-0.581-1.656-1.841-2.984-3.464-3.651l-0.304-0.126
			l0.023,0.33c0.175,2.178-0.197,3.826-0.53,5.281c-0.553,2.427-0.754,3.935,1.911,6.304c0.221,0.195,0.5,0.314,0.794,0.338
			c0.029,0.141,0.054,0.287,0.086,0.421c0.362,1.588,0.804,3.158,1.324,4.702l0.083-0.034c-0.162,1.229-0.265,2.461-0.306,3.7
			l-0.069,0.025l0.063,0.178c0,0.33-0.026,0.662-0.026,0.992c0,0.573,0.01,1.146,0.029,1.719c-0.258-0.201-0.513-0.413-0.751-0.63
			c-0.444-0.41-0.86-0.851-1.244-1.318c0.67-3.178,0.158-6.416-1.398-8.694c-1.021-1.583-2.67-2.652-4.531-2.94l-0.287-0.046
			l0.095,0.287c0.734,2.238,0.754,4.058,0.774,5.663c0.031,2.665,0.103,4.482,3.562,6.078c0.255,0.124,0.535,0.191,0.819,0.195
			c0.226,0,0.448-0.054,0.648-0.158c0.329,0.491,0.689,0.961,1.077,1.407c0.403,0.453,0.841,0.872,1.31,1.255
			c0.241,3.526,0.899,7.011,1.96,10.382c-0.834-0.324-1.646-0.708-2.427-1.146l0.038-0.06v-0.104
			c-0.081-3.831-1.585-7.413-4.012-9.585c-1.748-1.556-3.826-2.267-5.992-2.052l-0.86,0.083l0.43,0.762
			c1.387,2.204,1.9,4.161,2.353,5.889l0.057,0.218c0.745,2.846,1.387,5.304,5.783,5.688c0.112,0,0.221,0.017,0.324,0.017
			c0.508,0.014,1.008-0.128,1.433-0.407c0.33,0.232,0.667,0.456,1.014,0.665c0.705,0.429,1.434,0.816,2.184,1.161l0.014-0.04
			c0.884,2.611,1.987,5.143,3.298,7.568c-0.532,0.316-1.113,0.542-1.719,0.668l0,0c-1.596-3.877-4.502-6.961-7.835-8.265
			c-2.427-0.949-4.871-0.894-7.061,0.166l-0.788,0.384l0.696,0.533c2.324,1.785,3.631,3.654,4.786,5.305
			c1.625,2.315,2.929,4.181,6.144,4.181c0.232,0,0.476,0,0.728-0.031c0.438-0.035,0.903-0.115,1.396-0.198l0.086-0.015
			c0.778-0.179,1.446-0.674,1.843-1.367h0.123c0.705-0.075,1.392-0.269,2.032-0.573c0.65,1.146,1.341,2.267,2.086,3.353
			c1.515,2.218,3.233,4.292,5.132,6.192c-0.66,0.168-1.33,0.293-2.006,0.375c-0.258,0.028-0.516,0.031-0.771,0.046
			c0.048-0.125,0.089-0.254,0.12-0.384l0.032-0.158l-0.1-0.123c-2.579-3.267-6.239-5.384-9.772-5.666
			c-2.516-0.2-4.777,0.539-6.522,2.144l-0.642,0.593l0.819,0.31c2.66,1.006,4.399,2.373,5.938,3.582
			c1.665,1.307,3.101,2.438,5.081,2.438c1.375,0.054,2.729-0.357,3.843-1.166c0.349-0.258,0.648-0.577,0.882-0.943
			c0.378,0.017,0.76,0.032,1.146,0.02c0.915-0.032,1.825-0.144,2.72-0.335c1.154,1.093,2.382,2.104,3.676,3.026
			c1.576,1.13,3.261,2.098,5.032,2.889h-2.456c-3.006-2.081-6.376-3.124-9.457-3.124s-5.889,1.049-7.763,3.124h-2.447v5.158H44.13
			v6.448c-7.997,2.129-12.754,10.338-10.625,18.335c1.749,6.569,7.701,11.138,14.5,11.129c0.39,0,0.776-0.026,1.146-0.057v4.725
			h56.017v-4.754c0.441,0.04,0.882,0.066,1.333,0.066c8.277,0.001,14.988-6.707,14.99-14.984c0.001-6.785-4.556-12.725-11.11-14.48
			v-6.448h10.316v-5.158h-3.361c-1.872-2.075-4.671-3.124-7.76-3.124s-6.462,1.043-9.457,3.124h-2.456
			c1.771-0.791,3.457-1.758,5.032-2.888c1.295-0.922,2.525-1.933,3.679-3.026c0.895,0.191,1.805,0.303,2.72,0.335
			c0.381,0,0.762,0,1.146-0.02c0.233,0.366,0.533,0.686,0.882,0.943c1.114,0.809,2.467,1.22,3.843,1.166
			c1.977,0,3.419-1.129,5.095-2.447c1.533-1.204,3.267-2.579,5.926-3.57l0.819-0.31l-0.665-0.584
			c-1.746-1.605-3.998-2.344-6.52-2.144c-3.536,0.287-7.19,2.396-9.772,5.666l-0.1,0.123l0.031,0.158
			c0.031,0.13,0.071,0.259,0.121,0.384c-0.258-0.014-0.516-0.02-0.771-0.046c-0.676-0.082-1.346-0.207-2.006-0.375
			c1.899-1.9,3.617-3.974,5.132-6.192c0.745-1.086,1.433-2.207,2.089-3.353c0.639,0.305,1.325,0.499,2.029,0.573h0.123
			c0.42,0.707,1.116,1.208,1.92,1.381c0.496,0.086,0.963,0.166,1.404,0.198c0.255,0.023,0.496,0.032,0.728,0.032
			c3.215,0,4.522-1.863,6.147-4.187c1.146-1.645,2.456-3.51,4.78-5.298l0.696-0.533L131.386,57.653z M125.302,46.068
			c1.406-1.317,3.289-2.003,5.212-1.9c-1.341,2.201-1.851,4.141-2.292,5.863l-0.057,0.221c-0.733,2.803-1.264,4.829-5.158,5.172
			c-0.373,0.048-0.751-0.006-1.095-0.158c0.129-0.1,0.264-0.192,0.387-0.286c0.644-0.513,1.211-1.115,1.685-1.788
			c0.488-0.66,0.775-1.445,0.828-2.264c-0.125,0.792-0.477,1.53-1.012,2.126c-0.517,0.601-1.117,1.125-1.782,1.556
			c-0.155,0.104-0.315,0.195-0.473,0.287c0.135-3.544,1.533-6.829,3.777-8.829 M124.417,34.674c0.764-1.173,1.913-2.044,3.25-2.461
			c-0.414,1.646-0.606,3.341-0.573,5.038c-0.032,2.507-0.046,4.012-3.152,5.444c-0.164,0.081-0.344,0.126-0.527,0.132
			c-0.091,0-0.181-0.02-0.264-0.057c0.34-0.551,0.641-1.126,0.9-1.72c0.292-0.667,0.537-1.354,0.734-2.054
			c-0.271,0.67-0.585,1.322-0.94,1.951c-0.252,0.442-0.53,0.868-0.834,1.275c-0.45-2.797,0.043-5.577,1.398-7.56 M120.746,25.02
			c0.422-1.178,1.23-2.18,2.292-2.842c0,1.547,0.199,3.088,0.593,4.585c0.536,2.361,0.676,3.493-1.685,5.588
			c-0.044,0.036-0.093,0.064-0.146,0.086c0.069-0.393,0.132-0.785,0.181-1.181c0.128-0.805,0.122-1.625-0.02-2.427
			c0.063,0.803-0.007,1.61-0.209,2.39c-0.097,0.436-0.212,0.859-0.332,1.295h-0.132c-1.146-2.521-1.361-5.295-0.533-7.479
			 M116.421,17.108c0.228-0.977,0.74-1.864,1.473-2.548c0.19,1.252,0.536,2.476,1.029,3.643l0.026,0.066
			c0.728,1.905,1.129,2.954-0.702,4.656c-0.026,0.026-0.049,0.032-0.072,0.055c0.021-0.795-0.028-1.59-0.146-2.376
			c0.023,0.864-0.035,1.727-0.175,2.579c-0.038,0.015-0.078,0.038-0.109,0.049c-0.573-0.779-2.078-3.235-1.31-6.124 M100.056,8.545
			c-0.451-0.502-0.978-0.93-1.562-1.267c0.351,0.359,0.676,0.742,0.975,1.146c0.164,0.208,0.313,0.427,0.444,0.656
			c-0.039,0.068-0.084,0.131-0.138,0.189c-1.567-0.788-2.808-2.075-3.281-3.439c-0.246-0.657-0.293-1.371-0.138-2.055
			c0.63,0.7,1.335,1.329,2.104,1.874l0.071,0.055c1.187,0.888,1.817,1.387,1.522,2.843 M94.488,6.29
			c-0.017,0.075-0.065,0.221-0.126,0.384c-0.163-0.301-0.364-0.581-0.596-0.834c-0.296-0.317-0.695-0.521-1.126-0.573
			c0.386,0.141,0.719,0.398,0.952,0.736c0.243,0.324,0.437,0.682,0.573,1.063c0,0.018,0,0.038,0.018,0.055
			c-1.84-0.467-3.577-1.642-4.39-2.992c-0.534-0.84-0.719-1.856-0.516-2.832c0.842,0.757,1.813,1.356,2.866,1.771
			c1.484,0.605,2.78,1.304,2.33,3.235 M88.983,7.64c0.287,0.066,0.573,0.129,0.86,0.178c-0.085,0.052-0.165,0.115-0.235,0.187
			c-0.808,0.859-2.161,0.859-2.763,0.859c-0.73-0.103-1.433-0.47-2.31-0.94c-1.246-0.744-2.599-1.293-4.012-1.627
			c0.86-0.98,2.075-1.577,3.376-1.659c2.086-0.178,4.639,1.662,6.075,2.866c-0.313-0.066-0.63-0.121-0.946-0.167
			c-1.118-0.157-2.221-0.406-3.298-0.745c1.043,0.475,2.141,0.817,3.27,1.018 M93.15,11.818c-0.791,1.481-1.33,1.719-2.313,1.719
			c-0.472-0.013-0.943-0.056-1.41-0.129c-0.714-0.108-1.434-0.167-2.155-0.178c-0.503,0-1.006,0.037-1.504,0.112
			c0.39-1.016,1.163-1.839,2.152-2.292c1.418-0.699,3.253-0.791,5.035-0.287c-0.623,0.28-1.202,0.649-1.719,1.095
			c0.51-0.314,1.049-0.578,1.61-0.788c0.181-0.072,0.367-0.123,0.55-0.181h0.034c-0.064,0.318-0.16,0.629-0.287,0.929
			 M100.368,14.615c-0.337,0.809-1.051,1.401-1.908,1.582c-0.645,0.152-1.367,0.032-2.212-0.106
			c-0.812-0.152-1.635-0.236-2.461-0.25c-0.395,0-0.789,0.022-1.181,0.069c0.417-1.008,1.213-1.813,2.218-2.238
			c1.369-0.622,3.097-0.682,4.78-0.212c-0.164,0.049-0.33,0.094-0.493,0.16c-0.494,0.211-0.94,0.519-1.313,0.906
			c0.777-0.485,1.665-0.766,2.579-0.817l0.089,0.032c0.057,0.289,0.027,0.588-0.086,0.86 M106.028,12.66
			c-0.265-0.832-0.576-1.649-0.931-2.447c0.227,0.818,0.411,1.647,0.55,2.485c-1.694-1.333-2.915-3.112-3.172-4.708
			c-0.214-1.148,0.033-2.334,0.688-3.301c0.585,1.178,1.372,2.245,2.324,3.152l0.287,0.287c1.261,1.209,2.023,1.94,0.823,4.164
			c-0.135,0.247-0.3,0.475-0.493,0.679c-0.031-0.106-0.06-0.215-0.092-0.321 M106.214,18.953c-0.425,0.582-1.039,0.999-1.737,1.178
			c-0.796,0.201-1.587-0.069-2.593-0.421c-1.134-0.441-2.328-0.709-3.542-0.796c0.587-0.923,1.513-1.578,2.579-1.822
			c1.41-0.364,3.063-0.152,4.6,0.55c-0.239,0.037-0.477,0.085-0.711,0.146c-0.543,0.152-1.069,0.36-1.57,0.619
			c0.882-0.323,1.81-0.503,2.748-0.533c0.158,0.083,0.315,0.166,0.464,0.261c0.02,0.292-0.061,0.583-0.227,0.825 M112.771,16.199
			c-0.127-0.618-0.396-1.197-0.785-1.693c0.313,0.53,0.499,1.125,0.542,1.739c0.037,0.318,0.054,0.63,0.069,0.949
			c-0.946-0.797-3.092-2.889-2.909-5.333c0.092-1.215,0.258-2.181,0.7-2.96c0.544,1.151,1.228,2.231,2.034,3.215l0.181,0.232
			c1.189,1.533,1.782,2.293,0.616,4.439c-0.071,0.11-0.16,0.207-0.264,0.287c-0.051-0.287-0.112-0.587-0.187-0.877 M111.005,24.507
			c-0.464,0.636-1.146,0.759-1.676,0.859h-0.034c-0.903,0.172-1.719-0.243-2.726-0.765c-1.089-0.616-2.265-1.064-3.487-1.33
			c0.725-0.848,1.754-1.376,2.866-1.473c1.496-0.164,3.152,0.287,4.617,1.252c-0.144,0-0.287-0.031-0.433-0.025
			c-0.614,0.02-1.217,0.167-1.771,0.43c0.905-0.292,1.878-0.292,2.783,0c0.072,0.057,0.146,0.103,0.215,0.161
			c-0.089,0.304-0.207,0.598-0.353,0.879 M114.866,32.052c-0.403,0.182-0.839,0.279-1.281,0.287h-0.086
			c-1.516,0.121-2.292-0.733-3.35-1.911c-0.899-1.079-1.956-2.015-3.135-2.777c1.1-0.602,2.394-0.745,3.599-0.398
			c1.564,0.454,2.95,1.381,3.966,2.654c-0.186-0.055-0.373-0.118-0.573-0.161c-0.673-0.132-1.364-0.149-2.043-0.052
			c0.656,0.081,1.299,0.245,1.914,0.487c0.481,0.199,0.947,0.435,1.393,0.705c0.098,0.149,0.195,0.287,0.287,0.45
			c-0.173,0.298-0.416,0.55-0.708,0.734 M114.731,39.5c0.509,0.508,1.065,0.965,1.662,1.367c0.094,0.063,0.201,0.117,0.287,0.178
			c-0.039,0.011-0.078,0.02-0.118,0.025c-2.943-0.017-3.456-1.206-4.393-3.37c-0.531-1.38-1.238-2.687-2.104-3.886
			c0.144,0,0.287-0.018,0.427-0.018c1.056,0.012,2.085,0.334,2.96,0.926c1.863,1.209,3.267,3.439,3.806,6.018
			c-0.201-0.098-0.407-0.178-0.602-0.287c-0.616-0.326-1.199-0.71-1.743-1.146c-0.524-0.441-1.022-0.991-1.146-1.699
			c0.032,0.722,0.484,1.361,0.974,1.868 M113.742,46.709c0.15,0.314,0.322,0.618,0.513,0.909c0.385,0.599,0.876,1.122,1.45,1.544
			c0.252,0.184,0.521,0.344,0.803,0.479c-0.243,0.09-0.498,0.139-0.757,0.143h-0.189c-2.579,0-2.991-1.181-3.682-3.138
			c-0.08-0.224-0.16-0.453-0.247-0.688c-0.501-1.507-1.198-2.941-2.071-4.267h0.249c1.215,0.018,2.392,0.427,3.356,1.167
			c1.839,1.341,3.152,3.662,3.633,6.304c-0.294-0.099-0.577-0.228-0.845-0.384c-0.58-0.335-1.093-0.773-1.516-1.292
			c-0.217-0.262-0.416-0.537-0.596-0.825c-0.174-0.287-0.321-0.605-0.487-0.909c0.129,0.318,0.241,0.645,0.384,0.963
			 M112.974,59.863c-0.356-0.659-0.658-1.347-0.903-2.055c-0.274-0.704-0.381-1.462-0.312-2.215
			c-0.145,0.754-0.113,1.532,0.092,2.272c0.175,0.747,0.411,1.478,0.705,2.186c0.097,0.238,0.217,0.467,0.324,0.705
			c-0.482,0.01-0.96-0.088-1.398-0.287c-2.511-1.645-2.318-2.714-1.932-4.837c0.066-0.37,0.137-0.757,0.195-1.167
			c0.221-1.544,0.47-3.27,0.227-5.445c1.368,0.655,2.461,1.771,3.086,3.152c1.103,2.315,1.175,5.333,0.234,8.21
			c-0.103-0.181-0.22-0.353-0.315-0.533 M107.191,69.167c-0.494-1.335-0.826-2.724-0.992-4.138c0.013,1.44,0.197,2.875,0.547,4.272
			c0.055,0.226,0.121,0.45,0.181,0.673c-0.258-0.057-0.506-0.153-0.733-0.287c-3.152-1.851-2.597-3.875-1.831-6.671l0.111-0.41
			c0.447-1.65,0.946-3.501,0.963-5.912c1.433,0.893,2.497,2.272,2.997,3.886c0.92,2.751,0.547,6.161-0.977,9.233
			c-0.086-0.215-0.189-0.424-0.27-0.642 M45.151,60.576c0.497-1.614,1.559-2.995,2.992-3.889c0.017,2.41,0.519,4.261,0.963,5.912
			l0.111,0.41c0.768,2.797,1.321,4.817-1.828,6.671c-0.229,0.134-0.479,0.23-0.739,0.286c0.063-0.223,0.129-0.447,0.184-0.673
			c0.35-1.398,0.533-2.832,0.547-4.272c-0.166,1.414-0.499,2.803-0.992,4.138c-0.078,0.218-0.181,0.427-0.267,0.642
			c-1.524-3.072-1.9-6.482-0.977-9.233 M40.523,52.168c0.626-1.382,1.72-2.498,3.089-3.152c-0.241,2.172,0,3.897,0.227,5.444
			c0.06,0.413,0.126,0.8,0.195,1.167c0.384,2.124,0.573,3.189-1.934,4.837c-0.439,0.199-0.917,0.297-1.399,0.286
			c0.104-0.238,0.227-0.464,0.324-0.705c0.293-0.708,0.529-1.44,0.705-2.187c0.211-0.737,0.249-1.513,0.109-2.267
			c0.067,0.75-0.041,1.507-0.315,2.209c-0.245,0.709-0.547,1.396-0.906,2.055c-0.094,0.184-0.212,0.355-0.315,0.533
			c-0.94-2.866-0.86-5.895,0.235-8.21 M40.425,42.853c0.964-0.739,2.141-1.147,3.355-1.167h0.247
			c-0.874,1.326-1.57,2.76-2.072,4.267l-0.247,0.688c-0.688,1.958-1.103,3.138-3.682,3.138h-0.201
			c-0.257-0.005-0.512-0.053-0.753-0.144c0.281-0.134,0.55-0.294,0.802-0.479c0.573-0.422,1.065-0.945,1.45-1.544
			c0.192-0.291,0.364-0.594,0.513-0.908c0.143-0.318,0.255-0.645,0.384-0.963c-0.163,0.304-0.312,0.616-0.487,0.908
			c-0.179,0.289-0.378,0.565-0.596,0.825c-0.421,0.521-0.936,0.958-1.516,1.292c-0.267,0.157-0.549,0.285-0.842,0.384
			c0.473-2.643,1.797-4.963,3.631-6.305 M40.125,34.72c0.875-0.592,1.904-0.914,2.96-0.925c0.141,0,0.287,0,0.427,0.017
			c-0.878,1.198-1.597,2.504-2.141,3.886c-0.935,2.164-1.447,3.353-4.393,3.37c-0.04-0.006-0.079-0.015-0.118-0.026
			c0.098-0.061,0.201-0.115,0.287-0.178c0.596-0.401,1.153-0.859,1.662-1.367c0.49-0.51,0.943-1.146,0.971-1.869
			c-0.111,0.711-0.604,1.261-1.132,1.699c-0.543,0.437-1.126,0.82-1.742,1.146c-0.198,0.103-0.404,0.183-0.604,0.287
			c0.539-2.579,1.946-4.82,3.809-6.018 M38.265,30.912c0.445-0.271,0.911-0.506,1.393-0.705c0.616-0.243,1.26-0.407,1.917-0.487
			c-0.68-0.098-1.372-0.081-2.046,0.052c-0.186,0.043-0.373,0.106-0.559,0.161c1.016-1.273,2.401-2.201,3.966-2.654
			c1.21-0.341,2.506-0.19,3.605,0.421c-1.18,0.762-2.236,1.698-3.135,2.777c-1.058,1.178-1.823,2.029-3.35,1.911H39.97
			c-0.443-0.007-0.88-0.105-1.284-0.287c-0.291-0.184-0.532-0.436-0.705-0.733c0.089-0.155,0.186-0.301,0.287-0.45 M42.411,23.504
			c0.906-0.292,1.88-0.292,2.786,0c-0.555-0.264-1.158-0.41-1.771-0.43c-0.144,0-0.287,0.017-0.433,0.025
			c1.465-0.951,3.121-1.413,4.617-1.252c1.111,0.097,2.14,0.625,2.866,1.473c-1.218,0.255-2.391,0.692-3.479,1.295
			c-1.011,0.524-1.808,0.94-2.725,0.765h-0.032c-0.539-0.1-1.209-0.224-1.673-0.86c-0.146-0.281-0.265-0.575-0.353-0.879
			c0.069-0.058,0.141-0.104,0.212-0.161 M47.583,17.893c0.939,0.029,1.869,0.209,2.751,0.533c-0.502-0.259-1.029-0.466-1.573-0.619
			c-0.233-0.061-0.469-0.11-0.708-0.146c1.539-0.702,3.192-0.914,4.605-0.55c1.066,0.246,1.993,0.902,2.579,1.826
			c-1.224,0.087-2.428,0.358-3.571,0.805c-0.997,0.347-1.782,0.622-2.579,0.416c-0.696-0.18-1.309-0.597-1.733-1.178
			c-0.167-0.242-0.248-0.532-0.229-0.825c0.152-0.095,0.31-0.175,0.467-0.261 M53.131,13.744c0.029,0,0.061-0.02,0.089-0.032
			c0.915,0.05,1.802,0.331,2.579,0.817c-0.371-0.388-0.818-0.696-1.313-0.906c-0.162-0.062-0.326-0.115-0.493-0.16
			c1.682-0.47,3.407-0.41,4.78,0.212c1.005,0.425,1.803,1.229,2.221,2.238c-1.219-0.122-2.449-0.063-3.651,0.178
			c-0.836,0.138-1.562,0.258-2.204,0.106l0,0c-0.861-0.178-1.58-0.77-1.92-1.582c-0.112-0.272-0.141-0.571-0.083-0.86
			 M60.178,10.889c0.183,0.058,0.37,0.109,0.547,0.181c0.559,0.208,1.096,0.471,1.604,0.782c-0.517-0.446-1.096-0.815-1.719-1.095
			c1.779-0.501,3.616-0.41,5.035,0.287c0.989,0.454,1.761,1.277,2.152,2.292c-1.215-0.162-2.448-0.139-3.657,0.066
			c-0.468,0.073-0.939,0.116-1.413,0.129c-0.98,0-1.519-0.238-2.31-1.719c-0.127-0.299-0.224-0.61-0.287-0.928h0.034 M69.663,4.628
			c1.302,0.083,2.518,0.68,3.379,1.659c-1.413,0.335-2.766,0.884-4.012,1.628c-0.859,0.47-1.576,0.836-2.261,0.937
			c-0.65,0-2.006,0-2.811-0.86c-0.069-0.072-0.146-0.135-0.232-0.186c0.287-0.049,0.573-0.112,0.86-0.178
			c1.13-0.207,2.229-0.556,3.272-1.038c-1.086,0.336-2.198,0.582-3.324,0.734c-0.315,0.046-0.63,0.103-0.946,0.166
			c1.433-1.209,3.995-3.052,6.075-2.866 M61.427,3.049c1.054-0.414,2.024-1.014,2.866-1.771c0.203,0.975,0.018,1.991-0.516,2.832
			c-0.811,1.35-2.548,2.524-4.387,2.992l0.017-0.055c0.136-0.381,0.33-0.74,0.573-1.063c0.232-0.339,0.565-0.596,0.951-0.736
			C60.5,5.3,60.102,5.502,59.806,5.82c-0.232,0.252-0.433,0.532-0.596,0.833C59.161,6.528,59.12,6.4,59.086,6.27
			c-0.453-1.929,0.842-2.631,2.327-3.235 M55.054,5.703l0.075-0.055c0.768-0.545,1.473-1.174,2.104-1.874
			c0.157,0.684,0.11,1.398-0.135,2.055c-0.479,1.355-1.72,2.642-3.284,3.439c-0.053-0.058-0.099-0.121-0.138-0.189
			c0.132-0.229,0.281-0.448,0.444-0.656c0.299-0.403,0.624-0.786,0.974-1.146c-0.584,0.337-1.111,0.764-1.562,1.267
			c-0.287-1.456,0.338-1.955,1.521-2.843 M46.976,12.291c-1.201-2.227-0.438-2.958,0.822-4.167l0.287-0.287
			c0.953-0.906,1.738-1.973,2.321-3.152c0.657,0.967,0.906,2.154,0.693,3.304c-0.255,1.596-1.473,3.376-3.169,4.708
			c0.137-0.837,0.32-1.667,0.547-2.485c-0.347,0.799-0.649,1.616-0.908,2.447c-0.032,0.109-0.063,0.215-0.092,0.321
			c-0.193-0.204-0.358-0.433-0.493-0.679 M40.365,16.801c-1.167-2.135-0.573-2.906,0.616-4.439l0.181-0.232
			c0.808-0.984,1.491-2.064,2.035-3.215c0.444,0.782,0.607,1.745,0.699,2.96c0.187,2.453-1.96,4.537-2.917,5.319
			c0-0.318,0.031-0.633,0.069-0.949c0.042-0.614,0.228-1.21,0.542-1.739c-0.39,0.496-0.66,1.076-0.788,1.693
			c-0.075,0.287-0.135,0.573-0.187,0.877c-0.102-0.08-0.19-0.177-0.261-0.287 M35.857,23.231c-0.029,0-0.072-0.031-0.109-0.049
			c-0.139-0.852-0.198-1.715-0.175-2.579c-0.118,0.786-0.168,1.581-0.149,2.376c-0.023-0.02-0.043-0.029-0.072-0.055
			c-1.828-1.702-1.433-2.751-0.702-4.656l0.023-0.066c0.489-1.167,0.83-2.391,1.015-3.643c0.732,0.685,1.245,1.571,1.473,2.548
			c0.773,2.888-0.745,5.344-1.31,6.124 M32.181,32.511c-0.123-0.43-0.235-0.86-0.332-1.295c-0.202-0.78-0.273-1.587-0.209-2.39
			c-0.141,0.802-0.148,1.623-0.023,2.427c0.055,0.396,0.112,0.788,0.184,1.181c-0.053-0.02-0.103-0.049-0.146-0.086
			c-2.361-2.095-2.224-3.227-1.685-5.588c0.395-1.497,0.594-3.038,0.593-4.585c1.062,0.663,1.87,1.664,2.292,2.842
			c0.828,2.187,0.627,4.96-0.536,7.479h-0.129 M30.582,42.239c-0.303-0.407-0.581-0.833-0.831-1.275
			c-0.357-0.628-0.671-1.28-0.94-1.951c0.198,0.701,0.443,1.387,0.733,2.055c0.259,0.593,0.56,1.168,0.9,1.719
			c-0.083,0.037-0.173,0.057-0.264,0.057c-0.183-0.005-0.363-0.051-0.527-0.132c-3.112-1.433-3.129-2.949-3.152-5.444
			c0.033-1.697-0.16-3.392-0.573-5.038c1.332,0.415,2.479,1.278,3.244,2.444c1.355,1.983,1.851,4.763,1.398,7.56 M29.628,53.171
			c0.474,0.673,1.041,1.275,1.685,1.789c0.126,0.103,0.261,0.197,0.387,0.286c-0.344,0.15-0.723,0.205-1.095,0.158
			c-3.906-0.344-4.439-2.37-5.158-5.172l-0.057-0.221c-0.45-1.719-0.96-3.659-2.292-5.863c1.924-0.1,3.806,0.586,5.215,1.9
			c2.244,2.006,3.642,5.281,3.777,8.826c-0.158-0.101-0.321-0.192-0.473-0.287c-0.664-0.432-1.263-0.956-1.779-1.556
			c-0.535-0.597-0.886-1.335-1.012-2.126c0.053,0.819,0.34,1.604,0.828,2.264 M31.849,64.23c0.272,0.281,0.559,0.548,0.859,0.8
			c0.623,0.505,1.331,0.894,2.092,1.146c0.464,0.148,0.946,0.234,1.433,0.255c-0.271,0.344-0.653,0.582-1.081,0.673l-0.086,0.015
			c-0.479,0.08-0.928,0.158-1.335,0.189c-3.37,0.267-4.585-1.461-6.25-3.86c-1.146-1.639-2.444-3.49-4.729-5.295
			c1.955-0.86,4.118-0.883,6.281-0.041c3.109,1.218,5.835,4.083,7.371,7.711c-0.495,0.042-0.993,0.011-1.479-0.092
			c-0.741-0.17-1.444-0.474-2.078-0.894c-0.321-0.214-0.63-0.446-0.926-0.693l-0.833-0.816L31.849,64.23z M42.924,75.847
			c-0.444,0-0.889,0-1.33-0.051c-0.967-0.09-1.917-0.31-2.825-0.653c-0.914-0.356-1.768-0.849-2.533-1.462
			c0.724,0.68,1.547,1.245,2.441,1.677c0.906,0.426,1.865,0.729,2.851,0.899c0.344,0.058,0.688,0.086,1.035,0.121
			c-0.139,0.166-0.297,0.314-0.47,0.444c-0.996,0.725-2.209,1.088-3.439,1.028c-1.739,0-3.023-1.008-4.66-2.292
			c-1.524-1.201-3.25-2.553-5.877-3.584c1.608-1.37,3.708-2.019,5.809-1.797c3.295,0.261,6.711,2.224,9.17,5.267
			c-0.052,0.141-0.114,0.278-0.187,0.41 M96.68,76.695c-0.082,0.773-0.096,1.552-0.042,2.327c-0.385-0.225-0.747-0.485-1.083-0.777
			c-2.47-2.788-1.229-4.625,1-7.39l0.39-0.487c1.178-1.481,2.502-3.152,3.568-5.591c1.095,1.542,1.587,3.43,1.384,5.31
			c-0.261,3.029-1.972,6.147-4.623,8.542c-0.089-0.631-0.132-1.268-0.129-1.906c0.012-0.801,0.123-1.598,0.33-2.373
			c0.216-0.781,0.545-1.527,0.977-2.212c-0.502,0.651-0.905,1.372-1.198,2.141c-0.289,0.778-0.481,1.588-0.573,2.413 M64.792,57.089
			c0-0.221,0-0.418,0-0.602c-0.014-0.573,0.072-1.832,0.167-3.152c0.14-1.977,0.287-4.012,0.183-4.983
			c0.225-0.301,0.474-0.583,0.745-0.842c0.367-0.376,0.824-0.652,1.327-0.802v-0.032c-0.539,0.085-1.047,0.305-1.479,0.639
			c-0.228,0.164-0.446,0.341-0.653,0.53c-0.115-1.067-0.165-2.141-0.149-3.215c-0.106-0.883,0.344-2.614,0.524-3.207l0.023-0.132
			c0.02-2.739,0.229-3.834,0.393-4.708c0.169-0.746,0.23-1.512,0.183-2.275c-0.086-1.604,0.375-3.238,1.092-3.88
			c0.206-0.207,0.498-0.302,0.786-0.258c1.046,0.172,1.647,2.063,1.808,2.849c-0.02,0.358-0.132,2.272-0.238,3.628
			c-0.069,0.55-0.138,1.02-0.192,1.313c-0.1,0.797-0.132,1.602-0.098,2.404c-0.42-0.06-0.849-0.001-1.238,0.169
			c-0.442,0.189-0.852,0.447-1.215,0.762c0.398-0.246,0.833-0.428,1.287-0.539c0.388-0.107,0.8-0.086,1.175,0.06
			c0,0.144,0,0.287,0,0.436c0.023,1.295,0.046,2.636-0.081,3.192l-0.453,2.006l1.27-1.63c0.573-0.734,0.393-3.095,0.327-3.757
			c0-2.255,0.12-4.152,0.132-4.333c0.229-1.765,0.479-4.25,0.493-4.387v-0.069l-0.014-0.071c-0.066-0.321,0.103-1.353,0.241-1.98
			l0.026-1.479c0-0.034-0.164-3.264,0.719-5.783c0.333-0.952,0.756-1.548,1.229-1.719c0.368-0.114,0.768-0.054,1.086,0.163
			c0.287,0.161,0.536,0.759,0.716,1.195l0.229,0.533c0.075,0.768,0.098,1.541,0.069,2.313c-0.035,0.887-0.144,1.77-0.327,2.639
			c-0.143,0.055-0.29,0.101-0.438,0.138c-0.236,0.054-0.477,0.089-0.719,0.106c-0.249,0.032-0.501,0.043-0.756,0.051l-0.785,0.043
			c0.486,0.234,1.014,0.367,1.553,0.39c0.39,0.02,0.779-0.039,1.146-0.172c0.043,0.925,0.092,1.851,0.092,2.765
			c0,0.524,0,1.052-0.057,1.562c-0.018,0.252-0.048,0.504-0.092,0.753c-0.023,0.123-0.046,0.241-0.075,0.355
			c-0.021,0.075-0.045,0.148-0.074,0.221c-0.181,0.158-0.372,0.304-0.573,0.436c-0.253,0.136-0.533,0.216-0.82,0.232
			c-0.305,0.022-0.612,0.007-0.914-0.046c-0.307-0.054-0.619-0.114-0.931-0.201c0.275,0.164,0.563,0.304,0.86,0.421
			c0.313,0.11,0.64,0.182,0.971,0.212c0.353,0.037,0.709-0.005,1.043-0.123c0.141-0.053,0.272-0.125,0.393-0.215
			c0.073,0.181,0.136,0.365,0.189,0.553c0.069,0.281,0.103,0.57,0.1,0.859c-0.015,0.622-0.086,1.242-0.212,1.851
			c-0.14,0.643-0.242,1.292-0.307,1.946c-0.019,0.348-0.01,0.697,0.029,1.043c0.014,0.188,0.051,0.375,0.109,0.556
			c0.024,0.062,0.053,0.123,0.086,0.181c-0.493,0.279-0.912,0.672-1.221,1.146c0.557-0.219,1.101-0.468,1.63-0.748l0.072,0.028
			v-0.069l0.174-0.086c0.59-0.327,1.247-0.514,1.92-0.544c-0.323-0.197-0.702-0.283-1.078-0.244c-0.296,0.02-0.586,0.088-0.86,0.204
			c-0.011-0.03-0.021-0.061-0.028-0.092c-0.03-0.131-0.048-0.264-0.055-0.398c-0.011-0.302,0.002-0.604,0.038-0.903
			c0.066-0.625,0.215-1.221,0.327-1.883c0.123-0.662,0.186-1.333,0.189-2.006c-0.002-0.358-0.054-0.714-0.155-1.058
			c-0.095-0.287-0.218-0.544-0.315-0.771c0.049-0.093,0.093-0.189,0.132-0.287c0.054-0.139,0.099-0.28,0.135-0.424
			c0.066-0.275,0.118-0.553,0.155-0.834c0.06-0.548,0.086-1.099,0.081-1.65c-0.014-1.077-0.103-2.151-0.267-3.215
			c0.19-0.898,0.304-1.811,0.341-2.728c0.023-0.53,0.017-1.06,0-1.59l0.023-1.175c0.029-1.418,0.61-3.104,2.141-3.175
			c0.345-0.021,0.681,0.117,0.911,0.375c0.728,0.773,0.977,2.539,1.026,4.152c-0.041,0.524-0.041,1.051,0,1.576
			c-0.02,0.458-0.049,0.859-0.08,1.146v0.132L79.994,27c0.081,0.172,0.15,0.349,0.207,0.53c0.037,0.367,0.08,0.759,0.126,1.172
			c0,0.023,0.066,1.897,0.212,4.43c0,0.115,0,0.201-0.02,0.267l-0.367-0.124c-0.189,0.188-0.428,0.318-0.688,0.375
			c-0.313,0.096-0.634,0.171-0.958,0.224c-0.662,0.138-1.344,0.215-2.037,0.364c0.69,0.159,1.4,0.215,2.106,0.167
			c0.364-0.026,0.723-0.092,1.072-0.198c0.354-0.095,0.659-0.316,0.86-0.622v0.049c0.107,1.101,0.157,2.207,0.149,3.313
			l-0.051,3.938c-0.352-0.032-0.707,0.015-1.038,0.138c0.39,0.17,0.795,0.305,1.209,0.404l0,0v0.06
			c0.075,1.519-0.879,2.912-1.952,4.026c-1.125,1.12-2.363,2.122-3.693,2.989c-1.335,0.881-2.718,1.689-4.141,2.421
			c-1.433,0.731-2.866,1.433-4.345,2.069c3.025-1.103,5.936-2.5,8.689-4.169c1.397-0.828,2.689-1.822,3.848-2.96
			c0.586-0.583,1.09-1.245,1.496-1.966c0.407-0.716,0.6-1.533,0.556-2.355l0.167,0.046c0.198,0.053,0.385,0.138,0.556,0.252
			c-0.03-0.257-0.18-0.486-0.404-0.616c-0.023-0.015-0.049-0.021-0.072-0.038c0-0.221,0.075-2.255,0.058-4.298l0.02-1.49
			c-0.052-0.771-0.101-1.519-0.138-2.212c0.074-1.108,0.189-3.903-0.355-5.788c-0.072-0.708-0.126-1.313-0.154-1.834
			c0.014-0.418,0.023-0.912,0-1.433c0.025-0.762,0.381-1.475,0.974-1.954c0.573-0.49,0.659-0.553,1.877-0.207
			c0.859,0.247,1.413,3.505,1.418,6.382v0.138l0.078,0.117c1.398,2.126,1,6.955,0.997,7.003v0.101l0.031,0.095
			c1.146,3.327,0.229,7.227,0.221,7.267l-0.043,0.178l0.086,0.158c0.424,0.759,1.464,4.393,1.843,5.786
			c-0.178,0.161-0.336,0.343-0.47,0.542c-0.214,0.309-0.372,0.653-0.467,1.017c-0.084,0.36-0.13,0.728-0.134,1.098
			c0,0.287,0,0.573,0,0.86c-0.131,0.059-0.254,0.136-0.364,0.229c-0.153,0.14-0.288,0.297-0.401,0.47
			c-0.224,0.328-0.373,0.7-0.438,1.092c0.197-0.312,0.446-0.587,0.736-0.814c0.138-0.108,0.284-0.204,0.438-0.287l0.421-0.218
			l0.247-0.132l-0.041-0.201c-0.091-0.322-0.131-0.657-0.12-0.991c0.022-0.329,0.084-0.653,0.186-0.966
			c0.1-0.306,0.231-0.601,0.393-0.88c0.085-0.135,0.181-0.264,0.286-0.384c0.819-0.679,1.743-1.324,2.823-1.559
			c-0.583,0.054-1.152,0.207-1.685,0.45c-0.187,0.081-0.361,0.172-0.536,0.264l-0.484-1.957c-0.221-0.885,0.521-3.783,0.679-4.229
			c0.258-0.714,1.224-1.198,1.968-1.238c0.287-0.017,0.651,0.038,0.751,0.244c0.33,0.679,0.479,3.281,0.493,4.766l0.045,0.195
			c0,0,0.247,0.519,0.573,1.307c0.132,0.324,0.015,1.212-0.097,2.072c-0.153,0.992-0.234,1.994-0.244,2.998c0,0.622,0,1,0,1.284
			c0,0.754-0.014,0.86,0.25,2.949c0.287,2.238-0.43,3.617-1.118,4.946c-0.135,0.261-0.267,0.516-0.387,0.768
			c-0.307,0.551-0.678,1.063-1.106,1.524c-1.597,1.829-2.874,3.915-3.774,6.169c-2.029,4.872-2.209,11.093-2.218,11.463H68.551
			l0.086-4.625c0.144-7.043-0.542-8.832-0.859-9.276c-3.015-6.66-2.978-9.522-2.958-11.064 M51.736,70.087
			c-0.203-1.88,0.29-3.769,1.384-5.31c1.069,2.45,2.39,4.109,3.57,5.591l0.39,0.487c2.229,2.765,3.474,4.602,1,7.39
			c-0.336,0.292-0.698,0.552-1.083,0.777c0.053-0.775,0.039-1.554-0.043-2.327c-0.091-0.825-0.283-1.635-0.573-2.413
			c-0.292-0.768-0.696-1.489-1.198-2.141c0.431,0.686,0.76,1.431,0.978,2.212c0.206,0.774,0.317,1.571,0.329,2.373
			c0.004,0.637-0.04,1.274-0.128,1.906c-2.651-2.396-4.365-5.514-4.623-8.542 M44.047,79.616c2.895,0.052,5.721,0.891,8.176,2.427
			H37.228c1.673-1.564,4.04-2.427,6.789-2.427 M64.302,126.775h-4.729v-12.242c0.546-0.922,0.973-1.91,1.27-2.94
			c0.271-0.121,0.563-0.184,0.86-0.183h0.467c1.176,0,2.13,0.953,2.132,2.129V126.775z M59.106,115.27v11.506h-1.926v-9.299
			c0.723-0.656,1.369-1.393,1.926-2.195 M48.621,119.889c-6.514,0.001-11.796-5.278-11.798-11.792
			c-0.001-6.514,5.278-11.796,11.792-11.797c6.514-0.002,11.796,5.278,11.798,11.792c0,0.001,0,0.001,0,0.003
			C60.405,114.604,55.131,119.879,48.621,119.889 M56.716,117.883v8.883h-4.734v-6.411c1.732-0.472,3.344-1.307,4.728-2.45
			 M71.878,126.79H67.15v-13.251c0.003-1.175,0.957-2.127,2.132-2.129h0.467c1.175,0.001,2.128,0.954,2.129,2.129V126.79z
			 M79.464,126.79h-4.729v-13.251c0.003-1.175,0.957-2.127,2.132-2.129h0.467c1.177,0,2.132,0.952,2.135,2.129L79.464,126.79z
			 M87.046,126.79h-4.731v-13.251c0.003-1.177,0.958-2.129,2.135-2.129h0.467c1.176,0,2.13,0.953,2.132,2.129L87.046,126.79z
			 M102.214,120.27v6.52h-4.726v-9.17c1.366,1.216,2.979,2.123,4.729,2.656 M94.104,108.091c0-6.514,5.281-11.795,11.795-11.795
			s11.795,5.281,11.795,11.795s-5.281,11.795-11.795,11.795C99.388,119.88,94.11,114.603,94.104,108.091 M94.631,113.98v12.804
			h-4.728v-13.245c0.001-1.176,0.956-2.129,2.132-2.129h0.467c0.443,0,0.874,0.139,1.232,0.398c0.232,0.751,0.532,1.479,0.897,2.175
			 M95.096,114.78c0.543,0.878,1.189,1.688,1.926,2.413v9.597h-1.926V114.78z M120.505,108.12
			c-0.008,7.728-6.271,13.991-13.999,13.999c-0.364,0-0.745-0.018-1.244-0.063l-1.083-0.094v4.829h-1.499v-6.405
			c6.829,1.817,13.838-2.246,15.655-9.075s-2.246-13.838-9.075-15.655s-13.838,2.246-15.655,9.075
			c-0.563,2.114-0.574,4.337-0.032,6.456c-0.336-0.155-0.702-0.236-1.072-0.238h-0.467c-1.432,0.003-2.591,1.162-2.596,2.593v13.248
			H87.51v-13.251c-0.005-1.43-1.163-2.588-2.593-2.593H84.45c-1.432,0.003-2.591,1.162-2.596,2.593v13.248h-1.926v-13.248
			c-0.003-1.432-1.164-2.592-2.596-2.593h-0.467c-1.431,0.003-2.59,1.162-2.594,2.593v13.248h-1.928v-13.248
			c-0.005-1.424-1.154-2.581-2.579-2.593h-0.467c-1.43,0.005-2.588,1.163-2.593,2.593v13.248h-1.94v-13.248
			c-0.005-1.431-1.165-2.59-2.596-2.593H61.7c-0.247,0.002-0.491,0.043-0.725,0.121c1.673-6.856-2.529-13.77-9.385-15.443
			c-6.856-1.672-13.77,2.529-15.442,9.385c-1.673,6.856,2.529,13.77,9.385,15.442c1.966,0.48,4.018,0.486,5.986,0.018v6.319h-1.355
			v-4.809l-1.075,0.083c-0.355,0.029-0.725,0.054-1.083,0.054c-7.73,0.111-14.087-6.066-14.197-13.797
			c-0.111-7.73,6.066-14.086,13.797-14.197c0.133-0.002,0.267-0.002,0.4,0h58.501C114.234,94.129,120.497,100.392,120.505,108.12
			 M45.133,93.419v-6.173h64.25v6.173c-0.944-0.187-1.904-0.283-2.866-0.287h-58.51c-0.962,0.004-1.922,0.1-2.866,0.287
			 M109.584,79.639c2.748,0,5.118,0.859,6.786,2.427h-14.973c2.456-1.536,5.283-2.375,8.179-2.427 M119.783,86.275H34.734v-3.296
			h85.049V86.275z M119.677,70.188c2.1-0.223,4.199,0.427,5.806,1.797c-2.625,1.032-4.347,2.384-5.88,3.591
			c-1.631,1.281-2.917,2.292-4.657,2.292c-1.23,0.06-2.443-0.303-3.438-1.029c-0.173-0.13-0.329-0.279-0.467-0.444
			c0.344-0.034,0.69-0.063,1.031-0.12c0.991-0.17,1.956-0.473,2.866-0.9c0.894-0.432,1.716-0.997,2.439-1.676
			c-0.764,0.613-1.618,1.106-2.53,1.461c-0.908,0.344-1.857,0.563-2.823,0.654c-0.444,0.04-0.888,0.051-1.333,0.051
			c-0.071-0.132-0.133-0.269-0.187-0.41c2.462-3.041,5.877-5.006,9.17-5.267 M126.119,63.476c-1.677,2.393-2.866,4.124-6.247,3.854
			c-0.41-0.031-0.86-0.109-1.433-0.204c-0.426-0.094-0.806-0.332-1.078-0.673c0.487-0.021,0.969-0.106,1.433-0.255
			c0.762-0.252,1.472-0.641,2.095-1.146c0.301-0.25,0.588-0.517,0.86-0.799l0.753-0.9l-0.834,0.817
			c-0.296,0.247-0.605,0.479-0.926,0.693c-0.633,0.42-1.337,0.723-2.078,0.894c-0.486,0.103-0.985,0.133-1.481,0.092
			c1.536-3.625,4.264-6.494,7.374-7.711c2.158-0.842,4.324-0.828,6.279,0.04c-2.292,1.803-3.58,3.654-4.731,5.302"/>
	</g>
</g>
</svg>